<?xml version="1.0" encoding="utf-8" standalone="no"?>
<!DOCTYPE svg PUBLIC "-//W3C//DTD SVG 1.1//EN"
  "http://www.w3.org/Graphics/SVG/1.1/DTD/svg11.dtd">
<svg xmlns:xlink="http://www.w3.org/1999/xlink" width="460.8pt" height="345.6pt" viewBox="0 0 460.8 345.6" xmlns="http://www.w3.org/2000/svg" version="1.1">
 <metadata>
  <rdf:RDF xmlns:dc="http://purl.org/dc/elements/1.1/" xmlns:cc="http://creativecommons.org/ns#" xmlns:rdf="http://www.w3.org/1999/02/22-rdf-syntax-ns#">
   <cc:Work>
    <dc:type rdf:resource="http://purl.org/dc/dcmitype/StillImage"/>
    <dc:date>2023-10-23T23:33:54.638270</dc:date>
    <dc:format>image/svg+xml</dc:format>
    <dc:creator>
     <cc:Agent>
      <dc:title>Matplotlib v3.6.2, https://matplotlib.org/</dc:title>
     </cc:Agent>
    </dc:creator>
   </cc:Work>
  </rdf:RDF>
 </metadata>
 <defs>
  <style type="text/css">*{stroke-linejoin: round; stroke-linecap: butt}</style>
 </defs>
 <g id="figure_1">
  <g id="patch_1">
   <path d="M 0 345.6 
L 460.8 345.6 
L 460.8 0 
L 0 0 
z
" style="fill: #ffffff"/>
  </g>
  <g id="axes_1">
   <g id="patch_2">
    <path d="M 57.6 307.584 
L 414.72 307.584 
L 414.72 41.472 
L 57.6 41.472 
z
" style="fill: #ffffff"/>
   </g>
   <g id="matplotlib.axis_1">
    <g id="xtick_1">
     <g id="line2d_1">
      <defs>
       <path id="m0db7521aab" d="M 0 0 
L 0 3.5 
" style="stroke: #000000; stroke-width: 0.8"/>
      </defs>
      <g>
       <use xlink:href="#m0db7521aab" x="57.6" y="307.584" style="stroke: #000000; stroke-width: 0.8"/>
      </g>
     </g>
     <g id="text_1">
      <!-- 0.0 -->
      <g transform="translate(49.648438 322.182437) scale(0.1 -0.1)">
       <defs>
        <path id="DejaVuSans-30" d="M 2034 4250 
Q 1547 4250 1301 3770 
Q 1056 3291 1056 2328 
Q 1056 1369 1301 889 
Q 1547 409 2034 409 
Q 2525 409 2770 889 
Q 3016 1369 3016 2328 
Q 3016 3291 2770 3770 
Q 2525 4250 2034 4250 
z
M 2034 4750 
Q 2819 4750 3233 4129 
Q 3647 3509 3647 2328 
Q 3647 1150 3233 529 
Q 2819 -91 2034 -91 
Q 1250 -91 836 529 
Q 422 1150 422 2328 
Q 422 3509 836 4129 
Q 1250 4750 2034 4750 
z
" transform="scale(0.015625)"/>
        <path id="DejaVuSans-2e" d="M 684 794 
L 1344 794 
L 1344 0 
L 684 0 
L 684 794 
z
" transform="scale(0.015625)"/>
       </defs>
       <use xlink:href="#DejaVuSans-30"/>
       <use xlink:href="#DejaVuSans-2e" x="63.623047"/>
       <use xlink:href="#DejaVuSans-30" x="95.410156"/>
      </g>
     </g>
    </g>
    <g id="xtick_2">
     <g id="line2d_2">
      <g>
       <use xlink:href="#m0db7521aab" x="101.15122" y="307.584" style="stroke: #000000; stroke-width: 0.8"/>
      </g>
     </g>
     <g id="text_2">
      <!-- 0.5 -->
      <g transform="translate(93.199657 322.182437) scale(0.1 -0.1)">
       <defs>
        <path id="DejaVuSans-35" d="M 691 4666 
L 3169 4666 
L 3169 4134 
L 1269 4134 
L 1269 2991 
Q 1406 3038 1543 3061 
Q 1681 3084 1819 3084 
Q 2600 3084 3056 2656 
Q 3513 2228 3513 1497 
Q 3513 744 3044 326 
Q 2575 -91 1722 -91 
Q 1428 -91 1123 -41 
Q 819 9 494 109 
L 494 744 
Q 775 591 1075 516 
Q 1375 441 1709 441 
Q 2250 441 2565 725 
Q 2881 1009 2881 1497 
Q 2881 1984 2565 2268 
Q 2250 2553 1709 2553 
Q 1456 2553 1204 2497 
Q 953 2441 691 2322 
L 691 4666 
z
" transform="scale(0.015625)"/>
       </defs>
       <use xlink:href="#DejaVuSans-30"/>
       <use xlink:href="#DejaVuSans-2e" x="63.623047"/>
       <use xlink:href="#DejaVuSans-35" x="95.410156"/>
      </g>
     </g>
    </g>
    <g id="xtick_3">
     <g id="line2d_3">
      <g>
       <use xlink:href="#m0db7521aab" x="144.702439" y="307.584" style="stroke: #000000; stroke-width: 0.8"/>
      </g>
     </g>
     <g id="text_3">
      <!-- 1.0 -->
      <g transform="translate(136.750877 322.182437) scale(0.1 -0.1)">
       <defs>
        <path id="DejaVuSans-31" d="M 794 531 
L 1825 531 
L 1825 4091 
L 703 3866 
L 703 4441 
L 1819 4666 
L 2450 4666 
L 2450 531 
L 3481 531 
L 3481 0 
L 794 0 
L 794 531 
z
" transform="scale(0.015625)"/>
       </defs>
       <use xlink:href="#DejaVuSans-31"/>
       <use xlink:href="#DejaVuSans-2e" x="63.623047"/>
       <use xlink:href="#DejaVuSans-30" x="95.410156"/>
      </g>
     </g>
    </g>
    <g id="xtick_4">
     <g id="line2d_4">
      <g>
       <use xlink:href="#m0db7521aab" x="188.253659" y="307.584" style="stroke: #000000; stroke-width: 0.8"/>
      </g>
     </g>
     <g id="text_4">
      <!-- 1.5 -->
      <g transform="translate(180.302096 322.182437) scale(0.1 -0.1)">
       <use xlink:href="#DejaVuSans-31"/>
       <use xlink:href="#DejaVuSans-2e" x="63.623047"/>
       <use xlink:href="#DejaVuSans-35" x="95.410156"/>
      </g>
     </g>
    </g>
    <g id="xtick_5">
     <g id="line2d_5">
      <g>
       <use xlink:href="#m0db7521aab" x="231.804878" y="307.584" style="stroke: #000000; stroke-width: 0.8"/>
      </g>
     </g>
     <g id="text_5">
      <!-- 2.0 -->
      <g transform="translate(223.853316 322.182437) scale(0.1 -0.1)">
       <defs>
        <path id="DejaVuSans-32" d="M 1228 531 
L 3431 531 
L 3431 0 
L 469 0 
L 469 531 
Q 828 903 1448 1529 
Q 2069 2156 2228 2338 
Q 2531 2678 2651 2914 
Q 2772 3150 2772 3378 
Q 2772 3750 2511 3984 
Q 2250 4219 1831 4219 
Q 1534 4219 1204 4116 
Q 875 4013 500 3803 
L 500 4441 
Q 881 4594 1212 4672 
Q 1544 4750 1819 4750 
Q 2544 4750 2975 4387 
Q 3406 4025 3406 3419 
Q 3406 3131 3298 2873 
Q 3191 2616 2906 2266 
Q 2828 2175 2409 1742 
Q 1991 1309 1228 531 
z
" transform="scale(0.015625)"/>
       </defs>
       <use xlink:href="#DejaVuSans-32"/>
       <use xlink:href="#DejaVuSans-2e" x="63.623047"/>
       <use xlink:href="#DejaVuSans-30" x="95.410156"/>
      </g>
     </g>
    </g>
    <g id="xtick_6">
     <g id="line2d_6">
      <g>
       <use xlink:href="#m0db7521aab" x="275.356098" y="307.584" style="stroke: #000000; stroke-width: 0.8"/>
      </g>
     </g>
     <g id="text_6">
      <!-- 2.5 -->
      <g transform="translate(267.404535 322.182437) scale(0.1 -0.1)">
       <use xlink:href="#DejaVuSans-32"/>
       <use xlink:href="#DejaVuSans-2e" x="63.623047"/>
       <use xlink:href="#DejaVuSans-35" x="95.410156"/>
      </g>
     </g>
    </g>
    <g id="xtick_7">
     <g id="line2d_7">
      <g>
       <use xlink:href="#m0db7521aab" x="318.907317" y="307.584" style="stroke: #000000; stroke-width: 0.8"/>
      </g>
     </g>
     <g id="text_7">
      <!-- 3.0 -->
      <g transform="translate(310.955755 322.182437) scale(0.1 -0.1)">
       <defs>
        <path id="DejaVuSans-33" d="M 2597 2516 
Q 3050 2419 3304 2112 
Q 3559 1806 3559 1356 
Q 3559 666 3084 287 
Q 2609 -91 1734 -91 
Q 1441 -91 1130 -33 
Q 819 25 488 141 
L 488 750 
Q 750 597 1062 519 
Q 1375 441 1716 441 
Q 2309 441 2620 675 
Q 2931 909 2931 1356 
Q 2931 1769 2642 2001 
Q 2353 2234 1838 2234 
L 1294 2234 
L 1294 2753 
L 1863 2753 
Q 2328 2753 2575 2939 
Q 2822 3125 2822 3475 
Q 2822 3834 2567 4026 
Q 2313 4219 1838 4219 
Q 1578 4219 1281 4162 
Q 984 4106 628 3988 
L 628 4550 
Q 988 4650 1302 4700 
Q 1616 4750 1894 4750 
Q 2613 4750 3031 4423 
Q 3450 4097 3450 3541 
Q 3450 3153 3228 2886 
Q 3006 2619 2597 2516 
z
" transform="scale(0.015625)"/>
       </defs>
       <use xlink:href="#DejaVuSans-33"/>
       <use xlink:href="#DejaVuSans-2e" x="63.623047"/>
       <use xlink:href="#DejaVuSans-30" x="95.410156"/>
      </g>
     </g>
    </g>
    <g id="xtick_8">
     <g id="line2d_8">
      <g>
       <use xlink:href="#m0db7521aab" x="362.458537" y="307.584" style="stroke: #000000; stroke-width: 0.8"/>
      </g>
     </g>
     <g id="text_8">
      <!-- 3.5 -->
      <g transform="translate(354.506974 322.182437) scale(0.1 -0.1)">
       <use xlink:href="#DejaVuSans-33"/>
       <use xlink:href="#DejaVuSans-2e" x="63.623047"/>
       <use xlink:href="#DejaVuSans-35" x="95.410156"/>
      </g>
     </g>
    </g>
    <g id="xtick_9">
     <g id="line2d_9">
      <g>
       <use xlink:href="#m0db7521aab" x="406.009756" y="307.584" style="stroke: #000000; stroke-width: 0.8"/>
      </g>
     </g>
     <g id="text_9">
      <!-- 4.0 -->
      <g transform="translate(398.058194 322.182437) scale(0.1 -0.1)">
       <defs>
        <path id="DejaVuSans-34" d="M 2419 4116 
L 825 1625 
L 2419 1625 
L 2419 4116 
z
M 2253 4666 
L 3047 4666 
L 3047 1625 
L 3713 1625 
L 3713 1100 
L 3047 1100 
L 3047 0 
L 2419 0 
L 2419 1100 
L 313 1100 
L 313 1709 
L 2253 4666 
z
" transform="scale(0.015625)"/>
       </defs>
       <use xlink:href="#DejaVuSans-34"/>
       <use xlink:href="#DejaVuSans-2e" x="63.623047"/>
       <use xlink:href="#DejaVuSans-30" x="95.410156"/>
      </g>
     </g>
    </g>
    <g id="text_10">
     <!-- $\beta$ -->
     <g transform="translate(232.96 335.962125) scale(0.1 -0.1)">
      <defs>
       <path id="DejaVuSans-Oblique-3b2" d="M 872 216 
L 572 -1331 
L -6 -1331 
L 928 3478 
Q 1206 4903 2538 4903 
Q 3888 4903 3659 3700 
Q 3503 2844 2894 2531 
Q 3713 2250 3553 1416 
Q 3272 -69 1759 -66 
Q 1097 -63 872 216 
z
M 1019 966 
Q 1259 422 1875 425 
Q 2775 425 2966 1406 
Q 3138 2288 1675 2219 
L 1778 2750 
Q 2909 2731 3106 3750 
Q 3241 4438 2509 4434 
Q 1691 4434 1503 3459 
L 1019 966 
z
" transform="scale(0.015625)"/>
      </defs>
      <use xlink:href="#DejaVuSans-Oblique-3b2" transform="translate(0 0.390625)"/>
     </g>
    </g>
   </g>
   <g id="matplotlib.axis_2">
    <g id="ytick_1">
     <g id="line2d_10">
      <defs>
       <path id="m1c89bb1bdf" d="M 0 0 
L -3.5 0 
" style="stroke: #000000; stroke-width: 0.8"/>
      </defs>
      <g>
       <use xlink:href="#m1c89bb1bdf" x="57.6" y="295.488" style="stroke: #000000; stroke-width: 0.8"/>
      </g>
     </g>
     <g id="text_11">
      <!-- 0.0 -->
      <g transform="translate(34.696875 299.287219) scale(0.1 -0.1)">
       <use xlink:href="#DejaVuSans-30"/>
       <use xlink:href="#DejaVuSans-2e" x="63.623047"/>
       <use xlink:href="#DejaVuSans-30" x="95.410156"/>
      </g>
     </g>
    </g>
    <g id="ytick_2">
     <g id="line2d_11">
      <g>
       <use xlink:href="#m1c89bb1bdf" x="57.6" y="242.040059" style="stroke: #000000; stroke-width: 0.8"/>
      </g>
     </g>
     <g id="text_12">
      <!-- 0.2 -->
      <g transform="translate(34.696875 245.839278) scale(0.1 -0.1)">
       <use xlink:href="#DejaVuSans-30"/>
       <use xlink:href="#DejaVuSans-2e" x="63.623047"/>
       <use xlink:href="#DejaVuSans-32" x="95.410156"/>
      </g>
     </g>
    </g>
    <g id="ytick_3">
     <g id="line2d_12">
      <g>
       <use xlink:href="#m1c89bb1bdf" x="57.6" y="188.592118" style="stroke: #000000; stroke-width: 0.8"/>
      </g>
     </g>
     <g id="text_13">
      <!-- 0.4 -->
      <g transform="translate(34.696875 192.391337) scale(0.1 -0.1)">
       <use xlink:href="#DejaVuSans-30"/>
       <use xlink:href="#DejaVuSans-2e" x="63.623047"/>
       <use xlink:href="#DejaVuSans-34" x="95.410156"/>
      </g>
     </g>
    </g>
    <g id="ytick_4">
     <g id="line2d_13">
      <g>
       <use xlink:href="#m1c89bb1bdf" x="57.6" y="135.144178" style="stroke: #000000; stroke-width: 0.8"/>
      </g>
     </g>
     <g id="text_14">
      <!-- 0.6 -->
      <g transform="translate(34.696875 138.943396) scale(0.1 -0.1)">
       <defs>
        <path id="DejaVuSans-36" d="M 2113 2584 
Q 1688 2584 1439 2293 
Q 1191 2003 1191 1497 
Q 1191 994 1439 701 
Q 1688 409 2113 409 
Q 2538 409 2786 701 
Q 3034 994 3034 1497 
Q 3034 2003 2786 2293 
Q 2538 2584 2113 2584 
z
M 3366 4563 
L 3366 3988 
Q 3128 4100 2886 4159 
Q 2644 4219 2406 4219 
Q 1781 4219 1451 3797 
Q 1122 3375 1075 2522 
Q 1259 2794 1537 2939 
Q 1816 3084 2150 3084 
Q 2853 3084 3261 2657 
Q 3669 2231 3669 1497 
Q 3669 778 3244 343 
Q 2819 -91 2113 -91 
Q 1303 -91 875 529 
Q 447 1150 447 2328 
Q 447 3434 972 4092 
Q 1497 4750 2381 4750 
Q 2619 4750 2861 4703 
Q 3103 4656 3366 4563 
z
" transform="scale(0.015625)"/>
       </defs>
       <use xlink:href="#DejaVuSans-30"/>
       <use xlink:href="#DejaVuSans-2e" x="63.623047"/>
       <use xlink:href="#DejaVuSans-36" x="95.410156"/>
      </g>
     </g>
    </g>
    <g id="ytick_5">
     <g id="line2d_14">
      <g>
       <use xlink:href="#m1c89bb1bdf" x="57.6" y="81.696237" style="stroke: #000000; stroke-width: 0.8"/>
      </g>
     </g>
     <g id="text_15">
      <!-- 0.8 -->
      <g transform="translate(34.696875 85.495456) scale(0.1 -0.1)">
       <defs>
        <path id="DejaVuSans-38" d="M 2034 2216 
Q 1584 2216 1326 1975 
Q 1069 1734 1069 1313 
Q 1069 891 1326 650 
Q 1584 409 2034 409 
Q 2484 409 2743 651 
Q 3003 894 3003 1313 
Q 3003 1734 2745 1975 
Q 2488 2216 2034 2216 
z
M 1403 2484 
Q 997 2584 770 2862 
Q 544 3141 544 3541 
Q 544 4100 942 4425 
Q 1341 4750 2034 4750 
Q 2731 4750 3128 4425 
Q 3525 4100 3525 3541 
Q 3525 3141 3298 2862 
Q 3072 2584 2669 2484 
Q 3125 2378 3379 2068 
Q 3634 1759 3634 1313 
Q 3634 634 3220 271 
Q 2806 -91 2034 -91 
Q 1263 -91 848 271 
Q 434 634 434 1313 
Q 434 1759 690 2068 
Q 947 2378 1403 2484 
z
M 1172 3481 
Q 1172 3119 1398 2916 
Q 1625 2713 2034 2713 
Q 2441 2713 2670 2916 
Q 2900 3119 2900 3481 
Q 2900 3844 2670 4047 
Q 2441 4250 2034 4250 
Q 1625 4250 1398 4047 
Q 1172 3844 1172 3481 
z
" transform="scale(0.015625)"/>
       </defs>
       <use xlink:href="#DejaVuSans-30"/>
       <use xlink:href="#DejaVuSans-2e" x="63.623047"/>
       <use xlink:href="#DejaVuSans-38" x="95.410156"/>
      </g>
     </g>
    </g>
    <g id="text_16">
     <!-- $e$ -->
     <g transform="translate(28.617188 177.628) rotate(-90) scale(0.1 -0.1)">
      <defs>
       <path id="DejaVuSans-Oblique-65" d="M 3078 2063 
Q 3088 2113 3092 2166 
Q 3097 2219 3097 2272 
Q 3097 2653 2873 2875 
Q 2650 3097 2266 3097 
Q 1838 3097 1509 2826 
Q 1181 2556 1013 2059 
L 3078 2063 
z
M 3578 1613 
L 903 1613 
Q 884 1494 878 1425 
Q 872 1356 872 1306 
Q 872 872 1139 634 
Q 1406 397 1894 397 
Q 2269 397 2603 481 
Q 2938 566 3225 728 
L 3116 159 
Q 2806 34 2476 -28 
Q 2147 -91 1806 -91 
Q 1078 -91 686 257 
Q 294 606 294 1247 
Q 294 1794 489 2264 
Q 684 2734 1063 3103 
Q 1306 3334 1642 3459 
Q 1978 3584 2356 3584 
Q 2950 3584 3301 3228 
Q 3653 2872 3653 2272 
Q 3653 2128 3634 1964 
Q 3616 1800 3578 1613 
z
" transform="scale(0.015625)"/>
      </defs>
      <use xlink:href="#DejaVuSans-Oblique-65"/>
     </g>
    </g>
   </g>
   <g id="LineCollection_1">
    <path d="M 66.310244 282.487984 
L 66.310244 281.98463 
" clip-path="url(#p6d2510e6ae)" style="fill: none; stroke: #000000; stroke-width: 1.5"/>
    <path d="M 75.020488 268.677648 
L 75.020488 268.19249 
" clip-path="url(#p6d2510e6ae)" style="fill: none; stroke: #000000; stroke-width: 1.5"/>
    <path d="M 83.730732 254.63501 
L 83.730732 254.10579 
" clip-path="url(#p6d2510e6ae)" style="fill: none; stroke: #000000; stroke-width: 1.5"/>
    <path d="M 92.440976 239.559559 
L 92.440976 238.931587 
" clip-path="url(#p6d2510e6ae)" style="fill: none; stroke: #000000; stroke-width: 1.5"/>
    <path d="M 101.15122 223.5611 
L 101.15122 222.920299 
" clip-path="url(#p6d2510e6ae)" style="fill: none; stroke: #000000; stroke-width: 1.5"/>
    <path d="M 109.861463 207.7195 
L 109.861463 207.028823 
" clip-path="url(#p6d2510e6ae)" style="fill: none; stroke: #000000; stroke-width: 1.5"/>
    <path d="M 118.571707 189.97584 
L 118.571707 189.088293 
" clip-path="url(#p6d2510e6ae)" style="fill: none; stroke: #000000; stroke-width: 1.5"/>
    <path d="M 127.281951 173.194834 
L 127.281951 172.183002 
" clip-path="url(#p6d2510e6ae)" style="fill: none; stroke: #000000; stroke-width: 1.5"/>
    <path d="M 135.992195 156.044356 
L 135.992195 154.690819 
" clip-path="url(#p6d2510e6ae)" style="fill: none; stroke: #000000; stroke-width: 1.5"/>
    <path d="M 144.702439 139.739625 
L 144.702439 138.706677 
" clip-path="url(#p6d2510e6ae)" style="fill: none; stroke: #000000; stroke-width: 1.5"/>
    <path d="M 153.412683 128.085968 
L 153.412683 126.683695 
" clip-path="url(#p6d2510e6ae)" style="fill: none; stroke: #000000; stroke-width: 1.5"/>
    <path d="M 162.122927 118.274799 
L 162.122927 117.341921 
" clip-path="url(#p6d2510e6ae)" style="fill: none; stroke: #000000; stroke-width: 1.5"/>
    <path d="M 170.833171 110.912917 
L 170.833171 110.075044 
" clip-path="url(#p6d2510e6ae)" style="fill: none; stroke: #000000; stroke-width: 1.5"/>
    <path d="M 179.543415 104.418357 
L 179.543415 103.820157 
" clip-path="url(#p6d2510e6ae)" style="fill: none; stroke: #000000; stroke-width: 1.5"/>
    <path d="M 188.253659 99.614919 
L 188.253659 98.735648 
" clip-path="url(#p6d2510e6ae)" style="fill: none; stroke: #000000; stroke-width: 1.5"/>
    <path d="M 196.963902 93.979755 
L 196.963902 93.370965 
" clip-path="url(#p6d2510e6ae)" style="fill: none; stroke: #000000; stroke-width: 1.5"/>
    <path d="M 205.674146 90.762561 
L 205.674146 90.173536 
" clip-path="url(#p6d2510e6ae)" style="fill: none; stroke: #000000; stroke-width: 1.5"/>
    <path d="M 214.38439 86.596694 
L 214.38439 85.993417 
" clip-path="url(#p6d2510e6ae)" style="fill: none; stroke: #000000; stroke-width: 1.5"/>
    <path d="M 223.094634 83.206616 
L 223.094634 82.63413 
" clip-path="url(#p6d2510e6ae)" style="fill: none; stroke: #000000; stroke-width: 1.5"/>
    <path d="M 231.804878 80.615252 
L 231.804878 80.143914 
" clip-path="url(#p6d2510e6ae)" style="fill: none; stroke: #000000; stroke-width: 1.5"/>
    <path d="M 240.515122 77.760933 
L 240.515122 77.288276 
" clip-path="url(#p6d2510e6ae)" style="fill: none; stroke: #000000; stroke-width: 1.5"/>
    <path d="M 249.225366 75.656615 
L 249.225366 75.065661 
" clip-path="url(#p6d2510e6ae)" style="fill: none; stroke: #000000; stroke-width: 1.5"/>
    <path d="M 257.93561 73.198747 
L 257.93561 72.802634 
" clip-path="url(#p6d2510e6ae)" style="fill: none; stroke: #000000; stroke-width: 1.5"/>
    <path d="M 266.645854 71.289081 
L 266.645854 70.947801 
" clip-path="url(#p6d2510e6ae)" style="fill: none; stroke: #000000; stroke-width: 1.5"/>
    <path d="M 275.356098 69.046028 
L 275.356098 68.789387 
" clip-path="url(#p6d2510e6ae)" style="fill: none; stroke: #000000; stroke-width: 1.5"/>
    <path d="M 284.066341 68.14301 
L 284.066341 67.656313 
" clip-path="url(#p6d2510e6ae)" style="fill: none; stroke: #000000; stroke-width: 1.5"/>
    <path d="M 292.776585 66.301845 
L 292.776585 65.833597 
" clip-path="url(#p6d2510e6ae)" style="fill: none; stroke: #000000; stroke-width: 1.5"/>
    <path d="M 301.486829 65.1849 
L 301.486829 64.778671 
" clip-path="url(#p6d2510e6ae)" style="fill: none; stroke: #000000; stroke-width: 1.5"/>
    <path d="M 310.197073 64.151879 
L 310.197073 63.751055 
" clip-path="url(#p6d2510e6ae)" style="fill: none; stroke: #000000; stroke-width: 1.5"/>
    <path d="M 318.907317 62.222741 
L 318.907317 61.751791 
" clip-path="url(#p6d2510e6ae)" style="fill: none; stroke: #000000; stroke-width: 1.5"/>
    <path d="M 327.617561 61.376653 
L 327.617561 61.084108 
" clip-path="url(#p6d2510e6ae)" style="fill: none; stroke: #000000; stroke-width: 1.5"/>
    <path d="M 336.327805 60.046567 
L 336.327805 59.809911 
" clip-path="url(#p6d2510e6ae)" style="fill: none; stroke: #000000; stroke-width: 1.5"/>
    <path d="M 345.038049 59.270068 
L 345.038049 58.978434 
" clip-path="url(#p6d2510e6ae)" style="fill: none; stroke: #000000; stroke-width: 1.5"/>
    <path d="M 353.748293 58.377571 
L 353.748293 58.095795 
" clip-path="url(#p6d2510e6ae)" style="fill: none; stroke: #000000; stroke-width: 1.5"/>
    <path d="M 362.458537 57.848415 
L 362.458537 57.521958 
" clip-path="url(#p6d2510e6ae)" style="fill: none; stroke: #000000; stroke-width: 1.5"/>
    <path d="M 371.16878 56.413707 
L 371.16878 56.106914 
" clip-path="url(#p6d2510e6ae)" style="fill: none; stroke: #000000; stroke-width: 1.5"/>
    <path d="M 379.879024 55.901429 
L 379.879024 55.259578 
" clip-path="url(#p6d2510e6ae)" style="fill: none; stroke: #000000; stroke-width: 1.5"/>
    <path d="M 388.589268 55.346432 
L 388.589268 55.059475 
" clip-path="url(#p6d2510e6ae)" style="fill: none; stroke: #000000; stroke-width: 1.5"/>
    <path d="M 397.299512 54.560478 
L 397.299512 54.335271 
" clip-path="url(#p6d2510e6ae)" style="fill: none; stroke: #000000; stroke-width: 1.5"/>
    <path d="M 406.009756 53.924361 
L 406.009756 53.651491 
" clip-path="url(#p6d2510e6ae)" style="fill: none; stroke: #000000; stroke-width: 1.5"/>
   </g>
   <g id="line2d_15">
    <path d="M 57.6 295.488 
L 58.479823 294.138259 
L 59.359645 292.788242 
L 60.239468 291.437673 
L 61.11929 290.086275 
L 61.999113 288.73377 
L 62.878936 287.379876 
L 63.758758 286.024308 
L 64.638581 284.66678 
L 65.518404 283.307001 
L 66.398226 281.944674 
L 67.278049 280.579498 
L 68.157871 279.211168 
L 69.037694 277.83937 
L 69.917517 276.463786 
L 70.797339 275.084088 
L 71.677162 273.699941 
L 72.556984 272.311004 
L 73.436807 270.916923 
L 74.31663 269.517338 
L 75.196452 268.111877 
L 76.076275 266.700156 
L 76.956098 265.281784 
L 77.83592 263.856354 
L 78.715743 262.423448 
L 79.595565 260.982636 
L 80.475388 259.533474 
L 81.355211 258.075503 
L 82.235033 256.608252 
L 83.114856 255.13123 
L 83.994678 253.643936 
L 84.874501 252.145849 
L 85.754324 250.636431 
L 86.634146 249.11513 
L 87.513969 247.581371 
L 88.393792 246.034565 
L 89.273614 244.474102 
L 90.153437 242.899352 
L 91.033259 241.309664 
L 91.913082 239.704369 
L 92.792905 238.082774 
L 93.672727 236.444166 
L 94.55255 234.787808 
L 95.432373 233.11294 
L 96.312195 231.418779 
L 97.192018 229.704519 
L 98.07184 227.969327 
L 98.951663 226.212346 
L 99.831486 224.432693 
L 100.711308 222.629459 
L 101.591131 220.801706 
L 102.470953 218.948471 
L 103.350776 217.068762 
L 104.230599 215.161557 
L 105.110421 213.225808 
L 105.990244 211.260433 
L 106.870067 209.264324 
L 107.749889 207.236338 
L 108.629712 205.175303 
L 109.509534 203.080015 
L 110.389357 200.949237 
L 111.26918 198.781697 
L 112.149002 196.576093 
L 113.028825 194.331085 
L 113.908647 192.045301 
L 114.78847 189.717332 
L 115.668293 187.345733 
L 116.548115 184.929023 
L 117.427938 182.465685 
L 118.307761 179.954161 
L 119.187583 177.392859 
L 120.067406 174.780145 
L 120.947228 172.114347 
L 121.827051 169.393753 
L 122.706874 166.616611 
L 123.586696 163.781126 
L 124.466519 160.885464 
L 125.346341 157.927748 
L 126.226164 154.906056 
L 127.105987 151.818427 
L 127.985809 148.662852 
L 128.865632 145.437281 
L 129.745455 142.139617 
L 130.625277 138.767717 
L 131.5051 135.319394 
L 132.384922 131.792412 
L 133.264745 128.18449 
L 134.144568 124.493299 
L 135.02439 120.716459 
L 135.904213 116.851544 
L 136.784035 112.896078 
L 137.663858 108.847534 
L 138.543681 104.703335 
L 139.423503 100.460853 
L 140.303326 96.117407 
L 141.183149 91.670266 
L 142.062971 87.116645 
L 142.942794 82.453706 
L 143.822616 77.678555 
L 144.702439 72.788247 
" clip-path="url(#p6d2510e6ae)" style="fill: none; stroke: #0000ff; stroke-width: 1.5; stroke-linecap: square"/>
   </g>
   <g id="line2d_16">
    <path d="M 57.6 295.488 
L 58.479823 294.138259 
L 59.359645 292.788242 
L 60.239468 291.437675 
L 61.11929 290.086285 
L 61.999113 288.733799 
L 62.878936 287.379948 
L 63.758758 286.024466 
L 64.638581 284.667087 
L 65.518404 283.307554 
L 66.398226 281.94561 
L 67.278049 280.581007 
L 68.157871 279.213499 
L 69.037694 277.842848 
L 69.917517 276.468824 
L 70.797339 275.091201 
L 71.677162 273.709763 
L 72.556984 272.324304 
L 73.436807 270.934623 
L 74.31663 269.540532 
L 75.196452 268.141851 
L 76.076275 266.738412 
L 76.956098 265.330058 
L 77.83592 263.916643 
L 78.715743 262.498034 
L 79.595565 261.074111 
L 80.475388 259.644768 
L 81.355211 258.209911 
L 82.235033 256.769462 
L 83.114856 255.32336 
L 83.994678 253.871556 
L 84.874501 252.41402 
L 85.754324 250.950738 
L 86.634146 249.481714 
L 87.513969 248.006968 
L 88.393792 246.526541 
L 89.273614 245.040493 
L 90.153437 243.548901 
L 91.033259 242.051865 
L 91.913082 240.549505 
L 92.792905 239.041962 
L 93.672727 237.529399 
L 94.55255 236.012001 
L 95.432373 234.489978 
L 96.312195 232.963561 
L 97.192018 231.433007 
L 98.07184 229.898597 
L 98.951663 228.360637 
L 99.831486 226.81946 
L 100.711308 225.275424 
L 101.591131 223.728915 
L 102.470953 222.180347 
L 103.350776 220.630159 
L 104.230599 219.078824 
L 105.110421 217.526839 
L 105.990244 215.974733 
L 106.870067 214.423067 
L 107.749889 212.872429 
L 108.629712 211.323443 
L 109.509534 209.776761 
L 110.389357 208.23307 
L 111.26918 206.69309 
L 112.149002 205.157573 
L 113.028825 203.627308 
L 113.908647 202.103116 
L 114.78847 200.585855 
L 115.668293 199.07642 
L 116.548115 197.575739 
L 117.427938 196.084782 
L 118.307761 194.604552 
L 119.187583 193.136093 
L 120.067406 191.680487 
L 120.947228 190.238856 
L 121.827051 188.81236 
L 122.706874 187.402201 
L 123.586696 186.009622 
L 124.466519 184.635907 
L 125.346341 183.282384 
L 126.226164 181.95042 
L 127.105987 180.641429 
L 127.985809 179.356867 
L 128.865632 178.098234 
L 129.745455 176.867076 
L 130.625277 175.664985 
L 131.5051 174.493598 
L 132.384922 173.354598 
L 133.264745 172.249717 
L 134.144568 171.180734 
L 135.02439 170.149476 
L 135.904213 169.157819 
L 136.784035 168.207688 
L 137.663858 167.30106 
L 138.543681 166.439961 
L 139.423503 165.626467 
L 140.303326 164.862709 
L 141.183149 164.150867 
L 142.062971 163.493175 
L 142.942794 162.891921 
L 143.822616 162.349447 
L 144.702439 161.868148 
" clip-path="url(#p6d2510e6ae)" style="fill: none; stroke: #0000ff; stroke-width: 1.5; stroke-linecap: square"/>
   </g>
   <g id="line2d_17">
    <path d="M 101.15122 273.958308 
L 103.287365 259.592496 
L 105.423511 246.825687 
L 107.559657 235.40578 
L 109.695803 225.130658 
L 111.831949 215.836484 
L 114.273259 206.244756 
L 116.714568 197.596282 
L 119.155878 189.758135 
L 121.597187 182.621197 
L 124.343661 175.318356 
L 127.090134 168.682525 
L 129.836607 162.625921 
L 132.583081 157.075525 
L 135.634718 151.427983 
L 138.686355 146.259657 
L 141.737992 141.511721 
L 145.094792 136.715626 
L 148.451593 132.312838 
L 151.808394 128.256627 
L 155.470358 124.18058 
L 159.132323 120.426427 
L 163.099451 116.680042 
L 167.066579 113.228514 
L 171.338871 109.802736 
L 175.916326 106.42809 
L 180.493782 103.323378 
L 185.376401 100.274054 
L 190.564184 97.295855 
L 196.05713 94.401077 
L 201.855241 91.598953 
L 207.958515 88.896055 
L 214.366952 86.296684 
L 221.385717 83.694994 
L 228.709646 81.218665 
L 236.643902 78.774947 
L 245.188486 76.384297 
L 254.343397 74.062572 
L 264.108635 71.82153 
L 274.484201 69.669395 
L 285.775258 67.557167 
L 297.981806 65.503861 
L 311.103845 63.523545 
L 325.446539 61.587027 
L 341.009888 59.71309 
L 358.099055 57.884328 
L 376.714041 56.120086 
L 397.160009 54.409789 
L 406.009756 53.732988 
L 406.009756 53.732988 
" clip-path="url(#p6d2510e6ae)" style="fill: none; stroke: #ff0000; stroke-width: 1.5; stroke-linecap: square"/>
   </g>
   <g id="LineCollection_2">
    <path d="M 66.310244 282.244327 
L 66.310244 281.779323 
" clip-path="url(#p6d2510e6ae)" style="fill: none; stroke: #008000; stroke-width: 1.5"/>
    <path d="M 75.020488 268.756415 
L 75.020488 268.293551 
" clip-path="url(#p6d2510e6ae)" style="fill: none; stroke: #008000; stroke-width: 1.5"/>
    <path d="M 83.730732 255.283551 
L 83.730732 254.748251 
" clip-path="url(#p6d2510e6ae)" style="fill: none; stroke: #008000; stroke-width: 1.5"/>
    <path d="M 92.440976 239.999022 
L 92.440976 239.433836 
" clip-path="url(#p6d2510e6ae)" style="fill: none; stroke: #008000; stroke-width: 1.5"/>
    <path d="M 101.15122 223.657658 
L 101.15122 222.918268 
" clip-path="url(#p6d2510e6ae)" style="fill: none; stroke: #008000; stroke-width: 1.5"/>
    <path d="M 109.861463 207.058387 
L 109.861463 206.429985 
" clip-path="url(#p6d2510e6ae)" style="fill: none; stroke: #008000; stroke-width: 1.5"/>
    <path d="M 118.571707 190.366373 
L 118.571707 189.296564 
" clip-path="url(#p6d2510e6ae)" style="fill: none; stroke: #008000; stroke-width: 1.5"/>
    <path d="M 127.281951 172.274314 
L 127.281951 171.197414 
" clip-path="url(#p6d2510e6ae)" style="fill: none; stroke: #008000; stroke-width: 1.5"/>
    <path d="M 135.992195 155.761608 
L 135.992195 154.76297 
" clip-path="url(#p6d2510e6ae)" style="fill: none; stroke: #008000; stroke-width: 1.5"/>
    <path d="M 144.702439 141.672267 
L 144.702439 140.166219 
" clip-path="url(#p6d2510e6ae)" style="fill: none; stroke: #008000; stroke-width: 1.5"/>
    <path d="M 153.412683 128.201483 
L 153.412683 127.447357 
" clip-path="url(#p6d2510e6ae)" style="fill: none; stroke: #008000; stroke-width: 1.5"/>
    <path d="M 162.122927 118.122901 
L 162.122927 117.434619 
" clip-path="url(#p6d2510e6ae)" style="fill: none; stroke: #008000; stroke-width: 1.5"/>
    <path d="M 170.833171 111.397577 
L 170.833171 110.53093 
" clip-path="url(#p6d2510e6ae)" style="fill: none; stroke: #008000; stroke-width: 1.5"/>
    <path d="M 179.543415 104.61148 
L 179.543415 103.995873 
" clip-path="url(#p6d2510e6ae)" style="fill: none; stroke: #008000; stroke-width: 1.5"/>
    <path d="M 188.253659 99.092034 
L 188.253659 98.446635 
" clip-path="url(#p6d2510e6ae)" style="fill: none; stroke: #008000; stroke-width: 1.5"/>
    <path d="M 196.963902 94.56801 
L 196.963902 93.645866 
" clip-path="url(#p6d2510e6ae)" style="fill: none; stroke: #008000; stroke-width: 1.5"/>
    <path d="M 205.674146 89.749466 
L 205.674146 89.158692 
" clip-path="url(#p6d2510e6ae)" style="fill: none; stroke: #008000; stroke-width: 1.5"/>
    <path d="M 214.38439 86.369821 
L 214.38439 85.972601 
" clip-path="url(#p6d2510e6ae)" style="fill: none; stroke: #008000; stroke-width: 1.5"/>
    <path d="M 223.094634 83.753115 
L 223.094634 83.328938 
" clip-path="url(#p6d2510e6ae)" style="fill: none; stroke: #008000; stroke-width: 1.5"/>
    <path d="M 231.804878 79.954679 
L 231.804878 79.416686 
" clip-path="url(#p6d2510e6ae)" style="fill: none; stroke: #008000; stroke-width: 1.5"/>
    <path d="M 240.515122 77.939519 
L 240.515122 77.464223 
" clip-path="url(#p6d2510e6ae)" style="fill: none; stroke: #008000; stroke-width: 1.5"/>
    <path d="M 249.225366 75.526356 
L 249.225366 74.876591 
" clip-path="url(#p6d2510e6ae)" style="fill: none; stroke: #008000; stroke-width: 1.5"/>
    <path d="M 257.93561 73.479782 
L 257.93561 72.994616 
" clip-path="url(#p6d2510e6ae)" style="fill: none; stroke: #008000; stroke-width: 1.5"/>
    <path d="M 266.645854 71.085825 
L 266.645854 70.454306 
" clip-path="url(#p6d2510e6ae)" style="fill: none; stroke: #008000; stroke-width: 1.5"/>
    <path d="M 275.356098 69.542594 
L 275.356098 69.279693 
" clip-path="url(#p6d2510e6ae)" style="fill: none; stroke: #008000; stroke-width: 1.5"/>
    <path d="M 284.066341 68.109086 
L 284.066341 67.781385 
" clip-path="url(#p6d2510e6ae)" style="fill: none; stroke: #008000; stroke-width: 1.5"/>
    <path d="M 292.776585 66.276352 
L 292.776585 65.929719 
" clip-path="url(#p6d2510e6ae)" style="fill: none; stroke: #008000; stroke-width: 1.5"/>
    <path d="M 301.486829 65.09711 
L 301.486829 64.5745 
" clip-path="url(#p6d2510e6ae)" style="fill: none; stroke: #008000; stroke-width: 1.5"/>
    <path d="M 310.197073 63.914753 
L 310.197073 63.506489 
" clip-path="url(#p6d2510e6ae)" style="fill: none; stroke: #008000; stroke-width: 1.5"/>
    <path d="M 318.907317 62.560464 
L 318.907317 62.194209 
" clip-path="url(#p6d2510e6ae)" style="fill: none; stroke: #008000; stroke-width: 1.5"/>
    <path d="M 327.617561 60.718892 
L 327.617561 60.37171 
" clip-path="url(#p6d2510e6ae)" style="fill: none; stroke: #008000; stroke-width: 1.5"/>
    <path d="M 336.327805 60.079208 
L 336.327805 59.761854 
" clip-path="url(#p6d2510e6ae)" style="fill: none; stroke: #008000; stroke-width: 1.5"/>
    <path d="M 345.038049 59.305898 
L 345.038049 58.955815 
" clip-path="url(#p6d2510e6ae)" style="fill: none; stroke: #008000; stroke-width: 1.5"/>
    <path d="M 353.748293 58.373553 
L 353.748293 57.978328 
" clip-path="url(#p6d2510e6ae)" style="fill: none; stroke: #008000; stroke-width: 1.5"/>
    <path d="M 362.458537 57.77588 
L 362.458537 57.333548 
" clip-path="url(#p6d2510e6ae)" style="fill: none; stroke: #008000; stroke-width: 1.5"/>
    <path d="M 371.16878 56.577074 
L 371.16878 56.133412 
" clip-path="url(#p6d2510e6ae)" style="fill: none; stroke: #008000; stroke-width: 1.5"/>
    <path d="M 379.879024 56.204273 
L 379.879024 55.802985 
" clip-path="url(#p6d2510e6ae)" style="fill: none; stroke: #008000; stroke-width: 1.5"/>
    <path d="M 388.589268 55.064106 
L 388.589268 54.710819 
" clip-path="url(#p6d2510e6ae)" style="fill: none; stroke: #008000; stroke-width: 1.5"/>
    <path d="M 397.299512 54.533332 
L 397.299512 54.226662 
" clip-path="url(#p6d2510e6ae)" style="fill: none; stroke: #008000; stroke-width: 1.5"/>
    <path d="M 406.009756 53.794962 
L 406.009756 53.568 
" clip-path="url(#p6d2510e6ae)" style="fill: none; stroke: #008000; stroke-width: 1.5"/>
   </g>
   <g id="line2d_18">
    <defs>
     <path id="mccd52e8b6b" d="M -3 3 
L 3 -3 
M -3 -3 
L 3 3 
" style="stroke: #000000"/>
    </defs>
    <g clip-path="url(#p6d2510e6ae)">
     <use xlink:href="#mccd52e8b6b" x="66.310244" y="282.236307" style="stroke: #000000"/>
     <use xlink:href="#mccd52e8b6b" x="75.020488" y="268.435069" style="stroke: #000000"/>
     <use xlink:href="#mccd52e8b6b" x="83.730732" y="254.3704" style="stroke: #000000"/>
     <use xlink:href="#mccd52e8b6b" x="92.440976" y="239.245573" style="stroke: #000000"/>
     <use xlink:href="#mccd52e8b6b" x="101.15122" y="223.240699" style="stroke: #000000"/>
     <use xlink:href="#mccd52e8b6b" x="109.861463" y="207.374161" style="stroke: #000000"/>
     <use xlink:href="#mccd52e8b6b" x="118.571707" y="189.532066" style="stroke: #000000"/>
     <use xlink:href="#mccd52e8b6b" x="127.281951" y="172.688918" style="stroke: #000000"/>
     <use xlink:href="#mccd52e8b6b" x="135.992195" y="155.367587" style="stroke: #000000"/>
     <use xlink:href="#mccd52e8b6b" x="144.702439" y="139.223151" style="stroke: #000000"/>
     <use xlink:href="#mccd52e8b6b" x="153.412683" y="127.384831" style="stroke: #000000"/>
     <use xlink:href="#mccd52e8b6b" x="162.122927" y="117.80836" style="stroke: #000000"/>
     <use xlink:href="#mccd52e8b6b" x="170.833171" y="110.493981" style="stroke: #000000"/>
     <use xlink:href="#mccd52e8b6b" x="179.543415" y="104.119257" style="stroke: #000000"/>
     <use xlink:href="#mccd52e8b6b" x="188.253659" y="99.175283" style="stroke: #000000"/>
     <use xlink:href="#mccd52e8b6b" x="196.963902" y="93.67536" style="stroke: #000000"/>
     <use xlink:href="#mccd52e8b6b" x="205.674146" y="90.468048" style="stroke: #000000"/>
     <use xlink:href="#mccd52e8b6b" x="214.38439" y="86.295056" style="stroke: #000000"/>
     <use xlink:href="#mccd52e8b6b" x="223.094634" y="82.920373" style="stroke: #000000"/>
     <use xlink:href="#mccd52e8b6b" x="231.804878" y="80.379583" style="stroke: #000000"/>
     <use xlink:href="#mccd52e8b6b" x="240.515122" y="77.524604" style="stroke: #000000"/>
     <use xlink:href="#mccd52e8b6b" x="249.225366" y="75.361138" style="stroke: #000000"/>
     <use xlink:href="#mccd52e8b6b" x="257.93561" y="73.00069" style="stroke: #000000"/>
     <use xlink:href="#mccd52e8b6b" x="266.645854" y="71.118441" style="stroke: #000000"/>
     <use xlink:href="#mccd52e8b6b" x="275.356098" y="68.917708" style="stroke: #000000"/>
     <use xlink:href="#mccd52e8b6b" x="284.066341" y="67.899662" style="stroke: #000000"/>
     <use xlink:href="#mccd52e8b6b" x="292.776585" y="66.067721" style="stroke: #000000"/>
     <use xlink:href="#mccd52e8b6b" x="301.486829" y="64.981785" style="stroke: #000000"/>
     <use xlink:href="#mccd52e8b6b" x="310.197073" y="63.951467" style="stroke: #000000"/>
     <use xlink:href="#mccd52e8b6b" x="318.907317" y="61.987266" style="stroke: #000000"/>
     <use xlink:href="#mccd52e8b6b" x="327.617561" y="61.230381" style="stroke: #000000"/>
     <use xlink:href="#mccd52e8b6b" x="336.327805" y="59.928239" style="stroke: #000000"/>
     <use xlink:href="#mccd52e8b6b" x="345.038049" y="59.124251" style="stroke: #000000"/>
     <use xlink:href="#mccd52e8b6b" x="353.748293" y="58.236683" style="stroke: #000000"/>
     <use xlink:href="#mccd52e8b6b" x="362.458537" y="57.685187" style="stroke: #000000"/>
     <use xlink:href="#mccd52e8b6b" x="371.16878" y="56.260311" style="stroke: #000000"/>
     <use xlink:href="#mccd52e8b6b" x="379.879024" y="55.580504" style="stroke: #000000"/>
     <use xlink:href="#mccd52e8b6b" x="388.589268" y="55.202954" style="stroke: #000000"/>
     <use xlink:href="#mccd52e8b6b" x="397.299512" y="54.447875" style="stroke: #000000"/>
     <use xlink:href="#mccd52e8b6b" x="406.009756" y="53.787926" style="stroke: #000000"/>
    </g>
   </g>
   <g id="line2d_19">
    <defs>
     <path id="m8719595b5b" d="M -3 3 
L 3 -3 
M -3 -3 
L 3 3 
" style="stroke: #008000"/>
    </defs>
    <g clip-path="url(#p6d2510e6ae)">
     <use xlink:href="#m8719595b5b" x="66.310244" y="282.011825" style="fill: #008000; stroke: #008000"/>
     <use xlink:href="#m8719595b5b" x="75.020488" y="268.524983" style="fill: #008000; stroke: #008000"/>
     <use xlink:href="#m8719595b5b" x="83.730732" y="255.015901" style="fill: #008000; stroke: #008000"/>
     <use xlink:href="#m8719595b5b" x="92.440976" y="239.716429" style="fill: #008000; stroke: #008000"/>
     <use xlink:href="#m8719595b5b" x="101.15122" y="223.287963" style="fill: #008000; stroke: #008000"/>
     <use xlink:href="#m8719595b5b" x="109.861463" y="206.744186" style="fill: #008000; stroke: #008000"/>
     <use xlink:href="#m8719595b5b" x="118.571707" y="189.831469" style="fill: #008000; stroke: #008000"/>
     <use xlink:href="#m8719595b5b" x="127.281951" y="171.735864" style="fill: #008000; stroke: #008000"/>
     <use xlink:href="#m8719595b5b" x="135.992195" y="155.262289" style="fill: #008000; stroke: #008000"/>
     <use xlink:href="#m8719595b5b" x="144.702439" y="140.919243" style="fill: #008000; stroke: #008000"/>
     <use xlink:href="#m8719595b5b" x="153.412683" y="127.82442" style="fill: #008000; stroke: #008000"/>
     <use xlink:href="#m8719595b5b" x="162.122927" y="117.77876" style="fill: #008000; stroke: #008000"/>
     <use xlink:href="#m8719595b5b" x="170.833171" y="110.964253" style="fill: #008000; stroke: #008000"/>
     <use xlink:href="#m8719595b5b" x="179.543415" y="104.303676" style="fill: #008000; stroke: #008000"/>
     <use xlink:href="#m8719595b5b" x="188.253659" y="98.769335" style="fill: #008000; stroke: #008000"/>
     <use xlink:href="#m8719595b5b" x="196.963902" y="94.106938" style="fill: #008000; stroke: #008000"/>
     <use xlink:href="#m8719595b5b" x="205.674146" y="89.454079" style="fill: #008000; stroke: #008000"/>
     <use xlink:href="#m8719595b5b" x="214.38439" y="86.171211" style="fill: #008000; stroke: #008000"/>
     <use xlink:href="#m8719595b5b" x="223.094634" y="83.541027" style="fill: #008000; stroke: #008000"/>
     <use xlink:href="#m8719595b5b" x="231.804878" y="79.685682" style="fill: #008000; stroke: #008000"/>
     <use xlink:href="#m8719595b5b" x="240.515122" y="77.701871" style="fill: #008000; stroke: #008000"/>
     <use xlink:href="#m8719595b5b" x="249.225366" y="75.201474" style="fill: #008000; stroke: #008000"/>
     <use xlink:href="#m8719595b5b" x="257.93561" y="73.237199" style="fill: #008000; stroke: #008000"/>
     <use xlink:href="#m8719595b5b" x="266.645854" y="70.770066" style="fill: #008000; stroke: #008000"/>
     <use xlink:href="#m8719595b5b" x="275.356098" y="69.411144" style="fill: #008000; stroke: #008000"/>
     <use xlink:href="#m8719595b5b" x="284.066341" y="67.945235" style="fill: #008000; stroke: #008000"/>
     <use xlink:href="#m8719595b5b" x="292.776585" y="66.103035" style="fill: #008000; stroke: #008000"/>
     <use xlink:href="#m8719595b5b" x="301.486829" y="64.835805" style="fill: #008000; stroke: #008000"/>
     <use xlink:href="#m8719595b5b" x="310.197073" y="63.710621" style="fill: #008000; stroke: #008000"/>
     <use xlink:href="#m8719595b5b" x="318.907317" y="62.377337" style="fill: #008000; stroke: #008000"/>
     <use xlink:href="#m8719595b5b" x="327.617561" y="60.545301" style="fill: #008000; stroke: #008000"/>
     <use xlink:href="#m8719595b5b" x="336.327805" y="59.920531" style="fill: #008000; stroke: #008000"/>
     <use xlink:href="#m8719595b5b" x="345.038049" y="59.130856" style="fill: #008000; stroke: #008000"/>
     <use xlink:href="#m8719595b5b" x="353.748293" y="58.175941" style="fill: #008000; stroke: #008000"/>
     <use xlink:href="#m8719595b5b" x="362.458537" y="57.554714" style="fill: #008000; stroke: #008000"/>
     <use xlink:href="#m8719595b5b" x="371.16878" y="56.355243" style="fill: #008000; stroke: #008000"/>
     <use xlink:href="#m8719595b5b" x="379.879024" y="56.003629" style="fill: #008000; stroke: #008000"/>
     <use xlink:href="#m8719595b5b" x="388.589268" y="54.887462" style="fill: #008000; stroke: #008000"/>
     <use xlink:href="#m8719595b5b" x="397.299512" y="54.379997" style="fill: #008000; stroke: #008000"/>
     <use xlink:href="#m8719595b5b" x="406.009756" y="53.681481" style="fill: #008000; stroke: #008000"/>
    </g>
   </g>
   <g id="patch_3">
    <path d="M 57.6 307.584 
L 57.6 41.472 
" style="fill: none; stroke: #000000; stroke-width: 0.8; stroke-linejoin: miter; stroke-linecap: square"/>
   </g>
   <g id="patch_4">
    <path d="M 57.6 307.584 
L 414.72 307.584 
" style="fill: none; stroke: #000000; stroke-width: 0.8; stroke-linejoin: miter; stroke-linecap: square"/>
   </g>
   <g id="legend_1">
    <g id="patch_5">
     <path d="M 137.466875 302.584 
L 407.72 302.584 
Q 409.72 302.584 409.72 300.584 
L 409.72 227.91525 
Q 409.72 225.91525 407.72 225.91525 
L 137.466875 225.91525 
Q 135.466875 225.91525 135.466875 227.91525 
L 135.466875 300.584 
Q 135.466875 302.584 137.466875 302.584 
z
" style="fill: #ffffff; opacity: 0.8; stroke: #cccccc; stroke-linejoin: miter"/>
    </g>
    <g id="line2d_20">
     <path d="M 139.466875 234.013687 
L 149.466875 234.013687 
L 159.466875 234.013687 
" style="fill: none; stroke: #0000ff; stroke-width: 1.5; stroke-linecap: square"/>
    </g>
    <g id="text_17">
     <!-- Strong Coupling Alt -->
     <g transform="translate(167.466875 237.513687) scale(0.1 -0.1)">
      <defs>
       <path id="DejaVuSans-53" d="M 3425 4513 
L 3425 3897 
Q 3066 4069 2747 4153 
Q 2428 4238 2131 4238 
Q 1616 4238 1336 4038 
Q 1056 3838 1056 3469 
Q 1056 3159 1242 3001 
Q 1428 2844 1947 2747 
L 2328 2669 
Q 3034 2534 3370 2195 
Q 3706 1856 3706 1288 
Q 3706 609 3251 259 
Q 2797 -91 1919 -91 
Q 1588 -91 1214 -16 
Q 841 59 441 206 
L 441 856 
Q 825 641 1194 531 
Q 1563 422 1919 422 
Q 2459 422 2753 634 
Q 3047 847 3047 1241 
Q 3047 1584 2836 1778 
Q 2625 1972 2144 2069 
L 1759 2144 
Q 1053 2284 737 2584 
Q 422 2884 422 3419 
Q 422 4038 858 4394 
Q 1294 4750 2059 4750 
Q 2388 4750 2728 4690 
Q 3069 4631 3425 4513 
z
" transform="scale(0.015625)"/>
       <path id="DejaVuSans-74" d="M 1172 4494 
L 1172 3500 
L 2356 3500 
L 2356 3053 
L 1172 3053 
L 1172 1153 
Q 1172 725 1289 603 
Q 1406 481 1766 481 
L 2356 481 
L 2356 0 
L 1766 0 
Q 1100 0 847 248 
Q 594 497 594 1153 
L 594 3053 
L 172 3053 
L 172 3500 
L 594 3500 
L 594 4494 
L 1172 4494 
z
" transform="scale(0.015625)"/>
       <path id="DejaVuSans-72" d="M 2631 2963 
Q 2534 3019 2420 3045 
Q 2306 3072 2169 3072 
Q 1681 3072 1420 2755 
Q 1159 2438 1159 1844 
L 1159 0 
L 581 0 
L 581 3500 
L 1159 3500 
L 1159 2956 
Q 1341 3275 1631 3429 
Q 1922 3584 2338 3584 
Q 2397 3584 2469 3576 
Q 2541 3569 2628 3553 
L 2631 2963 
z
" transform="scale(0.015625)"/>
       <path id="DejaVuSans-6f" d="M 1959 3097 
Q 1497 3097 1228 2736 
Q 959 2375 959 1747 
Q 959 1119 1226 758 
Q 1494 397 1959 397 
Q 2419 397 2687 759 
Q 2956 1122 2956 1747 
Q 2956 2369 2687 2733 
Q 2419 3097 1959 3097 
z
M 1959 3584 
Q 2709 3584 3137 3096 
Q 3566 2609 3566 1747 
Q 3566 888 3137 398 
Q 2709 -91 1959 -91 
Q 1206 -91 779 398 
Q 353 888 353 1747 
Q 353 2609 779 3096 
Q 1206 3584 1959 3584 
z
" transform="scale(0.015625)"/>
       <path id="DejaVuSans-6e" d="M 3513 2113 
L 3513 0 
L 2938 0 
L 2938 2094 
Q 2938 2591 2744 2837 
Q 2550 3084 2163 3084 
Q 1697 3084 1428 2787 
Q 1159 2491 1159 1978 
L 1159 0 
L 581 0 
L 581 3500 
L 1159 3500 
L 1159 2956 
Q 1366 3272 1645 3428 
Q 1925 3584 2291 3584 
Q 2894 3584 3203 3211 
Q 3513 2838 3513 2113 
z
" transform="scale(0.015625)"/>
       <path id="DejaVuSans-67" d="M 2906 1791 
Q 2906 2416 2648 2759 
Q 2391 3103 1925 3103 
Q 1463 3103 1205 2759 
Q 947 2416 947 1791 
Q 947 1169 1205 825 
Q 1463 481 1925 481 
Q 2391 481 2648 825 
Q 2906 1169 2906 1791 
z
M 3481 434 
Q 3481 -459 3084 -895 
Q 2688 -1331 1869 -1331 
Q 1566 -1331 1297 -1286 
Q 1028 -1241 775 -1147 
L 775 -588 
Q 1028 -725 1275 -790 
Q 1522 -856 1778 -856 
Q 2344 -856 2625 -561 
Q 2906 -266 2906 331 
L 2906 616 
Q 2728 306 2450 153 
Q 2172 0 1784 0 
Q 1141 0 747 490 
Q 353 981 353 1791 
Q 353 2603 747 3093 
Q 1141 3584 1784 3584 
Q 2172 3584 2450 3431 
Q 2728 3278 2906 2969 
L 2906 3500 
L 3481 3500 
L 3481 434 
z
" transform="scale(0.015625)"/>
       <path id="DejaVuSans-20" transform="scale(0.015625)"/>
       <path id="DejaVuSans-43" d="M 4122 4306 
L 4122 3641 
Q 3803 3938 3442 4084 
Q 3081 4231 2675 4231 
Q 1875 4231 1450 3742 
Q 1025 3253 1025 2328 
Q 1025 1406 1450 917 
Q 1875 428 2675 428 
Q 3081 428 3442 575 
Q 3803 722 4122 1019 
L 4122 359 
Q 3791 134 3420 21 
Q 3050 -91 2638 -91 
Q 1578 -91 968 557 
Q 359 1206 359 2328 
Q 359 3453 968 4101 
Q 1578 4750 2638 4750 
Q 3056 4750 3426 4639 
Q 3797 4528 4122 4306 
z
" transform="scale(0.015625)"/>
       <path id="DejaVuSans-75" d="M 544 1381 
L 544 3500 
L 1119 3500 
L 1119 1403 
Q 1119 906 1312 657 
Q 1506 409 1894 409 
Q 2359 409 2629 706 
Q 2900 1003 2900 1516 
L 2900 3500 
L 3475 3500 
L 3475 0 
L 2900 0 
L 2900 538 
Q 2691 219 2414 64 
Q 2138 -91 1772 -91 
Q 1169 -91 856 284 
Q 544 659 544 1381 
z
M 1991 3584 
L 1991 3584 
z
" transform="scale(0.015625)"/>
       <path id="DejaVuSans-70" d="M 1159 525 
L 1159 -1331 
L 581 -1331 
L 581 3500 
L 1159 3500 
L 1159 2969 
Q 1341 3281 1617 3432 
Q 1894 3584 2278 3584 
Q 2916 3584 3314 3078 
Q 3713 2572 3713 1747 
Q 3713 922 3314 415 
Q 2916 -91 2278 -91 
Q 1894 -91 1617 61 
Q 1341 213 1159 525 
z
M 3116 1747 
Q 3116 2381 2855 2742 
Q 2594 3103 2138 3103 
Q 1681 3103 1420 2742 
Q 1159 2381 1159 1747 
Q 1159 1113 1420 752 
Q 1681 391 2138 391 
Q 2594 391 2855 752 
Q 3116 1113 3116 1747 
z
" transform="scale(0.015625)"/>
       <path id="DejaVuSans-6c" d="M 603 4863 
L 1178 4863 
L 1178 0 
L 603 0 
L 603 4863 
z
" transform="scale(0.015625)"/>
       <path id="DejaVuSans-69" d="M 603 3500 
L 1178 3500 
L 1178 0 
L 603 0 
L 603 3500 
z
M 603 4863 
L 1178 4863 
L 1178 4134 
L 603 4134 
L 603 4863 
z
" transform="scale(0.015625)"/>
       <path id="DejaVuSans-41" d="M 2188 4044 
L 1331 1722 
L 3047 1722 
L 2188 4044 
z
M 1831 4666 
L 2547 4666 
L 4325 0 
L 3669 0 
L 3244 1197 
L 1141 1197 
L 716 0 
L 50 0 
L 1831 4666 
z
" transform="scale(0.015625)"/>
      </defs>
      <use xlink:href="#DejaVuSans-53"/>
      <use xlink:href="#DejaVuSans-74" x="63.476562"/>
      <use xlink:href="#DejaVuSans-72" x="102.685547"/>
      <use xlink:href="#DejaVuSans-6f" x="141.548828"/>
      <use xlink:href="#DejaVuSans-6e" x="202.730469"/>
      <use xlink:href="#DejaVuSans-67" x="266.109375"/>
      <use xlink:href="#DejaVuSans-20" x="329.585938"/>
      <use xlink:href="#DejaVuSans-43" x="361.373047"/>
      <use xlink:href="#DejaVuSans-6f" x="431.197266"/>
      <use xlink:href="#DejaVuSans-75" x="492.378906"/>
      <use xlink:href="#DejaVuSans-70" x="555.757812"/>
      <use xlink:href="#DejaVuSans-6c" x="619.234375"/>
      <use xlink:href="#DejaVuSans-69" x="647.017578"/>
      <use xlink:href="#DejaVuSans-6e" x="674.800781"/>
      <use xlink:href="#DejaVuSans-67" x="738.179688"/>
      <use xlink:href="#DejaVuSans-20" x="801.65625"/>
      <use xlink:href="#DejaVuSans-41" x="833.443359"/>
      <use xlink:href="#DejaVuSans-6c" x="901.851562"/>
      <use xlink:href="#DejaVuSans-74" x="929.634766"/>
     </g>
    </g>
    <g id="line2d_21">
     <path d="M 139.466875 248.691812 
L 149.466875 248.691812 
L 159.466875 248.691812 
" style="fill: none; stroke: #0000ff; stroke-width: 1.5; stroke-linecap: square"/>
    </g>
    <g id="text_18">
     <!-- Strong Coupling -->
     <g transform="translate(167.466875 252.191812) scale(0.1 -0.1)">
      <use xlink:href="#DejaVuSans-53"/>
      <use xlink:href="#DejaVuSans-74" x="63.476562"/>
      <use xlink:href="#DejaVuSans-72" x="102.685547"/>
      <use xlink:href="#DejaVuSans-6f" x="141.548828"/>
      <use xlink:href="#DejaVuSans-6e" x="202.730469"/>
      <use xlink:href="#DejaVuSans-67" x="266.109375"/>
      <use xlink:href="#DejaVuSans-20" x="329.585938"/>
      <use xlink:href="#DejaVuSans-43" x="361.373047"/>
      <use xlink:href="#DejaVuSans-6f" x="431.197266"/>
      <use xlink:href="#DejaVuSans-75" x="492.378906"/>
      <use xlink:href="#DejaVuSans-70" x="555.757812"/>
      <use xlink:href="#DejaVuSans-6c" x="619.234375"/>
      <use xlink:href="#DejaVuSans-69" x="647.017578"/>
      <use xlink:href="#DejaVuSans-6e" x="674.800781"/>
      <use xlink:href="#DejaVuSans-67" x="738.179688"/>
     </g>
    </g>
    <g id="line2d_22">
     <path d="M 139.466875 263.369937 
L 149.466875 263.369937 
L 159.466875 263.369937 
" style="fill: none; stroke: #ff0000; stroke-width: 1.5; stroke-linecap: square"/>
    </g>
    <g id="text_19">
     <!-- Weak Coupling -->
     <g transform="translate(167.466875 266.869937) scale(0.1 -0.1)">
      <defs>
       <path id="DejaVuSans-57" d="M 213 4666 
L 850 4666 
L 1831 722 
L 2809 4666 
L 3519 4666 
L 4500 722 
L 5478 4666 
L 6119 4666 
L 4947 0 
L 4153 0 
L 3169 4050 
L 2175 0 
L 1381 0 
L 213 4666 
z
" transform="scale(0.015625)"/>
       <path id="DejaVuSans-65" d="M 3597 1894 
L 3597 1613 
L 953 1613 
Q 991 1019 1311 708 
Q 1631 397 2203 397 
Q 2534 397 2845 478 
Q 3156 559 3463 722 
L 3463 178 
Q 3153 47 2828 -22 
Q 2503 -91 2169 -91 
Q 1331 -91 842 396 
Q 353 884 353 1716 
Q 353 2575 817 3079 
Q 1281 3584 2069 3584 
Q 2775 3584 3186 3129 
Q 3597 2675 3597 1894 
z
M 3022 2063 
Q 3016 2534 2758 2815 
Q 2500 3097 2075 3097 
Q 1594 3097 1305 2825 
Q 1016 2553 972 2059 
L 3022 2063 
z
" transform="scale(0.015625)"/>
       <path id="DejaVuSans-61" d="M 2194 1759 
Q 1497 1759 1228 1600 
Q 959 1441 959 1056 
Q 959 750 1161 570 
Q 1363 391 1709 391 
Q 2188 391 2477 730 
Q 2766 1069 2766 1631 
L 2766 1759 
L 2194 1759 
z
M 3341 1997 
L 3341 0 
L 2766 0 
L 2766 531 
Q 2569 213 2275 61 
Q 1981 -91 1556 -91 
Q 1019 -91 701 211 
Q 384 513 384 1019 
Q 384 1609 779 1909 
Q 1175 2209 1959 2209 
L 2766 2209 
L 2766 2266 
Q 2766 2663 2505 2880 
Q 2244 3097 1772 3097 
Q 1472 3097 1187 3025 
Q 903 2953 641 2809 
L 641 3341 
Q 956 3463 1253 3523 
Q 1550 3584 1831 3584 
Q 2591 3584 2966 3190 
Q 3341 2797 3341 1997 
z
" transform="scale(0.015625)"/>
       <path id="DejaVuSans-6b" d="M 581 4863 
L 1159 4863 
L 1159 1991 
L 2875 3500 
L 3609 3500 
L 1753 1863 
L 3688 0 
L 2938 0 
L 1159 1709 
L 1159 0 
L 581 0 
L 581 4863 
z
" transform="scale(0.015625)"/>
      </defs>
      <use xlink:href="#DejaVuSans-57"/>
      <use xlink:href="#DejaVuSans-65" x="93.001953"/>
      <use xlink:href="#DejaVuSans-61" x="154.525391"/>
      <use xlink:href="#DejaVuSans-6b" x="215.804688"/>
      <use xlink:href="#DejaVuSans-20" x="273.714844"/>
      <use xlink:href="#DejaVuSans-43" x="305.501953"/>
      <use xlink:href="#DejaVuSans-6f" x="375.326172"/>
      <use xlink:href="#DejaVuSans-75" x="436.507812"/>
      <use xlink:href="#DejaVuSans-70" x="499.886719"/>
      <use xlink:href="#DejaVuSans-6c" x="563.363281"/>
      <use xlink:href="#DejaVuSans-69" x="591.146484"/>
      <use xlink:href="#DejaVuSans-6e" x="618.929688"/>
      <use xlink:href="#DejaVuSans-67" x="682.308594"/>
     </g>
    </g>
    <g id="LineCollection_3">
     <path d="M 149.466875 283.048063 
L 149.466875 273.048063 
" style="fill: none; stroke: #000000; stroke-width: 1.5"/>
    </g>
    <g id="line2d_23"/>
    <g id="line2d_24">
     <g>
      <use xlink:href="#mccd52e8b6b" x="149.466875" y="278.048063" style="stroke: #000000"/>
     </g>
    </g>
    <g id="text_20">
     <!-- Data With Exact Exponetnial -->
     <g transform="translate(167.466875 281.548063) scale(0.1 -0.1)">
      <defs>
       <path id="DejaVuSans-44" d="M 1259 4147 
L 1259 519 
L 2022 519 
Q 2988 519 3436 956 
Q 3884 1394 3884 2338 
Q 3884 3275 3436 3711 
Q 2988 4147 2022 4147 
L 1259 4147 
z
M 628 4666 
L 1925 4666 
Q 3281 4666 3915 4102 
Q 4550 3538 4550 2338 
Q 4550 1131 3912 565 
Q 3275 0 1925 0 
L 628 0 
L 628 4666 
z
" transform="scale(0.015625)"/>
       <path id="DejaVuSans-68" d="M 3513 2113 
L 3513 0 
L 2938 0 
L 2938 2094 
Q 2938 2591 2744 2837 
Q 2550 3084 2163 3084 
Q 1697 3084 1428 2787 
Q 1159 2491 1159 1978 
L 1159 0 
L 581 0 
L 581 4863 
L 1159 4863 
L 1159 2956 
Q 1366 3272 1645 3428 
Q 1925 3584 2291 3584 
Q 2894 3584 3203 3211 
Q 3513 2838 3513 2113 
z
" transform="scale(0.015625)"/>
       <path id="DejaVuSans-45" d="M 628 4666 
L 3578 4666 
L 3578 4134 
L 1259 4134 
L 1259 2753 
L 3481 2753 
L 3481 2222 
L 1259 2222 
L 1259 531 
L 3634 531 
L 3634 0 
L 628 0 
L 628 4666 
z
" transform="scale(0.015625)"/>
       <path id="DejaVuSans-78" d="M 3513 3500 
L 2247 1797 
L 3578 0 
L 2900 0 
L 1881 1375 
L 863 0 
L 184 0 
L 1544 1831 
L 300 3500 
L 978 3500 
L 1906 2253 
L 2834 3500 
L 3513 3500 
z
" transform="scale(0.015625)"/>
       <path id="DejaVuSans-63" d="M 3122 3366 
L 3122 2828 
Q 2878 2963 2633 3030 
Q 2388 3097 2138 3097 
Q 1578 3097 1268 2742 
Q 959 2388 959 1747 
Q 959 1106 1268 751 
Q 1578 397 2138 397 
Q 2388 397 2633 464 
Q 2878 531 3122 666 
L 3122 134 
Q 2881 22 2623 -34 
Q 2366 -91 2075 -91 
Q 1284 -91 818 406 
Q 353 903 353 1747 
Q 353 2603 823 3093 
Q 1294 3584 2113 3584 
Q 2378 3584 2631 3529 
Q 2884 3475 3122 3366 
z
" transform="scale(0.015625)"/>
      </defs>
      <use xlink:href="#DejaVuSans-44"/>
      <use xlink:href="#DejaVuSans-61" x="77.001953"/>
      <use xlink:href="#DejaVuSans-74" x="138.28125"/>
      <use xlink:href="#DejaVuSans-61" x="177.490234"/>
      <use xlink:href="#DejaVuSans-20" x="238.769531"/>
      <use xlink:href="#DejaVuSans-57" x="270.556641"/>
      <use xlink:href="#DejaVuSans-69" x="367.183594"/>
      <use xlink:href="#DejaVuSans-74" x="394.966797"/>
      <use xlink:href="#DejaVuSans-68" x="434.175781"/>
      <use xlink:href="#DejaVuSans-20" x="497.554688"/>
      <use xlink:href="#DejaVuSans-45" x="529.341797"/>
      <use xlink:href="#DejaVuSans-78" x="592.525391"/>
      <use xlink:href="#DejaVuSans-61" x="651.705078"/>
      <use xlink:href="#DejaVuSans-63" x="712.984375"/>
      <use xlink:href="#DejaVuSans-74" x="767.964844"/>
      <use xlink:href="#DejaVuSans-20" x="807.173828"/>
      <use xlink:href="#DejaVuSans-45" x="838.960938"/>
      <use xlink:href="#DejaVuSans-78" x="902.144531"/>
      <use xlink:href="#DejaVuSans-70" x="961.324219"/>
      <use xlink:href="#DejaVuSans-6f" x="1024.800781"/>
      <use xlink:href="#DejaVuSans-6e" x="1085.982422"/>
      <use xlink:href="#DejaVuSans-65" x="1149.361328"/>
      <use xlink:href="#DejaVuSans-74" x="1210.884766"/>
      <use xlink:href="#DejaVuSans-6e" x="1250.09375"/>
      <use xlink:href="#DejaVuSans-69" x="1313.472656"/>
      <use xlink:href="#DejaVuSans-61" x="1341.255859"/>
      <use xlink:href="#DejaVuSans-6c" x="1402.535156"/>
     </g>
    </g>
    <g id="LineCollection_4">
     <path d="M 149.466875 297.726187 
L 149.466875 287.726187 
" style="fill: none; stroke: #008000; stroke-width: 1.5"/>
    </g>
    <g id="line2d_25"/>
    <g id="line2d_26">
     <g>
      <use xlink:href="#m8719595b5b" x="149.466875" y="292.726187" style="fill: #008000; stroke: #008000"/>
     </g>
    </g>
    <g id="text_21">
     <!-- Data with Taylor of Order = 5 and N_order = 10 -->
     <g transform="translate(167.466875 296.226187) scale(0.1 -0.1)">
      <defs>
       <path id="DejaVuSans-77" d="M 269 3500 
L 844 3500 
L 1563 769 
L 2278 3500 
L 2956 3500 
L 3675 769 
L 4391 3500 
L 4966 3500 
L 4050 0 
L 3372 0 
L 2619 2869 
L 1863 0 
L 1184 0 
L 269 3500 
z
" transform="scale(0.015625)"/>
       <path id="DejaVuSans-54" d="M -19 4666 
L 3928 4666 
L 3928 4134 
L 2272 4134 
L 2272 0 
L 1638 0 
L 1638 4134 
L -19 4134 
L -19 4666 
z
" transform="scale(0.015625)"/>
       <path id="DejaVuSans-79" d="M 2059 -325 
Q 1816 -950 1584 -1140 
Q 1353 -1331 966 -1331 
L 506 -1331 
L 506 -850 
L 844 -850 
Q 1081 -850 1212 -737 
Q 1344 -625 1503 -206 
L 1606 56 
L 191 3500 
L 800 3500 
L 1894 763 
L 2988 3500 
L 3597 3500 
L 2059 -325 
z
" transform="scale(0.015625)"/>
       <path id="DejaVuSans-66" d="M 2375 4863 
L 2375 4384 
L 1825 4384 
Q 1516 4384 1395 4259 
Q 1275 4134 1275 3809 
L 1275 3500 
L 2222 3500 
L 2222 3053 
L 1275 3053 
L 1275 0 
L 697 0 
L 697 3053 
L 147 3053 
L 147 3500 
L 697 3500 
L 697 3744 
Q 697 4328 969 4595 
Q 1241 4863 1831 4863 
L 2375 4863 
z
" transform="scale(0.015625)"/>
       <path id="DejaVuSans-4f" d="M 2522 4238 
Q 1834 4238 1429 3725 
Q 1025 3213 1025 2328 
Q 1025 1447 1429 934 
Q 1834 422 2522 422 
Q 3209 422 3611 934 
Q 4013 1447 4013 2328 
Q 4013 3213 3611 3725 
Q 3209 4238 2522 4238 
z
M 2522 4750 
Q 3503 4750 4090 4092 
Q 4678 3434 4678 2328 
Q 4678 1225 4090 567 
Q 3503 -91 2522 -91 
Q 1538 -91 948 565 
Q 359 1222 359 2328 
Q 359 3434 948 4092 
Q 1538 4750 2522 4750 
z
" transform="scale(0.015625)"/>
       <path id="DejaVuSans-64" d="M 2906 2969 
L 2906 4863 
L 3481 4863 
L 3481 0 
L 2906 0 
L 2906 525 
Q 2725 213 2448 61 
Q 2172 -91 1784 -91 
Q 1150 -91 751 415 
Q 353 922 353 1747 
Q 353 2572 751 3078 
Q 1150 3584 1784 3584 
Q 2172 3584 2448 3432 
Q 2725 3281 2906 2969 
z
M 947 1747 
Q 947 1113 1208 752 
Q 1469 391 1925 391 
Q 2381 391 2643 752 
Q 2906 1113 2906 1747 
Q 2906 2381 2643 2742 
Q 2381 3103 1925 3103 
Q 1469 3103 1208 2742 
Q 947 2381 947 1747 
z
" transform="scale(0.015625)"/>
       <path id="DejaVuSans-3d" d="M 678 2906 
L 4684 2906 
L 4684 2381 
L 678 2381 
L 678 2906 
z
M 678 1631 
L 4684 1631 
L 4684 1100 
L 678 1100 
L 678 1631 
z
" transform="scale(0.015625)"/>
       <path id="DejaVuSans-4e" d="M 628 4666 
L 1478 4666 
L 3547 763 
L 3547 4666 
L 4159 4666 
L 4159 0 
L 3309 0 
L 1241 3903 
L 1241 0 
L 628 0 
L 628 4666 
z
" transform="scale(0.015625)"/>
       <path id="DejaVuSans-5f" d="M 3263 -1063 
L 3263 -1509 
L -63 -1509 
L -63 -1063 
L 3263 -1063 
z
" transform="scale(0.015625)"/>
      </defs>
      <use xlink:href="#DejaVuSans-44"/>
      <use xlink:href="#DejaVuSans-61" x="77.001953"/>
      <use xlink:href="#DejaVuSans-74" x="138.28125"/>
      <use xlink:href="#DejaVuSans-61" x="177.490234"/>
      <use xlink:href="#DejaVuSans-20" x="238.769531"/>
      <use xlink:href="#DejaVuSans-77" x="270.556641"/>
      <use xlink:href="#DejaVuSans-69" x="352.34375"/>
      <use xlink:href="#DejaVuSans-74" x="380.126953"/>
      <use xlink:href="#DejaVuSans-68" x="419.335938"/>
      <use xlink:href="#DejaVuSans-20" x="482.714844"/>
      <use xlink:href="#DejaVuSans-54" x="514.501953"/>
      <use xlink:href="#DejaVuSans-61" x="559.085938"/>
      <use xlink:href="#DejaVuSans-79" x="620.365234"/>
      <use xlink:href="#DejaVuSans-6c" x="679.544922"/>
      <use xlink:href="#DejaVuSans-6f" x="707.328125"/>
      <use xlink:href="#DejaVuSans-72" x="768.509766"/>
      <use xlink:href="#DejaVuSans-20" x="809.623047"/>
      <use xlink:href="#DejaVuSans-6f" x="841.410156"/>
      <use xlink:href="#DejaVuSans-66" x="902.591797"/>
      <use xlink:href="#DejaVuSans-20" x="937.796875"/>
      <use xlink:href="#DejaVuSans-4f" x="969.583984"/>
      <use xlink:href="#DejaVuSans-72" x="1048.294922"/>
      <use xlink:href="#DejaVuSans-64" x="1087.658203"/>
      <use xlink:href="#DejaVuSans-65" x="1151.134766"/>
      <use xlink:href="#DejaVuSans-72" x="1212.658203"/>
      <use xlink:href="#DejaVuSans-20" x="1253.771484"/>
      <use xlink:href="#DejaVuSans-3d" x="1285.558594"/>
      <use xlink:href="#DejaVuSans-20" x="1369.347656"/>
      <use xlink:href="#DejaVuSans-35" x="1401.134766"/>
      <use xlink:href="#DejaVuSans-20" x="1464.757812"/>
      <use xlink:href="#DejaVuSans-61" x="1496.544922"/>
      <use xlink:href="#DejaVuSans-6e" x="1557.824219"/>
      <use xlink:href="#DejaVuSans-64" x="1621.203125"/>
      <use xlink:href="#DejaVuSans-20" x="1684.679688"/>
      <use xlink:href="#DejaVuSans-4e" x="1716.466797"/>
      <use xlink:href="#DejaVuSans-5f" x="1791.271484"/>
      <use xlink:href="#DejaVuSans-6f" x="1841.271484"/>
      <use xlink:href="#DejaVuSans-72" x="1902.453125"/>
      <use xlink:href="#DejaVuSans-64" x="1941.816406"/>
      <use xlink:href="#DejaVuSans-65" x="2005.292969"/>
      <use xlink:href="#DejaVuSans-72" x="2066.816406"/>
      <use xlink:href="#DejaVuSans-20" x="2107.929688"/>
      <use xlink:href="#DejaVuSans-3d" x="2139.716797"/>
      <use xlink:href="#DejaVuSans-20" x="2223.505859"/>
      <use xlink:href="#DejaVuSans-31" x="2255.292969"/>
      <use xlink:href="#DejaVuSans-30" x="2318.916016"/>
     </g>
    </g>
   </g>
  </g>
 </g>
 <defs>
  <clipPath id="p6d2510e6ae">
   <rect x="57.6" y="41.472" width="357.12" height="266.112"/>
  </clipPath>
 </defs>
</svg>
