<?xml version="1.0" encoding="utf-8" standalone="no"?>
<!DOCTYPE svg PUBLIC "-//W3C//DTD SVG 1.1//EN"
  "http://www.w3.org/Graphics/SVG/1.1/DTD/svg11.dtd">
<svg height="345.6pt" version="1.1" viewBox="0 0 460.8 345.6" width="460.8pt" xmlns="http://www.w3.org/2000/svg" xmlns:xlink="http://www.w3.org/1999/xlink">
 <metadata>
  <rdf:RDF xmlns:cc="http://creativecommons.org/ns#" xmlns:dc="http://purl.org/dc/elements/1.1/" xmlns:rdf="http://www.w3.org/1999/02/22-rdf-syntax-ns#">
   <cc:Work>
    <dc:type rdf:resource="http://purl.org/dc/dcmitype/StillImage"/>
    <dc:date>2023-11-02T17:36:04.176755</dc:date>
    <dc:format>image/svg+xml</dc:format>
    <dc:creator>
     <cc:Agent>
      <dc:title>Matplotlib v3.4.1, https://matplotlib.org/</dc:title>
     </cc:Agent>
    </dc:creator>
   </cc:Work>
  </rdf:RDF>
 </metadata>
 <defs>
  <style type="text/css">*{stroke-linecap:butt;stroke-linejoin:round;}</style>
 </defs>
 <g id="figure_1">
  <g id="patch_1">
   <path d="M 0 345.6 
L 460.8 345.6 
L 460.8 0 
L 0 0 
z
" style="fill:#ffffff;"/>
  </g>
  <g id="axes_1">
   <g id="patch_2">
    <path d="M 57.6 307.584 
L 414.72 307.584 
L 414.72 41.472 
L 57.6 41.472 
z
" style="fill:#ffffff;"/>
   </g>
   <g id="matplotlib.axis_1">
    <g id="xtick_1">
     <g id="line2d_1">
      <defs>
       <path d="M 0 0 
L 0 3.5 
" id="mebcc3fb4e7" style="stroke:#000000;stroke-width:0.8;"/>
      </defs>
      <g>
       <use style="stroke:#000000;stroke-width:0.8;" x="57.6" xlink:href="#mebcc3fb4e7" y="307.584"/>
      </g>
     </g>
     <g id="text_1">
      <!-- 0 -->
      <g transform="translate(54.41875 322.182437)scale(0.1 -0.1)">
       <defs>
        <path d="M 2034 4250 
Q 1547 4250 1301 3770 
Q 1056 3291 1056 2328 
Q 1056 1369 1301 889 
Q 1547 409 2034 409 
Q 2525 409 2770 889 
Q 3016 1369 3016 2328 
Q 3016 3291 2770 3770 
Q 2525 4250 2034 4250 
z
M 2034 4750 
Q 2819 4750 3233 4129 
Q 3647 3509 3647 2328 
Q 3647 1150 3233 529 
Q 2819 -91 2034 -91 
Q 1250 -91 836 529 
Q 422 1150 422 2328 
Q 422 3509 836 4129 
Q 1250 4750 2034 4750 
z
" id="DejaVuSans-30" transform="scale(0.015625)"/>
       </defs>
       <use xlink:href="#DejaVuSans-30"/>
      </g>
     </g>
    </g>
    <g id="xtick_2">
     <g id="line2d_2">
      <g>
       <use style="stroke:#000000;stroke-width:0.8;" x="101.688889" xlink:href="#mebcc3fb4e7" y="307.584"/>
      </g>
     </g>
     <g id="text_2">
      <!-- 1 -->
      <g transform="translate(98.507639 322.182437)scale(0.1 -0.1)">
       <defs>
        <path d="M 794 531 
L 1825 531 
L 1825 4091 
L 703 3866 
L 703 4441 
L 1819 4666 
L 2450 4666 
L 2450 531 
L 3481 531 
L 3481 0 
L 794 0 
L 794 531 
z
" id="DejaVuSans-31" transform="scale(0.015625)"/>
       </defs>
       <use xlink:href="#DejaVuSans-31"/>
      </g>
     </g>
    </g>
    <g id="xtick_3">
     <g id="line2d_3">
      <g>
       <use style="stroke:#000000;stroke-width:0.8;" x="145.777778" xlink:href="#mebcc3fb4e7" y="307.584"/>
      </g>
     </g>
     <g id="text_3">
      <!-- 2 -->
      <g transform="translate(142.596528 322.182437)scale(0.1 -0.1)">
       <defs>
        <path d="M 1228 531 
L 3431 531 
L 3431 0 
L 469 0 
L 469 531 
Q 828 903 1448 1529 
Q 2069 2156 2228 2338 
Q 2531 2678 2651 2914 
Q 2772 3150 2772 3378 
Q 2772 3750 2511 3984 
Q 2250 4219 1831 4219 
Q 1534 4219 1204 4116 
Q 875 4013 500 3803 
L 500 4441 
Q 881 4594 1212 4672 
Q 1544 4750 1819 4750 
Q 2544 4750 2975 4387 
Q 3406 4025 3406 3419 
Q 3406 3131 3298 2873 
Q 3191 2616 2906 2266 
Q 2828 2175 2409 1742 
Q 1991 1309 1228 531 
z
" id="DejaVuSans-32" transform="scale(0.015625)"/>
       </defs>
       <use xlink:href="#DejaVuSans-32"/>
      </g>
     </g>
    </g>
    <g id="xtick_4">
     <g id="line2d_4">
      <g>
       <use style="stroke:#000000;stroke-width:0.8;" x="189.866667" xlink:href="#mebcc3fb4e7" y="307.584"/>
      </g>
     </g>
     <g id="text_4">
      <!-- 3 -->
      <g transform="translate(186.685417 322.182437)scale(0.1 -0.1)">
       <defs>
        <path d="M 2597 2516 
Q 3050 2419 3304 2112 
Q 3559 1806 3559 1356 
Q 3559 666 3084 287 
Q 2609 -91 1734 -91 
Q 1441 -91 1130 -33 
Q 819 25 488 141 
L 488 750 
Q 750 597 1062 519 
Q 1375 441 1716 441 
Q 2309 441 2620 675 
Q 2931 909 2931 1356 
Q 2931 1769 2642 2001 
Q 2353 2234 1838 2234 
L 1294 2234 
L 1294 2753 
L 1863 2753 
Q 2328 2753 2575 2939 
Q 2822 3125 2822 3475 
Q 2822 3834 2567 4026 
Q 2313 4219 1838 4219 
Q 1578 4219 1281 4162 
Q 984 4106 628 3988 
L 628 4550 
Q 988 4650 1302 4700 
Q 1616 4750 1894 4750 
Q 2613 4750 3031 4423 
Q 3450 4097 3450 3541 
Q 3450 3153 3228 2886 
Q 3006 2619 2597 2516 
z
" id="DejaVuSans-33" transform="scale(0.015625)"/>
       </defs>
       <use xlink:href="#DejaVuSans-33"/>
      </g>
     </g>
    </g>
    <g id="xtick_5">
     <g id="line2d_5">
      <g>
       <use style="stroke:#000000;stroke-width:0.8;" x="233.955556" xlink:href="#mebcc3fb4e7" y="307.584"/>
      </g>
     </g>
     <g id="text_5">
      <!-- 4 -->
      <g transform="translate(230.774306 322.182437)scale(0.1 -0.1)">
       <defs>
        <path d="M 2419 4116 
L 825 1625 
L 2419 1625 
L 2419 4116 
z
M 2253 4666 
L 3047 4666 
L 3047 1625 
L 3713 1625 
L 3713 1100 
L 3047 1100 
L 3047 0 
L 2419 0 
L 2419 1100 
L 313 1100 
L 313 1709 
L 2253 4666 
z
" id="DejaVuSans-34" transform="scale(0.015625)"/>
       </defs>
       <use xlink:href="#DejaVuSans-34"/>
      </g>
     </g>
    </g>
    <g id="xtick_6">
     <g id="line2d_6">
      <g>
       <use style="stroke:#000000;stroke-width:0.8;" x="278.044444" xlink:href="#mebcc3fb4e7" y="307.584"/>
      </g>
     </g>
     <g id="text_6">
      <!-- 5 -->
      <g transform="translate(274.863194 322.182437)scale(0.1 -0.1)">
       <defs>
        <path d="M 691 4666 
L 3169 4666 
L 3169 4134 
L 1269 4134 
L 1269 2991 
Q 1406 3038 1543 3061 
Q 1681 3084 1819 3084 
Q 2600 3084 3056 2656 
Q 3513 2228 3513 1497 
Q 3513 744 3044 326 
Q 2575 -91 1722 -91 
Q 1428 -91 1123 -41 
Q 819 9 494 109 
L 494 744 
Q 775 591 1075 516 
Q 1375 441 1709 441 
Q 2250 441 2565 725 
Q 2881 1009 2881 1497 
Q 2881 1984 2565 2268 
Q 2250 2553 1709 2553 
Q 1456 2553 1204 2497 
Q 953 2441 691 2322 
L 691 4666 
z
" id="DejaVuSans-35" transform="scale(0.015625)"/>
       </defs>
       <use xlink:href="#DejaVuSans-35"/>
      </g>
     </g>
    </g>
    <g id="xtick_7">
     <g id="line2d_7">
      <g>
       <use style="stroke:#000000;stroke-width:0.8;" x="322.133333" xlink:href="#mebcc3fb4e7" y="307.584"/>
      </g>
     </g>
     <g id="text_7">
      <!-- 6 -->
      <g transform="translate(318.952083 322.182437)scale(0.1 -0.1)">
       <defs>
        <path d="M 2113 2584 
Q 1688 2584 1439 2293 
Q 1191 2003 1191 1497 
Q 1191 994 1439 701 
Q 1688 409 2113 409 
Q 2538 409 2786 701 
Q 3034 994 3034 1497 
Q 3034 2003 2786 2293 
Q 2538 2584 2113 2584 
z
M 3366 4563 
L 3366 3988 
Q 3128 4100 2886 4159 
Q 2644 4219 2406 4219 
Q 1781 4219 1451 3797 
Q 1122 3375 1075 2522 
Q 1259 2794 1537 2939 
Q 1816 3084 2150 3084 
Q 2853 3084 3261 2657 
Q 3669 2231 3669 1497 
Q 3669 778 3244 343 
Q 2819 -91 2113 -91 
Q 1303 -91 875 529 
Q 447 1150 447 2328 
Q 447 3434 972 4092 
Q 1497 4750 2381 4750 
Q 2619 4750 2861 4703 
Q 3103 4656 3366 4563 
z
" id="DejaVuSans-36" transform="scale(0.015625)"/>
       </defs>
       <use xlink:href="#DejaVuSans-36"/>
      </g>
     </g>
    </g>
    <g id="xtick_8">
     <g id="line2d_8">
      <g>
       <use style="stroke:#000000;stroke-width:0.8;" x="366.222222" xlink:href="#mebcc3fb4e7" y="307.584"/>
      </g>
     </g>
     <g id="text_8">
      <!-- 7 -->
      <g transform="translate(363.040972 322.182437)scale(0.1 -0.1)">
       <defs>
        <path d="M 525 4666 
L 3525 4666 
L 3525 4397 
L 1831 0 
L 1172 0 
L 2766 4134 
L 525 4134 
L 525 4666 
z
" id="DejaVuSans-37" transform="scale(0.015625)"/>
       </defs>
       <use xlink:href="#DejaVuSans-37"/>
      </g>
     </g>
    </g>
    <g id="xtick_9">
     <g id="line2d_9">
      <g>
       <use style="stroke:#000000;stroke-width:0.8;" x="410.311111" xlink:href="#mebcc3fb4e7" y="307.584"/>
      </g>
     </g>
     <g id="text_9">
      <!-- 8 -->
      <g transform="translate(407.129861 322.182437)scale(0.1 -0.1)">
       <defs>
        <path d="M 2034 2216 
Q 1584 2216 1326 1975 
Q 1069 1734 1069 1313 
Q 1069 891 1326 650 
Q 1584 409 2034 409 
Q 2484 409 2743 651 
Q 3003 894 3003 1313 
Q 3003 1734 2745 1975 
Q 2488 2216 2034 2216 
z
M 1403 2484 
Q 997 2584 770 2862 
Q 544 3141 544 3541 
Q 544 4100 942 4425 
Q 1341 4750 2034 4750 
Q 2731 4750 3128 4425 
Q 3525 4100 3525 3541 
Q 3525 3141 3298 2862 
Q 3072 2584 2669 2484 
Q 3125 2378 3379 2068 
Q 3634 1759 3634 1313 
Q 3634 634 3220 271 
Q 2806 -91 2034 -91 
Q 1263 -91 848 271 
Q 434 634 434 1313 
Q 434 1759 690 2068 
Q 947 2378 1403 2484 
z
M 1172 3481 
Q 1172 3119 1398 2916 
Q 1625 2713 2034 2713 
Q 2441 2713 2670 2916 
Q 2900 3119 2900 3481 
Q 2900 3844 2670 4047 
Q 2441 4250 2034 4250 
Q 1625 4250 1398 4047 
Q 1172 3844 1172 3481 
z
" id="DejaVuSans-38" transform="scale(0.015625)"/>
       </defs>
       <use xlink:href="#DejaVuSans-38"/>
      </g>
     </g>
    </g>
    <g id="text_10">
     <!-- $\beta$ -->
     <g transform="translate(232.96 335.962125)scale(0.1 -0.1)">
      <defs>
       <path d="M 872 216 
L 572 -1331 
L -6 -1331 
L 928 3478 
Q 1206 4903 2538 4903 
Q 3888 4903 3659 3700 
Q 3503 2844 2894 2531 
Q 3713 2250 3553 1416 
Q 3272 -69 1759 -66 
Q 1097 -63 872 216 
z
M 1019 966 
Q 1259 422 1875 425 
Q 2775 425 2966 1406 
Q 3138 2288 1675 2219 
L 1778 2750 
Q 2909 2731 3106 3750 
Q 3241 4438 2509 4434 
Q 1691 4434 1503 3459 
L 1019 966 
z
" id="DejaVuSans-Oblique-3b2" transform="scale(0.015625)"/>
      </defs>
      <use transform="translate(0 0.390625)" xlink:href="#DejaVuSans-Oblique-3b2"/>
     </g>
    </g>
   </g>
   <g id="matplotlib.axis_2">
    <g id="ytick_1">
     <g id="line2d_10">
      <defs>
       <path d="M 0 0 
L -3.5 0 
" id="mcfdf095755" style="stroke:#000000;stroke-width:0.8;"/>
      </defs>
      <g>
       <use style="stroke:#000000;stroke-width:0.8;" x="57.6" xlink:href="#mcfdf095755" y="295.488"/>
      </g>
     </g>
     <g id="text_11">
      <!-- 0.0 -->
      <g transform="translate(34.696875 299.287219)scale(0.1 -0.1)">
       <defs>
        <path d="M 684 794 
L 1344 794 
L 1344 0 
L 684 0 
L 684 794 
z
" id="DejaVuSans-2e" transform="scale(0.015625)"/>
       </defs>
       <use xlink:href="#DejaVuSans-30"/>
       <use x="63.623047" xlink:href="#DejaVuSans-2e"/>
       <use x="95.410156" xlink:href="#DejaVuSans-30"/>
      </g>
     </g>
    </g>
    <g id="ytick_2">
     <g id="line2d_11">
      <g>
       <use style="stroke:#000000;stroke-width:0.8;" x="57.6" xlink:href="#mcfdf095755" y="240.524766"/>
      </g>
     </g>
     <g id="text_12">
      <!-- 0.2 -->
      <g transform="translate(34.696875 244.323984)scale(0.1 -0.1)">
       <use xlink:href="#DejaVuSans-30"/>
       <use x="63.623047" xlink:href="#DejaVuSans-2e"/>
       <use x="95.410156" xlink:href="#DejaVuSans-32"/>
      </g>
     </g>
    </g>
    <g id="ytick_3">
     <g id="line2d_12">
      <g>
       <use style="stroke:#000000;stroke-width:0.8;" x="57.6" xlink:href="#mcfdf095755" y="185.561531"/>
      </g>
     </g>
     <g id="text_13">
      <!-- 0.4 -->
      <g transform="translate(34.696875 189.36075)scale(0.1 -0.1)">
       <use xlink:href="#DejaVuSans-30"/>
       <use x="63.623047" xlink:href="#DejaVuSans-2e"/>
       <use x="95.410156" xlink:href="#DejaVuSans-34"/>
      </g>
     </g>
    </g>
    <g id="ytick_4">
     <g id="line2d_13">
      <g>
       <use style="stroke:#000000;stroke-width:0.8;" x="57.6" xlink:href="#mcfdf095755" y="130.598297"/>
      </g>
     </g>
     <g id="text_14">
      <!-- 0.6 -->
      <g transform="translate(34.696875 134.397515)scale(0.1 -0.1)">
       <use xlink:href="#DejaVuSans-30"/>
       <use x="63.623047" xlink:href="#DejaVuSans-2e"/>
       <use x="95.410156" xlink:href="#DejaVuSans-36"/>
      </g>
     </g>
    </g>
    <g id="ytick_5">
     <g id="line2d_14">
      <g>
       <use style="stroke:#000000;stroke-width:0.8;" x="57.6" xlink:href="#mcfdf095755" y="75.635062"/>
      </g>
     </g>
     <g id="text_15">
      <!-- 0.8 -->
      <g transform="translate(34.696875 79.434281)scale(0.1 -0.1)">
       <use xlink:href="#DejaVuSans-30"/>
       <use x="63.623047" xlink:href="#DejaVuSans-2e"/>
       <use x="95.410156" xlink:href="#DejaVuSans-38"/>
      </g>
     </g>
    </g>
    <g id="text_16">
     <!-- $e$ -->
     <g transform="translate(28.617188 177.628)rotate(-90)scale(0.1 -0.1)">
      <defs>
       <path d="M 3078 2063 
Q 3088 2113 3092 2166 
Q 3097 2219 3097 2272 
Q 3097 2653 2873 2875 
Q 2650 3097 2266 3097 
Q 1838 3097 1509 2826 
Q 1181 2556 1013 2059 
L 3078 2063 
z
M 3578 1613 
L 903 1613 
Q 884 1494 878 1425 
Q 872 1356 872 1306 
Q 872 872 1139 634 
Q 1406 397 1894 397 
Q 2269 397 2603 481 
Q 2938 566 3225 728 
L 3116 159 
Q 2806 34 2476 -28 
Q 2147 -91 1806 -91 
Q 1078 -91 686 257 
Q 294 606 294 1247 
Q 294 1794 489 2264 
Q 684 2734 1063 3103 
Q 1306 3334 1642 3459 
Q 1978 3584 2356 3584 
Q 2950 3584 3301 3228 
Q 3653 2872 3653 2272 
Q 3653 2128 3634 1964 
Q 3616 1800 3578 1613 
z
" id="DejaVuSans-Oblique-65" transform="scale(0.015625)"/>
      </defs>
      <use xlink:href="#DejaVuSans-Oblique-65"/>
     </g>
    </g>
   </g>
   <g id="LineCollection_1">
    <path clip-path="url(#p2e2dda628a)" d="M 62.008889 292.057403 
L 62.008889 292.010465 
" style="fill:none;stroke:#008000;stroke-width:1.5;"/>
    <path clip-path="url(#p2e2dda628a)" d="M 66.417778 288.642017 
L 66.417778 288.594073 
" style="fill:none;stroke:#008000;stroke-width:1.5;"/>
    <path clip-path="url(#p2e2dda628a)" d="M 70.826667 285.106753 
L 70.826667 285.058707 
" style="fill:none;stroke:#008000;stroke-width:1.5;"/>
    <path clip-path="url(#p2e2dda628a)" d="M 75.235556 281.582582 
L 75.235556 281.531278 
" style="fill:none;stroke:#008000;stroke-width:1.5;"/>
    <path clip-path="url(#p2e2dda628a)" d="M 79.644444 278.002419 
L 79.644444 277.952313 
" style="fill:none;stroke:#008000;stroke-width:1.5;"/>
    <path clip-path="url(#p2e2dda628a)" d="M 84.053333 274.376722 
L 84.053333 274.325148 
" style="fill:none;stroke:#008000;stroke-width:1.5;"/>
    <path clip-path="url(#p2e2dda628a)" d="M 88.462222 270.590831 
L 88.462222 270.536333 
" style="fill:none;stroke:#008000;stroke-width:1.5;"/>
    <path clip-path="url(#p2e2dda628a)" d="M 92.871111 266.695886 
L 92.871111 266.639815 
" style="fill:none;stroke:#008000;stroke-width:1.5;"/>
    <path clip-path="url(#p2e2dda628a)" d="M 97.28 262.620353 
L 97.28 262.561169 
" style="fill:none;stroke:#008000;stroke-width:1.5;"/>
    <path clip-path="url(#p2e2dda628a)" d="M 101.688889 258.416358 
L 101.688889 258.353323 
" style="fill:none;stroke:#008000;stroke-width:1.5;"/>
    <path clip-path="url(#p2e2dda628a)" d="M 106.097778 253.939284 
L 106.097778 253.872946 
" style="fill:none;stroke:#008000;stroke-width:1.5;"/>
    <path clip-path="url(#p2e2dda628a)" d="M 110.506667 249.254861 
L 110.506667 249.181259 
" style="fill:none;stroke:#008000;stroke-width:1.5;"/>
    <path clip-path="url(#p2e2dda628a)" d="M 114.915556 244.226494 
L 114.915556 244.149546 
" style="fill:none;stroke:#008000;stroke-width:1.5;"/>
    <path clip-path="url(#p2e2dda628a)" d="M 119.324444 238.783262 
L 119.324444 238.702321 
" style="fill:none;stroke:#008000;stroke-width:1.5;"/>
    <path clip-path="url(#p2e2dda628a)" d="M 123.733333 232.936108 
L 123.733333 232.843433 
" style="fill:none;stroke:#008000;stroke-width:1.5;"/>
    <path clip-path="url(#p2e2dda628a)" d="M 128.142222 226.475502 
L 128.142222 226.369136 
" style="fill:none;stroke:#008000;stroke-width:1.5;"/>
    <path clip-path="url(#p2e2dda628a)" d="M 132.551111 219.340416 
L 132.551111 219.230875 
" style="fill:none;stroke:#008000;stroke-width:1.5;"/>
    <path clip-path="url(#p2e2dda628a)" d="M 136.96 211.257039 
L 136.96 211.11046 
" style="fill:none;stroke:#008000;stroke-width:1.5;"/>
    <path clip-path="url(#p2e2dda628a)" d="M 141.368889 202.371917 
L 141.368889 202.218477 
" style="fill:none;stroke:#008000;stroke-width:1.5;"/>
    <path clip-path="url(#p2e2dda628a)" d="M 145.777778 192.154211 
L 145.777778 191.977882 
" style="fill:none;stroke:#008000;stroke-width:1.5;"/>
    <path clip-path="url(#p2e2dda628a)" d="M 150.186667 181.037414 
L 150.186667 180.820442 
" style="fill:none;stroke:#008000;stroke-width:1.5;"/>
    <path clip-path="url(#p2e2dda628a)" d="M 154.595556 168.506102 
L 154.595556 168.230313 
" style="fill:none;stroke:#008000;stroke-width:1.5;"/>
    <path clip-path="url(#p2e2dda628a)" d="M 159.004444 156.622408 
L 159.004444 156.400312 
" style="fill:none;stroke:#008000;stroke-width:1.5;"/>
    <path clip-path="url(#p2e2dda628a)" d="M 163.413333 148.063606 
L 163.413333 147.903718 
" style="fill:none;stroke:#008000;stroke-width:1.5;"/>
    <path clip-path="url(#p2e2dda628a)" d="M 167.822222 140.730132 
L 167.822222 140.574063 
" style="fill:none;stroke:#008000;stroke-width:1.5;"/>
    <path clip-path="url(#p2e2dda628a)" d="M 172.231111 134.672017 
L 172.231111 134.529899 
" style="fill:none;stroke:#008000;stroke-width:1.5;"/>
    <path clip-path="url(#p2e2dda628a)" d="M 176.64 129.296027 
L 176.64 129.156901 
" style="fill:none;stroke:#008000;stroke-width:1.5;"/>
    <path clip-path="url(#p2e2dda628a)" d="M 181.048889 124.459368 
L 181.048889 124.314868 
" style="fill:none;stroke:#008000;stroke-width:1.5;"/>
    <path clip-path="url(#p2e2dda628a)" d="M 185.457778 120.139446 
L 185.457778 120.021837 
" style="fill:none;stroke:#008000;stroke-width:1.5;"/>
    <path clip-path="url(#p2e2dda628a)" d="M 189.866667 116.302895 
L 189.866667 116.189164 
" style="fill:none;stroke:#008000;stroke-width:1.5;"/>
    <path clip-path="url(#p2e2dda628a)" d="M 194.275556 112.574796 
L 194.275556 112.457042 
" style="fill:none;stroke:#008000;stroke-width:1.5;"/>
    <path clip-path="url(#p2e2dda628a)" d="M 198.684444 109.334085 
L 198.684444 109.219573 
" style="fill:none;stroke:#008000;stroke-width:1.5;"/>
    <path clip-path="url(#p2e2dda628a)" d="M 203.093333 106.132967 
L 203.093333 106.019616 
" style="fill:none;stroke:#008000;stroke-width:1.5;"/>
    <path clip-path="url(#p2e2dda628a)" d="M 207.502222 103.166964 
L 207.502222 103.072154 
" style="fill:none;stroke:#008000;stroke-width:1.5;"/>
    <path clip-path="url(#p2e2dda628a)" d="M 211.911111 100.530103 
L 211.911111 100.430802 
" style="fill:none;stroke:#008000;stroke-width:1.5;"/>
    <path clip-path="url(#p2e2dda628a)" d="M 216.32 98.131411 
L 216.32 98.026109 
" style="fill:none;stroke:#008000;stroke-width:1.5;"/>
    <path clip-path="url(#p2e2dda628a)" d="M 220.728889 95.659087 
L 220.728889 95.567863 
" style="fill:none;stroke:#008000;stroke-width:1.5;"/>
    <path clip-path="url(#p2e2dda628a)" d="M 225.137778 93.657869 
L 225.137778 93.567212 
" style="fill:none;stroke:#008000;stroke-width:1.5;"/>
    <path clip-path="url(#p2e2dda628a)" d="M 229.546667 91.537304 
L 229.546667 91.434797 
" style="fill:none;stroke:#008000;stroke-width:1.5;"/>
    <path clip-path="url(#p2e2dda628a)" d="M 233.955556 89.608607 
L 233.955556 89.516191 
" style="fill:none;stroke:#008000;stroke-width:1.5;"/>
    <path clip-path="url(#p2e2dda628a)" d="M 238.364444 87.780475 
L 238.364444 87.687393 
" style="fill:none;stroke:#008000;stroke-width:1.5;"/>
    <path clip-path="url(#p2e2dda628a)" d="M 242.773333 85.981463 
L 242.773333 85.893616 
" style="fill:none;stroke:#008000;stroke-width:1.5;"/>
    <path clip-path="url(#p2e2dda628a)" d="M 247.182222 84.396062 
L 247.182222 84.3127 
" style="fill:none;stroke:#008000;stroke-width:1.5;"/>
    <path clip-path="url(#p2e2dda628a)" d="M 251.591111 82.77465 
L 251.591111 82.685009 
" style="fill:none;stroke:#008000;stroke-width:1.5;"/>
    <path clip-path="url(#p2e2dda628a)" d="M 256 81.231612 
L 256 81.146846 
" style="fill:none;stroke:#008000;stroke-width:1.5;"/>
    <path clip-path="url(#p2e2dda628a)" d="M 260.408889 79.889417 
L 260.408889 79.803097 
" style="fill:none;stroke:#008000;stroke-width:1.5;"/>
    <path clip-path="url(#p2e2dda628a)" d="M 264.817778 78.554455 
L 264.817778 78.464579 
" style="fill:none;stroke:#008000;stroke-width:1.5;"/>
    <path clip-path="url(#p2e2dda628a)" d="M 269.226667 77.293397 
L 269.226667 77.217452 
" style="fill:none;stroke:#008000;stroke-width:1.5;"/>
    <path clip-path="url(#p2e2dda628a)" d="M 273.635556 76.026861 
L 273.635556 75.939577 
" style="fill:none;stroke:#008000;stroke-width:1.5;"/>
    <path clip-path="url(#p2e2dda628a)" d="M 278.044444 74.803736 
L 278.044444 74.729794 
" style="fill:none;stroke:#008000;stroke-width:1.5;"/>
    <path clip-path="url(#p2e2dda628a)" d="M 282.453333 73.745693 
L 282.453333 73.667022 
" style="fill:none;stroke:#008000;stroke-width:1.5;"/>
    <path clip-path="url(#p2e2dda628a)" d="M 286.862222 72.525077 
L 286.862222 72.444281 
" style="fill:none;stroke:#008000;stroke-width:1.5;"/>
    <path clip-path="url(#p2e2dda628a)" d="M 291.271111 71.529853 
L 291.271111 71.462162 
" style="fill:none;stroke:#008000;stroke-width:1.5;"/>
    <path clip-path="url(#p2e2dda628a)" d="M 295.68 70.551348 
L 295.68 70.479052 
" style="fill:none;stroke:#008000;stroke-width:1.5;"/>
    <path clip-path="url(#p2e2dda628a)" d="M 300.088889 69.575769 
L 300.088889 69.504455 
" style="fill:none;stroke:#008000;stroke-width:1.5;"/>
    <path clip-path="url(#p2e2dda628a)" d="M 304.497778 68.686428 
L 304.497778 68.615312 
" style="fill:none;stroke:#008000;stroke-width:1.5;"/>
    <path clip-path="url(#p2e2dda628a)" d="M 308.906667 67.804923 
L 308.906667 67.736369 
" style="fill:none;stroke:#008000;stroke-width:1.5;"/>
    <path clip-path="url(#p2e2dda628a)" d="M 313.315556 66.917455 
L 313.315556 66.855044 
" style="fill:none;stroke:#008000;stroke-width:1.5;"/>
    <path clip-path="url(#p2e2dda628a)" d="M 317.724444 66.073557 
L 317.724444 66.003586 
" style="fill:none;stroke:#008000;stroke-width:1.5;"/>
    <path clip-path="url(#p2e2dda628a)" d="M 322.133333 65.317989 
L 322.133333 65.248032 
" style="fill:none;stroke:#008000;stroke-width:1.5;"/>
    <path clip-path="url(#p2e2dda628a)" d="M 326.542222 64.571498 
L 326.542222 64.498867 
" style="fill:none;stroke:#008000;stroke-width:1.5;"/>
    <path clip-path="url(#p2e2dda628a)" d="M 330.951111 63.808772 
L 330.951111 63.737586 
" style="fill:none;stroke:#008000;stroke-width:1.5;"/>
    <path clip-path="url(#p2e2dda628a)" d="M 335.36 63.10281 
L 335.36 63.039805 
" style="fill:none;stroke:#008000;stroke-width:1.5;"/>
    <path clip-path="url(#p2e2dda628a)" d="M 339.768889 62.424266 
L 339.768889 62.355025 
" style="fill:none;stroke:#008000;stroke-width:1.5;"/>
    <path clip-path="url(#p2e2dda628a)" d="M 344.177778 61.734668 
L 344.177778 61.66401 
" style="fill:none;stroke:#008000;stroke-width:1.5;"/>
    <path clip-path="url(#p2e2dda628a)" d="M 348.586667 61.083149 
L 348.586667 61.018525 
" style="fill:none;stroke:#008000;stroke-width:1.5;"/>
    <path clip-path="url(#p2e2dda628a)" d="M 352.995556 60.495372 
L 352.995556 60.429943 
" style="fill:none;stroke:#008000;stroke-width:1.5;"/>
    <path clip-path="url(#p2e2dda628a)" d="M 357.404444 59.889989 
L 357.404444 59.832197 
" style="fill:none;stroke:#008000;stroke-width:1.5;"/>
    <path clip-path="url(#p2e2dda628a)" d="M 361.813333 59.251446 
L 361.813333 59.190237 
" style="fill:none;stroke:#008000;stroke-width:1.5;"/>
    <path clip-path="url(#p2e2dda628a)" d="M 366.222222 58.702978 
L 366.222222 58.647344 
" style="fill:none;stroke:#008000;stroke-width:1.5;"/>
    <path clip-path="url(#p2e2dda628a)" d="M 370.631111 58.060024 
L 370.631111 57.992402 
" style="fill:none;stroke:#008000;stroke-width:1.5;"/>
    <path clip-path="url(#p2e2dda628a)" d="M 375.04 57.568836 
L 375.04 57.513214 
" style="fill:none;stroke:#008000;stroke-width:1.5;"/>
    <path clip-path="url(#p2e2dda628a)" d="M 379.448889 57.018874 
L 379.448889 56.967052 
" style="fill:none;stroke:#008000;stroke-width:1.5;"/>
    <path clip-path="url(#p2e2dda628a)" d="M 383.857778 56.534945 
L 383.857778 56.472274 
" style="fill:none;stroke:#008000;stroke-width:1.5;"/>
    <path clip-path="url(#p2e2dda628a)" d="M 388.266667 56.094287 
L 388.266667 56.040723 
" style="fill:none;stroke:#008000;stroke-width:1.5;"/>
    <path clip-path="url(#p2e2dda628a)" d="M 392.675556 55.577665 
L 392.675556 55.523137 
" style="fill:none;stroke:#008000;stroke-width:1.5;"/>
    <path clip-path="url(#p2e2dda628a)" d="M 397.084444 55.094953 
L 397.084444 55.046195 
" style="fill:none;stroke:#008000;stroke-width:1.5;"/>
    <path clip-path="url(#p2e2dda628a)" d="M 401.493333 54.638012 
L 401.493333 54.59211 
" style="fill:none;stroke:#008000;stroke-width:1.5;"/>
    <path clip-path="url(#p2e2dda628a)" d="M 405.902222 54.188355 
L 405.902222 54.133842 
" style="fill:none;stroke:#008000;stroke-width:1.5;"/>
    <path clip-path="url(#p2e2dda628a)" d="M 410.311111 53.766471 
L 410.311111 53.715967 
" style="fill:none;stroke:#008000;stroke-width:1.5;"/>
   </g>
   <g id="line2d_15">
    <path clip-path="url(#p2e2dda628a)" d="M 101.688889 237.670331 
L 104.806285 231.434477 
L 107.923681 224.421346 
L 111.041077 217.116895 
L 114.158474 209.808433 
L 117.27587 202.66353 
L 120.393266 195.776589 
L 123.510662 189.196937 
L 126.628058 182.946066 
L 129.745455 177.028374 
L 132.862851 171.437917 
L 135.980247 166.162696 
L 139.097643 161.187383 
L 142.215039 156.495054 
L 145.332435 152.06828 
L 148.449832 147.889806 
L 151.567228 143.942961 
L 154.684624 140.21189 
L 157.80202 136.681674 
L 160.919416 133.338379 
L 164.036813 130.169056 
L 167.154209 127.161709 
L 170.271605 124.305254 
L 173.389001 121.589467 
L 176.506397 119.004917 
L 179.623793 116.542917 
L 182.74119 114.19546 
L 185.858586 111.955165 
L 188.975982 109.815228 
L 192.093378 107.76937 
L 195.210774 105.811793 
L 198.328171 103.937139 
L 201.445567 102.140456 
L 204.562963 100.417155 
L 207.680359 98.762988 
L 210.797755 97.174015 
L 213.915152 95.646575 
L 217.032548 94.177271 
L 220.149944 92.762939 
L 223.26734 91.400634 
L 226.384736 90.087612 
L 229.502132 88.821314 
L 232.619529 87.599348 
L 235.736925 86.419479 
L 238.854321 85.279618 
L 241.971717 84.177805 
L 245.089113 83.112206 
L 248.20651 82.0811 
L 251.323906 81.08287 
L 254.441302 80.115997 
L 257.558698 79.179053 
L 260.676094 78.270693 
L 263.79349 77.38965 
L 266.910887 76.53473 
L 270.028283 75.704806 
L 273.145679 74.898814 
L 276.263075 74.115748 
L 279.380471 73.354659 
L 282.497868 72.614646 
L 285.615264 71.894858 
L 288.73266 71.194487 
L 291.850056 70.512768 
L 294.967452 69.848975 
L 298.084848 69.202418 
L 301.202245 68.572444 
L 304.319641 67.958428 
L 307.437037 67.359779 
L 310.554433 66.775933 
L 313.671829 66.206354 
L 316.789226 65.65053 
L 319.906622 65.107975 
L 323.024018 64.578223 
L 326.141414 64.06083 
L 329.25881 63.555374 
L 332.376207 63.06145 
L 335.493603 62.57867 
L 338.610999 62.106666 
L 341.728395 61.645083 
L 344.845791 61.193583 
L 347.963187 60.751843 
L 351.080584 60.31955 
L 354.19798 59.896409 
L 357.315376 59.482133 
L 360.432772 59.07645 
L 363.550168 58.679095 
L 366.667565 58.289819 
L 369.784961 57.908377 
L 372.902357 57.534538 
L 376.019753 57.168078 
L 379.137149 56.808783 
L 382.254545 56.456445 
L 385.371942 56.110867 
L 388.489338 55.771855 
L 391.606734 55.439227 
L 394.72413 55.112804 
L 397.841526 54.792416 
L 400.958923 54.477897 
L 404.076319 54.16909 
L 407.193715 53.86584 
L 410.311111 53.568 
" style="fill:none;stroke:#ff0000;stroke-linecap:square;stroke-width:1.5;"/>
   </g>
   <g id="line2d_16">
    <path clip-path="url(#p2e2dda628a)" d="M 57.6 295.488 
L 58.936027 294.44696 
L 60.272054 293.405502 
L 61.608081 292.363206 
L 62.944108 291.319652 
L 64.280135 290.274419 
L 65.616162 289.227081 
L 66.952189 288.177209 
L 68.288215 287.124373 
L 69.624242 286.068136 
L 70.960269 285.008056 
L 72.296296 283.943685 
L 73.632323 282.874569 
L 74.96835 281.800248 
L 76.304377 280.720252 
L 77.640404 279.634104 
L 78.976431 278.541318 
L 80.312458 277.441397 
L 81.648485 276.333835 
L 82.984512 275.218114 
L 84.320539 274.093706 
L 85.656566 272.960069 
L 86.992593 271.816648 
L 88.32862 270.662875 
L 89.664646 269.498168 
L 91.000673 268.32193 
L 92.3367 267.133547 
L 93.672727 265.932392 
L 95.008754 264.717818 
L 96.344781 263.489161 
L 97.680808 262.245741 
L 99.016835 260.986857 
L 100.352862 259.711789 
L 101.688889 258.419798 
L 103.024916 257.110123 
L 104.360943 255.781982 
L 105.69697 254.434571 
L 107.032997 253.067064 
L 108.369024 251.67861 
L 109.705051 250.268335 
L 111.041077 248.835342 
L 112.377104 247.378706 
L 113.713131 245.897478 
L 115.049158 244.39068 
L 116.385185 242.85731 
L 117.721212 241.296336 
L 119.057239 239.706699 
L 120.393266 238.087308 
L 121.729293 236.437046 
L 123.06532 234.754763 
L 124.401347 233.039278 
L 125.737374 231.289379 
L 127.073401 229.503822 
L 128.409428 227.681328 
L 129.745455 225.820587 
L 131.081481 223.920253 
L 132.417508 221.978945 
L 133.753535 219.995247 
L 135.089562 217.967705 
L 136.425589 215.894832 
L 137.761616 213.775098 
L 139.097643 211.60694 
L 140.43367 209.388752 
L 141.769697 207.118891 
L 143.105724 204.795672 
L 144.441751 202.417372 
L 145.777778 199.982223 
L 147.113805 197.488418 
L 148.449832 194.934105 
L 149.785859 192.317389 
L 151.121886 189.636332 
L 152.457912 186.888951 
L 153.793939 184.073216 
L 155.129966 181.187053 
L 156.465993 178.22834 
L 157.80202 175.194909 
L 159.138047 172.084544 
L 160.474074 168.894978 
L 161.810101 165.623897 
L 163.146128 162.268937 
L 164.482155 158.827682 
L 165.818182 155.297668 
L 167.154209 151.676374 
L 168.490236 147.961232 
L 169.826263 144.149618 
L 171.16229 140.238853 
L 172.498316 136.226206 
L 173.834343 132.10889 
L 175.17037 127.884063 
L 176.506397 123.548825 
L 177.842424 119.10022 
L 179.178451 114.535235 
L 180.514478 109.850796 
L 181.850505 105.043775 
L 183.186532 100.110978 
L 184.522559 95.049156 
L 185.858586 89.854997 
L 187.194613 84.525127 
L 188.53064 79.056111 
L 189.866667 73.44445 
" style="fill:none;stroke:#0000ff;stroke-linecap:square;stroke-width:1.5;"/>
   </g>
   <g id="line2d_17">
    <defs>
     <path d="M -3 3 
L 3 -3 
M -3 -3 
L 3 3 
" id="m9239689dd2" style="stroke:#008000;"/>
    </defs>
    <g clip-path="url(#p2e2dda628a)">
     <use style="fill:#008000;stroke:#008000;" x="62.008889" xlink:href="#m9239689dd2" y="292.033934"/>
     <use style="fill:#008000;stroke:#008000;" x="66.417778" xlink:href="#m9239689dd2" y="288.618045"/>
     <use style="fill:#008000;stroke:#008000;" x="70.826667" xlink:href="#m9239689dd2" y="285.08273"/>
     <use style="fill:#008000;stroke:#008000;" x="75.235556" xlink:href="#m9239689dd2" y="281.55693"/>
     <use style="fill:#008000;stroke:#008000;" x="79.644444" xlink:href="#m9239689dd2" y="277.977366"/>
     <use style="fill:#008000;stroke:#008000;" x="84.053333" xlink:href="#m9239689dd2" y="274.350935"/>
     <use style="fill:#008000;stroke:#008000;" x="88.462222" xlink:href="#m9239689dd2" y="270.563582"/>
     <use style="fill:#008000;stroke:#008000;" x="92.871111" xlink:href="#m9239689dd2" y="266.66785"/>
     <use style="fill:#008000;stroke:#008000;" x="97.28" xlink:href="#m9239689dd2" y="262.590761"/>
     <use style="fill:#008000;stroke:#008000;" x="101.688889" xlink:href="#m9239689dd2" y="258.384841"/>
     <use style="fill:#008000;stroke:#008000;" x="106.097778" xlink:href="#m9239689dd2" y="253.906115"/>
     <use style="fill:#008000;stroke:#008000;" x="110.506667" xlink:href="#m9239689dd2" y="249.21806"/>
     <use style="fill:#008000;stroke:#008000;" x="114.915556" xlink:href="#m9239689dd2" y="244.18802"/>
     <use style="fill:#008000;stroke:#008000;" x="119.324444" xlink:href="#m9239689dd2" y="238.742792"/>
     <use style="fill:#008000;stroke:#008000;" x="123.733333" xlink:href="#m9239689dd2" y="232.889771"/>
     <use style="fill:#008000;stroke:#008000;" x="128.142222" xlink:href="#m9239689dd2" y="226.422319"/>
     <use style="fill:#008000;stroke:#008000;" x="132.551111" xlink:href="#m9239689dd2" y="219.285645"/>
     <use style="fill:#008000;stroke:#008000;" x="136.96" xlink:href="#m9239689dd2" y="211.183749"/>
     <use style="fill:#008000;stroke:#008000;" x="141.368889" xlink:href="#m9239689dd2" y="202.295197"/>
     <use style="fill:#008000;stroke:#008000;" x="145.777778" xlink:href="#m9239689dd2" y="192.066046"/>
     <use style="fill:#008000;stroke:#008000;" x="150.186667" xlink:href="#m9239689dd2" y="180.928928"/>
     <use style="fill:#008000;stroke:#008000;" x="154.595556" xlink:href="#m9239689dd2" y="168.368207"/>
     <use style="fill:#008000;stroke:#008000;" x="159.004444" xlink:href="#m9239689dd2" y="156.51136"/>
     <use style="fill:#008000;stroke:#008000;" x="163.413333" xlink:href="#m9239689dd2" y="147.983662"/>
     <use style="fill:#008000;stroke:#008000;" x="167.822222" xlink:href="#m9239689dd2" y="140.652098"/>
     <use style="fill:#008000;stroke:#008000;" x="172.231111" xlink:href="#m9239689dd2" y="134.600958"/>
     <use style="fill:#008000;stroke:#008000;" x="176.64" xlink:href="#m9239689dd2" y="129.226464"/>
     <use style="fill:#008000;stroke:#008000;" x="181.048889" xlink:href="#m9239689dd2" y="124.387118"/>
     <use style="fill:#008000;stroke:#008000;" x="185.457778" xlink:href="#m9239689dd2" y="120.080642"/>
     <use style="fill:#008000;stroke:#008000;" x="189.866667" xlink:href="#m9239689dd2" y="116.24603"/>
     <use style="fill:#008000;stroke:#008000;" x="194.275556" xlink:href="#m9239689dd2" y="112.515919"/>
     <use style="fill:#008000;stroke:#008000;" x="198.684444" xlink:href="#m9239689dd2" y="109.276829"/>
     <use style="fill:#008000;stroke:#008000;" x="203.093333" xlink:href="#m9239689dd2" y="106.076291"/>
     <use style="fill:#008000;stroke:#008000;" x="207.502222" xlink:href="#m9239689dd2" y="103.119559"/>
     <use style="fill:#008000;stroke:#008000;" x="211.911111" xlink:href="#m9239689dd2" y="100.480453"/>
     <use style="fill:#008000;stroke:#008000;" x="216.32" xlink:href="#m9239689dd2" y="98.07876"/>
     <use style="fill:#008000;stroke:#008000;" x="220.728889" xlink:href="#m9239689dd2" y="95.613475"/>
     <use style="fill:#008000;stroke:#008000;" x="225.137778" xlink:href="#m9239689dd2" y="93.612541"/>
     <use style="fill:#008000;stroke:#008000;" x="229.546667" xlink:href="#m9239689dd2" y="91.486051"/>
     <use style="fill:#008000;stroke:#008000;" x="233.955556" xlink:href="#m9239689dd2" y="89.562399"/>
     <use style="fill:#008000;stroke:#008000;" x="238.364444" xlink:href="#m9239689dd2" y="87.733934"/>
     <use style="fill:#008000;stroke:#008000;" x="242.773333" xlink:href="#m9239689dd2" y="85.937539"/>
     <use style="fill:#008000;stroke:#008000;" x="247.182222" xlink:href="#m9239689dd2" y="84.354381"/>
     <use style="fill:#008000;stroke:#008000;" x="251.591111" xlink:href="#m9239689dd2" y="82.72983"/>
     <use style="fill:#008000;stroke:#008000;" x="256" xlink:href="#m9239689dd2" y="81.189229"/>
     <use style="fill:#008000;stroke:#008000;" x="260.408889" xlink:href="#m9239689dd2" y="79.846257"/>
     <use style="fill:#008000;stroke:#008000;" x="264.817778" xlink:href="#m9239689dd2" y="78.509517"/>
     <use style="fill:#008000;stroke:#008000;" x="269.226667" xlink:href="#m9239689dd2" y="77.255424"/>
     <use style="fill:#008000;stroke:#008000;" x="273.635556" xlink:href="#m9239689dd2" y="75.983219"/>
     <use style="fill:#008000;stroke:#008000;" x="278.044444" xlink:href="#m9239689dd2" y="74.766765"/>
     <use style="fill:#008000;stroke:#008000;" x="282.453333" xlink:href="#m9239689dd2" y="73.706358"/>
     <use style="fill:#008000;stroke:#008000;" x="286.862222" xlink:href="#m9239689dd2" y="72.484679"/>
     <use style="fill:#008000;stroke:#008000;" x="291.271111" xlink:href="#m9239689dd2" y="71.496008"/>
     <use style="fill:#008000;stroke:#008000;" x="295.68" xlink:href="#m9239689dd2" y="70.5152"/>
     <use style="fill:#008000;stroke:#008000;" x="300.088889" xlink:href="#m9239689dd2" y="69.540112"/>
     <use style="fill:#008000;stroke:#008000;" x="304.497778" xlink:href="#m9239689dd2" y="68.65087"/>
     <use style="fill:#008000;stroke:#008000;" x="308.906667" xlink:href="#m9239689dd2" y="67.770646"/>
     <use style="fill:#008000;stroke:#008000;" x="313.315556" xlink:href="#m9239689dd2" y="66.88625"/>
     <use style="fill:#008000;stroke:#008000;" x="317.724444" xlink:href="#m9239689dd2" y="66.038571"/>
     <use style="fill:#008000;stroke:#008000;" x="322.133333" xlink:href="#m9239689dd2" y="65.28301"/>
     <use style="fill:#008000;stroke:#008000;" x="326.542222" xlink:href="#m9239689dd2" y="64.535183"/>
     <use style="fill:#008000;stroke:#008000;" x="330.951111" xlink:href="#m9239689dd2" y="63.773179"/>
     <use style="fill:#008000;stroke:#008000;" x="335.36" xlink:href="#m9239689dd2" y="63.071308"/>
     <use style="fill:#008000;stroke:#008000;" x="339.768889" xlink:href="#m9239689dd2" y="62.389646"/>
     <use style="fill:#008000;stroke:#008000;" x="344.177778" xlink:href="#m9239689dd2" y="61.699339"/>
     <use style="fill:#008000;stroke:#008000;" x="348.586667" xlink:href="#m9239689dd2" y="61.050837"/>
     <use style="fill:#008000;stroke:#008000;" x="352.995556" xlink:href="#m9239689dd2" y="60.462658"/>
     <use style="fill:#008000;stroke:#008000;" x="357.404444" xlink:href="#m9239689dd2" y="59.861093"/>
     <use style="fill:#008000;stroke:#008000;" x="361.813333" xlink:href="#m9239689dd2" y="59.220842"/>
     <use style="fill:#008000;stroke:#008000;" x="366.222222" xlink:href="#m9239689dd2" y="58.675161"/>
     <use style="fill:#008000;stroke:#008000;" x="370.631111" xlink:href="#m9239689dd2" y="58.026213"/>
     <use style="fill:#008000;stroke:#008000;" x="375.04" xlink:href="#m9239689dd2" y="57.541025"/>
     <use style="fill:#008000;stroke:#008000;" x="379.448889" xlink:href="#m9239689dd2" y="56.992963"/>
     <use style="fill:#008000;stroke:#008000;" x="383.857778" xlink:href="#m9239689dd2" y="56.50361"/>
     <use style="fill:#008000;stroke:#008000;" x="388.266667" xlink:href="#m9239689dd2" y="56.067505"/>
     <use style="fill:#008000;stroke:#008000;" x="392.675556" xlink:href="#m9239689dd2" y="55.550401"/>
     <use style="fill:#008000;stroke:#008000;" x="397.084444" xlink:href="#m9239689dd2" y="55.070574"/>
     <use style="fill:#008000;stroke:#008000;" x="401.493333" xlink:href="#m9239689dd2" y="54.615061"/>
     <use style="fill:#008000;stroke:#008000;" x="405.902222" xlink:href="#m9239689dd2" y="54.161098"/>
     <use style="fill:#008000;stroke:#008000;" x="410.311111" xlink:href="#m9239689dd2" y="53.741219"/>
    </g>
   </g>
   <g id="patch_3">
    <path d="M 57.6 307.584 
L 57.6 41.472 
" style="fill:none;stroke:#000000;stroke-linecap:square;stroke-linejoin:miter;stroke-width:0.8;"/>
   </g>
   <g id="patch_4">
    <path d="M 57.6 307.584 
L 414.72 307.584 
" style="fill:none;stroke:#000000;stroke-linecap:square;stroke-linejoin:miter;stroke-width:0.8;"/>
   </g>
   <g id="legend_1">
    <g id="patch_5">
     <path d="M 131.104375 302.584 
L 407.72 302.584 
Q 409.72 302.584 409.72 300.584 
L 409.72 257.2715 
Q 409.72 255.2715 407.72 255.2715 
L 131.104375 255.2715 
Q 129.104375 255.2715 129.104375 257.2715 
L 129.104375 300.584 
Q 129.104375 302.584 131.104375 302.584 
z
" style="fill:#ffffff;opacity:0.8;stroke:#cccccc;stroke-linejoin:miter;"/>
    </g>
    <g id="line2d_18">
     <path d="M 133.104375 263.369937 
L 153.104375 263.369937 
" style="fill:none;stroke:#ff0000;stroke-linecap:square;stroke-width:1.5;"/>
    </g>
    <g id="line2d_19"/>
    <g id="text_17">
     <!-- Weak Coupling Expansion -->
     <g transform="translate(161.104375 266.869937)scale(0.1 -0.1)">
      <defs>
       <path d="M 213 4666 
L 850 4666 
L 1831 722 
L 2809 4666 
L 3519 4666 
L 4500 722 
L 5478 4666 
L 6119 4666 
L 4947 0 
L 4153 0 
L 3169 4050 
L 2175 0 
L 1381 0 
L 213 4666 
z
" id="DejaVuSans-57" transform="scale(0.015625)"/>
       <path d="M 3597 1894 
L 3597 1613 
L 953 1613 
Q 991 1019 1311 708 
Q 1631 397 2203 397 
Q 2534 397 2845 478 
Q 3156 559 3463 722 
L 3463 178 
Q 3153 47 2828 -22 
Q 2503 -91 2169 -91 
Q 1331 -91 842 396 
Q 353 884 353 1716 
Q 353 2575 817 3079 
Q 1281 3584 2069 3584 
Q 2775 3584 3186 3129 
Q 3597 2675 3597 1894 
z
M 3022 2063 
Q 3016 2534 2758 2815 
Q 2500 3097 2075 3097 
Q 1594 3097 1305 2825 
Q 1016 2553 972 2059 
L 3022 2063 
z
" id="DejaVuSans-65" transform="scale(0.015625)"/>
       <path d="M 2194 1759 
Q 1497 1759 1228 1600 
Q 959 1441 959 1056 
Q 959 750 1161 570 
Q 1363 391 1709 391 
Q 2188 391 2477 730 
Q 2766 1069 2766 1631 
L 2766 1759 
L 2194 1759 
z
M 3341 1997 
L 3341 0 
L 2766 0 
L 2766 531 
Q 2569 213 2275 61 
Q 1981 -91 1556 -91 
Q 1019 -91 701 211 
Q 384 513 384 1019 
Q 384 1609 779 1909 
Q 1175 2209 1959 2209 
L 2766 2209 
L 2766 2266 
Q 2766 2663 2505 2880 
Q 2244 3097 1772 3097 
Q 1472 3097 1187 3025 
Q 903 2953 641 2809 
L 641 3341 
Q 956 3463 1253 3523 
Q 1550 3584 1831 3584 
Q 2591 3584 2966 3190 
Q 3341 2797 3341 1997 
z
" id="DejaVuSans-61" transform="scale(0.015625)"/>
       <path d="M 581 4863 
L 1159 4863 
L 1159 1991 
L 2875 3500 
L 3609 3500 
L 1753 1863 
L 3688 0 
L 2938 0 
L 1159 1709 
L 1159 0 
L 581 0 
L 581 4863 
z
" id="DejaVuSans-6b" transform="scale(0.015625)"/>
       <path id="DejaVuSans-20" transform="scale(0.015625)"/>
       <path d="M 4122 4306 
L 4122 3641 
Q 3803 3938 3442 4084 
Q 3081 4231 2675 4231 
Q 1875 4231 1450 3742 
Q 1025 3253 1025 2328 
Q 1025 1406 1450 917 
Q 1875 428 2675 428 
Q 3081 428 3442 575 
Q 3803 722 4122 1019 
L 4122 359 
Q 3791 134 3420 21 
Q 3050 -91 2638 -91 
Q 1578 -91 968 557 
Q 359 1206 359 2328 
Q 359 3453 968 4101 
Q 1578 4750 2638 4750 
Q 3056 4750 3426 4639 
Q 3797 4528 4122 4306 
z
" id="DejaVuSans-43" transform="scale(0.015625)"/>
       <path d="M 1959 3097 
Q 1497 3097 1228 2736 
Q 959 2375 959 1747 
Q 959 1119 1226 758 
Q 1494 397 1959 397 
Q 2419 397 2687 759 
Q 2956 1122 2956 1747 
Q 2956 2369 2687 2733 
Q 2419 3097 1959 3097 
z
M 1959 3584 
Q 2709 3584 3137 3096 
Q 3566 2609 3566 1747 
Q 3566 888 3137 398 
Q 2709 -91 1959 -91 
Q 1206 -91 779 398 
Q 353 888 353 1747 
Q 353 2609 779 3096 
Q 1206 3584 1959 3584 
z
" id="DejaVuSans-6f" transform="scale(0.015625)"/>
       <path d="M 544 1381 
L 544 3500 
L 1119 3500 
L 1119 1403 
Q 1119 906 1312 657 
Q 1506 409 1894 409 
Q 2359 409 2629 706 
Q 2900 1003 2900 1516 
L 2900 3500 
L 3475 3500 
L 3475 0 
L 2900 0 
L 2900 538 
Q 2691 219 2414 64 
Q 2138 -91 1772 -91 
Q 1169 -91 856 284 
Q 544 659 544 1381 
z
M 1991 3584 
L 1991 3584 
z
" id="DejaVuSans-75" transform="scale(0.015625)"/>
       <path d="M 1159 525 
L 1159 -1331 
L 581 -1331 
L 581 3500 
L 1159 3500 
L 1159 2969 
Q 1341 3281 1617 3432 
Q 1894 3584 2278 3584 
Q 2916 3584 3314 3078 
Q 3713 2572 3713 1747 
Q 3713 922 3314 415 
Q 2916 -91 2278 -91 
Q 1894 -91 1617 61 
Q 1341 213 1159 525 
z
M 3116 1747 
Q 3116 2381 2855 2742 
Q 2594 3103 2138 3103 
Q 1681 3103 1420 2742 
Q 1159 2381 1159 1747 
Q 1159 1113 1420 752 
Q 1681 391 2138 391 
Q 2594 391 2855 752 
Q 3116 1113 3116 1747 
z
" id="DejaVuSans-70" transform="scale(0.015625)"/>
       <path d="M 603 4863 
L 1178 4863 
L 1178 0 
L 603 0 
L 603 4863 
z
" id="DejaVuSans-6c" transform="scale(0.015625)"/>
       <path d="M 603 3500 
L 1178 3500 
L 1178 0 
L 603 0 
L 603 3500 
z
M 603 4863 
L 1178 4863 
L 1178 4134 
L 603 4134 
L 603 4863 
z
" id="DejaVuSans-69" transform="scale(0.015625)"/>
       <path d="M 3513 2113 
L 3513 0 
L 2938 0 
L 2938 2094 
Q 2938 2591 2744 2837 
Q 2550 3084 2163 3084 
Q 1697 3084 1428 2787 
Q 1159 2491 1159 1978 
L 1159 0 
L 581 0 
L 581 3500 
L 1159 3500 
L 1159 2956 
Q 1366 3272 1645 3428 
Q 1925 3584 2291 3584 
Q 2894 3584 3203 3211 
Q 3513 2838 3513 2113 
z
" id="DejaVuSans-6e" transform="scale(0.015625)"/>
       <path d="M 2906 1791 
Q 2906 2416 2648 2759 
Q 2391 3103 1925 3103 
Q 1463 3103 1205 2759 
Q 947 2416 947 1791 
Q 947 1169 1205 825 
Q 1463 481 1925 481 
Q 2391 481 2648 825 
Q 2906 1169 2906 1791 
z
M 3481 434 
Q 3481 -459 3084 -895 
Q 2688 -1331 1869 -1331 
Q 1566 -1331 1297 -1286 
Q 1028 -1241 775 -1147 
L 775 -588 
Q 1028 -725 1275 -790 
Q 1522 -856 1778 -856 
Q 2344 -856 2625 -561 
Q 2906 -266 2906 331 
L 2906 616 
Q 2728 306 2450 153 
Q 2172 0 1784 0 
Q 1141 0 747 490 
Q 353 981 353 1791 
Q 353 2603 747 3093 
Q 1141 3584 1784 3584 
Q 2172 3584 2450 3431 
Q 2728 3278 2906 2969 
L 2906 3500 
L 3481 3500 
L 3481 434 
z
" id="DejaVuSans-67" transform="scale(0.015625)"/>
       <path d="M 628 4666 
L 3578 4666 
L 3578 4134 
L 1259 4134 
L 1259 2753 
L 3481 2753 
L 3481 2222 
L 1259 2222 
L 1259 531 
L 3634 531 
L 3634 0 
L 628 0 
L 628 4666 
z
" id="DejaVuSans-45" transform="scale(0.015625)"/>
       <path d="M 3513 3500 
L 2247 1797 
L 3578 0 
L 2900 0 
L 1881 1375 
L 863 0 
L 184 0 
L 1544 1831 
L 300 3500 
L 978 3500 
L 1906 2253 
L 2834 3500 
L 3513 3500 
z
" id="DejaVuSans-78" transform="scale(0.015625)"/>
       <path d="M 2834 3397 
L 2834 2853 
Q 2591 2978 2328 3040 
Q 2066 3103 1784 3103 
Q 1356 3103 1142 2972 
Q 928 2841 928 2578 
Q 928 2378 1081 2264 
Q 1234 2150 1697 2047 
L 1894 2003 
Q 2506 1872 2764 1633 
Q 3022 1394 3022 966 
Q 3022 478 2636 193 
Q 2250 -91 1575 -91 
Q 1294 -91 989 -36 
Q 684 19 347 128 
L 347 722 
Q 666 556 975 473 
Q 1284 391 1588 391 
Q 1994 391 2212 530 
Q 2431 669 2431 922 
Q 2431 1156 2273 1281 
Q 2116 1406 1581 1522 
L 1381 1569 
Q 847 1681 609 1914 
Q 372 2147 372 2553 
Q 372 3047 722 3315 
Q 1072 3584 1716 3584 
Q 2034 3584 2315 3537 
Q 2597 3491 2834 3397 
z
" id="DejaVuSans-73" transform="scale(0.015625)"/>
      </defs>
      <use xlink:href="#DejaVuSans-57"/>
      <use x="93.001953" xlink:href="#DejaVuSans-65"/>
      <use x="154.525391" xlink:href="#DejaVuSans-61"/>
      <use x="215.804688" xlink:href="#DejaVuSans-6b"/>
      <use x="273.714844" xlink:href="#DejaVuSans-20"/>
      <use x="305.501953" xlink:href="#DejaVuSans-43"/>
      <use x="375.326172" xlink:href="#DejaVuSans-6f"/>
      <use x="436.507812" xlink:href="#DejaVuSans-75"/>
      <use x="499.886719" xlink:href="#DejaVuSans-70"/>
      <use x="563.363281" xlink:href="#DejaVuSans-6c"/>
      <use x="591.146484" xlink:href="#DejaVuSans-69"/>
      <use x="618.929688" xlink:href="#DejaVuSans-6e"/>
      <use x="682.308594" xlink:href="#DejaVuSans-67"/>
      <use x="745.785156" xlink:href="#DejaVuSans-20"/>
      <use x="777.572266" xlink:href="#DejaVuSans-45"/>
      <use x="840.755859" xlink:href="#DejaVuSans-78"/>
      <use x="899.935547" xlink:href="#DejaVuSans-70"/>
      <use x="963.412109" xlink:href="#DejaVuSans-61"/>
      <use x="1024.691406" xlink:href="#DejaVuSans-6e"/>
      <use x="1088.070312" xlink:href="#DejaVuSans-73"/>
      <use x="1140.169922" xlink:href="#DejaVuSans-69"/>
      <use x="1167.953125" xlink:href="#DejaVuSans-6f"/>
      <use x="1229.134766" xlink:href="#DejaVuSans-6e"/>
     </g>
    </g>
    <g id="line2d_20">
     <path d="M 133.104375 278.048063 
L 153.104375 278.048063 
" style="fill:none;stroke:#0000ff;stroke-linecap:square;stroke-width:1.5;"/>
    </g>
    <g id="line2d_21"/>
    <g id="text_18">
     <!-- Strong Coupling Expansion -->
     <g transform="translate(161.104375 281.548063)scale(0.1 -0.1)">
      <defs>
       <path d="M 3425 4513 
L 3425 3897 
Q 3066 4069 2747 4153 
Q 2428 4238 2131 4238 
Q 1616 4238 1336 4038 
Q 1056 3838 1056 3469 
Q 1056 3159 1242 3001 
Q 1428 2844 1947 2747 
L 2328 2669 
Q 3034 2534 3370 2195 
Q 3706 1856 3706 1288 
Q 3706 609 3251 259 
Q 2797 -91 1919 -91 
Q 1588 -91 1214 -16 
Q 841 59 441 206 
L 441 856 
Q 825 641 1194 531 
Q 1563 422 1919 422 
Q 2459 422 2753 634 
Q 3047 847 3047 1241 
Q 3047 1584 2836 1778 
Q 2625 1972 2144 2069 
L 1759 2144 
Q 1053 2284 737 2584 
Q 422 2884 422 3419 
Q 422 4038 858 4394 
Q 1294 4750 2059 4750 
Q 2388 4750 2728 4690 
Q 3069 4631 3425 4513 
z
" id="DejaVuSans-53" transform="scale(0.015625)"/>
       <path d="M 1172 4494 
L 1172 3500 
L 2356 3500 
L 2356 3053 
L 1172 3053 
L 1172 1153 
Q 1172 725 1289 603 
Q 1406 481 1766 481 
L 2356 481 
L 2356 0 
L 1766 0 
Q 1100 0 847 248 
Q 594 497 594 1153 
L 594 3053 
L 172 3053 
L 172 3500 
L 594 3500 
L 594 4494 
L 1172 4494 
z
" id="DejaVuSans-74" transform="scale(0.015625)"/>
       <path d="M 2631 2963 
Q 2534 3019 2420 3045 
Q 2306 3072 2169 3072 
Q 1681 3072 1420 2755 
Q 1159 2438 1159 1844 
L 1159 0 
L 581 0 
L 581 3500 
L 1159 3500 
L 1159 2956 
Q 1341 3275 1631 3429 
Q 1922 3584 2338 3584 
Q 2397 3584 2469 3576 
Q 2541 3569 2628 3553 
L 2631 2963 
z
" id="DejaVuSans-72" transform="scale(0.015625)"/>
      </defs>
      <use xlink:href="#DejaVuSans-53"/>
      <use x="63.476562" xlink:href="#DejaVuSans-74"/>
      <use x="102.685547" xlink:href="#DejaVuSans-72"/>
      <use x="141.548828" xlink:href="#DejaVuSans-6f"/>
      <use x="202.730469" xlink:href="#DejaVuSans-6e"/>
      <use x="266.109375" xlink:href="#DejaVuSans-67"/>
      <use x="329.585938" xlink:href="#DejaVuSans-20"/>
      <use x="361.373047" xlink:href="#DejaVuSans-43"/>
      <use x="431.197266" xlink:href="#DejaVuSans-6f"/>
      <use x="492.378906" xlink:href="#DejaVuSans-75"/>
      <use x="555.757812" xlink:href="#DejaVuSans-70"/>
      <use x="619.234375" xlink:href="#DejaVuSans-6c"/>
      <use x="647.017578" xlink:href="#DejaVuSans-69"/>
      <use x="674.800781" xlink:href="#DejaVuSans-6e"/>
      <use x="738.179688" xlink:href="#DejaVuSans-67"/>
      <use x="801.65625" xlink:href="#DejaVuSans-20"/>
      <use x="833.443359" xlink:href="#DejaVuSans-45"/>
      <use x="896.626953" xlink:href="#DejaVuSans-78"/>
      <use x="955.806641" xlink:href="#DejaVuSans-70"/>
      <use x="1019.283203" xlink:href="#DejaVuSans-61"/>
      <use x="1080.5625" xlink:href="#DejaVuSans-6e"/>
      <use x="1143.941406" xlink:href="#DejaVuSans-73"/>
      <use x="1196.041016" xlink:href="#DejaVuSans-69"/>
      <use x="1223.824219" xlink:href="#DejaVuSans-6f"/>
      <use x="1285.005859" xlink:href="#DejaVuSans-6e"/>
     </g>
    </g>
    <g id="LineCollection_2">
     <path d="M 143.104375 297.726187 
L 143.104375 287.726187 
" style="fill:none;stroke:#008000;stroke-width:1.5;"/>
    </g>
    <g id="line2d_22"/>
    <g id="line2d_23">
     <g>
      <use style="fill:#008000;stroke:#008000;" x="143.104375" xlink:href="#m9239689dd2" y="292.726187"/>
     </g>
    </g>
    <g id="text_19">
     <!-- Data with Taylor of Order = 10 and N_order = 10 -->
     <g transform="translate(161.104375 296.226187)scale(0.1 -0.1)">
      <defs>
       <path d="M 1259 4147 
L 1259 519 
L 2022 519 
Q 2988 519 3436 956 
Q 3884 1394 3884 2338 
Q 3884 3275 3436 3711 
Q 2988 4147 2022 4147 
L 1259 4147 
z
M 628 4666 
L 1925 4666 
Q 3281 4666 3915 4102 
Q 4550 3538 4550 2338 
Q 4550 1131 3912 565 
Q 3275 0 1925 0 
L 628 0 
L 628 4666 
z
" id="DejaVuSans-44" transform="scale(0.015625)"/>
       <path d="M 269 3500 
L 844 3500 
L 1563 769 
L 2278 3500 
L 2956 3500 
L 3675 769 
L 4391 3500 
L 4966 3500 
L 4050 0 
L 3372 0 
L 2619 2869 
L 1863 0 
L 1184 0 
L 269 3500 
z
" id="DejaVuSans-77" transform="scale(0.015625)"/>
       <path d="M 3513 2113 
L 3513 0 
L 2938 0 
L 2938 2094 
Q 2938 2591 2744 2837 
Q 2550 3084 2163 3084 
Q 1697 3084 1428 2787 
Q 1159 2491 1159 1978 
L 1159 0 
L 581 0 
L 581 4863 
L 1159 4863 
L 1159 2956 
Q 1366 3272 1645 3428 
Q 1925 3584 2291 3584 
Q 2894 3584 3203 3211 
Q 3513 2838 3513 2113 
z
" id="DejaVuSans-68" transform="scale(0.015625)"/>
       <path d="M -19 4666 
L 3928 4666 
L 3928 4134 
L 2272 4134 
L 2272 0 
L 1638 0 
L 1638 4134 
L -19 4134 
L -19 4666 
z
" id="DejaVuSans-54" transform="scale(0.015625)"/>
       <path d="M 2059 -325 
Q 1816 -950 1584 -1140 
Q 1353 -1331 966 -1331 
L 506 -1331 
L 506 -850 
L 844 -850 
Q 1081 -850 1212 -737 
Q 1344 -625 1503 -206 
L 1606 56 
L 191 3500 
L 800 3500 
L 1894 763 
L 2988 3500 
L 3597 3500 
L 2059 -325 
z
" id="DejaVuSans-79" transform="scale(0.015625)"/>
       <path d="M 2375 4863 
L 2375 4384 
L 1825 4384 
Q 1516 4384 1395 4259 
Q 1275 4134 1275 3809 
L 1275 3500 
L 2222 3500 
L 2222 3053 
L 1275 3053 
L 1275 0 
L 697 0 
L 697 3053 
L 147 3053 
L 147 3500 
L 697 3500 
L 697 3744 
Q 697 4328 969 4595 
Q 1241 4863 1831 4863 
L 2375 4863 
z
" id="DejaVuSans-66" transform="scale(0.015625)"/>
       <path d="M 2522 4238 
Q 1834 4238 1429 3725 
Q 1025 3213 1025 2328 
Q 1025 1447 1429 934 
Q 1834 422 2522 422 
Q 3209 422 3611 934 
Q 4013 1447 4013 2328 
Q 4013 3213 3611 3725 
Q 3209 4238 2522 4238 
z
M 2522 4750 
Q 3503 4750 4090 4092 
Q 4678 3434 4678 2328 
Q 4678 1225 4090 567 
Q 3503 -91 2522 -91 
Q 1538 -91 948 565 
Q 359 1222 359 2328 
Q 359 3434 948 4092 
Q 1538 4750 2522 4750 
z
" id="DejaVuSans-4f" transform="scale(0.015625)"/>
       <path d="M 2906 2969 
L 2906 4863 
L 3481 4863 
L 3481 0 
L 2906 0 
L 2906 525 
Q 2725 213 2448 61 
Q 2172 -91 1784 -91 
Q 1150 -91 751 415 
Q 353 922 353 1747 
Q 353 2572 751 3078 
Q 1150 3584 1784 3584 
Q 2172 3584 2448 3432 
Q 2725 3281 2906 2969 
z
M 947 1747 
Q 947 1113 1208 752 
Q 1469 391 1925 391 
Q 2381 391 2643 752 
Q 2906 1113 2906 1747 
Q 2906 2381 2643 2742 
Q 2381 3103 1925 3103 
Q 1469 3103 1208 2742 
Q 947 2381 947 1747 
z
" id="DejaVuSans-64" transform="scale(0.015625)"/>
       <path d="M 678 2906 
L 4684 2906 
L 4684 2381 
L 678 2381 
L 678 2906 
z
M 678 1631 
L 4684 1631 
L 4684 1100 
L 678 1100 
L 678 1631 
z
" id="DejaVuSans-3d" transform="scale(0.015625)"/>
       <path d="M 628 4666 
L 1478 4666 
L 3547 763 
L 3547 4666 
L 4159 4666 
L 4159 0 
L 3309 0 
L 1241 3903 
L 1241 0 
L 628 0 
L 628 4666 
z
" id="DejaVuSans-4e" transform="scale(0.015625)"/>
       <path d="M 3263 -1063 
L 3263 -1509 
L -63 -1509 
L -63 -1063 
L 3263 -1063 
z
" id="DejaVuSans-5f" transform="scale(0.015625)"/>
      </defs>
      <use xlink:href="#DejaVuSans-44"/>
      <use x="77.001953" xlink:href="#DejaVuSans-61"/>
      <use x="138.28125" xlink:href="#DejaVuSans-74"/>
      <use x="177.490234" xlink:href="#DejaVuSans-61"/>
      <use x="238.769531" xlink:href="#DejaVuSans-20"/>
      <use x="270.556641" xlink:href="#DejaVuSans-77"/>
      <use x="352.34375" xlink:href="#DejaVuSans-69"/>
      <use x="380.126953" xlink:href="#DejaVuSans-74"/>
      <use x="419.335938" xlink:href="#DejaVuSans-68"/>
      <use x="482.714844" xlink:href="#DejaVuSans-20"/>
      <use x="514.501953" xlink:href="#DejaVuSans-54"/>
      <use x="559.085938" xlink:href="#DejaVuSans-61"/>
      <use x="620.365234" xlink:href="#DejaVuSans-79"/>
      <use x="679.544922" xlink:href="#DejaVuSans-6c"/>
      <use x="707.328125" xlink:href="#DejaVuSans-6f"/>
      <use x="768.509766" xlink:href="#DejaVuSans-72"/>
      <use x="809.623047" xlink:href="#DejaVuSans-20"/>
      <use x="841.410156" xlink:href="#DejaVuSans-6f"/>
      <use x="902.591797" xlink:href="#DejaVuSans-66"/>
      <use x="937.796875" xlink:href="#DejaVuSans-20"/>
      <use x="969.583984" xlink:href="#DejaVuSans-4f"/>
      <use x="1048.294922" xlink:href="#DejaVuSans-72"/>
      <use x="1087.658203" xlink:href="#DejaVuSans-64"/>
      <use x="1151.134766" xlink:href="#DejaVuSans-65"/>
      <use x="1212.658203" xlink:href="#DejaVuSans-72"/>
      <use x="1253.771484" xlink:href="#DejaVuSans-20"/>
      <use x="1285.558594" xlink:href="#DejaVuSans-3d"/>
      <use x="1369.347656" xlink:href="#DejaVuSans-20"/>
      <use x="1401.134766" xlink:href="#DejaVuSans-31"/>
      <use x="1464.757812" xlink:href="#DejaVuSans-30"/>
      <use x="1528.380859" xlink:href="#DejaVuSans-20"/>
      <use x="1560.167969" xlink:href="#DejaVuSans-61"/>
      <use x="1621.447266" xlink:href="#DejaVuSans-6e"/>
      <use x="1684.826172" xlink:href="#DejaVuSans-64"/>
      <use x="1748.302734" xlink:href="#DejaVuSans-20"/>
      <use x="1780.089844" xlink:href="#DejaVuSans-4e"/>
      <use x="1854.894531" xlink:href="#DejaVuSans-5f"/>
      <use x="1904.894531" xlink:href="#DejaVuSans-6f"/>
      <use x="1966.076172" xlink:href="#DejaVuSans-72"/>
      <use x="2005.439453" xlink:href="#DejaVuSans-64"/>
      <use x="2068.916016" xlink:href="#DejaVuSans-65"/>
      <use x="2130.439453" xlink:href="#DejaVuSans-72"/>
      <use x="2171.552734" xlink:href="#DejaVuSans-20"/>
      <use x="2203.339844" xlink:href="#DejaVuSans-3d"/>
      <use x="2287.128906" xlink:href="#DejaVuSans-20"/>
      <use x="2318.916016" xlink:href="#DejaVuSans-31"/>
      <use x="2382.539062" xlink:href="#DejaVuSans-30"/>
     </g>
    </g>
   </g>
  </g>
 </g>
 <defs>
  <clipPath id="p2e2dda628a">
   <rect height="266.112" width="357.12" x="57.6" y="41.472"/>
  </clipPath>
 </defs>
</svg>
