<?xml version="1.0" encoding="utf-8" standalone="no"?>
<!DOCTYPE svg PUBLIC "-//W3C//DTD SVG 1.1//EN"
  "http://www.w3.org/Graphics/SVG/1.1/DTD/svg11.dtd">
<svg xmlns:xlink="http://www.w3.org/1999/xlink" width="460.8pt" height="345.6pt" viewBox="0 0 460.8 345.6" xmlns="http://www.w3.org/2000/svg" version="1.1">
 <metadata>
  <rdf:RDF xmlns:dc="http://purl.org/dc/elements/1.1/" xmlns:cc="http://creativecommons.org/ns#" xmlns:rdf="http://www.w3.org/1999/02/22-rdf-syntax-ns#">
   <cc:Work>
    <dc:type rdf:resource="http://purl.org/dc/dcmitype/StillImage"/>
    <dc:date>2023-11-02T22:27:27.109385</dc:date>
    <dc:format>image/svg+xml</dc:format>
    <dc:creator>
     <cc:Agent>
      <dc:title>Matplotlib v3.6.2, https://matplotlib.org/</dc:title>
     </cc:Agent>
    </dc:creator>
   </cc:Work>
  </rdf:RDF>
 </metadata>
 <defs>
  <style type="text/css">*{stroke-linejoin: round; stroke-linecap: butt}</style>
 </defs>
 <g id="figure_1">
  <g id="patch_1">
   <path d="M 0 345.6 
L 460.8 345.6 
L 460.8 0 
L 0 0 
z
" style="fill: #ffffff"/>
  </g>
  <g id="axes_1">
   <g id="patch_2">
    <path d="M 57.6 307.584 
L 414.72 307.584 
L 414.72 41.472 
L 57.6 41.472 
z
" style="fill: #ffffff"/>
   </g>
   <g id="matplotlib.axis_1">
    <g id="xtick_1">
     <g id="line2d_1">
      <defs>
       <path id="ma1a6f59a62" d="M 0 0 
L 0 3.5 
" style="stroke: #000000; stroke-width: 0.8"/>
      </defs>
      <g>
       <use xlink:href="#ma1a6f59a62" x="57.6" y="307.584" style="stroke: #000000; stroke-width: 0.8"/>
      </g>
     </g>
     <g id="text_1">
      <!-- 0 -->
      <g transform="translate(54.41875 322.182437) scale(0.1 -0.1)">
       <defs>
        <path id="DejaVuSans-30" d="M 2034 4250 
Q 1547 4250 1301 3770 
Q 1056 3291 1056 2328 
Q 1056 1369 1301 889 
Q 1547 409 2034 409 
Q 2525 409 2770 889 
Q 3016 1369 3016 2328 
Q 3016 3291 2770 3770 
Q 2525 4250 2034 4250 
z
M 2034 4750 
Q 2819 4750 3233 4129 
Q 3647 3509 3647 2328 
Q 3647 1150 3233 529 
Q 2819 -91 2034 -91 
Q 1250 -91 836 529 
Q 422 1150 422 2328 
Q 422 3509 836 4129 
Q 1250 4750 2034 4750 
z
" transform="scale(0.015625)"/>
       </defs>
       <use xlink:href="#DejaVuSans-30"/>
      </g>
     </g>
    </g>
    <g id="xtick_2">
     <g id="line2d_2">
      <g>
       <use xlink:href="#ma1a6f59a62" x="112.122137" y="307.584" style="stroke: #000000; stroke-width: 0.8"/>
      </g>
     </g>
     <g id="text_2">
      <!-- 2 -->
      <g transform="translate(108.940887 322.182437) scale(0.1 -0.1)">
       <defs>
        <path id="DejaVuSans-32" d="M 1228 531 
L 3431 531 
L 3431 0 
L 469 0 
L 469 531 
Q 828 903 1448 1529 
Q 2069 2156 2228 2338 
Q 2531 2678 2651 2914 
Q 2772 3150 2772 3378 
Q 2772 3750 2511 3984 
Q 2250 4219 1831 4219 
Q 1534 4219 1204 4116 
Q 875 4013 500 3803 
L 500 4441 
Q 881 4594 1212 4672 
Q 1544 4750 1819 4750 
Q 2544 4750 2975 4387 
Q 3406 4025 3406 3419 
Q 3406 3131 3298 2873 
Q 3191 2616 2906 2266 
Q 2828 2175 2409 1742 
Q 1991 1309 1228 531 
z
" transform="scale(0.015625)"/>
       </defs>
       <use xlink:href="#DejaVuSans-32"/>
      </g>
     </g>
    </g>
    <g id="xtick_3">
     <g id="line2d_3">
      <g>
       <use xlink:href="#ma1a6f59a62" x="166.644275" y="307.584" style="stroke: #000000; stroke-width: 0.8"/>
      </g>
     </g>
     <g id="text_3">
      <!-- 4 -->
      <g transform="translate(163.463025 322.182437) scale(0.1 -0.1)">
       <defs>
        <path id="DejaVuSans-34" d="M 2419 4116 
L 825 1625 
L 2419 1625 
L 2419 4116 
z
M 2253 4666 
L 3047 4666 
L 3047 1625 
L 3713 1625 
L 3713 1100 
L 3047 1100 
L 3047 0 
L 2419 0 
L 2419 1100 
L 313 1100 
L 313 1709 
L 2253 4666 
z
" transform="scale(0.015625)"/>
       </defs>
       <use xlink:href="#DejaVuSans-34"/>
      </g>
     </g>
    </g>
    <g id="xtick_4">
     <g id="line2d_4">
      <g>
       <use xlink:href="#ma1a6f59a62" x="221.166412" y="307.584" style="stroke: #000000; stroke-width: 0.8"/>
      </g>
     </g>
     <g id="text_4">
      <!-- 6 -->
      <g transform="translate(217.985162 322.182437) scale(0.1 -0.1)">
       <defs>
        <path id="DejaVuSans-36" d="M 2113 2584 
Q 1688 2584 1439 2293 
Q 1191 2003 1191 1497 
Q 1191 994 1439 701 
Q 1688 409 2113 409 
Q 2538 409 2786 701 
Q 3034 994 3034 1497 
Q 3034 2003 2786 2293 
Q 2538 2584 2113 2584 
z
M 3366 4563 
L 3366 3988 
Q 3128 4100 2886 4159 
Q 2644 4219 2406 4219 
Q 1781 4219 1451 3797 
Q 1122 3375 1075 2522 
Q 1259 2794 1537 2939 
Q 1816 3084 2150 3084 
Q 2853 3084 3261 2657 
Q 3669 2231 3669 1497 
Q 3669 778 3244 343 
Q 2819 -91 2113 -91 
Q 1303 -91 875 529 
Q 447 1150 447 2328 
Q 447 3434 972 4092 
Q 1497 4750 2381 4750 
Q 2619 4750 2861 4703 
Q 3103 4656 3366 4563 
z
" transform="scale(0.015625)"/>
       </defs>
       <use xlink:href="#DejaVuSans-36"/>
      </g>
     </g>
    </g>
    <g id="xtick_5">
     <g id="line2d_5">
      <g>
       <use xlink:href="#ma1a6f59a62" x="275.68855" y="307.584" style="stroke: #000000; stroke-width: 0.8"/>
      </g>
     </g>
     <g id="text_5">
      <!-- 8 -->
      <g transform="translate(272.5073 322.182437) scale(0.1 -0.1)">
       <defs>
        <path id="DejaVuSans-38" d="M 2034 2216 
Q 1584 2216 1326 1975 
Q 1069 1734 1069 1313 
Q 1069 891 1326 650 
Q 1584 409 2034 409 
Q 2484 409 2743 651 
Q 3003 894 3003 1313 
Q 3003 1734 2745 1975 
Q 2488 2216 2034 2216 
z
M 1403 2484 
Q 997 2584 770 2862 
Q 544 3141 544 3541 
Q 544 4100 942 4425 
Q 1341 4750 2034 4750 
Q 2731 4750 3128 4425 
Q 3525 4100 3525 3541 
Q 3525 3141 3298 2862 
Q 3072 2584 2669 2484 
Q 3125 2378 3379 2068 
Q 3634 1759 3634 1313 
Q 3634 634 3220 271 
Q 2806 -91 2034 -91 
Q 1263 -91 848 271 
Q 434 634 434 1313 
Q 434 1759 690 2068 
Q 947 2378 1403 2484 
z
M 1172 3481 
Q 1172 3119 1398 2916 
Q 1625 2713 2034 2713 
Q 2441 2713 2670 2916 
Q 2900 3119 2900 3481 
Q 2900 3844 2670 4047 
Q 2441 4250 2034 4250 
Q 1625 4250 1398 4047 
Q 1172 3844 1172 3481 
z
" transform="scale(0.015625)"/>
       </defs>
       <use xlink:href="#DejaVuSans-38"/>
      </g>
     </g>
    </g>
    <g id="xtick_6">
     <g id="line2d_6">
      <g>
       <use xlink:href="#ma1a6f59a62" x="330.210687" y="307.584" style="stroke: #000000; stroke-width: 0.8"/>
      </g>
     </g>
     <g id="text_6">
      <!-- 10 -->
      <g transform="translate(323.848187 322.182437) scale(0.1 -0.1)">
       <defs>
        <path id="DejaVuSans-31" d="M 794 531 
L 1825 531 
L 1825 4091 
L 703 3866 
L 703 4441 
L 1819 4666 
L 2450 4666 
L 2450 531 
L 3481 531 
L 3481 0 
L 794 0 
L 794 531 
z
" transform="scale(0.015625)"/>
       </defs>
       <use xlink:href="#DejaVuSans-31"/>
       <use xlink:href="#DejaVuSans-30" x="63.623047"/>
      </g>
     </g>
    </g>
    <g id="xtick_7">
     <g id="line2d_7">
      <g>
       <use xlink:href="#ma1a6f59a62" x="384.732824" y="307.584" style="stroke: #000000; stroke-width: 0.8"/>
      </g>
     </g>
     <g id="text_7">
      <!-- 12 -->
      <g transform="translate(378.370324 322.182437) scale(0.1 -0.1)">
       <use xlink:href="#DejaVuSans-31"/>
       <use xlink:href="#DejaVuSans-32" x="63.623047"/>
      </g>
     </g>
    </g>
    <g id="text_8">
     <!-- $\beta$ -->
     <g transform="translate(232.96 335.962125) scale(0.1 -0.1)">
      <defs>
       <path id="DejaVuSans-Oblique-3b2" d="M 872 216 
L 572 -1331 
L -6 -1331 
L 928 3478 
Q 1206 4903 2538 4903 
Q 3888 4903 3659 3700 
Q 3503 2844 2894 2531 
Q 3713 2250 3553 1416 
Q 3272 -69 1759 -66 
Q 1097 -63 872 216 
z
M 1019 966 
Q 1259 422 1875 425 
Q 2775 425 2966 1406 
Q 3138 2288 1675 2219 
L 1778 2750 
Q 2909 2731 3106 3750 
Q 3241 4438 2509 4434 
Q 1691 4434 1503 3459 
L 1019 966 
z
" transform="scale(0.015625)"/>
      </defs>
      <use xlink:href="#DejaVuSans-Oblique-3b2" transform="translate(0 0.390625)"/>
     </g>
    </g>
   </g>
   <g id="matplotlib.axis_2">
    <g id="ytick_1">
     <g id="line2d_8">
      <defs>
       <path id="m3c99b976b8" d="M 0 0 
L -3.5 0 
" style="stroke: #000000; stroke-width: 0.8"/>
      </defs>
      <g>
       <use xlink:href="#m3c99b976b8" x="57.6" y="295.488" style="stroke: #000000; stroke-width: 0.8"/>
      </g>
     </g>
     <g id="text_9">
      <!-- 0.0 -->
      <g transform="translate(34.696875 299.287219) scale(0.1 -0.1)">
       <defs>
        <path id="DejaVuSans-2e" d="M 684 794 
L 1344 794 
L 1344 0 
L 684 0 
L 684 794 
z
" transform="scale(0.015625)"/>
       </defs>
       <use xlink:href="#DejaVuSans-30"/>
       <use xlink:href="#DejaVuSans-2e" x="63.623047"/>
       <use xlink:href="#DejaVuSans-30" x="95.410156"/>
      </g>
     </g>
    </g>
    <g id="ytick_2">
     <g id="line2d_9">
      <g>
       <use xlink:href="#m3c99b976b8" x="57.6" y="243.29467" style="stroke: #000000; stroke-width: 0.8"/>
      </g>
     </g>
     <g id="text_10">
      <!-- 0.2 -->
      <g transform="translate(34.696875 247.093889) scale(0.1 -0.1)">
       <use xlink:href="#DejaVuSans-30"/>
       <use xlink:href="#DejaVuSans-2e" x="63.623047"/>
       <use xlink:href="#DejaVuSans-32" x="95.410156"/>
      </g>
     </g>
    </g>
    <g id="ytick_3">
     <g id="line2d_10">
      <g>
       <use xlink:href="#m3c99b976b8" x="57.6" y="191.10134" style="stroke: #000000; stroke-width: 0.8"/>
      </g>
     </g>
     <g id="text_11">
      <!-- 0.4 -->
      <g transform="translate(34.696875 194.900559) scale(0.1 -0.1)">
       <use xlink:href="#DejaVuSans-30"/>
       <use xlink:href="#DejaVuSans-2e" x="63.623047"/>
       <use xlink:href="#DejaVuSans-34" x="95.410156"/>
      </g>
     </g>
    </g>
    <g id="ytick_4">
     <g id="line2d_11">
      <g>
       <use xlink:href="#m3c99b976b8" x="57.6" y="138.908011" style="stroke: #000000; stroke-width: 0.8"/>
      </g>
     </g>
     <g id="text_12">
      <!-- 0.6 -->
      <g transform="translate(34.696875 142.707229) scale(0.1 -0.1)">
       <use xlink:href="#DejaVuSans-30"/>
       <use xlink:href="#DejaVuSans-2e" x="63.623047"/>
       <use xlink:href="#DejaVuSans-36" x="95.410156"/>
      </g>
     </g>
    </g>
    <g id="ytick_5">
     <g id="line2d_12">
      <g>
       <use xlink:href="#m3c99b976b8" x="57.6" y="86.714681" style="stroke: #000000; stroke-width: 0.8"/>
      </g>
     </g>
     <g id="text_13">
      <!-- 0.8 -->
      <g transform="translate(34.696875 90.513899) scale(0.1 -0.1)">
       <use xlink:href="#DejaVuSans-30"/>
       <use xlink:href="#DejaVuSans-2e" x="63.623047"/>
       <use xlink:href="#DejaVuSans-38" x="95.410156"/>
      </g>
     </g>
    </g>
    <g id="text_14">
     <!-- $e$ -->
     <g transform="translate(28.617188 177.628) rotate(-90) scale(0.1 -0.1)">
      <defs>
       <path id="DejaVuSans-Oblique-65" d="M 3078 2063 
Q 3088 2113 3092 2166 
Q 3097 2219 3097 2272 
Q 3097 2653 2873 2875 
Q 2650 3097 2266 3097 
Q 1838 3097 1509 2826 
Q 1181 2556 1013 2059 
L 3078 2063 
z
M 3578 1613 
L 903 1613 
Q 884 1494 878 1425 
Q 872 1356 872 1306 
Q 872 872 1139 634 
Q 1406 397 1894 397 
Q 2269 397 2603 481 
Q 2938 566 3225 728 
L 3116 159 
Q 2806 34 2476 -28 
Q 2147 -91 1806 -91 
Q 1078 -91 686 257 
Q 294 606 294 1247 
Q 294 1794 489 2264 
Q 684 2734 1063 3103 
Q 1306 3334 1642 3459 
Q 1978 3584 2356 3584 
Q 2950 3584 3301 3228 
Q 3653 2872 3653 2272 
Q 3653 2128 3634 1964 
Q 3616 1800 3578 1613 
z
" transform="scale(0.015625)"/>
      </defs>
      <use xlink:href="#DejaVuSans-Oblique-65"/>
     </g>
    </g>
   </g>
   <g id="LineCollection_1">
    <path d="M 60.326107 292.23029 
L 60.326107 292.185718 
" clip-path="url(#pac7b29367e)" style="fill: none; stroke: #008000; stroke-width: 1.5"/>
    <path d="M 63.052214 288.987025 
L 63.052214 288.941496 
" clip-path="url(#pac7b29367e)" style="fill: none; stroke: #008000; stroke-width: 1.5"/>
    <path d="M 65.778321 285.629922 
L 65.778321 285.584298 
" clip-path="url(#pac7b29367e)" style="fill: none; stroke: #008000; stroke-width: 1.5"/>
    <path d="M 68.504427 282.283354 
L 68.504427 282.234635 
" clip-path="url(#pac7b29367e)" style="fill: none; stroke: #008000; stroke-width: 1.5"/>
    <path d="M 71.230534 278.883615 
L 71.230534 278.836034 
" clip-path="url(#pac7b29367e)" style="fill: none; stroke: #008000; stroke-width: 1.5"/>
    <path d="M 73.956641 275.440637 
L 73.956641 275.391662 
" clip-path="url(#pac7b29367e)" style="fill: none; stroke: #008000; stroke-width: 1.5"/>
    <path d="M 76.682748 271.845539 
L 76.682748 271.793787 
" clip-path="url(#pac7b29367e)" style="fill: none; stroke: #008000; stroke-width: 1.5"/>
    <path d="M 79.408855 268.146881 
L 79.408855 268.093636 
" clip-path="url(#pac7b29367e)" style="fill: none; stroke: #008000; stroke-width: 1.5"/>
    <path d="M 82.134962 264.276738 
L 82.134962 264.220536 
" clip-path="url(#pac7b29367e)" style="fill: none; stroke: #008000; stroke-width: 1.5"/>
    <path d="M 84.861069 260.284605 
L 84.861069 260.224747 
" clip-path="url(#pac7b29367e)" style="fill: none; stroke: #008000; stroke-width: 1.5"/>
    <path d="M 87.587176 256.033156 
L 87.587176 255.970161 
" clip-path="url(#pac7b29367e)" style="fill: none; stroke: #008000; stroke-width: 1.5"/>
    <path d="M 90.313282 251.584807 
L 90.313282 251.514915 
" clip-path="url(#pac7b29367e)" style="fill: none; stroke: #008000; stroke-width: 1.5"/>
    <path d="M 93.039389 246.809848 
L 93.039389 246.736777 
" clip-path="url(#pac7b29367e)" style="fill: none; stroke: #008000; stroke-width: 1.5"/>
    <path d="M 95.765496 241.640931 
L 95.765496 241.564069 
" clip-path="url(#pac7b29367e)" style="fill: none; stroke: #008000; stroke-width: 1.5"/>
    <path d="M 98.491603 236.088447 
L 98.491603 236.000443 
" clip-path="url(#pac7b29367e)" style="fill: none; stroke: #008000; stroke-width: 1.5"/>
    <path d="M 101.21771 229.953427 
L 101.21771 229.852422 
" clip-path="url(#pac7b29367e)" style="fill: none; stroke: #008000; stroke-width: 1.5"/>
    <path d="M 103.943817 223.177918 
L 103.943817 223.073898 
" clip-path="url(#pac7b29367e)" style="fill: none; stroke: #008000; stroke-width: 1.5"/>
    <path d="M 106.669924 215.501908 
L 106.669924 215.362716 
" clip-path="url(#pac7b29367e)" style="fill: none; stroke: #008000; stroke-width: 1.5"/>
    <path d="M 109.396031 207.064557 
L 109.396031 206.91885 
" clip-path="url(#pac7b29367e)" style="fill: none; stroke: #008000; stroke-width: 1.5"/>
    <path d="M 112.122137 197.361778 
L 112.122137 197.194335 
" clip-path="url(#pac7b29367e)" style="fill: none; stroke: #008000; stroke-width: 1.5"/>
    <path d="M 114.848244 186.805218 
L 114.848244 186.599182 
" clip-path="url(#pac7b29367e)" style="fill: none; stroke: #008000; stroke-width: 1.5"/>
    <path d="M 117.574351 174.905429 
L 117.574351 174.643539 
" clip-path="url(#pac7b29367e)" style="fill: none; stroke: #008000; stroke-width: 1.5"/>
    <path d="M 120.300458 163.620621 
L 120.300458 163.409718 
" clip-path="url(#pac7b29367e)" style="fill: none; stroke: #008000; stroke-width: 1.5"/>
    <path d="M 123.026565 155.493145 
L 123.026565 155.341315 
" clip-path="url(#pac7b29367e)" style="fill: none; stroke: #008000; stroke-width: 1.5"/>
    <path d="M 125.752672 148.529246 
L 125.752672 148.381043 
" clip-path="url(#pac7b29367e)" style="fill: none; stroke: #008000; stroke-width: 1.5"/>
    <path d="M 128.478779 142.776434 
L 128.478779 142.641478 
" clip-path="url(#pac7b29367e)" style="fill: none; stroke: #008000; stroke-width: 1.5"/>
    <path d="M 131.204885 137.67137 
L 131.204885 137.539255 
" clip-path="url(#pac7b29367e)" style="fill: none; stroke: #008000; stroke-width: 1.5"/>
    <path d="M 133.930992 133.078457 
L 133.930992 132.941239 
" clip-path="url(#pac7b29367e)" style="fill: none; stroke: #008000; stroke-width: 1.5"/>
    <path d="M 136.657099 128.97624 
L 136.657099 128.864558 
" clip-path="url(#pac7b29367e)" style="fill: none; stroke: #008000; stroke-width: 1.5"/>
    <path d="M 139.383206 125.333034 
L 139.383206 125.225035 
" clip-path="url(#pac7b29367e)" style="fill: none; stroke: #008000; stroke-width: 1.5"/>
    <path d="M 142.109313 121.792814 
L 142.109313 121.680995 
" clip-path="url(#pac7b29367e)" style="fill: none; stroke: #008000; stroke-width: 1.5"/>
    <path d="M 144.83542 118.715421 
L 144.83542 118.60668 
" clip-path="url(#pac7b29367e)" style="fill: none; stroke: #008000; stroke-width: 1.5"/>
    <path d="M 147.561527 115.675626 
L 147.561527 115.567987 
" clip-path="url(#pac7b29367e)" style="fill: none; stroke: #008000; stroke-width: 1.5"/>
    <path d="M 150.287634 112.859096 
L 150.287634 112.769064 
" clip-path="url(#pac7b29367e)" style="fill: none; stroke: #008000; stroke-width: 1.5"/>
    <path d="M 153.01374 110.355122 
L 153.01374 110.260825 
" clip-path="url(#pac7b29367e)" style="fill: none; stroke: #008000; stroke-width: 1.5"/>
    <path d="M 155.739847 108.077313 
L 155.739847 107.977318 
" clip-path="url(#pac7b29367e)" style="fill: none; stroke: #008000; stroke-width: 1.5"/>
    <path d="M 158.465954 105.729583 
L 158.465954 105.642957 
" clip-path="url(#pac7b29367e)" style="fill: none; stroke: #008000; stroke-width: 1.5"/>
    <path d="M 161.192061 103.829218 
L 161.192061 103.743129 
" clip-path="url(#pac7b29367e)" style="fill: none; stroke: #008000; stroke-width: 1.5"/>
    <path d="M 163.918168 101.81552 
L 163.918168 101.718179 
" clip-path="url(#pac7b29367e)" style="fill: none; stroke: #008000; stroke-width: 1.5"/>
    <path d="M 166.644275 99.984021 
L 166.644275 99.896262 
" clip-path="url(#pac7b29367e)" style="fill: none; stroke: #008000; stroke-width: 1.5"/>
    <path d="M 169.370382 98.248019 
L 169.370382 98.159628 
" clip-path="url(#pac7b29367e)" style="fill: none; stroke: #008000; stroke-width: 1.5"/>
    <path d="M 172.096489 96.539669 
L 172.096489 96.456248 
" clip-path="url(#pac7b29367e)" style="fill: none; stroke: #008000; stroke-width: 1.5"/>
    <path d="M 174.822595 95.034164 
L 174.822595 94.955003 
" clip-path="url(#pac7b29367e)" style="fill: none; stroke: #008000; stroke-width: 1.5"/>
    <path d="M 177.548702 93.494465 
L 177.548702 93.409341 
" clip-path="url(#pac7b29367e)" style="fill: none; stroke: #008000; stroke-width: 1.5"/>
    <path d="M 180.274809 92.029189 
L 180.274809 91.948695 
" clip-path="url(#pac7b29367e)" style="fill: none; stroke: #008000; stroke-width: 1.5"/>
    <path d="M 183.000916 90.754635 
L 183.000916 90.672665 
" clip-path="url(#pac7b29367e)" style="fill: none; stroke: #008000; stroke-width: 1.5"/>
    <path d="M 185.727023 89.486949 
L 185.727023 89.401602 
" clip-path="url(#pac7b29367e)" style="fill: none; stroke: #008000; stroke-width: 1.5"/>
    <path d="M 188.45313 88.289442 
L 188.45313 88.217325 
" clip-path="url(#pac7b29367e)" style="fill: none; stroke: #008000; stroke-width: 1.5"/>
    <path d="M 191.179237 87.086735 
L 191.179237 87.003849 
" clip-path="url(#pac7b29367e)" style="fill: none; stroke: #008000; stroke-width: 1.5"/>
    <path d="M 193.905344 85.925249 
L 193.905344 85.855034 
" clip-path="url(#pac7b29367e)" style="fill: none; stroke: #008000; stroke-width: 1.5"/>
    <path d="M 196.63145 84.920528 
L 196.63145 84.845821 
" clip-path="url(#pac7b29367e)" style="fill: none; stroke: #008000; stroke-width: 1.5"/>
    <path d="M 199.357557 83.761425 
L 199.357557 83.684701 
" clip-path="url(#pac7b29367e)" style="fill: none; stroke: #008000; stroke-width: 1.5"/>
    <path d="M 202.083664 82.816356 
L 202.083664 82.752076 
" clip-path="url(#pac7b29367e)" style="fill: none; stroke: #008000; stroke-width: 1.5"/>
    <path d="M 204.809771 81.887163 
L 204.809771 81.81851 
" clip-path="url(#pac7b29367e)" style="fill: none; stroke: #008000; stroke-width: 1.5"/>
    <path d="M 207.535878 80.960749 
L 207.535878 80.893029 
" clip-path="url(#pac7b29367e)" style="fill: none; stroke: #008000; stroke-width: 1.5"/>
    <path d="M 210.261985 80.116227 
L 210.261985 80.048695 
" clip-path="url(#pac7b29367e)" style="fill: none; stroke: #008000; stroke-width: 1.5"/>
    <path d="M 212.988092 79.279146 
L 212.988092 79.214047 
" clip-path="url(#pac7b29367e)" style="fill: none; stroke: #008000; stroke-width: 1.5"/>
    <path d="M 215.714198 78.436402 
L 215.714198 78.377137 
" clip-path="url(#pac7b29367e)" style="fill: none; stroke: #008000; stroke-width: 1.5"/>
    <path d="M 218.440305 77.635033 
L 218.440305 77.568589 
" clip-path="url(#pac7b29367e)" style="fill: none; stroke: #008000; stroke-width: 1.5"/>
    <path d="M 221.166412 76.917542 
L 221.166412 76.851111 
" clip-path="url(#pac7b29367e)" style="fill: none; stroke: #008000; stroke-width: 1.5"/>
    <path d="M 223.892519 76.208671 
L 223.892519 76.139701 
" clip-path="url(#pac7b29367e)" style="fill: none; stroke: #008000; stroke-width: 1.5"/>
    <path d="M 226.618626 75.484384 
L 226.618626 75.416785 
" clip-path="url(#pac7b29367e)" style="fill: none; stroke: #008000; stroke-width: 1.5"/>
    <path d="M 229.344733 74.813999 
L 229.344733 74.754169 
" clip-path="url(#pac7b29367e)" style="fill: none; stroke: #008000; stroke-width: 1.5"/>
    <path d="M 232.07084 74.16965 
L 232.07084 74.103899 
" clip-path="url(#pac7b29367e)" style="fill: none; stroke: #008000; stroke-width: 1.5"/>
    <path d="M 234.796947 73.514805 
L 234.796947 73.447707 
" clip-path="url(#pac7b29367e)" style="fill: none; stroke: #008000; stroke-width: 1.5"/>
    <path d="M 237.523053 72.89612 
L 237.523053 72.834752 
" clip-path="url(#pac7b29367e)" style="fill: none; stroke: #008000; stroke-width: 1.5"/>
    <path d="M 240.24916 72.337964 
L 240.24916 72.275832 
" clip-path="url(#pac7b29367e)" style="fill: none; stroke: #008000; stroke-width: 1.5"/>
    <path d="M 242.975267 71.763089 
L 242.975267 71.70821 
" clip-path="url(#pac7b29367e)" style="fill: none; stroke: #008000; stroke-width: 1.5"/>
    <path d="M 245.701374 71.156727 
L 245.701374 71.098602 
" clip-path="url(#pac7b29367e)" style="fill: none; stroke: #008000; stroke-width: 1.5"/>
    <path d="M 248.427481 70.635899 
L 248.427481 70.583069 
" clip-path="url(#pac7b29367e)" style="fill: none; stroke: #008000; stroke-width: 1.5"/>
    <path d="M 251.153588 70.025347 
L 251.153588 69.961133 
" clip-path="url(#pac7b29367e)" style="fill: none; stroke: #008000; stroke-width: 1.5"/>
    <path d="M 253.879695 69.558913 
L 253.879695 69.506094 
" clip-path="url(#pac7b29367e)" style="fill: none; stroke: #008000; stroke-width: 1.5"/>
    <path d="M 256.605802 69.036666 
L 256.605802 68.987456 
" clip-path="url(#pac7b29367e)" style="fill: none; stroke: #008000; stroke-width: 1.5"/>
    <path d="M 259.331908 68.577125 
L 259.331908 68.517613 
" clip-path="url(#pac7b29367e)" style="fill: none; stroke: #008000; stroke-width: 1.5"/>
    <path d="M 262.058015 68.158674 
L 262.058015 68.10781 
" clip-path="url(#pac7b29367e)" style="fill: none; stroke: #008000; stroke-width: 1.5"/>
    <path d="M 264.784122 67.668088 
L 264.784122 67.616308 
" clip-path="url(#pac7b29367e)" style="fill: none; stroke: #008000; stroke-width: 1.5"/>
    <path d="M 267.510229 67.209703 
L 267.510229 67.163402 
" clip-path="url(#pac7b29367e)" style="fill: none; stroke: #008000; stroke-width: 1.5"/>
    <path d="M 270.236336 66.775789 
L 270.236336 66.7322 
" clip-path="url(#pac7b29367e)" style="fill: none; stroke: #008000; stroke-width: 1.5"/>
    <path d="M 272.962443 66.348793 
L 272.962443 66.297027 
" clip-path="url(#pac7b29367e)" style="fill: none; stroke: #008000; stroke-width: 1.5"/>
    <path d="M 275.68855 65.94817 
L 275.68855 65.900211 
" clip-path="url(#pac7b29367e)" style="fill: none; stroke: #008000; stroke-width: 1.5"/>
    <path d="M 278.414656 65.528035 
L 278.414656 65.485345 
" clip-path="url(#pac7b29367e)" style="fill: none; stroke: #008000; stroke-width: 1.5"/>
    <path d="M 281.140763 65.16113 
L 281.140763 65.117336 
" clip-path="url(#pac7b29367e)" style="fill: none; stroke: #008000; stroke-width: 1.5"/>
    <path d="M 283.86687 64.743339 
L 283.86687 64.68962 
" clip-path="url(#pac7b29367e)" style="fill: none; stroke: #008000; stroke-width: 1.5"/>
    <path d="M 286.592977 64.38016 
L 286.592977 64.335665 
" clip-path="url(#pac7b29367e)" style="fill: none; stroke: #008000; stroke-width: 1.5"/>
    <path d="M 289.319084 63.987248 
L 289.319084 63.943716 
" clip-path="url(#pac7b29367e)" style="fill: none; stroke: #008000; stroke-width: 1.5"/>
    <path d="M 289.319084 63.987248 
L 289.319084 63.943716 
" clip-path="url(#pac7b29367e)" style="fill: none; stroke: #008000; stroke-width: 1.5"/>
    <path d="M 292.045191 63.685739 
L 292.045191 63.642476 
" clip-path="url(#pac7b29367e)" style="fill: none; stroke: #008000; stroke-width: 1.5"/>
    <path d="M 294.771298 63.331664 
L 294.771298 63.290762 
" clip-path="url(#pac7b29367e)" style="fill: none; stroke: #008000; stroke-width: 1.5"/>
    <path d="M 297.497405 62.966316 
L 297.497405 62.924802 
" clip-path="url(#pac7b29367e)" style="fill: none; stroke: #008000; stroke-width: 1.5"/>
    <path d="M 300.223511 62.62652 
L 300.223511 62.58628 
" clip-path="url(#pac7b29367e)" style="fill: none; stroke: #008000; stroke-width: 1.5"/>
    <path d="M 302.949618 62.328717 
L 302.949618 62.286424 
" clip-path="url(#pac7b29367e)" style="fill: none; stroke: #008000; stroke-width: 1.5"/>
    <path d="M 305.675725 62.062938 
L 305.675725 62.020396 
" clip-path="url(#pac7b29367e)" style="fill: none; stroke: #008000; stroke-width: 1.5"/>
    <path d="M 308.401832 61.751912 
L 308.401832 61.704917 
" clip-path="url(#pac7b29367e)" style="fill: none; stroke: #008000; stroke-width: 1.5"/>
    <path d="M 311.127939 61.445889 
L 311.127939 61.402799 
" clip-path="url(#pac7b29367e)" style="fill: none; stroke: #008000; stroke-width: 1.5"/>
    <path d="M 313.854046 61.125324 
L 313.854046 61.083207 
" clip-path="url(#pac7b29367e)" style="fill: none; stroke: #008000; stroke-width: 1.5"/>
    <path d="M 316.580153 60.890769 
L 316.580153 60.847269 
" clip-path="url(#pac7b29367e)" style="fill: none; stroke: #008000; stroke-width: 1.5"/>
    <path d="M 319.30626 60.578922 
L 319.30626 60.527494 
" clip-path="url(#pac7b29367e)" style="fill: none; stroke: #008000; stroke-width: 1.5"/>
    <path d="M 322.032366 60.286838 
L 322.032366 60.242163 
" clip-path="url(#pac7b29367e)" style="fill: none; stroke: #008000; stroke-width: 1.5"/>
    <path d="M 324.758473 60.010632 
L 324.758473 59.961437 
" clip-path="url(#pac7b29367e)" style="fill: none; stroke: #008000; stroke-width: 1.5"/>
    <path d="M 327.48458 59.764672 
L 327.48458 59.721742 
" clip-path="url(#pac7b29367e)" style="fill: none; stroke: #008000; stroke-width: 1.5"/>
    <path d="M 330.210687 59.49628 
L 330.210687 59.457047 
" clip-path="url(#pac7b29367e)" style="fill: none; stroke: #008000; stroke-width: 1.5"/>
    <path d="M 357.471756 57.1707 
L 357.471756 57.122399 
" clip-path="url(#pac7b29367e)" style="fill: none; stroke: #008000; stroke-width: 1.5"/>
    <path d="M 384.732824 55.222831 
L 384.732824 55.187179 
" clip-path="url(#pac7b29367e)" style="fill: none; stroke: #008000; stroke-width: 1.5"/>
    <path d="M 411.993893 53.597757 
L 411.993893 53.568 
" clip-path="url(#pac7b29367e)" style="fill: none; stroke: #008000; stroke-width: 1.5"/>
   </g>
   <g id="line2d_13">
    <path d="M 84.861069 240.584087 
L 86.17091 236.669876 
L 88.135672 230.054056 
L 97.95948 195.807069 
L 100.906623 186.760608 
L 103.853765 178.449325 
L 106.800908 170.84143 
L 109.74805 163.884933 
L 112.695193 157.521415 
L 115.642335 151.692787 
L 118.589478 146.344445 
L 121.536621 141.426546 
L 124.811223 136.412787 
L 128.085826 131.821032 
L 131.360429 127.60389 
L 134.962492 123.348619 
L 138.564555 119.449294 
L 142.166619 115.865079 
L 146.096142 112.273208 
L 150.025665 108.975371 
L 154.282649 105.695742 
L 158.539633 102.685492 
L 163.124077 99.709446 
L 168.035981 96.790239 
L 173.275346 93.945944 
L 178.84217 91.190463 
L 184.736456 88.533993 
L 190.958201 85.983518 
L 197.507407 83.543308 
L 204.384073 81.215384 
L 211.915659 78.904169 
L 220.102166 76.635721 
L 228.616134 74.507945 
L 237.785022 72.442631 
L 247.93629 70.389664 
L 258.74248 68.433638 
L 270.53105 66.52805 
L 283.302001 64.690233 
L 297.382793 62.892882 
L 312.773427 61.157344 
L 329.801362 59.468033 
L 348.466598 57.845696 
L 369.096596 56.280953 
L 392.018816 54.770918 
L 411.993893 53.615813 
L 411.993893 53.615813 
" clip-path="url(#pac7b29367e)" style="fill: none; stroke: #ff0000; stroke-width: 1.5; stroke-linecap: square"/>
   </g>
   <g id="line2d_14">
    <path d="M 57.6 295.488 
L 58.426093 294.499424 
L 59.252186 293.51045 
L 60.078279 292.520682 
L 60.904372 291.529719 
L 61.730465 290.53716 
L 62.556558 289.542603 
L 63.382651 288.545641 
L 64.208744 287.545863 
L 65.034837 286.542856 
L 65.86093 285.536199 
L 66.687023 284.525467 
L 67.513116 283.51023 
L 68.339209 282.49005 
L 69.165302 281.464481 
L 69.991395 280.43307 
L 70.817488 279.395356 
L 71.643581 278.350866 
L 72.469674 277.29912 
L 73.295767 276.239627 
L 74.12186 275.171884 
L 74.947953 274.095377 
L 75.774046 273.009579 
L 76.600139 271.913951 
L 77.426232 270.807941 
L 78.252325 269.69098 
L 79.078418 268.562487 
L 79.904511 267.421864 
L 80.730604 266.268499 
L 81.556697 265.101762 
L 82.38279 263.921004 
L 83.208883 262.725562 
L 84.034976 261.514753 
L 84.861069 260.287872 
L 85.687162 259.044199 
L 86.513255 257.78299 
L 87.339348 256.503483 
L 88.165441 255.204892 
L 88.991534 253.88641 
L 89.817627 252.547207 
L 90.64372 251.18643 
L 91.469813 249.803202 
L 92.295906 248.396621 
L 93.121999 246.96576 
L 93.948092 245.509665 
L 94.774185 244.027357 
L 95.600278 242.51783 
L 96.426371 240.98005 
L 97.252464 239.412954 
L 98.078557 237.81545 
L 98.90465 236.186418 
L 99.730743 234.524706 
L 100.556836 232.829133 
L 101.382929 231.098485 
L 102.209022 229.331518 
L 103.035115 227.526952 
L 103.861207 225.683477 
L 104.6873 223.799749 
L 105.513393 221.874386 
L 106.339486 219.905976 
L 107.165579 217.893068 
L 107.991672 215.834175 
L 108.817765 213.727774 
L 109.643858 211.572304 
L 110.469951 209.366166 
L 111.296044 207.107721 
L 112.122137 204.795293 
L 112.94823 202.427165 
L 113.774323 200.001578 
L 114.600416 197.516733 
L 115.426509 194.970789 
L 116.252602 192.361864 
L 117.078695 189.68803 
L 117.904788 186.947316 
L 118.730881 184.13771 
L 119.556974 181.257151 
L 120.383067 178.303534 
L 121.20916 175.274708 
L 122.035253 172.168475 
L 122.861346 168.98259 
L 123.687439 165.71476 
L 124.513532 162.362642 
L 125.339625 158.923846 
L 126.165718 155.395931 
L 126.991811 151.776405 
L 127.817904 148.062725 
L 128.643997 144.252298 
L 129.47009 140.342477 
L 130.296183 136.330562 
L 131.122276 132.213801 
L 131.948369 127.989386 
L 132.774462 123.654456 
L 133.600555 119.206093 
L 134.426648 114.641324 
L 135.252741 109.957118 
L 136.078834 105.15039 
L 136.904927 100.217994 
L 137.73102 95.156726 
L 138.557113 89.963324 
L 139.383206 84.634466 
" clip-path="url(#pac7b29367e)" style="fill: none; stroke: #0000ff; stroke-width: 1.5; stroke-linecap: square"/>
   </g>
   <g id="line2d_15">
    <defs>
     <path id="me8228279fa" d="M -3 3 
L 3 -3 
M -3 -3 
L 3 3 
" style="stroke: #008000"/>
    </defs>
    <g clip-path="url(#pac7b29367e)">
     <use xlink:href="#me8228279fa" x="60.326107" y="292.208004" style="fill: #008000; stroke: #008000"/>
     <use xlink:href="#me8228279fa" x="63.052214" y="288.964261" style="fill: #008000; stroke: #008000"/>
     <use xlink:href="#me8228279fa" x="65.778321" y="285.60711" style="fill: #008000; stroke: #008000"/>
     <use xlink:href="#me8228279fa" x="68.504427" y="282.258994" style="fill: #008000; stroke: #008000"/>
     <use xlink:href="#me8228279fa" x="71.230534" y="278.859825" style="fill: #008000; stroke: #008000"/>
     <use xlink:href="#me8228279fa" x="73.956641" y="275.41615" style="fill: #008000; stroke: #008000"/>
     <use xlink:href="#me8228279fa" x="76.682748" y="271.819663" style="fill: #008000; stroke: #008000"/>
     <use xlink:href="#me8228279fa" x="79.408855" y="268.120259" style="fill: #008000; stroke: #008000"/>
     <use xlink:href="#me8228279fa" x="82.134962" y="264.248637" style="fill: #008000; stroke: #008000"/>
     <use xlink:href="#me8228279fa" x="84.861069" y="260.254676" style="fill: #008000; stroke: #008000"/>
     <use xlink:href="#me8228279fa" x="87.587176" y="256.001659" style="fill: #008000; stroke: #008000"/>
     <use xlink:href="#me8228279fa" x="90.313282" y="251.549861" style="fill: #008000; stroke: #008000"/>
     <use xlink:href="#me8228279fa" x="93.039389" y="246.773313" style="fill: #008000; stroke: #008000"/>
     <use xlink:href="#me8228279fa" x="95.765496" y="241.6025" style="fill: #008000; stroke: #008000"/>
     <use xlink:href="#me8228279fa" x="98.491603" y="236.044445" style="fill: #008000; stroke: #008000"/>
     <use xlink:href="#me8228279fa" x="101.21771" y="229.902925" style="fill: #008000; stroke: #008000"/>
     <use xlink:href="#me8228279fa" x="103.943817" y="223.125908" style="fill: #008000; stroke: #008000"/>
     <use xlink:href="#me8228279fa" x="106.669924" y="215.432312" style="fill: #008000; stroke: #008000"/>
     <use xlink:href="#me8228279fa" x="109.396031" y="206.991703" style="fill: #008000; stroke: #008000"/>
     <use xlink:href="#me8228279fa" x="112.122137" y="197.278057" style="fill: #008000; stroke: #008000"/>
     <use xlink:href="#me8228279fa" x="114.848244" y="186.7022" style="fill: #008000; stroke: #008000"/>
     <use xlink:href="#me8228279fa" x="117.574351" y="174.774484" style="fill: #008000; stroke: #008000"/>
     <use xlink:href="#me8228279fa" x="120.300458" y="163.51517" style="fill: #008000; stroke: #008000"/>
     <use xlink:href="#me8228279fa" x="123.026565" y="155.41723" style="fill: #008000; stroke: #008000"/>
     <use xlink:href="#me8228279fa" x="125.752672" y="148.455144" style="fill: #008000; stroke: #008000"/>
     <use xlink:href="#me8228279fa" x="128.478779" y="142.708956" style="fill: #008000; stroke: #008000"/>
     <use xlink:href="#me8228279fa" x="131.204885" y="137.605312" style="fill: #008000; stroke: #008000"/>
     <use xlink:href="#me8228279fa" x="133.930992" y="133.009848" style="fill: #008000; stroke: #008000"/>
     <use xlink:href="#me8228279fa" x="136.657099" y="128.920399" style="fill: #008000; stroke: #008000"/>
     <use xlink:href="#me8228279fa" x="139.383206" y="125.279034" style="fill: #008000; stroke: #008000"/>
     <use xlink:href="#me8228279fa" x="142.109313" y="121.736905" style="fill: #008000; stroke: #008000"/>
     <use xlink:href="#me8228279fa" x="144.83542" y="118.661051" style="fill: #008000; stroke: #008000"/>
     <use xlink:href="#me8228279fa" x="147.561527" y="115.621806" style="fill: #008000; stroke: #008000"/>
     <use xlink:href="#me8228279fa" x="150.287634" y="112.81408" style="fill: #008000; stroke: #008000"/>
     <use xlink:href="#me8228279fa" x="153.01374" y="110.307973" style="fill: #008000; stroke: #008000"/>
     <use xlink:href="#me8228279fa" x="155.739847" y="108.027315" style="fill: #008000; stroke: #008000"/>
     <use xlink:href="#me8228279fa" x="158.465954" y="105.68627" style="fill: #008000; stroke: #008000"/>
     <use xlink:href="#me8228279fa" x="161.192061" y="103.786173" style="fill: #008000; stroke: #008000"/>
     <use xlink:href="#me8228279fa" x="163.918168" y="101.766849" style="fill: #008000; stroke: #008000"/>
     <use xlink:href="#me8228279fa" x="166.644275" y="99.940141" style="fill: #008000; stroke: #008000"/>
     <use xlink:href="#me8228279fa" x="169.370382" y="98.203823" style="fill: #008000; stroke: #008000"/>
     <use xlink:href="#me8228279fa" x="172.096489" y="96.497959" style="fill: #008000; stroke: #008000"/>
     <use xlink:href="#me8228279fa" x="174.822595" y="94.994584" style="fill: #008000; stroke: #008000"/>
     <use xlink:href="#me8228279fa" x="177.548702" y="93.451903" style="fill: #008000; stroke: #008000"/>
     <use xlink:href="#me8228279fa" x="180.274809" y="91.988942" style="fill: #008000; stroke: #008000"/>
     <use xlink:href="#me8228279fa" x="183.000916" y="90.71365" style="fill: #008000; stroke: #008000"/>
     <use xlink:href="#me8228279fa" x="185.727023" y="89.444276" style="fill: #008000; stroke: #008000"/>
     <use xlink:href="#me8228279fa" x="188.45313" y="88.253384" style="fill: #008000; stroke: #008000"/>
     <use xlink:href="#me8228279fa" x="191.179237" y="87.045292" style="fill: #008000; stroke: #008000"/>
     <use xlink:href="#me8228279fa" x="193.905344" y="85.890141" style="fill: #008000; stroke: #008000"/>
     <use xlink:href="#me8228279fa" x="196.63145" y="84.883174" style="fill: #008000; stroke: #008000"/>
     <use xlink:href="#me8228279fa" x="199.357557" y="83.723063" style="fill: #008000; stroke: #008000"/>
     <use xlink:href="#me8228279fa" x="202.083664" y="82.784216" style="fill: #008000; stroke: #008000"/>
     <use xlink:href="#me8228279fa" x="204.809771" y="81.852837" style="fill: #008000; stroke: #008000"/>
     <use xlink:href="#me8228279fa" x="207.535878" y="80.926889" style="fill: #008000; stroke: #008000"/>
     <use xlink:href="#me8228279fa" x="210.261985" y="80.082461" style="fill: #008000; stroke: #008000"/>
     <use xlink:href="#me8228279fa" x="212.988092" y="79.246596" style="fill: #008000; stroke: #008000"/>
     <use xlink:href="#me8228279fa" x="215.714198" y="78.40677" style="fill: #008000; stroke: #008000"/>
     <use xlink:href="#me8228279fa" x="218.440305" y="77.601811" style="fill: #008000; stroke: #008000"/>
     <use xlink:href="#me8228279fa" x="221.166412" y="76.884327" style="fill: #008000; stroke: #008000"/>
     <use xlink:href="#me8228279fa" x="223.892519" y="76.174186" style="fill: #008000; stroke: #008000"/>
     <use xlink:href="#me8228279fa" x="226.618626" y="75.450584" style="fill: #008000; stroke: #008000"/>
     <use xlink:href="#me8228279fa" x="229.344733" y="74.784084" style="fill: #008000; stroke: #008000"/>
     <use xlink:href="#me8228279fa" x="232.07084" y="74.136775" style="fill: #008000; stroke: #008000"/>
     <use xlink:href="#me8228279fa" x="234.796947" y="73.481256" style="fill: #008000; stroke: #008000"/>
     <use xlink:href="#me8228279fa" x="237.523053" y="72.865436" style="fill: #008000; stroke: #008000"/>
     <use xlink:href="#me8228279fa" x="240.24916" y="72.306898" style="fill: #008000; stroke: #008000"/>
     <use xlink:href="#me8228279fa" x="242.975267" y="71.73565" style="fill: #008000; stroke: #008000"/>
     <use xlink:href="#me8228279fa" x="245.701374" y="71.127665" style="fill: #008000; stroke: #008000"/>
     <use xlink:href="#me8228279fa" x="248.427481" y="70.609484" style="fill: #008000; stroke: #008000"/>
     <use xlink:href="#me8228279fa" x="251.153588" y="69.99324" style="fill: #008000; stroke: #008000"/>
     <use xlink:href="#me8228279fa" x="253.879695" y="69.532503" style="fill: #008000; stroke: #008000"/>
     <use xlink:href="#me8228279fa" x="256.605802" y="69.012061" style="fill: #008000; stroke: #008000"/>
     <use xlink:href="#me8228279fa" x="259.331908" y="68.547369" style="fill: #008000; stroke: #008000"/>
     <use xlink:href="#me8228279fa" x="262.058015" y="68.133242" style="fill: #008000; stroke: #008000"/>
     <use xlink:href="#me8228279fa" x="264.784122" y="67.642198" style="fill: #008000; stroke: #008000"/>
     <use xlink:href="#me8228279fa" x="267.510229" y="67.186552" style="fill: #008000; stroke: #008000"/>
     <use xlink:href="#me8228279fa" x="270.236336" y="66.753995" style="fill: #008000; stroke: #008000"/>
     <use xlink:href="#me8228279fa" x="272.962443" y="66.32291" style="fill: #008000; stroke: #008000"/>
     <use xlink:href="#me8228279fa" x="275.68855" y="65.92419" style="fill: #008000; stroke: #008000"/>
     <use xlink:href="#me8228279fa" x="278.414656" y="65.50669" style="fill: #008000; stroke: #008000"/>
     <use xlink:href="#me8228279fa" x="281.140763" y="65.139233" style="fill: #008000; stroke: #008000"/>
     <use xlink:href="#me8228279fa" x="283.86687" y="64.71648" style="fill: #008000; stroke: #008000"/>
     <use xlink:href="#me8228279fa" x="286.592977" y="64.357913" style="fill: #008000; stroke: #008000"/>
     <use xlink:href="#me8228279fa" x="289.319084" y="63.965482" style="fill: #008000; stroke: #008000"/>
     <use xlink:href="#me8228279fa" x="289.319084" y="63.965482" style="fill: #008000; stroke: #008000"/>
     <use xlink:href="#me8228279fa" x="292.045191" y="63.664108" style="fill: #008000; stroke: #008000"/>
     <use xlink:href="#me8228279fa" x="294.771298" y="63.311213" style="fill: #008000; stroke: #008000"/>
     <use xlink:href="#me8228279fa" x="297.497405" y="62.945559" style="fill: #008000; stroke: #008000"/>
     <use xlink:href="#me8228279fa" x="300.223511" y="62.6064" style="fill: #008000; stroke: #008000"/>
     <use xlink:href="#me8228279fa" x="302.949618" y="62.307571" style="fill: #008000; stroke: #008000"/>
     <use xlink:href="#me8228279fa" x="305.675725" y="62.041667" style="fill: #008000; stroke: #008000"/>
     <use xlink:href="#me8228279fa" x="308.401832" y="61.728415" style="fill: #008000; stroke: #008000"/>
     <use xlink:href="#me8228279fa" x="311.127939" y="61.424344" style="fill: #008000; stroke: #008000"/>
     <use xlink:href="#me8228279fa" x="313.854046" y="61.104265" style="fill: #008000; stroke: #008000"/>
     <use xlink:href="#me8228279fa" x="316.580153" y="60.869019" style="fill: #008000; stroke: #008000"/>
     <use xlink:href="#me8228279fa" x="319.30626" y="60.553208" style="fill: #008000; stroke: #008000"/>
     <use xlink:href="#me8228279fa" x="322.032366" y="60.264501" style="fill: #008000; stroke: #008000"/>
     <use xlink:href="#me8228279fa" x="324.758473" y="59.986035" style="fill: #008000; stroke: #008000"/>
     <use xlink:href="#me8228279fa" x="327.48458" y="59.743207" style="fill: #008000; stroke: #008000"/>
     <use xlink:href="#me8228279fa" x="330.210687" y="59.476663" style="fill: #008000; stroke: #008000"/>
     <use xlink:href="#me8228279fa" x="357.471756" y="57.14655" style="fill: #008000; stroke: #008000"/>
     <use xlink:href="#me8228279fa" x="384.732824" y="55.205005" style="fill: #008000; stroke: #008000"/>
     <use xlink:href="#me8228279fa" x="411.993893" y="53.582878" style="fill: #008000; stroke: #008000"/>
    </g>
   </g>
   <g id="patch_3">
    <path d="M 57.6 307.584 
L 57.6 41.472 
" style="fill: none; stroke: #000000; stroke-width: 0.8; stroke-linejoin: miter; stroke-linecap: square"/>
   </g>
   <g id="patch_4">
    <path d="M 57.6 307.584 
L 414.72 307.584 
" style="fill: none; stroke: #000000; stroke-width: 0.8; stroke-linejoin: miter; stroke-linecap: square"/>
   </g>
   <g id="legend_1">
    <g id="patch_5">
     <path d="M 131.104375 302.584 
L 407.72 302.584 
Q 409.72 302.584 409.72 300.584 
L 409.72 257.2715 
Q 409.72 255.2715 407.72 255.2715 
L 131.104375 255.2715 
Q 129.104375 255.2715 129.104375 257.2715 
L 129.104375 300.584 
Q 129.104375 302.584 131.104375 302.584 
z
" style="fill: #ffffff; opacity: 0.8; stroke: #cccccc; stroke-linejoin: miter"/>
    </g>
    <g id="line2d_16">
     <path d="M 133.104375 263.369937 
L 143.104375 263.369937 
L 153.104375 263.369937 
" style="fill: none; stroke: #ff0000; stroke-width: 1.5; stroke-linecap: square"/>
    </g>
    <g id="text_15">
     <!-- Weak Coupling Expansion -->
     <g transform="translate(161.104375 266.869937) scale(0.1 -0.1)">
      <defs>
       <path id="DejaVuSans-57" d="M 213 4666 
L 850 4666 
L 1831 722 
L 2809 4666 
L 3519 4666 
L 4500 722 
L 5478 4666 
L 6119 4666 
L 4947 0 
L 4153 0 
L 3169 4050 
L 2175 0 
L 1381 0 
L 213 4666 
z
" transform="scale(0.015625)"/>
       <path id="DejaVuSans-65" d="M 3597 1894 
L 3597 1613 
L 953 1613 
Q 991 1019 1311 708 
Q 1631 397 2203 397 
Q 2534 397 2845 478 
Q 3156 559 3463 722 
L 3463 178 
Q 3153 47 2828 -22 
Q 2503 -91 2169 -91 
Q 1331 -91 842 396 
Q 353 884 353 1716 
Q 353 2575 817 3079 
Q 1281 3584 2069 3584 
Q 2775 3584 3186 3129 
Q 3597 2675 3597 1894 
z
M 3022 2063 
Q 3016 2534 2758 2815 
Q 2500 3097 2075 3097 
Q 1594 3097 1305 2825 
Q 1016 2553 972 2059 
L 3022 2063 
z
" transform="scale(0.015625)"/>
       <path id="DejaVuSans-61" d="M 2194 1759 
Q 1497 1759 1228 1600 
Q 959 1441 959 1056 
Q 959 750 1161 570 
Q 1363 391 1709 391 
Q 2188 391 2477 730 
Q 2766 1069 2766 1631 
L 2766 1759 
L 2194 1759 
z
M 3341 1997 
L 3341 0 
L 2766 0 
L 2766 531 
Q 2569 213 2275 61 
Q 1981 -91 1556 -91 
Q 1019 -91 701 211 
Q 384 513 384 1019 
Q 384 1609 779 1909 
Q 1175 2209 1959 2209 
L 2766 2209 
L 2766 2266 
Q 2766 2663 2505 2880 
Q 2244 3097 1772 3097 
Q 1472 3097 1187 3025 
Q 903 2953 641 2809 
L 641 3341 
Q 956 3463 1253 3523 
Q 1550 3584 1831 3584 
Q 2591 3584 2966 3190 
Q 3341 2797 3341 1997 
z
" transform="scale(0.015625)"/>
       <path id="DejaVuSans-6b" d="M 581 4863 
L 1159 4863 
L 1159 1991 
L 2875 3500 
L 3609 3500 
L 1753 1863 
L 3688 0 
L 2938 0 
L 1159 1709 
L 1159 0 
L 581 0 
L 581 4863 
z
" transform="scale(0.015625)"/>
       <path id="DejaVuSans-20" transform="scale(0.015625)"/>
       <path id="DejaVuSans-43" d="M 4122 4306 
L 4122 3641 
Q 3803 3938 3442 4084 
Q 3081 4231 2675 4231 
Q 1875 4231 1450 3742 
Q 1025 3253 1025 2328 
Q 1025 1406 1450 917 
Q 1875 428 2675 428 
Q 3081 428 3442 575 
Q 3803 722 4122 1019 
L 4122 359 
Q 3791 134 3420 21 
Q 3050 -91 2638 -91 
Q 1578 -91 968 557 
Q 359 1206 359 2328 
Q 359 3453 968 4101 
Q 1578 4750 2638 4750 
Q 3056 4750 3426 4639 
Q 3797 4528 4122 4306 
z
" transform="scale(0.015625)"/>
       <path id="DejaVuSans-6f" d="M 1959 3097 
Q 1497 3097 1228 2736 
Q 959 2375 959 1747 
Q 959 1119 1226 758 
Q 1494 397 1959 397 
Q 2419 397 2687 759 
Q 2956 1122 2956 1747 
Q 2956 2369 2687 2733 
Q 2419 3097 1959 3097 
z
M 1959 3584 
Q 2709 3584 3137 3096 
Q 3566 2609 3566 1747 
Q 3566 888 3137 398 
Q 2709 -91 1959 -91 
Q 1206 -91 779 398 
Q 353 888 353 1747 
Q 353 2609 779 3096 
Q 1206 3584 1959 3584 
z
" transform="scale(0.015625)"/>
       <path id="DejaVuSans-75" d="M 544 1381 
L 544 3500 
L 1119 3500 
L 1119 1403 
Q 1119 906 1312 657 
Q 1506 409 1894 409 
Q 2359 409 2629 706 
Q 2900 1003 2900 1516 
L 2900 3500 
L 3475 3500 
L 3475 0 
L 2900 0 
L 2900 538 
Q 2691 219 2414 64 
Q 2138 -91 1772 -91 
Q 1169 -91 856 284 
Q 544 659 544 1381 
z
M 1991 3584 
L 1991 3584 
z
" transform="scale(0.015625)"/>
       <path id="DejaVuSans-70" d="M 1159 525 
L 1159 -1331 
L 581 -1331 
L 581 3500 
L 1159 3500 
L 1159 2969 
Q 1341 3281 1617 3432 
Q 1894 3584 2278 3584 
Q 2916 3584 3314 3078 
Q 3713 2572 3713 1747 
Q 3713 922 3314 415 
Q 2916 -91 2278 -91 
Q 1894 -91 1617 61 
Q 1341 213 1159 525 
z
M 3116 1747 
Q 3116 2381 2855 2742 
Q 2594 3103 2138 3103 
Q 1681 3103 1420 2742 
Q 1159 2381 1159 1747 
Q 1159 1113 1420 752 
Q 1681 391 2138 391 
Q 2594 391 2855 752 
Q 3116 1113 3116 1747 
z
" transform="scale(0.015625)"/>
       <path id="DejaVuSans-6c" d="M 603 4863 
L 1178 4863 
L 1178 0 
L 603 0 
L 603 4863 
z
" transform="scale(0.015625)"/>
       <path id="DejaVuSans-69" d="M 603 3500 
L 1178 3500 
L 1178 0 
L 603 0 
L 603 3500 
z
M 603 4863 
L 1178 4863 
L 1178 4134 
L 603 4134 
L 603 4863 
z
" transform="scale(0.015625)"/>
       <path id="DejaVuSans-6e" d="M 3513 2113 
L 3513 0 
L 2938 0 
L 2938 2094 
Q 2938 2591 2744 2837 
Q 2550 3084 2163 3084 
Q 1697 3084 1428 2787 
Q 1159 2491 1159 1978 
L 1159 0 
L 581 0 
L 581 3500 
L 1159 3500 
L 1159 2956 
Q 1366 3272 1645 3428 
Q 1925 3584 2291 3584 
Q 2894 3584 3203 3211 
Q 3513 2838 3513 2113 
z
" transform="scale(0.015625)"/>
       <path id="DejaVuSans-67" d="M 2906 1791 
Q 2906 2416 2648 2759 
Q 2391 3103 1925 3103 
Q 1463 3103 1205 2759 
Q 947 2416 947 1791 
Q 947 1169 1205 825 
Q 1463 481 1925 481 
Q 2391 481 2648 825 
Q 2906 1169 2906 1791 
z
M 3481 434 
Q 3481 -459 3084 -895 
Q 2688 -1331 1869 -1331 
Q 1566 -1331 1297 -1286 
Q 1028 -1241 775 -1147 
L 775 -588 
Q 1028 -725 1275 -790 
Q 1522 -856 1778 -856 
Q 2344 -856 2625 -561 
Q 2906 -266 2906 331 
L 2906 616 
Q 2728 306 2450 153 
Q 2172 0 1784 0 
Q 1141 0 747 490 
Q 353 981 353 1791 
Q 353 2603 747 3093 
Q 1141 3584 1784 3584 
Q 2172 3584 2450 3431 
Q 2728 3278 2906 2969 
L 2906 3500 
L 3481 3500 
L 3481 434 
z
" transform="scale(0.015625)"/>
       <path id="DejaVuSans-45" d="M 628 4666 
L 3578 4666 
L 3578 4134 
L 1259 4134 
L 1259 2753 
L 3481 2753 
L 3481 2222 
L 1259 2222 
L 1259 531 
L 3634 531 
L 3634 0 
L 628 0 
L 628 4666 
z
" transform="scale(0.015625)"/>
       <path id="DejaVuSans-78" d="M 3513 3500 
L 2247 1797 
L 3578 0 
L 2900 0 
L 1881 1375 
L 863 0 
L 184 0 
L 1544 1831 
L 300 3500 
L 978 3500 
L 1906 2253 
L 2834 3500 
L 3513 3500 
z
" transform="scale(0.015625)"/>
       <path id="DejaVuSans-73" d="M 2834 3397 
L 2834 2853 
Q 2591 2978 2328 3040 
Q 2066 3103 1784 3103 
Q 1356 3103 1142 2972 
Q 928 2841 928 2578 
Q 928 2378 1081 2264 
Q 1234 2150 1697 2047 
L 1894 2003 
Q 2506 1872 2764 1633 
Q 3022 1394 3022 966 
Q 3022 478 2636 193 
Q 2250 -91 1575 -91 
Q 1294 -91 989 -36 
Q 684 19 347 128 
L 347 722 
Q 666 556 975 473 
Q 1284 391 1588 391 
Q 1994 391 2212 530 
Q 2431 669 2431 922 
Q 2431 1156 2273 1281 
Q 2116 1406 1581 1522 
L 1381 1569 
Q 847 1681 609 1914 
Q 372 2147 372 2553 
Q 372 3047 722 3315 
Q 1072 3584 1716 3584 
Q 2034 3584 2315 3537 
Q 2597 3491 2834 3397 
z
" transform="scale(0.015625)"/>
      </defs>
      <use xlink:href="#DejaVuSans-57"/>
      <use xlink:href="#DejaVuSans-65" x="93.001953"/>
      <use xlink:href="#DejaVuSans-61" x="154.525391"/>
      <use xlink:href="#DejaVuSans-6b" x="215.804688"/>
      <use xlink:href="#DejaVuSans-20" x="273.714844"/>
      <use xlink:href="#DejaVuSans-43" x="305.501953"/>
      <use xlink:href="#DejaVuSans-6f" x="375.326172"/>
      <use xlink:href="#DejaVuSans-75" x="436.507812"/>
      <use xlink:href="#DejaVuSans-70" x="499.886719"/>
      <use xlink:href="#DejaVuSans-6c" x="563.363281"/>
      <use xlink:href="#DejaVuSans-69" x="591.146484"/>
      <use xlink:href="#DejaVuSans-6e" x="618.929688"/>
      <use xlink:href="#DejaVuSans-67" x="682.308594"/>
      <use xlink:href="#DejaVuSans-20" x="745.785156"/>
      <use xlink:href="#DejaVuSans-45" x="777.572266"/>
      <use xlink:href="#DejaVuSans-78" x="840.755859"/>
      <use xlink:href="#DejaVuSans-70" x="899.935547"/>
      <use xlink:href="#DejaVuSans-61" x="963.412109"/>
      <use xlink:href="#DejaVuSans-6e" x="1024.691406"/>
      <use xlink:href="#DejaVuSans-73" x="1088.070312"/>
      <use xlink:href="#DejaVuSans-69" x="1140.169922"/>
      <use xlink:href="#DejaVuSans-6f" x="1167.953125"/>
      <use xlink:href="#DejaVuSans-6e" x="1229.134766"/>
     </g>
    </g>
    <g id="line2d_17">
     <path d="M 133.104375 278.048063 
L 143.104375 278.048063 
L 153.104375 278.048063 
" style="fill: none; stroke: #0000ff; stroke-width: 1.5; stroke-linecap: square"/>
    </g>
    <g id="text_16">
     <!-- Strong Coupling Expansion -->
     <g transform="translate(161.104375 281.548063) scale(0.1 -0.1)">
      <defs>
       <path id="DejaVuSans-53" d="M 3425 4513 
L 3425 3897 
Q 3066 4069 2747 4153 
Q 2428 4238 2131 4238 
Q 1616 4238 1336 4038 
Q 1056 3838 1056 3469 
Q 1056 3159 1242 3001 
Q 1428 2844 1947 2747 
L 2328 2669 
Q 3034 2534 3370 2195 
Q 3706 1856 3706 1288 
Q 3706 609 3251 259 
Q 2797 -91 1919 -91 
Q 1588 -91 1214 -16 
Q 841 59 441 206 
L 441 856 
Q 825 641 1194 531 
Q 1563 422 1919 422 
Q 2459 422 2753 634 
Q 3047 847 3047 1241 
Q 3047 1584 2836 1778 
Q 2625 1972 2144 2069 
L 1759 2144 
Q 1053 2284 737 2584 
Q 422 2884 422 3419 
Q 422 4038 858 4394 
Q 1294 4750 2059 4750 
Q 2388 4750 2728 4690 
Q 3069 4631 3425 4513 
z
" transform="scale(0.015625)"/>
       <path id="DejaVuSans-74" d="M 1172 4494 
L 1172 3500 
L 2356 3500 
L 2356 3053 
L 1172 3053 
L 1172 1153 
Q 1172 725 1289 603 
Q 1406 481 1766 481 
L 2356 481 
L 2356 0 
L 1766 0 
Q 1100 0 847 248 
Q 594 497 594 1153 
L 594 3053 
L 172 3053 
L 172 3500 
L 594 3500 
L 594 4494 
L 1172 4494 
z
" transform="scale(0.015625)"/>
       <path id="DejaVuSans-72" d="M 2631 2963 
Q 2534 3019 2420 3045 
Q 2306 3072 2169 3072 
Q 1681 3072 1420 2755 
Q 1159 2438 1159 1844 
L 1159 0 
L 581 0 
L 581 3500 
L 1159 3500 
L 1159 2956 
Q 1341 3275 1631 3429 
Q 1922 3584 2338 3584 
Q 2397 3584 2469 3576 
Q 2541 3569 2628 3553 
L 2631 2963 
z
" transform="scale(0.015625)"/>
      </defs>
      <use xlink:href="#DejaVuSans-53"/>
      <use xlink:href="#DejaVuSans-74" x="63.476562"/>
      <use xlink:href="#DejaVuSans-72" x="102.685547"/>
      <use xlink:href="#DejaVuSans-6f" x="141.548828"/>
      <use xlink:href="#DejaVuSans-6e" x="202.730469"/>
      <use xlink:href="#DejaVuSans-67" x="266.109375"/>
      <use xlink:href="#DejaVuSans-20" x="329.585938"/>
      <use xlink:href="#DejaVuSans-43" x="361.373047"/>
      <use xlink:href="#DejaVuSans-6f" x="431.197266"/>
      <use xlink:href="#DejaVuSans-75" x="492.378906"/>
      <use xlink:href="#DejaVuSans-70" x="555.757812"/>
      <use xlink:href="#DejaVuSans-6c" x="619.234375"/>
      <use xlink:href="#DejaVuSans-69" x="647.017578"/>
      <use xlink:href="#DejaVuSans-6e" x="674.800781"/>
      <use xlink:href="#DejaVuSans-67" x="738.179688"/>
      <use xlink:href="#DejaVuSans-20" x="801.65625"/>
      <use xlink:href="#DejaVuSans-45" x="833.443359"/>
      <use xlink:href="#DejaVuSans-78" x="896.626953"/>
      <use xlink:href="#DejaVuSans-70" x="955.806641"/>
      <use xlink:href="#DejaVuSans-61" x="1019.283203"/>
      <use xlink:href="#DejaVuSans-6e" x="1080.5625"/>
      <use xlink:href="#DejaVuSans-73" x="1143.941406"/>
      <use xlink:href="#DejaVuSans-69" x="1196.041016"/>
      <use xlink:href="#DejaVuSans-6f" x="1223.824219"/>
      <use xlink:href="#DejaVuSans-6e" x="1285.005859"/>
     </g>
    </g>
    <g id="LineCollection_2">
     <path d="M 143.104375 297.726187 
L 143.104375 287.726187 
" style="fill: none; stroke: #008000; stroke-width: 1.5"/>
    </g>
    <g id="line2d_18"/>
    <g id="line2d_19">
     <g>
      <use xlink:href="#me8228279fa" x="143.104375" y="292.726187" style="fill: #008000; stroke: #008000"/>
     </g>
    </g>
    <g id="text_17">
     <!-- Data with Taylor of Order = 10 and N_order = 10 -->
     <g transform="translate(161.104375 296.226187) scale(0.1 -0.1)">
      <defs>
       <path id="DejaVuSans-44" d="M 1259 4147 
L 1259 519 
L 2022 519 
Q 2988 519 3436 956 
Q 3884 1394 3884 2338 
Q 3884 3275 3436 3711 
Q 2988 4147 2022 4147 
L 1259 4147 
z
M 628 4666 
L 1925 4666 
Q 3281 4666 3915 4102 
Q 4550 3538 4550 2338 
Q 4550 1131 3912 565 
Q 3275 0 1925 0 
L 628 0 
L 628 4666 
z
" transform="scale(0.015625)"/>
       <path id="DejaVuSans-77" d="M 269 3500 
L 844 3500 
L 1563 769 
L 2278 3500 
L 2956 3500 
L 3675 769 
L 4391 3500 
L 4966 3500 
L 4050 0 
L 3372 0 
L 2619 2869 
L 1863 0 
L 1184 0 
L 269 3500 
z
" transform="scale(0.015625)"/>
       <path id="DejaVuSans-68" d="M 3513 2113 
L 3513 0 
L 2938 0 
L 2938 2094 
Q 2938 2591 2744 2837 
Q 2550 3084 2163 3084 
Q 1697 3084 1428 2787 
Q 1159 2491 1159 1978 
L 1159 0 
L 581 0 
L 581 4863 
L 1159 4863 
L 1159 2956 
Q 1366 3272 1645 3428 
Q 1925 3584 2291 3584 
Q 2894 3584 3203 3211 
Q 3513 2838 3513 2113 
z
" transform="scale(0.015625)"/>
       <path id="DejaVuSans-54" d="M -19 4666 
L 3928 4666 
L 3928 4134 
L 2272 4134 
L 2272 0 
L 1638 0 
L 1638 4134 
L -19 4134 
L -19 4666 
z
" transform="scale(0.015625)"/>
       <path id="DejaVuSans-79" d="M 2059 -325 
Q 1816 -950 1584 -1140 
Q 1353 -1331 966 -1331 
L 506 -1331 
L 506 -850 
L 844 -850 
Q 1081 -850 1212 -737 
Q 1344 -625 1503 -206 
L 1606 56 
L 191 3500 
L 800 3500 
L 1894 763 
L 2988 3500 
L 3597 3500 
L 2059 -325 
z
" transform="scale(0.015625)"/>
       <path id="DejaVuSans-66" d="M 2375 4863 
L 2375 4384 
L 1825 4384 
Q 1516 4384 1395 4259 
Q 1275 4134 1275 3809 
L 1275 3500 
L 2222 3500 
L 2222 3053 
L 1275 3053 
L 1275 0 
L 697 0 
L 697 3053 
L 147 3053 
L 147 3500 
L 697 3500 
L 697 3744 
Q 697 4328 969 4595 
Q 1241 4863 1831 4863 
L 2375 4863 
z
" transform="scale(0.015625)"/>
       <path id="DejaVuSans-4f" d="M 2522 4238 
Q 1834 4238 1429 3725 
Q 1025 3213 1025 2328 
Q 1025 1447 1429 934 
Q 1834 422 2522 422 
Q 3209 422 3611 934 
Q 4013 1447 4013 2328 
Q 4013 3213 3611 3725 
Q 3209 4238 2522 4238 
z
M 2522 4750 
Q 3503 4750 4090 4092 
Q 4678 3434 4678 2328 
Q 4678 1225 4090 567 
Q 3503 -91 2522 -91 
Q 1538 -91 948 565 
Q 359 1222 359 2328 
Q 359 3434 948 4092 
Q 1538 4750 2522 4750 
z
" transform="scale(0.015625)"/>
       <path id="DejaVuSans-64" d="M 2906 2969 
L 2906 4863 
L 3481 4863 
L 3481 0 
L 2906 0 
L 2906 525 
Q 2725 213 2448 61 
Q 2172 -91 1784 -91 
Q 1150 -91 751 415 
Q 353 922 353 1747 
Q 353 2572 751 3078 
Q 1150 3584 1784 3584 
Q 2172 3584 2448 3432 
Q 2725 3281 2906 2969 
z
M 947 1747 
Q 947 1113 1208 752 
Q 1469 391 1925 391 
Q 2381 391 2643 752 
Q 2906 1113 2906 1747 
Q 2906 2381 2643 2742 
Q 2381 3103 1925 3103 
Q 1469 3103 1208 2742 
Q 947 2381 947 1747 
z
" transform="scale(0.015625)"/>
       <path id="DejaVuSans-3d" d="M 678 2906 
L 4684 2906 
L 4684 2381 
L 678 2381 
L 678 2906 
z
M 678 1631 
L 4684 1631 
L 4684 1100 
L 678 1100 
L 678 1631 
z
" transform="scale(0.015625)"/>
       <path id="DejaVuSans-4e" d="M 628 4666 
L 1478 4666 
L 3547 763 
L 3547 4666 
L 4159 4666 
L 4159 0 
L 3309 0 
L 1241 3903 
L 1241 0 
L 628 0 
L 628 4666 
z
" transform="scale(0.015625)"/>
       <path id="DejaVuSans-5f" d="M 3263 -1063 
L 3263 -1509 
L -63 -1509 
L -63 -1063 
L 3263 -1063 
z
" transform="scale(0.015625)"/>
      </defs>
      <use xlink:href="#DejaVuSans-44"/>
      <use xlink:href="#DejaVuSans-61" x="77.001953"/>
      <use xlink:href="#DejaVuSans-74" x="138.28125"/>
      <use xlink:href="#DejaVuSans-61" x="177.490234"/>
      <use xlink:href="#DejaVuSans-20" x="238.769531"/>
      <use xlink:href="#DejaVuSans-77" x="270.556641"/>
      <use xlink:href="#DejaVuSans-69" x="352.34375"/>
      <use xlink:href="#DejaVuSans-74" x="380.126953"/>
      <use xlink:href="#DejaVuSans-68" x="419.335938"/>
      <use xlink:href="#DejaVuSans-20" x="482.714844"/>
      <use xlink:href="#DejaVuSans-54" x="514.501953"/>
      <use xlink:href="#DejaVuSans-61" x="559.085938"/>
      <use xlink:href="#DejaVuSans-79" x="620.365234"/>
      <use xlink:href="#DejaVuSans-6c" x="679.544922"/>
      <use xlink:href="#DejaVuSans-6f" x="707.328125"/>
      <use xlink:href="#DejaVuSans-72" x="768.509766"/>
      <use xlink:href="#DejaVuSans-20" x="809.623047"/>
      <use xlink:href="#DejaVuSans-6f" x="841.410156"/>
      <use xlink:href="#DejaVuSans-66" x="902.591797"/>
      <use xlink:href="#DejaVuSans-20" x="937.796875"/>
      <use xlink:href="#DejaVuSans-4f" x="969.583984"/>
      <use xlink:href="#DejaVuSans-72" x="1048.294922"/>
      <use xlink:href="#DejaVuSans-64" x="1087.658203"/>
      <use xlink:href="#DejaVuSans-65" x="1151.134766"/>
      <use xlink:href="#DejaVuSans-72" x="1212.658203"/>
      <use xlink:href="#DejaVuSans-20" x="1253.771484"/>
      <use xlink:href="#DejaVuSans-3d" x="1285.558594"/>
      <use xlink:href="#DejaVuSans-20" x="1369.347656"/>
      <use xlink:href="#DejaVuSans-31" x="1401.134766"/>
      <use xlink:href="#DejaVuSans-30" x="1464.757812"/>
      <use xlink:href="#DejaVuSans-20" x="1528.380859"/>
      <use xlink:href="#DejaVuSans-61" x="1560.167969"/>
      <use xlink:href="#DejaVuSans-6e" x="1621.447266"/>
      <use xlink:href="#DejaVuSans-64" x="1684.826172"/>
      <use xlink:href="#DejaVuSans-20" x="1748.302734"/>
      <use xlink:href="#DejaVuSans-4e" x="1780.089844"/>
      <use xlink:href="#DejaVuSans-5f" x="1854.894531"/>
      <use xlink:href="#DejaVuSans-6f" x="1904.894531"/>
      <use xlink:href="#DejaVuSans-72" x="1966.076172"/>
      <use xlink:href="#DejaVuSans-64" x="2005.439453"/>
      <use xlink:href="#DejaVuSans-65" x="2068.916016"/>
      <use xlink:href="#DejaVuSans-72" x="2130.439453"/>
      <use xlink:href="#DejaVuSans-20" x="2171.552734"/>
      <use xlink:href="#DejaVuSans-3d" x="2203.339844"/>
      <use xlink:href="#DejaVuSans-20" x="2287.128906"/>
      <use xlink:href="#DejaVuSans-31" x="2318.916016"/>
      <use xlink:href="#DejaVuSans-30" x="2382.539062"/>
     </g>
    </g>
   </g>
  </g>
 </g>
 <defs>
  <clipPath id="pac7b29367e">
   <rect x="57.6" y="41.472" width="357.12" height="266.112"/>
  </clipPath>
 </defs>
</svg>
