<?xml version="1.0" encoding="utf-8" standalone="no"?>
<!DOCTYPE svg PUBLIC "-//W3C//DTD SVG 1.1//EN"
  "http://www.w3.org/Graphics/SVG/1.1/DTD/svg11.dtd">
<svg xmlns:xlink="http://www.w3.org/1999/xlink" width="460.8pt" height="345.6pt" viewBox="0 0 460.8 345.6" xmlns="http://www.w3.org/2000/svg" version="1.1">
 <metadata>
  <rdf:RDF xmlns:dc="http://purl.org/dc/elements/1.1/" xmlns:cc="http://creativecommons.org/ns#" xmlns:rdf="http://www.w3.org/1999/02/22-rdf-syntax-ns#">
   <cc:Work>
    <dc:type rdf:resource="http://purl.org/dc/dcmitype/StillImage"/>
    <dc:date>2023-11-01T20:41:54.956174</dc:date>
    <dc:format>image/svg+xml</dc:format>
    <dc:creator>
     <cc:Agent>
      <dc:title>Matplotlib v3.6.2, https://matplotlib.org/</dc:title>
     </cc:Agent>
    </dc:creator>
   </cc:Work>
  </rdf:RDF>
 </metadata>
 <defs>
  <style type="text/css">*{stroke-linejoin: round; stroke-linecap: butt}</style>
 </defs>
 <g id="figure_1">
  <g id="patch_1">
   <path d="M 0 345.6 
L 460.8 345.6 
L 460.8 0 
L 0 0 
z
" style="fill: #ffffff"/>
  </g>
  <g id="axes_1">
   <g id="patch_2">
    <path d="M 57.6 307.584 
L 414.72 307.584 
L 414.72 41.472 
L 57.6 41.472 
z
" style="fill: #ffffff"/>
   </g>
   <g id="matplotlib.axis_1">
    <g id="xtick_1">
     <g id="line2d_1">
      <defs>
       <path id="me3f17ec1ad" d="M 0 0 
L 0 3.5 
" style="stroke: #000000; stroke-width: 0.8"/>
      </defs>
      <g>
       <use xlink:href="#me3f17ec1ad" x="57.6" y="307.584" style="stroke: #000000; stroke-width: 0.8"/>
      </g>
     </g>
     <g id="text_1">
      <!-- 0 -->
      <g transform="translate(54.41875 322.182437) scale(0.1 -0.1)">
       <defs>
        <path id="DejaVuSans-30" d="M 2034 4250 
Q 1547 4250 1301 3770 
Q 1056 3291 1056 2328 
Q 1056 1369 1301 889 
Q 1547 409 2034 409 
Q 2525 409 2770 889 
Q 3016 1369 3016 2328 
Q 3016 3291 2770 3770 
Q 2525 4250 2034 4250 
z
M 2034 4750 
Q 2819 4750 3233 4129 
Q 3647 3509 3647 2328 
Q 3647 1150 3233 529 
Q 2819 -91 2034 -91 
Q 1250 -91 836 529 
Q 422 1150 422 2328 
Q 422 3509 836 4129 
Q 1250 4750 2034 4750 
z
" transform="scale(0.015625)"/>
       </defs>
       <use xlink:href="#DejaVuSans-30"/>
      </g>
     </g>
    </g>
    <g id="xtick_2">
     <g id="line2d_2">
      <g>
       <use xlink:href="#me3f17ec1ad" x="117.12" y="307.584" style="stroke: #000000; stroke-width: 0.8"/>
      </g>
     </g>
     <g id="text_2">
      <!-- 1 -->
      <g transform="translate(113.93875 322.182437) scale(0.1 -0.1)">
       <defs>
        <path id="DejaVuSans-31" d="M 794 531 
L 1825 531 
L 1825 4091 
L 703 3866 
L 703 4441 
L 1819 4666 
L 2450 4666 
L 2450 531 
L 3481 531 
L 3481 0 
L 794 0 
L 794 531 
z
" transform="scale(0.015625)"/>
       </defs>
       <use xlink:href="#DejaVuSans-31"/>
      </g>
     </g>
    </g>
    <g id="xtick_3">
     <g id="line2d_3">
      <g>
       <use xlink:href="#me3f17ec1ad" x="176.64" y="307.584" style="stroke: #000000; stroke-width: 0.8"/>
      </g>
     </g>
     <g id="text_3">
      <!-- 2 -->
      <g transform="translate(173.45875 322.182437) scale(0.1 -0.1)">
       <defs>
        <path id="DejaVuSans-32" d="M 1228 531 
L 3431 531 
L 3431 0 
L 469 0 
L 469 531 
Q 828 903 1448 1529 
Q 2069 2156 2228 2338 
Q 2531 2678 2651 2914 
Q 2772 3150 2772 3378 
Q 2772 3750 2511 3984 
Q 2250 4219 1831 4219 
Q 1534 4219 1204 4116 
Q 875 4013 500 3803 
L 500 4441 
Q 881 4594 1212 4672 
Q 1544 4750 1819 4750 
Q 2544 4750 2975 4387 
Q 3406 4025 3406 3419 
Q 3406 3131 3298 2873 
Q 3191 2616 2906 2266 
Q 2828 2175 2409 1742 
Q 1991 1309 1228 531 
z
" transform="scale(0.015625)"/>
       </defs>
       <use xlink:href="#DejaVuSans-32"/>
      </g>
     </g>
    </g>
    <g id="xtick_4">
     <g id="line2d_4">
      <g>
       <use xlink:href="#me3f17ec1ad" x="236.16" y="307.584" style="stroke: #000000; stroke-width: 0.8"/>
      </g>
     </g>
     <g id="text_4">
      <!-- 3 -->
      <g transform="translate(232.97875 322.182437) scale(0.1 -0.1)">
       <defs>
        <path id="DejaVuSans-33" d="M 2597 2516 
Q 3050 2419 3304 2112 
Q 3559 1806 3559 1356 
Q 3559 666 3084 287 
Q 2609 -91 1734 -91 
Q 1441 -91 1130 -33 
Q 819 25 488 141 
L 488 750 
Q 750 597 1062 519 
Q 1375 441 1716 441 
Q 2309 441 2620 675 
Q 2931 909 2931 1356 
Q 2931 1769 2642 2001 
Q 2353 2234 1838 2234 
L 1294 2234 
L 1294 2753 
L 1863 2753 
Q 2328 2753 2575 2939 
Q 2822 3125 2822 3475 
Q 2822 3834 2567 4026 
Q 2313 4219 1838 4219 
Q 1578 4219 1281 4162 
Q 984 4106 628 3988 
L 628 4550 
Q 988 4650 1302 4700 
Q 1616 4750 1894 4750 
Q 2613 4750 3031 4423 
Q 3450 4097 3450 3541 
Q 3450 3153 3228 2886 
Q 3006 2619 2597 2516 
z
" transform="scale(0.015625)"/>
       </defs>
       <use xlink:href="#DejaVuSans-33"/>
      </g>
     </g>
    </g>
    <g id="xtick_5">
     <g id="line2d_5">
      <g>
       <use xlink:href="#me3f17ec1ad" x="295.68" y="307.584" style="stroke: #000000; stroke-width: 0.8"/>
      </g>
     </g>
     <g id="text_5">
      <!-- 4 -->
      <g transform="translate(292.49875 322.182437) scale(0.1 -0.1)">
       <defs>
        <path id="DejaVuSans-34" d="M 2419 4116 
L 825 1625 
L 2419 1625 
L 2419 4116 
z
M 2253 4666 
L 3047 4666 
L 3047 1625 
L 3713 1625 
L 3713 1100 
L 3047 1100 
L 3047 0 
L 2419 0 
L 2419 1100 
L 313 1100 
L 313 1709 
L 2253 4666 
z
" transform="scale(0.015625)"/>
       </defs>
       <use xlink:href="#DejaVuSans-34"/>
      </g>
     </g>
    </g>
    <g id="xtick_6">
     <g id="line2d_6">
      <g>
       <use xlink:href="#me3f17ec1ad" x="355.2" y="307.584" style="stroke: #000000; stroke-width: 0.8"/>
      </g>
     </g>
     <g id="text_6">
      <!-- 5 -->
      <g transform="translate(352.01875 322.182437) scale(0.1 -0.1)">
       <defs>
        <path id="DejaVuSans-35" d="M 691 4666 
L 3169 4666 
L 3169 4134 
L 1269 4134 
L 1269 2991 
Q 1406 3038 1543 3061 
Q 1681 3084 1819 3084 
Q 2600 3084 3056 2656 
Q 3513 2228 3513 1497 
Q 3513 744 3044 326 
Q 2575 -91 1722 -91 
Q 1428 -91 1123 -41 
Q 819 9 494 109 
L 494 744 
Q 775 591 1075 516 
Q 1375 441 1709 441 
Q 2250 441 2565 725 
Q 2881 1009 2881 1497 
Q 2881 1984 2565 2268 
Q 2250 2553 1709 2553 
Q 1456 2553 1204 2497 
Q 953 2441 691 2322 
L 691 4666 
z
" transform="scale(0.015625)"/>
       </defs>
       <use xlink:href="#DejaVuSans-35"/>
      </g>
     </g>
    </g>
    <g id="xtick_7">
     <g id="line2d_7">
      <g>
       <use xlink:href="#me3f17ec1ad" x="414.72" y="307.584" style="stroke: #000000; stroke-width: 0.8"/>
      </g>
     </g>
     <g id="text_7">
      <!-- 6 -->
      <g transform="translate(411.53875 322.182437) scale(0.1 -0.1)">
       <defs>
        <path id="DejaVuSans-36" d="M 2113 2584 
Q 1688 2584 1439 2293 
Q 1191 2003 1191 1497 
Q 1191 994 1439 701 
Q 1688 409 2113 409 
Q 2538 409 2786 701 
Q 3034 994 3034 1497 
Q 3034 2003 2786 2293 
Q 2538 2584 2113 2584 
z
M 3366 4563 
L 3366 3988 
Q 3128 4100 2886 4159 
Q 2644 4219 2406 4219 
Q 1781 4219 1451 3797 
Q 1122 3375 1075 2522 
Q 1259 2794 1537 2939 
Q 1816 3084 2150 3084 
Q 2853 3084 3261 2657 
Q 3669 2231 3669 1497 
Q 3669 778 3244 343 
Q 2819 -91 2113 -91 
Q 1303 -91 875 529 
Q 447 1150 447 2328 
Q 447 3434 972 4092 
Q 1497 4750 2381 4750 
Q 2619 4750 2861 4703 
Q 3103 4656 3366 4563 
z
" transform="scale(0.015625)"/>
       </defs>
       <use xlink:href="#DejaVuSans-36"/>
      </g>
     </g>
    </g>
    <g id="text_8">
     <!-- $\beta$ -->
     <g transform="translate(232.96 335.962125) scale(0.1 -0.1)">
      <defs>
       <path id="DejaVuSans-Oblique-3b2" d="M 872 216 
L 572 -1331 
L -6 -1331 
L 928 3478 
Q 1206 4903 2538 4903 
Q 3888 4903 3659 3700 
Q 3503 2844 2894 2531 
Q 3713 2250 3553 1416 
Q 3272 -69 1759 -66 
Q 1097 -63 872 216 
z
M 1019 966 
Q 1259 422 1875 425 
Q 2775 425 2966 1406 
Q 3138 2288 1675 2219 
L 1778 2750 
Q 2909 2731 3106 3750 
Q 3241 4438 2509 4434 
Q 1691 4434 1503 3459 
L 1019 966 
z
" transform="scale(0.015625)"/>
      </defs>
      <use xlink:href="#DejaVuSans-Oblique-3b2" transform="translate(0 0.390625)"/>
     </g>
    </g>
   </g>
   <g id="matplotlib.axis_2">
    <g id="ytick_1">
     <g id="line2d_8">
      <defs>
       <path id="m62c95069f4" d="M 0 0 
L -3.5 0 
" style="stroke: #000000; stroke-width: 0.8"/>
      </defs>
      <g>
       <use xlink:href="#m62c95069f4" x="57.6" y="295.488" style="stroke: #000000; stroke-width: 0.8"/>
      </g>
     </g>
     <g id="text_9">
      <!-- 0.0 -->
      <g transform="translate(34.696875 299.287219) scale(0.1 -0.1)">
       <defs>
        <path id="DejaVuSans-2e" d="M 684 794 
L 1344 794 
L 1344 0 
L 684 0 
L 684 794 
z
" transform="scale(0.015625)"/>
       </defs>
       <use xlink:href="#DejaVuSans-30"/>
       <use xlink:href="#DejaVuSans-2e" x="63.623047"/>
       <use xlink:href="#DejaVuSans-30" x="95.410156"/>
      </g>
     </g>
    </g>
    <g id="ytick_2">
     <g id="line2d_9">
      <g>
       <use xlink:href="#m62c95069f4" x="57.6" y="237.866562" style="stroke: #000000; stroke-width: 0.8"/>
      </g>
     </g>
     <g id="text_10">
      <!-- 0.2 -->
      <g transform="translate(34.696875 241.665781) scale(0.1 -0.1)">
       <use xlink:href="#DejaVuSans-30"/>
       <use xlink:href="#DejaVuSans-2e" x="63.623047"/>
       <use xlink:href="#DejaVuSans-32" x="95.410156"/>
      </g>
     </g>
    </g>
    <g id="ytick_3">
     <g id="line2d_10">
      <g>
       <use xlink:href="#m62c95069f4" x="57.6" y="180.245124" style="stroke: #000000; stroke-width: 0.8"/>
      </g>
     </g>
     <g id="text_11">
      <!-- 0.4 -->
      <g transform="translate(34.696875 184.044343) scale(0.1 -0.1)">
       <use xlink:href="#DejaVuSans-30"/>
       <use xlink:href="#DejaVuSans-2e" x="63.623047"/>
       <use xlink:href="#DejaVuSans-34" x="95.410156"/>
      </g>
     </g>
    </g>
    <g id="ytick_4">
     <g id="line2d_11">
      <g>
       <use xlink:href="#m62c95069f4" x="57.6" y="122.623687" style="stroke: #000000; stroke-width: 0.8"/>
      </g>
     </g>
     <g id="text_12">
      <!-- 0.6 -->
      <g transform="translate(34.696875 126.422905) scale(0.1 -0.1)">
       <use xlink:href="#DejaVuSans-30"/>
       <use xlink:href="#DejaVuSans-2e" x="63.623047"/>
       <use xlink:href="#DejaVuSans-36" x="95.410156"/>
      </g>
     </g>
    </g>
    <g id="ytick_5">
     <g id="line2d_12">
      <g>
       <use xlink:href="#m62c95069f4" x="57.6" y="65.002249" style="stroke: #000000; stroke-width: 0.8"/>
      </g>
     </g>
     <g id="text_13">
      <!-- 0.8 -->
      <g transform="translate(34.696875 68.801468) scale(0.1 -0.1)">
       <defs>
        <path id="DejaVuSans-38" d="M 2034 2216 
Q 1584 2216 1326 1975 
Q 1069 1734 1069 1313 
Q 1069 891 1326 650 
Q 1584 409 2034 409 
Q 2484 409 2743 651 
Q 3003 894 3003 1313 
Q 3003 1734 2745 1975 
Q 2488 2216 2034 2216 
z
M 1403 2484 
Q 997 2584 770 2862 
Q 544 3141 544 3541 
Q 544 4100 942 4425 
Q 1341 4750 2034 4750 
Q 2731 4750 3128 4425 
Q 3525 4100 3525 3541 
Q 3525 3141 3298 2862 
Q 3072 2584 2669 2484 
Q 3125 2378 3379 2068 
Q 3634 1759 3634 1313 
Q 3634 634 3220 271 
Q 2806 -91 2034 -91 
Q 1263 -91 848 271 
Q 434 634 434 1313 
Q 434 1759 690 2068 
Q 947 2378 1403 2484 
z
M 1172 3481 
Q 1172 3119 1398 2916 
Q 1625 2713 2034 2713 
Q 2441 2713 2670 2916 
Q 2900 3119 2900 3481 
Q 2900 3844 2670 4047 
Q 2441 4250 2034 4250 
Q 1625 4250 1398 4047 
Q 1172 3844 1172 3481 
z
" transform="scale(0.015625)"/>
       </defs>
       <use xlink:href="#DejaVuSans-30"/>
       <use xlink:href="#DejaVuSans-2e" x="63.623047"/>
       <use xlink:href="#DejaVuSans-38" x="95.410156"/>
      </g>
     </g>
    </g>
    <g id="text_14">
     <!-- $e$ -->
     <g transform="translate(28.617188 177.628) rotate(-90) scale(0.1 -0.1)">
      <defs>
       <path id="DejaVuSans-Oblique-65" d="M 3078 2063 
Q 3088 2113 3092 2166 
Q 3097 2219 3097 2272 
Q 3097 2653 2873 2875 
Q 2650 3097 2266 3097 
Q 1838 3097 1509 2826 
Q 1181 2556 1013 2059 
L 3078 2063 
z
M 3578 1613 
L 903 1613 
Q 884 1494 878 1425 
Q 872 1356 872 1306 
Q 872 872 1139 634 
Q 1406 397 1894 397 
Q 2269 397 2603 481 
Q 2938 566 3225 728 
L 3116 159 
Q 2806 34 2476 -28 
Q 2147 -91 1806 -91 
Q 1078 -91 686 257 
Q 294 606 294 1247 
Q 294 1794 489 2264 
Q 684 2734 1063 3103 
Q 1306 3334 1642 3459 
Q 1978 3584 2356 3584 
Q 2950 3584 3301 3228 
Q 3653 2872 3653 2272 
Q 3653 2128 3634 1964 
Q 3616 1800 3578 1613 
z
" transform="scale(0.015625)"/>
      </defs>
      <use xlink:href="#DejaVuSans-Oblique-65"/>
     </g>
    </g>
   </g>
   <g id="LineCollection_1">
    <path d="M 63.552 291.891488 
L 63.552 291.84228 
" clip-path="url(#p2390a9de2d)" style="fill: none; stroke: #008000; stroke-width: 1.5"/>
    <path d="M 69.504 288.310923 
L 69.504 288.26066 
" clip-path="url(#p2390a9de2d)" style="fill: none; stroke: #008000; stroke-width: 1.5"/>
    <path d="M 75.456 284.604681 
L 75.456 284.554312 
" clip-path="url(#p2390a9de2d)" style="fill: none; stroke: #008000; stroke-width: 1.5"/>
    <path d="M 81.408 280.91007 
L 81.408 280.856285 
" clip-path="url(#p2390a9de2d)" style="fill: none; stroke: #008000; stroke-width: 1.5"/>
    <path d="M 87.36 277.156759 
L 87.36 277.104229 
" clip-path="url(#p2390a9de2d)" style="fill: none; stroke: #008000; stroke-width: 1.5"/>
    <path d="M 93.312 273.355711 
L 93.312 273.301643 
" clip-path="url(#p2390a9de2d)" style="fill: none; stroke: #008000; stroke-width: 1.5"/>
    <path d="M 99.264 269.386722 
L 99.264 269.329589 
" clip-path="url(#p2390a9de2d)" style="fill: none; stroke: #008000; stroke-width: 1.5"/>
    <path d="M 105.216 265.303404 
L 105.216 265.244621 
" clip-path="url(#p2390a9de2d)" style="fill: none; stroke: #008000; stroke-width: 1.5"/>
    <path d="M 111.168 261.030765 
L 111.168 260.968718 
" clip-path="url(#p2390a9de2d)" style="fill: none; stroke: #008000; stroke-width: 1.5"/>
    <path d="M 117.12 256.623451 
L 117.12 256.557368 
" clip-path="url(#p2390a9de2d)" style="fill: none; stroke: #008000; stroke-width: 1.5"/>
    <path d="M 123.072 251.929851 
L 123.072 251.860304 
" clip-path="url(#p2390a9de2d)" style="fill: none; stroke: #008000; stroke-width: 1.5"/>
    <path d="M 129.024 247.018874 
L 129.024 246.941713 
" clip-path="url(#p2390a9de2d)" style="fill: none; stroke: #008000; stroke-width: 1.5"/>
    <path d="M 134.976 241.747319 
L 134.976 241.666648 
" clip-path="url(#p2390a9de2d)" style="fill: none; stroke: #008000; stroke-width: 1.5"/>
    <path d="M 140.928 236.040834 
L 140.928 235.955978 
" clip-path="url(#p2390a9de2d)" style="fill: none; stroke: #008000; stroke-width: 1.5"/>
    <path d="M 146.88 229.910892 
L 146.88 229.813735 
" clip-path="url(#p2390a9de2d)" style="fill: none; stroke: #008000; stroke-width: 1.5"/>
    <path d="M 152.832 223.137829 
L 152.832 223.02632 
" clip-path="url(#p2390a9de2d)" style="fill: none; stroke: #008000; stroke-width: 1.5"/>
    <path d="M 158.784 215.657667 
L 158.784 215.542829 
" clip-path="url(#p2390a9de2d)" style="fill: none; stroke: #008000; stroke-width: 1.5"/>
    <path d="M 164.736 207.183352 
L 164.736 207.029684 
" clip-path="url(#p2390a9de2d)" style="fill: none; stroke: #008000; stroke-width: 1.5"/>
    <path d="M 170.688 197.868516 
L 170.688 197.707655 
" clip-path="url(#p2390a9de2d)" style="fill: none; stroke: #008000; stroke-width: 1.5"/>
    <path d="M 176.64 187.156648 
L 176.64 186.971791 
" clip-path="url(#p2390a9de2d)" style="fill: none; stroke: #008000; stroke-width: 1.5"/>
    <path d="M 182.592 175.502206 
L 182.592 175.274741 
" clip-path="url(#p2390a9de2d)" style="fill: none; stroke: #008000; stroke-width: 1.5"/>
    <path d="M 188.544 162.364838 
L 188.544 162.075712 
" clip-path="url(#p2390a9de2d)" style="fill: none; stroke: #008000; stroke-width: 1.5"/>
    <path d="M 194.496 149.90641 
L 194.496 149.673572 
" clip-path="url(#p2390a9de2d)" style="fill: none; stroke: #008000; stroke-width: 1.5"/>
    <path d="M 200.448 140.933676 
L 200.448 140.766055 
" clip-path="url(#p2390a9de2d)" style="fill: none; stroke: #008000; stroke-width: 1.5"/>
    <path d="M 206.4 133.245531 
L 206.4 133.081914 
" clip-path="url(#p2390a9de2d)" style="fill: none; stroke: #008000; stroke-width: 1.5"/>
    <path d="M 212.352 126.894426 
L 212.352 126.745435 
" clip-path="url(#p2390a9de2d)" style="fill: none; stroke: #008000; stroke-width: 1.5"/>
    <path d="M 218.304 121.258435 
L 218.304 121.11258 
" clip-path="url(#p2390a9de2d)" style="fill: none; stroke: #008000; stroke-width: 1.5"/>
    <path d="M 224.256 116.187859 
L 224.256 116.036371 
" clip-path="url(#p2390a9de2d)" style="fill: none; stroke: #008000; stroke-width: 1.5"/>
    <path d="M 230.208 111.659011 
L 230.208 111.535715 
" clip-path="url(#p2390a9de2d)" style="fill: none; stroke: #008000; stroke-width: 1.5"/>
    <path d="M 236.16 107.636912 
L 236.16 107.517681 
" clip-path="url(#p2390a9de2d)" style="fill: none; stroke: #008000; stroke-width: 1.5"/>
    <path d="M 242.112 103.72851 
L 242.112 103.605061 
" clip-path="url(#p2390a9de2d)" style="fill: none; stroke: #008000; stroke-width: 1.5"/>
    <path d="M 248.064 100.331067 
L 248.064 100.211017 
" clip-path="url(#p2390a9de2d)" style="fill: none; stroke: #008000; stroke-width: 1.5"/>
    <path d="M 254.016 96.975133 
L 254.016 96.8563 
" clip-path="url(#p2390a9de2d)" style="fill: none; stroke: #008000; stroke-width: 1.5"/>
    <path d="M 259.968 93.865684 
L 259.968 93.766289 
" clip-path="url(#p2390a9de2d)" style="fill: none; stroke: #008000; stroke-width: 1.5"/>
    <path d="M 265.92 91.101296 
L 265.92 90.997193 
" clip-path="url(#p2390a9de2d)" style="fill: none; stroke: #008000; stroke-width: 1.5"/>
    <path d="M 271.872 88.586595 
L 271.872 88.476201 
" clip-path="url(#p2390a9de2d)" style="fill: none; stroke: #008000; stroke-width: 1.5"/>
    <path d="M 277.824 85.994702 
L 277.824 85.899066 
" clip-path="url(#p2390a9de2d)" style="fill: none; stroke: #008000; stroke-width: 1.5"/>
    <path d="M 283.776 83.896698 
L 283.776 83.801656 
" clip-path="url(#p2390a9de2d)" style="fill: none; stroke: #008000; stroke-width: 1.5"/>
    <path d="M 289.728 81.673576 
L 289.728 81.566111 
" clip-path="url(#p2390a9de2d)" style="fill: none; stroke: #008000; stroke-width: 1.5"/>
    <path d="M 295.68 79.651601 
L 295.68 79.554715 
" clip-path="url(#p2390a9de2d)" style="fill: none; stroke: #008000; stroke-width: 1.5"/>
    <path d="M 390.912 57.717556 
L 390.912 57.643 
" clip-path="url(#p2390a9de2d)" style="fill: none; stroke: #008000; stroke-width: 1.5"/>
    <path d="M 384.96 58.649908 
L 384.96 58.575145 
" clip-path="url(#p2390a9de2d)" style="fill: none; stroke: #008000; stroke-width: 1.5"/>
    <path d="M 379.008 59.67267 
L 379.008 59.596876 
" clip-path="url(#p2390a9de2d)" style="fill: none; stroke: #008000; stroke-width: 1.5"/>
    <path d="M 373.056 60.698499 
L 373.056 60.627534 
" clip-path="url(#p2390a9de2d)" style="fill: none; stroke: #008000; stroke-width: 1.5"/>
    <path d="M 301.632 77.683369 
L 301.632 77.59312 
" clip-path="url(#p2390a9de2d)" style="fill: none; stroke: #008000; stroke-width: 1.5"/>
    <path d="M 307.584 75.891132 
L 307.584 75.786894 
" clip-path="url(#p2390a9de2d)" style="fill: none; stroke: #008000; stroke-width: 1.5"/>
    <path d="M 313.536 74.135854 
L 313.536 74.049057 
" clip-path="url(#p2390a9de2d)" style="fill: none; stroke: #008000; stroke-width: 1.5"/>
    <path d="M 319.488 72.503157 
L 319.488 72.425107 
" clip-path="url(#p2390a9de2d)" style="fill: none; stroke: #008000; stroke-width: 1.5"/>
    <path d="M 325.44 70.951909 
L 325.44 70.863275 
" clip-path="url(#p2390a9de2d)" style="fill: none; stroke: #008000; stroke-width: 1.5"/>
    <path d="M 331.392 69.493249 
L 331.392 69.399429 
" clip-path="url(#p2390a9de2d)" style="fill: none; stroke: #008000; stroke-width: 1.5"/>
    <path d="M 337.344 68.047715 
L 337.344 67.967451 
" clip-path="url(#p2390a9de2d)" style="fill: none; stroke: #008000; stroke-width: 1.5"/>
    <path d="M 367.104 61.741854 
L 367.104 61.657151 
" clip-path="url(#p2390a9de2d)" style="fill: none; stroke: #008000; stroke-width: 1.5"/>
    <path d="M 343.296 66.71282 
L 343.296 66.633405 
" clip-path="url(#p2390a9de2d)" style="fill: none; stroke: #008000; stroke-width: 1.5"/>
    <path d="M 361.152 63.021504 
L 361.152 62.939028 
" clip-path="url(#p2390a9de2d)" style="fill: none; stroke: #008000; stroke-width: 1.5"/>
    <path d="M 355.2 64.127485 
L 355.2 64.047533 
" clip-path="url(#p2390a9de2d)" style="fill: none; stroke: #008000; stroke-width: 1.5"/>
   </g>
   <g id="line2d_13">
    <path d="M 117.12 234.874078 
L 120.126061 230.31707 
L 123.132121 225.24964 
L 126.138182 219.90027 
L 129.144242 214.426202 
L 132.150303 208.935432 
L 135.156364 203.501603 
L 138.162424 198.174232 
L 141.168485 192.985798 
L 144.174545 187.956709 
L 147.180606 183.098817 
L 150.186667 178.417915 
L 153.192727 173.91553 
L 156.198788 169.590207 
L 159.204848 165.438446 
L 162.210909 161.455367 
L 165.21697 157.635208 
L 168.22303 153.971671 
L 171.229091 150.458177 
L 174.235152 147.088053 
L 177.241212 143.854657 
L 180.247273 140.75147 
L 183.253333 137.772159 
L 186.259394 134.910614 
L 189.265455 132.160978 
L 192.271515 129.517656 
L 195.277576 126.975325 
L 198.283636 124.528931 
L 201.289697 122.173686 
L 204.295758 119.905059 
L 207.301818 117.718768 
L 210.307879 115.61077 
L 213.313939 113.577248 
L 216.32 111.614601 
L 219.326061 109.719434 
L 222.332121 107.888542 
L 225.338182 106.118903 
L 228.344242 104.407666 
L 231.350303 102.75214 
L 234.356364 101.149785 
L 237.362424 99.598203 
L 240.368485 98.09513 
L 243.374545 96.638426 
L 246.380606 95.226067 
L 249.386667 93.85614 
L 252.392727 92.526836 
L 255.398788 91.23644 
L 258.404848 89.98333 
L 261.410909 88.765968 
L 264.41697 87.582896 
L 267.42303 86.432732 
L 270.429091 85.314164 
L 273.435152 84.225947 
L 276.441212 83.166896 
L 279.447273 82.135887 
L 282.453333 81.131852 
L 285.459394 80.153772 
L 288.465455 79.20068 
L 291.471515 78.271653 
L 294.477576 77.365813 
L 297.483636 76.482323 
L 300.489697 75.620384 
L 303.495758 74.779234 
L 306.501818 73.958147 
L 309.507879 73.156427 
L 312.513939 72.373411 
L 315.52 71.608465 
L 318.526061 70.860983 
L 321.532121 70.130384 
L 324.538182 69.416113 
L 327.544242 68.717639 
L 330.550303 68.034452 
L 333.556364 67.366064 
L 336.562424 66.712008 
L 339.568485 66.071834 
L 342.574545 65.445113 
L 345.580606 64.831432 
L 348.586667 64.230393 
L 351.592727 63.641616 
L 354.598788 63.064735 
L 357.604848 62.499397 
L 360.610909 61.945266 
L 363.61697 61.402015 
L 366.62303 60.869331 
L 369.629091 60.346912 
L 372.635152 59.83447 
L 375.641212 59.331724 
L 378.647273 58.838405 
L 381.653333 58.354254 
L 384.659394 57.879019 
L 387.665455 57.412461 
L 390.671515 56.954347 
L 393.677576 56.504451 
L 396.683636 56.062557 
L 399.689697 55.628456 
L 402.695758 55.201946 
L 405.701818 54.78283 
L 408.707879 54.370921 
L 411.713939 53.966037 
L 414.72 53.568 
" clip-path="url(#p2390a9de2d)" style="fill: none; stroke: #ff0000; stroke-width: 1.5; stroke-linecap: square"/>
   </g>
   <g id="line2d_14">
    <path d="M 57.6 295.488 
L 59.403636 294.396612 
L 61.207273 293.304785 
L 63.010909 292.21208 
L 64.814545 291.118057 
L 66.618182 290.022273 
L 68.421818 288.924282 
L 70.225455 287.823635 
L 72.029091 286.719881 
L 73.832727 285.61256 
L 75.636364 284.501211 
L 77.44 283.385364 
L 79.243636 282.264542 
L 81.047273 281.138263 
L 82.850909 280.006035 
L 84.654545 278.867357 
L 86.458182 277.72172 
L 88.261818 276.568603 
L 90.065455 275.407476 
L 91.869091 274.237796 
L 93.672727 273.059007 
L 95.476364 271.870544 
L 97.28 270.671823 
L 99.083636 269.46225 
L 100.887273 268.241214 
L 102.690909 267.008089 
L 104.494545 265.762232 
L 106.298182 264.502985 
L 108.101818 263.22967 
L 109.905455 261.941592 
L 111.709091 260.638036 
L 113.512727 259.318268 
L 115.316364 257.981534 
L 117.12 256.627058 
L 118.923636 255.254042 
L 120.727273 253.861668 
L 122.530909 252.449092 
L 124.334545 251.015447 
L 126.138182 249.559843 
L 127.941818 248.081363 
L 129.745455 246.579066 
L 131.549091 245.051982 
L 133.352727 243.499116 
L 135.156364 241.919445 
L 136.96 240.311916 
L 138.763636 238.675449 
L 140.567273 237.008931 
L 142.370909 235.311222 
L 144.174545 233.581147 
L 145.978182 231.817503 
L 147.781818 230.019051 
L 149.585455 228.184522 
L 151.389091 226.312609 
L 153.192727 224.401974 
L 154.996364 222.451241 
L 156.8 220.459001 
L 158.603636 218.423805 
L 160.407273 216.344168 
L 162.210909 214.218568 
L 164.014545 212.045443 
L 165.818182 209.823193 
L 167.621818 207.550175 
L 169.425455 205.224708 
L 171.229091 202.845069 
L 173.032727 200.409492 
L 174.836364 197.916169 
L 176.64 195.363249 
L 178.443636 192.748835 
L 180.247273 190.070987 
L 182.050909 187.327718 
L 183.854545 184.516996 
L 185.658182 181.636742 
L 187.461818 178.684829 
L 189.265455 175.659082 
L 191.069091 172.557276 
L 192.872727 169.377139 
L 194.676364 166.116345 
L 196.48 162.772521 
L 198.283636 159.34324 
L 200.087273 155.826023 
L 201.890909 152.218339 
L 203.694545 148.517601 
L 205.498182 144.72117 
L 207.301818 140.826351 
L 209.105455 136.830394 
L 210.909091 132.730492 
L 212.712727 128.52378 
L 214.516364 124.207337 
L 216.32 119.778184 
L 218.123636 115.233279 
L 219.927273 110.569525 
L 221.730909 105.783762 
L 223.534545 100.872769 
L 225.338182 95.833264 
L 227.141818 90.661901 
L 228.945455 85.355273 
L 230.749091 79.909907 
L 232.552727 74.322267 
L 234.356364 68.588751 
L 236.16 62.705691 
" clip-path="url(#p2390a9de2d)" style="fill: none; stroke: #0000ff; stroke-width: 1.5; stroke-linecap: square"/>
   </g>
   <g id="line2d_15">
    <defs>
     <path id="m2249bf7857" d="M -3 3 
L 3 -3 
M -3 -3 
L 3 3 
" style="stroke: #008000"/>
    </defs>
    <g clip-path="url(#p2390a9de2d)">
     <use xlink:href="#m2249bf7857" x="63.552" y="291.866884" style="fill: #008000; stroke: #008000"/>
     <use xlink:href="#m2249bf7857" x="69.504" y="288.285791" style="fill: #008000; stroke: #008000"/>
     <use xlink:href="#m2249bf7857" x="75.456" y="284.579497" style="fill: #008000; stroke: #008000"/>
     <use xlink:href="#m2249bf7857" x="81.408" y="280.883177" style="fill: #008000; stroke: #008000"/>
     <use xlink:href="#m2249bf7857" x="87.36" y="277.130494" style="fill: #008000; stroke: #008000"/>
     <use xlink:href="#m2249bf7857" x="93.312" y="273.328677" style="fill: #008000; stroke: #008000"/>
     <use xlink:href="#m2249bf7857" x="99.264" y="269.358155" style="fill: #008000; stroke: #008000"/>
     <use xlink:href="#m2249bf7857" x="105.216" y="265.274013" style="fill: #008000; stroke: #008000"/>
     <use xlink:href="#m2249bf7857" x="111.168" y="260.999742" style="fill: #008000; stroke: #008000"/>
     <use xlink:href="#m2249bf7857" x="117.12" y="256.590409" style="fill: #008000; stroke: #008000"/>
     <use xlink:href="#m2249bf7857" x="123.072" y="251.895078" style="fill: #008000; stroke: #008000"/>
     <use xlink:href="#m2249bf7857" x="129.024" y="246.980293" style="fill: #008000; stroke: #008000"/>
     <use xlink:href="#m2249bf7857" x="134.976" y="241.706984" style="fill: #008000; stroke: #008000"/>
     <use xlink:href="#m2249bf7857" x="140.928" y="235.998406" style="fill: #008000; stroke: #008000"/>
     <use xlink:href="#m2249bf7857" x="146.88" y="229.862314" style="fill: #008000; stroke: #008000"/>
     <use xlink:href="#m2249bf7857" x="152.832" y="223.082075" style="fill: #008000; stroke: #008000"/>
     <use xlink:href="#m2249bf7857" x="158.784" y="215.600248" style="fill: #008000; stroke: #008000"/>
     <use xlink:href="#m2249bf7857" x="164.736" y="207.106518" style="fill: #008000; stroke: #008000"/>
     <use xlink:href="#m2249bf7857" x="170.688" y="197.788086" style="fill: #008000; stroke: #008000"/>
     <use xlink:href="#m2249bf7857" x="176.64" y="187.06422" style="fill: #008000; stroke: #008000"/>
     <use xlink:href="#m2249bf7857" x="182.592" y="175.388473" style="fill: #008000; stroke: #008000"/>
     <use xlink:href="#m2249bf7857" x="188.544" y="162.220275" style="fill: #008000; stroke: #008000"/>
     <use xlink:href="#m2249bf7857" x="194.496" y="149.789991" style="fill: #008000; stroke: #008000"/>
     <use xlink:href="#m2249bf7857" x="200.448" y="140.849866" style="fill: #008000; stroke: #008000"/>
     <use xlink:href="#m2249bf7857" x="206.4" y="133.163723" style="fill: #008000; stroke: #008000"/>
     <use xlink:href="#m2249bf7857" x="212.352" y="126.81993" style="fill: #008000; stroke: #008000"/>
     <use xlink:href="#m2249bf7857" x="218.304" y="121.185508" style="fill: #008000; stroke: #008000"/>
     <use xlink:href="#m2249bf7857" x="224.256" y="116.112115" style="fill: #008000; stroke: #008000"/>
     <use xlink:href="#m2249bf7857" x="230.208" y="111.597363" style="fill: #008000; stroke: #008000"/>
     <use xlink:href="#m2249bf7857" x="236.16" y="107.577297" style="fill: #008000; stroke: #008000"/>
     <use xlink:href="#m2249bf7857" x="242.112" y="103.666785" style="fill: #008000; stroke: #008000"/>
     <use xlink:href="#m2249bf7857" x="248.064" y="100.271042" style="fill: #008000; stroke: #008000"/>
     <use xlink:href="#m2249bf7857" x="254.016" y="96.915716" style="fill: #008000; stroke: #008000"/>
     <use xlink:href="#m2249bf7857" x="259.968" y="93.815986" style="fill: #008000; stroke: #008000"/>
     <use xlink:href="#m2249bf7857" x="265.92" y="91.049245" style="fill: #008000; stroke: #008000"/>
     <use xlink:href="#m2249bf7857" x="271.872" y="88.531398" style="fill: #008000; stroke: #008000"/>
     <use xlink:href="#m2249bf7857" x="277.824" y="85.946884" style="fill: #008000; stroke: #008000"/>
     <use xlink:href="#m2249bf7857" x="283.776" y="83.849177" style="fill: #008000; stroke: #008000"/>
     <use xlink:href="#m2249bf7857" x="289.728" y="81.619844" style="fill: #008000; stroke: #008000"/>
     <use xlink:href="#m2249bf7857" x="295.68" y="79.603158" style="fill: #008000; stroke: #008000"/>
     <use xlink:href="#m2249bf7857" x="390.912" y="57.680278" style="fill: #008000; stroke: #008000"/>
     <use xlink:href="#m2249bf7857" x="384.96" y="58.612527" style="fill: #008000; stroke: #008000"/>
     <use xlink:href="#m2249bf7857" x="379.008" y="59.634773" style="fill: #008000; stroke: #008000"/>
     <use xlink:href="#m2249bf7857" x="373.056" y="60.663016" style="fill: #008000; stroke: #008000"/>
     <use xlink:href="#m2249bf7857" x="301.632" y="77.638245" style="fill: #008000; stroke: #008000"/>
     <use xlink:href="#m2249bf7857" x="307.584" y="75.839013" style="fill: #008000; stroke: #008000"/>
     <use xlink:href="#m2249bf7857" x="313.536" y="74.092456" style="fill: #008000; stroke: #008000"/>
     <use xlink:href="#m2249bf7857" x="319.488" y="72.464132" style="fill: #008000; stroke: #008000"/>
     <use xlink:href="#m2249bf7857" x="325.44" y="70.907592" style="fill: #008000; stroke: #008000"/>
     <use xlink:href="#m2249bf7857" x="331.392" y="69.446339" style="fill: #008000; stroke: #008000"/>
     <use xlink:href="#m2249bf7857" x="337.344" y="68.007583" style="fill: #008000; stroke: #008000"/>
     <use xlink:href="#m2249bf7857" x="367.104" y="61.699503" style="fill: #008000; stroke: #008000"/>
     <use xlink:href="#m2249bf7857" x="343.296" y="66.673112" style="fill: #008000; stroke: #008000"/>
     <use xlink:href="#m2249bf7857" x="361.152" y="62.980266" style="fill: #008000; stroke: #008000"/>
     <use xlink:href="#m2249bf7857" x="355.2" y="64.087509" style="fill: #008000; stroke: #008000"/>
    </g>
   </g>
   <g id="patch_3">
    <path d="M 57.6 307.584 
L 57.6 41.472 
" style="fill: none; stroke: #000000; stroke-width: 0.8; stroke-linejoin: miter; stroke-linecap: square"/>
   </g>
   <g id="patch_4">
    <path d="M 57.6 307.584 
L 414.72 307.584 
" style="fill: none; stroke: #000000; stroke-width: 0.8; stroke-linejoin: miter; stroke-linecap: square"/>
   </g>
   <g id="legend_1">
    <g id="patch_5">
     <path d="M 131.104375 302.584 
L 407.72 302.584 
Q 409.72 302.584 409.72 300.584 
L 409.72 257.2715 
Q 409.72 255.2715 407.72 255.2715 
L 131.104375 255.2715 
Q 129.104375 255.2715 129.104375 257.2715 
L 129.104375 300.584 
Q 129.104375 302.584 131.104375 302.584 
z
" style="fill: #ffffff; opacity: 0.8; stroke: #cccccc; stroke-linejoin: miter"/>
    </g>
    <g id="line2d_16">
     <path d="M 133.104375 263.369937 
L 143.104375 263.369937 
L 153.104375 263.369937 
" style="fill: none; stroke: #ff0000; stroke-width: 1.5; stroke-linecap: square"/>
    </g>
    <g id="text_15">
     <!-- Weak Coupling Expansion -->
     <g transform="translate(161.104375 266.869937) scale(0.1 -0.1)">
      <defs>
       <path id="DejaVuSans-57" d="M 213 4666 
L 850 4666 
L 1831 722 
L 2809 4666 
L 3519 4666 
L 4500 722 
L 5478 4666 
L 6119 4666 
L 4947 0 
L 4153 0 
L 3169 4050 
L 2175 0 
L 1381 0 
L 213 4666 
z
" transform="scale(0.015625)"/>
       <path id="DejaVuSans-65" d="M 3597 1894 
L 3597 1613 
L 953 1613 
Q 991 1019 1311 708 
Q 1631 397 2203 397 
Q 2534 397 2845 478 
Q 3156 559 3463 722 
L 3463 178 
Q 3153 47 2828 -22 
Q 2503 -91 2169 -91 
Q 1331 -91 842 396 
Q 353 884 353 1716 
Q 353 2575 817 3079 
Q 1281 3584 2069 3584 
Q 2775 3584 3186 3129 
Q 3597 2675 3597 1894 
z
M 3022 2063 
Q 3016 2534 2758 2815 
Q 2500 3097 2075 3097 
Q 1594 3097 1305 2825 
Q 1016 2553 972 2059 
L 3022 2063 
z
" transform="scale(0.015625)"/>
       <path id="DejaVuSans-61" d="M 2194 1759 
Q 1497 1759 1228 1600 
Q 959 1441 959 1056 
Q 959 750 1161 570 
Q 1363 391 1709 391 
Q 2188 391 2477 730 
Q 2766 1069 2766 1631 
L 2766 1759 
L 2194 1759 
z
M 3341 1997 
L 3341 0 
L 2766 0 
L 2766 531 
Q 2569 213 2275 61 
Q 1981 -91 1556 -91 
Q 1019 -91 701 211 
Q 384 513 384 1019 
Q 384 1609 779 1909 
Q 1175 2209 1959 2209 
L 2766 2209 
L 2766 2266 
Q 2766 2663 2505 2880 
Q 2244 3097 1772 3097 
Q 1472 3097 1187 3025 
Q 903 2953 641 2809 
L 641 3341 
Q 956 3463 1253 3523 
Q 1550 3584 1831 3584 
Q 2591 3584 2966 3190 
Q 3341 2797 3341 1997 
z
" transform="scale(0.015625)"/>
       <path id="DejaVuSans-6b" d="M 581 4863 
L 1159 4863 
L 1159 1991 
L 2875 3500 
L 3609 3500 
L 1753 1863 
L 3688 0 
L 2938 0 
L 1159 1709 
L 1159 0 
L 581 0 
L 581 4863 
z
" transform="scale(0.015625)"/>
       <path id="DejaVuSans-20" transform="scale(0.015625)"/>
       <path id="DejaVuSans-43" d="M 4122 4306 
L 4122 3641 
Q 3803 3938 3442 4084 
Q 3081 4231 2675 4231 
Q 1875 4231 1450 3742 
Q 1025 3253 1025 2328 
Q 1025 1406 1450 917 
Q 1875 428 2675 428 
Q 3081 428 3442 575 
Q 3803 722 4122 1019 
L 4122 359 
Q 3791 134 3420 21 
Q 3050 -91 2638 -91 
Q 1578 -91 968 557 
Q 359 1206 359 2328 
Q 359 3453 968 4101 
Q 1578 4750 2638 4750 
Q 3056 4750 3426 4639 
Q 3797 4528 4122 4306 
z
" transform="scale(0.015625)"/>
       <path id="DejaVuSans-6f" d="M 1959 3097 
Q 1497 3097 1228 2736 
Q 959 2375 959 1747 
Q 959 1119 1226 758 
Q 1494 397 1959 397 
Q 2419 397 2687 759 
Q 2956 1122 2956 1747 
Q 2956 2369 2687 2733 
Q 2419 3097 1959 3097 
z
M 1959 3584 
Q 2709 3584 3137 3096 
Q 3566 2609 3566 1747 
Q 3566 888 3137 398 
Q 2709 -91 1959 -91 
Q 1206 -91 779 398 
Q 353 888 353 1747 
Q 353 2609 779 3096 
Q 1206 3584 1959 3584 
z
" transform="scale(0.015625)"/>
       <path id="DejaVuSans-75" d="M 544 1381 
L 544 3500 
L 1119 3500 
L 1119 1403 
Q 1119 906 1312 657 
Q 1506 409 1894 409 
Q 2359 409 2629 706 
Q 2900 1003 2900 1516 
L 2900 3500 
L 3475 3500 
L 3475 0 
L 2900 0 
L 2900 538 
Q 2691 219 2414 64 
Q 2138 -91 1772 -91 
Q 1169 -91 856 284 
Q 544 659 544 1381 
z
M 1991 3584 
L 1991 3584 
z
" transform="scale(0.015625)"/>
       <path id="DejaVuSans-70" d="M 1159 525 
L 1159 -1331 
L 581 -1331 
L 581 3500 
L 1159 3500 
L 1159 2969 
Q 1341 3281 1617 3432 
Q 1894 3584 2278 3584 
Q 2916 3584 3314 3078 
Q 3713 2572 3713 1747 
Q 3713 922 3314 415 
Q 2916 -91 2278 -91 
Q 1894 -91 1617 61 
Q 1341 213 1159 525 
z
M 3116 1747 
Q 3116 2381 2855 2742 
Q 2594 3103 2138 3103 
Q 1681 3103 1420 2742 
Q 1159 2381 1159 1747 
Q 1159 1113 1420 752 
Q 1681 391 2138 391 
Q 2594 391 2855 752 
Q 3116 1113 3116 1747 
z
" transform="scale(0.015625)"/>
       <path id="DejaVuSans-6c" d="M 603 4863 
L 1178 4863 
L 1178 0 
L 603 0 
L 603 4863 
z
" transform="scale(0.015625)"/>
       <path id="DejaVuSans-69" d="M 603 3500 
L 1178 3500 
L 1178 0 
L 603 0 
L 603 3500 
z
M 603 4863 
L 1178 4863 
L 1178 4134 
L 603 4134 
L 603 4863 
z
" transform="scale(0.015625)"/>
       <path id="DejaVuSans-6e" d="M 3513 2113 
L 3513 0 
L 2938 0 
L 2938 2094 
Q 2938 2591 2744 2837 
Q 2550 3084 2163 3084 
Q 1697 3084 1428 2787 
Q 1159 2491 1159 1978 
L 1159 0 
L 581 0 
L 581 3500 
L 1159 3500 
L 1159 2956 
Q 1366 3272 1645 3428 
Q 1925 3584 2291 3584 
Q 2894 3584 3203 3211 
Q 3513 2838 3513 2113 
z
" transform="scale(0.015625)"/>
       <path id="DejaVuSans-67" d="M 2906 1791 
Q 2906 2416 2648 2759 
Q 2391 3103 1925 3103 
Q 1463 3103 1205 2759 
Q 947 2416 947 1791 
Q 947 1169 1205 825 
Q 1463 481 1925 481 
Q 2391 481 2648 825 
Q 2906 1169 2906 1791 
z
M 3481 434 
Q 3481 -459 3084 -895 
Q 2688 -1331 1869 -1331 
Q 1566 -1331 1297 -1286 
Q 1028 -1241 775 -1147 
L 775 -588 
Q 1028 -725 1275 -790 
Q 1522 -856 1778 -856 
Q 2344 -856 2625 -561 
Q 2906 -266 2906 331 
L 2906 616 
Q 2728 306 2450 153 
Q 2172 0 1784 0 
Q 1141 0 747 490 
Q 353 981 353 1791 
Q 353 2603 747 3093 
Q 1141 3584 1784 3584 
Q 2172 3584 2450 3431 
Q 2728 3278 2906 2969 
L 2906 3500 
L 3481 3500 
L 3481 434 
z
" transform="scale(0.015625)"/>
       <path id="DejaVuSans-45" d="M 628 4666 
L 3578 4666 
L 3578 4134 
L 1259 4134 
L 1259 2753 
L 3481 2753 
L 3481 2222 
L 1259 2222 
L 1259 531 
L 3634 531 
L 3634 0 
L 628 0 
L 628 4666 
z
" transform="scale(0.015625)"/>
       <path id="DejaVuSans-78" d="M 3513 3500 
L 2247 1797 
L 3578 0 
L 2900 0 
L 1881 1375 
L 863 0 
L 184 0 
L 1544 1831 
L 300 3500 
L 978 3500 
L 1906 2253 
L 2834 3500 
L 3513 3500 
z
" transform="scale(0.015625)"/>
       <path id="DejaVuSans-73" d="M 2834 3397 
L 2834 2853 
Q 2591 2978 2328 3040 
Q 2066 3103 1784 3103 
Q 1356 3103 1142 2972 
Q 928 2841 928 2578 
Q 928 2378 1081 2264 
Q 1234 2150 1697 2047 
L 1894 2003 
Q 2506 1872 2764 1633 
Q 3022 1394 3022 966 
Q 3022 478 2636 193 
Q 2250 -91 1575 -91 
Q 1294 -91 989 -36 
Q 684 19 347 128 
L 347 722 
Q 666 556 975 473 
Q 1284 391 1588 391 
Q 1994 391 2212 530 
Q 2431 669 2431 922 
Q 2431 1156 2273 1281 
Q 2116 1406 1581 1522 
L 1381 1569 
Q 847 1681 609 1914 
Q 372 2147 372 2553 
Q 372 3047 722 3315 
Q 1072 3584 1716 3584 
Q 2034 3584 2315 3537 
Q 2597 3491 2834 3397 
z
" transform="scale(0.015625)"/>
      </defs>
      <use xlink:href="#DejaVuSans-57"/>
      <use xlink:href="#DejaVuSans-65" x="93.001953"/>
      <use xlink:href="#DejaVuSans-61" x="154.525391"/>
      <use xlink:href="#DejaVuSans-6b" x="215.804688"/>
      <use xlink:href="#DejaVuSans-20" x="273.714844"/>
      <use xlink:href="#DejaVuSans-43" x="305.501953"/>
      <use xlink:href="#DejaVuSans-6f" x="375.326172"/>
      <use xlink:href="#DejaVuSans-75" x="436.507812"/>
      <use xlink:href="#DejaVuSans-70" x="499.886719"/>
      <use xlink:href="#DejaVuSans-6c" x="563.363281"/>
      <use xlink:href="#DejaVuSans-69" x="591.146484"/>
      <use xlink:href="#DejaVuSans-6e" x="618.929688"/>
      <use xlink:href="#DejaVuSans-67" x="682.308594"/>
      <use xlink:href="#DejaVuSans-20" x="745.785156"/>
      <use xlink:href="#DejaVuSans-45" x="777.572266"/>
      <use xlink:href="#DejaVuSans-78" x="840.755859"/>
      <use xlink:href="#DejaVuSans-70" x="899.935547"/>
      <use xlink:href="#DejaVuSans-61" x="963.412109"/>
      <use xlink:href="#DejaVuSans-6e" x="1024.691406"/>
      <use xlink:href="#DejaVuSans-73" x="1088.070312"/>
      <use xlink:href="#DejaVuSans-69" x="1140.169922"/>
      <use xlink:href="#DejaVuSans-6f" x="1167.953125"/>
      <use xlink:href="#DejaVuSans-6e" x="1229.134766"/>
     </g>
    </g>
    <g id="line2d_17">
     <path d="M 133.104375 278.048063 
L 143.104375 278.048063 
L 153.104375 278.048063 
" style="fill: none; stroke: #0000ff; stroke-width: 1.5; stroke-linecap: square"/>
    </g>
    <g id="text_16">
     <!-- Strong Coupling Expansion -->
     <g transform="translate(161.104375 281.548063) scale(0.1 -0.1)">
      <defs>
       <path id="DejaVuSans-53" d="M 3425 4513 
L 3425 3897 
Q 3066 4069 2747 4153 
Q 2428 4238 2131 4238 
Q 1616 4238 1336 4038 
Q 1056 3838 1056 3469 
Q 1056 3159 1242 3001 
Q 1428 2844 1947 2747 
L 2328 2669 
Q 3034 2534 3370 2195 
Q 3706 1856 3706 1288 
Q 3706 609 3251 259 
Q 2797 -91 1919 -91 
Q 1588 -91 1214 -16 
Q 841 59 441 206 
L 441 856 
Q 825 641 1194 531 
Q 1563 422 1919 422 
Q 2459 422 2753 634 
Q 3047 847 3047 1241 
Q 3047 1584 2836 1778 
Q 2625 1972 2144 2069 
L 1759 2144 
Q 1053 2284 737 2584 
Q 422 2884 422 3419 
Q 422 4038 858 4394 
Q 1294 4750 2059 4750 
Q 2388 4750 2728 4690 
Q 3069 4631 3425 4513 
z
" transform="scale(0.015625)"/>
       <path id="DejaVuSans-74" d="M 1172 4494 
L 1172 3500 
L 2356 3500 
L 2356 3053 
L 1172 3053 
L 1172 1153 
Q 1172 725 1289 603 
Q 1406 481 1766 481 
L 2356 481 
L 2356 0 
L 1766 0 
Q 1100 0 847 248 
Q 594 497 594 1153 
L 594 3053 
L 172 3053 
L 172 3500 
L 594 3500 
L 594 4494 
L 1172 4494 
z
" transform="scale(0.015625)"/>
       <path id="DejaVuSans-72" d="M 2631 2963 
Q 2534 3019 2420 3045 
Q 2306 3072 2169 3072 
Q 1681 3072 1420 2755 
Q 1159 2438 1159 1844 
L 1159 0 
L 581 0 
L 581 3500 
L 1159 3500 
L 1159 2956 
Q 1341 3275 1631 3429 
Q 1922 3584 2338 3584 
Q 2397 3584 2469 3576 
Q 2541 3569 2628 3553 
L 2631 2963 
z
" transform="scale(0.015625)"/>
      </defs>
      <use xlink:href="#DejaVuSans-53"/>
      <use xlink:href="#DejaVuSans-74" x="63.476562"/>
      <use xlink:href="#DejaVuSans-72" x="102.685547"/>
      <use xlink:href="#DejaVuSans-6f" x="141.548828"/>
      <use xlink:href="#DejaVuSans-6e" x="202.730469"/>
      <use xlink:href="#DejaVuSans-67" x="266.109375"/>
      <use xlink:href="#DejaVuSans-20" x="329.585938"/>
      <use xlink:href="#DejaVuSans-43" x="361.373047"/>
      <use xlink:href="#DejaVuSans-6f" x="431.197266"/>
      <use xlink:href="#DejaVuSans-75" x="492.378906"/>
      <use xlink:href="#DejaVuSans-70" x="555.757812"/>
      <use xlink:href="#DejaVuSans-6c" x="619.234375"/>
      <use xlink:href="#DejaVuSans-69" x="647.017578"/>
      <use xlink:href="#DejaVuSans-6e" x="674.800781"/>
      <use xlink:href="#DejaVuSans-67" x="738.179688"/>
      <use xlink:href="#DejaVuSans-20" x="801.65625"/>
      <use xlink:href="#DejaVuSans-45" x="833.443359"/>
      <use xlink:href="#DejaVuSans-78" x="896.626953"/>
      <use xlink:href="#DejaVuSans-70" x="955.806641"/>
      <use xlink:href="#DejaVuSans-61" x="1019.283203"/>
      <use xlink:href="#DejaVuSans-6e" x="1080.5625"/>
      <use xlink:href="#DejaVuSans-73" x="1143.941406"/>
      <use xlink:href="#DejaVuSans-69" x="1196.041016"/>
      <use xlink:href="#DejaVuSans-6f" x="1223.824219"/>
      <use xlink:href="#DejaVuSans-6e" x="1285.005859"/>
     </g>
    </g>
    <g id="LineCollection_2">
     <path d="M 143.104375 297.726187 
L 143.104375 287.726187 
" style="fill: none; stroke: #008000; stroke-width: 1.5"/>
    </g>
    <g id="line2d_18"/>
    <g id="line2d_19">
     <g>
      <use xlink:href="#m2249bf7857" x="143.104375" y="292.726187" style="fill: #008000; stroke: #008000"/>
     </g>
    </g>
    <g id="text_17">
     <!-- Data with Taylor of Order = 10 and N_order = 10 -->
     <g transform="translate(161.104375 296.226187) scale(0.1 -0.1)">
      <defs>
       <path id="DejaVuSans-44" d="M 1259 4147 
L 1259 519 
L 2022 519 
Q 2988 519 3436 956 
Q 3884 1394 3884 2338 
Q 3884 3275 3436 3711 
Q 2988 4147 2022 4147 
L 1259 4147 
z
M 628 4666 
L 1925 4666 
Q 3281 4666 3915 4102 
Q 4550 3538 4550 2338 
Q 4550 1131 3912 565 
Q 3275 0 1925 0 
L 628 0 
L 628 4666 
z
" transform="scale(0.015625)"/>
       <path id="DejaVuSans-77" d="M 269 3500 
L 844 3500 
L 1563 769 
L 2278 3500 
L 2956 3500 
L 3675 769 
L 4391 3500 
L 4966 3500 
L 4050 0 
L 3372 0 
L 2619 2869 
L 1863 0 
L 1184 0 
L 269 3500 
z
" transform="scale(0.015625)"/>
       <path id="DejaVuSans-68" d="M 3513 2113 
L 3513 0 
L 2938 0 
L 2938 2094 
Q 2938 2591 2744 2837 
Q 2550 3084 2163 3084 
Q 1697 3084 1428 2787 
Q 1159 2491 1159 1978 
L 1159 0 
L 581 0 
L 581 4863 
L 1159 4863 
L 1159 2956 
Q 1366 3272 1645 3428 
Q 1925 3584 2291 3584 
Q 2894 3584 3203 3211 
Q 3513 2838 3513 2113 
z
" transform="scale(0.015625)"/>
       <path id="DejaVuSans-54" d="M -19 4666 
L 3928 4666 
L 3928 4134 
L 2272 4134 
L 2272 0 
L 1638 0 
L 1638 4134 
L -19 4134 
L -19 4666 
z
" transform="scale(0.015625)"/>
       <path id="DejaVuSans-79" d="M 2059 -325 
Q 1816 -950 1584 -1140 
Q 1353 -1331 966 -1331 
L 506 -1331 
L 506 -850 
L 844 -850 
Q 1081 -850 1212 -737 
Q 1344 -625 1503 -206 
L 1606 56 
L 191 3500 
L 800 3500 
L 1894 763 
L 2988 3500 
L 3597 3500 
L 2059 -325 
z
" transform="scale(0.015625)"/>
       <path id="DejaVuSans-66" d="M 2375 4863 
L 2375 4384 
L 1825 4384 
Q 1516 4384 1395 4259 
Q 1275 4134 1275 3809 
L 1275 3500 
L 2222 3500 
L 2222 3053 
L 1275 3053 
L 1275 0 
L 697 0 
L 697 3053 
L 147 3053 
L 147 3500 
L 697 3500 
L 697 3744 
Q 697 4328 969 4595 
Q 1241 4863 1831 4863 
L 2375 4863 
z
" transform="scale(0.015625)"/>
       <path id="DejaVuSans-4f" d="M 2522 4238 
Q 1834 4238 1429 3725 
Q 1025 3213 1025 2328 
Q 1025 1447 1429 934 
Q 1834 422 2522 422 
Q 3209 422 3611 934 
Q 4013 1447 4013 2328 
Q 4013 3213 3611 3725 
Q 3209 4238 2522 4238 
z
M 2522 4750 
Q 3503 4750 4090 4092 
Q 4678 3434 4678 2328 
Q 4678 1225 4090 567 
Q 3503 -91 2522 -91 
Q 1538 -91 948 565 
Q 359 1222 359 2328 
Q 359 3434 948 4092 
Q 1538 4750 2522 4750 
z
" transform="scale(0.015625)"/>
       <path id="DejaVuSans-64" d="M 2906 2969 
L 2906 4863 
L 3481 4863 
L 3481 0 
L 2906 0 
L 2906 525 
Q 2725 213 2448 61 
Q 2172 -91 1784 -91 
Q 1150 -91 751 415 
Q 353 922 353 1747 
Q 353 2572 751 3078 
Q 1150 3584 1784 3584 
Q 2172 3584 2448 3432 
Q 2725 3281 2906 2969 
z
M 947 1747 
Q 947 1113 1208 752 
Q 1469 391 1925 391 
Q 2381 391 2643 752 
Q 2906 1113 2906 1747 
Q 2906 2381 2643 2742 
Q 2381 3103 1925 3103 
Q 1469 3103 1208 2742 
Q 947 2381 947 1747 
z
" transform="scale(0.015625)"/>
       <path id="DejaVuSans-3d" d="M 678 2906 
L 4684 2906 
L 4684 2381 
L 678 2381 
L 678 2906 
z
M 678 1631 
L 4684 1631 
L 4684 1100 
L 678 1100 
L 678 1631 
z
" transform="scale(0.015625)"/>
       <path id="DejaVuSans-4e" d="M 628 4666 
L 1478 4666 
L 3547 763 
L 3547 4666 
L 4159 4666 
L 4159 0 
L 3309 0 
L 1241 3903 
L 1241 0 
L 628 0 
L 628 4666 
z
" transform="scale(0.015625)"/>
       <path id="DejaVuSans-5f" d="M 3263 -1063 
L 3263 -1509 
L -63 -1509 
L -63 -1063 
L 3263 -1063 
z
" transform="scale(0.015625)"/>
      </defs>
      <use xlink:href="#DejaVuSans-44"/>
      <use xlink:href="#DejaVuSans-61" x="77.001953"/>
      <use xlink:href="#DejaVuSans-74" x="138.28125"/>
      <use xlink:href="#DejaVuSans-61" x="177.490234"/>
      <use xlink:href="#DejaVuSans-20" x="238.769531"/>
      <use xlink:href="#DejaVuSans-77" x="270.556641"/>
      <use xlink:href="#DejaVuSans-69" x="352.34375"/>
      <use xlink:href="#DejaVuSans-74" x="380.126953"/>
      <use xlink:href="#DejaVuSans-68" x="419.335938"/>
      <use xlink:href="#DejaVuSans-20" x="482.714844"/>
      <use xlink:href="#DejaVuSans-54" x="514.501953"/>
      <use xlink:href="#DejaVuSans-61" x="559.085938"/>
      <use xlink:href="#DejaVuSans-79" x="620.365234"/>
      <use xlink:href="#DejaVuSans-6c" x="679.544922"/>
      <use xlink:href="#DejaVuSans-6f" x="707.328125"/>
      <use xlink:href="#DejaVuSans-72" x="768.509766"/>
      <use xlink:href="#DejaVuSans-20" x="809.623047"/>
      <use xlink:href="#DejaVuSans-6f" x="841.410156"/>
      <use xlink:href="#DejaVuSans-66" x="902.591797"/>
      <use xlink:href="#DejaVuSans-20" x="937.796875"/>
      <use xlink:href="#DejaVuSans-4f" x="969.583984"/>
      <use xlink:href="#DejaVuSans-72" x="1048.294922"/>
      <use xlink:href="#DejaVuSans-64" x="1087.658203"/>
      <use xlink:href="#DejaVuSans-65" x="1151.134766"/>
      <use xlink:href="#DejaVuSans-72" x="1212.658203"/>
      <use xlink:href="#DejaVuSans-20" x="1253.771484"/>
      <use xlink:href="#DejaVuSans-3d" x="1285.558594"/>
      <use xlink:href="#DejaVuSans-20" x="1369.347656"/>
      <use xlink:href="#DejaVuSans-31" x="1401.134766"/>
      <use xlink:href="#DejaVuSans-30" x="1464.757812"/>
      <use xlink:href="#DejaVuSans-20" x="1528.380859"/>
      <use xlink:href="#DejaVuSans-61" x="1560.167969"/>
      <use xlink:href="#DejaVuSans-6e" x="1621.447266"/>
      <use xlink:href="#DejaVuSans-64" x="1684.826172"/>
      <use xlink:href="#DejaVuSans-20" x="1748.302734"/>
      <use xlink:href="#DejaVuSans-4e" x="1780.089844"/>
      <use xlink:href="#DejaVuSans-5f" x="1854.894531"/>
      <use xlink:href="#DejaVuSans-6f" x="1904.894531"/>
      <use xlink:href="#DejaVuSans-72" x="1966.076172"/>
      <use xlink:href="#DejaVuSans-64" x="2005.439453"/>
      <use xlink:href="#DejaVuSans-65" x="2068.916016"/>
      <use xlink:href="#DejaVuSans-72" x="2130.439453"/>
      <use xlink:href="#DejaVuSans-20" x="2171.552734"/>
      <use xlink:href="#DejaVuSans-3d" x="2203.339844"/>
      <use xlink:href="#DejaVuSans-20" x="2287.128906"/>
      <use xlink:href="#DejaVuSans-31" x="2318.916016"/>
      <use xlink:href="#DejaVuSans-30" x="2382.539062"/>
     </g>
    </g>
   </g>
  </g>
 </g>
 <defs>
  <clipPath id="p2390a9de2d">
   <rect x="57.6" y="41.472" width="357.12" height="266.112"/>
  </clipPath>
 </defs>
</svg>
