<?xml version="1.0" encoding="utf-8" standalone="no"?>
<!DOCTYPE svg PUBLIC "-//W3C//DTD SVG 1.1//EN"
  "http://www.w3.org/Graphics/SVG/1.1/DTD/svg11.dtd">
<svg height="345.6pt" version="1.1" viewBox="0 0 460.8 345.6" width="460.8pt" xmlns="http://www.w3.org/2000/svg" xmlns:xlink="http://www.w3.org/1999/xlink">
 <metadata>
  <rdf:RDF xmlns:cc="http://creativecommons.org/ns#" xmlns:dc="http://purl.org/dc/elements/1.1/" xmlns:rdf="http://www.w3.org/1999/02/22-rdf-syntax-ns#">
   <cc:Work>
    <dc:type rdf:resource="http://purl.org/dc/dcmitype/StillImage"/>
    <dc:date>2023-10-31T15:38:29.000716</dc:date>
    <dc:format>image/svg+xml</dc:format>
    <dc:creator>
     <cc:Agent>
      <dc:title>Matplotlib v3.4.1, https://matplotlib.org/</dc:title>
     </cc:Agent>
    </dc:creator>
   </cc:Work>
  </rdf:RDF>
 </metadata>
 <defs>
  <style type="text/css">*{stroke-linecap:butt;stroke-linejoin:round;}</style>
 </defs>
 <g id="figure_1">
  <g id="patch_1">
   <path d="M 0 345.6 
L 460.8 345.6 
L 460.8 0 
L 0 0 
z
" style="fill:#ffffff;"/>
  </g>
  <g id="axes_1">
   <g id="patch_2">
    <path d="M 57.6 307.584 
L 414.72 307.584 
L 414.72 41.472 
L 57.6 41.472 
z
" style="fill:#ffffff;"/>
   </g>
   <g id="matplotlib.axis_1">
    <g id="xtick_1">
     <g id="line2d_1">
      <defs>
       <path d="M 0 0 
L 0 3.5 
" id="m98fca7bf2c" style="stroke:#000000;stroke-width:0.8;"/>
      </defs>
      <g>
       <use style="stroke:#000000;stroke-width:0.8;" x="57.6" xlink:href="#m98fca7bf2c" y="307.584"/>
      </g>
     </g>
     <g id="text_1">
      <!-- 0.0 -->
      <g transform="translate(49.648438 322.182437)scale(0.1 -0.1)">
       <defs>
        <path d="M 2034 4250 
Q 1547 4250 1301 3770 
Q 1056 3291 1056 2328 
Q 1056 1369 1301 889 
Q 1547 409 2034 409 
Q 2525 409 2770 889 
Q 3016 1369 3016 2328 
Q 3016 3291 2770 3770 
Q 2525 4250 2034 4250 
z
M 2034 4750 
Q 2819 4750 3233 4129 
Q 3647 3509 3647 2328 
Q 3647 1150 3233 529 
Q 2819 -91 2034 -91 
Q 1250 -91 836 529 
Q 422 1150 422 2328 
Q 422 3509 836 4129 
Q 1250 4750 2034 4750 
z
" id="DejaVuSans-30" transform="scale(0.015625)"/>
        <path d="M 684 794 
L 1344 794 
L 1344 0 
L 684 0 
L 684 794 
z
" id="DejaVuSans-2e" transform="scale(0.015625)"/>
       </defs>
       <use xlink:href="#DejaVuSans-30"/>
       <use x="63.623047" xlink:href="#DejaVuSans-2e"/>
       <use x="95.410156" xlink:href="#DejaVuSans-30"/>
      </g>
     </g>
    </g>
    <g id="xtick_2">
     <g id="line2d_2">
      <g>
       <use style="stroke:#000000;stroke-width:0.8;" x="101.15122" xlink:href="#m98fca7bf2c" y="307.584"/>
      </g>
     </g>
     <g id="text_2">
      <!-- 0.5 -->
      <g transform="translate(93.199657 322.182437)scale(0.1 -0.1)">
       <defs>
        <path d="M 691 4666 
L 3169 4666 
L 3169 4134 
L 1269 4134 
L 1269 2991 
Q 1406 3038 1543 3061 
Q 1681 3084 1819 3084 
Q 2600 3084 3056 2656 
Q 3513 2228 3513 1497 
Q 3513 744 3044 326 
Q 2575 -91 1722 -91 
Q 1428 -91 1123 -41 
Q 819 9 494 109 
L 494 744 
Q 775 591 1075 516 
Q 1375 441 1709 441 
Q 2250 441 2565 725 
Q 2881 1009 2881 1497 
Q 2881 1984 2565 2268 
Q 2250 2553 1709 2553 
Q 1456 2553 1204 2497 
Q 953 2441 691 2322 
L 691 4666 
z
" id="DejaVuSans-35" transform="scale(0.015625)"/>
       </defs>
       <use xlink:href="#DejaVuSans-30"/>
       <use x="63.623047" xlink:href="#DejaVuSans-2e"/>
       <use x="95.410156" xlink:href="#DejaVuSans-35"/>
      </g>
     </g>
    </g>
    <g id="xtick_3">
     <g id="line2d_3">
      <g>
       <use style="stroke:#000000;stroke-width:0.8;" x="144.702439" xlink:href="#m98fca7bf2c" y="307.584"/>
      </g>
     </g>
     <g id="text_3">
      <!-- 1.0 -->
      <g transform="translate(136.750877 322.182437)scale(0.1 -0.1)">
       <defs>
        <path d="M 794 531 
L 1825 531 
L 1825 4091 
L 703 3866 
L 703 4441 
L 1819 4666 
L 2450 4666 
L 2450 531 
L 3481 531 
L 3481 0 
L 794 0 
L 794 531 
z
" id="DejaVuSans-31" transform="scale(0.015625)"/>
       </defs>
       <use xlink:href="#DejaVuSans-31"/>
       <use x="63.623047" xlink:href="#DejaVuSans-2e"/>
       <use x="95.410156" xlink:href="#DejaVuSans-30"/>
      </g>
     </g>
    </g>
    <g id="xtick_4">
     <g id="line2d_4">
      <g>
       <use style="stroke:#000000;stroke-width:0.8;" x="188.253659" xlink:href="#m98fca7bf2c" y="307.584"/>
      </g>
     </g>
     <g id="text_4">
      <!-- 1.5 -->
      <g transform="translate(180.302096 322.182437)scale(0.1 -0.1)">
       <use xlink:href="#DejaVuSans-31"/>
       <use x="63.623047" xlink:href="#DejaVuSans-2e"/>
       <use x="95.410156" xlink:href="#DejaVuSans-35"/>
      </g>
     </g>
    </g>
    <g id="xtick_5">
     <g id="line2d_5">
      <g>
       <use style="stroke:#000000;stroke-width:0.8;" x="231.804878" xlink:href="#m98fca7bf2c" y="307.584"/>
      </g>
     </g>
     <g id="text_5">
      <!-- 2.0 -->
      <g transform="translate(223.853316 322.182437)scale(0.1 -0.1)">
       <defs>
        <path d="M 1228 531 
L 3431 531 
L 3431 0 
L 469 0 
L 469 531 
Q 828 903 1448 1529 
Q 2069 2156 2228 2338 
Q 2531 2678 2651 2914 
Q 2772 3150 2772 3378 
Q 2772 3750 2511 3984 
Q 2250 4219 1831 4219 
Q 1534 4219 1204 4116 
Q 875 4013 500 3803 
L 500 4441 
Q 881 4594 1212 4672 
Q 1544 4750 1819 4750 
Q 2544 4750 2975 4387 
Q 3406 4025 3406 3419 
Q 3406 3131 3298 2873 
Q 3191 2616 2906 2266 
Q 2828 2175 2409 1742 
Q 1991 1309 1228 531 
z
" id="DejaVuSans-32" transform="scale(0.015625)"/>
       </defs>
       <use xlink:href="#DejaVuSans-32"/>
       <use x="63.623047" xlink:href="#DejaVuSans-2e"/>
       <use x="95.410156" xlink:href="#DejaVuSans-30"/>
      </g>
     </g>
    </g>
    <g id="xtick_6">
     <g id="line2d_6">
      <g>
       <use style="stroke:#000000;stroke-width:0.8;" x="275.356098" xlink:href="#m98fca7bf2c" y="307.584"/>
      </g>
     </g>
     <g id="text_6">
      <!-- 2.5 -->
      <g transform="translate(267.404535 322.182437)scale(0.1 -0.1)">
       <use xlink:href="#DejaVuSans-32"/>
       <use x="63.623047" xlink:href="#DejaVuSans-2e"/>
       <use x="95.410156" xlink:href="#DejaVuSans-35"/>
      </g>
     </g>
    </g>
    <g id="xtick_7">
     <g id="line2d_7">
      <g>
       <use style="stroke:#000000;stroke-width:0.8;" x="318.907317" xlink:href="#m98fca7bf2c" y="307.584"/>
      </g>
     </g>
     <g id="text_7">
      <!-- 3.0 -->
      <g transform="translate(310.955755 322.182437)scale(0.1 -0.1)">
       <defs>
        <path d="M 2597 2516 
Q 3050 2419 3304 2112 
Q 3559 1806 3559 1356 
Q 3559 666 3084 287 
Q 2609 -91 1734 -91 
Q 1441 -91 1130 -33 
Q 819 25 488 141 
L 488 750 
Q 750 597 1062 519 
Q 1375 441 1716 441 
Q 2309 441 2620 675 
Q 2931 909 2931 1356 
Q 2931 1769 2642 2001 
Q 2353 2234 1838 2234 
L 1294 2234 
L 1294 2753 
L 1863 2753 
Q 2328 2753 2575 2939 
Q 2822 3125 2822 3475 
Q 2822 3834 2567 4026 
Q 2313 4219 1838 4219 
Q 1578 4219 1281 4162 
Q 984 4106 628 3988 
L 628 4550 
Q 988 4650 1302 4700 
Q 1616 4750 1894 4750 
Q 2613 4750 3031 4423 
Q 3450 4097 3450 3541 
Q 3450 3153 3228 2886 
Q 3006 2619 2597 2516 
z
" id="DejaVuSans-33" transform="scale(0.015625)"/>
       </defs>
       <use xlink:href="#DejaVuSans-33"/>
       <use x="63.623047" xlink:href="#DejaVuSans-2e"/>
       <use x="95.410156" xlink:href="#DejaVuSans-30"/>
      </g>
     </g>
    </g>
    <g id="xtick_8">
     <g id="line2d_8">
      <g>
       <use style="stroke:#000000;stroke-width:0.8;" x="362.458537" xlink:href="#m98fca7bf2c" y="307.584"/>
      </g>
     </g>
     <g id="text_8">
      <!-- 3.5 -->
      <g transform="translate(354.506974 322.182437)scale(0.1 -0.1)">
       <use xlink:href="#DejaVuSans-33"/>
       <use x="63.623047" xlink:href="#DejaVuSans-2e"/>
       <use x="95.410156" xlink:href="#DejaVuSans-35"/>
      </g>
     </g>
    </g>
    <g id="xtick_9">
     <g id="line2d_9">
      <g>
       <use style="stroke:#000000;stroke-width:0.8;" x="406.009756" xlink:href="#m98fca7bf2c" y="307.584"/>
      </g>
     </g>
     <g id="text_9">
      <!-- 4.0 -->
      <g transform="translate(398.058194 322.182437)scale(0.1 -0.1)">
       <defs>
        <path d="M 2419 4116 
L 825 1625 
L 2419 1625 
L 2419 4116 
z
M 2253 4666 
L 3047 4666 
L 3047 1625 
L 3713 1625 
L 3713 1100 
L 3047 1100 
L 3047 0 
L 2419 0 
L 2419 1100 
L 313 1100 
L 313 1709 
L 2253 4666 
z
" id="DejaVuSans-34" transform="scale(0.015625)"/>
       </defs>
       <use xlink:href="#DejaVuSans-34"/>
       <use x="63.623047" xlink:href="#DejaVuSans-2e"/>
       <use x="95.410156" xlink:href="#DejaVuSans-30"/>
      </g>
     </g>
    </g>
    <g id="text_10">
     <!-- $\beta$ -->
     <g transform="translate(232.96 335.962125)scale(0.1 -0.1)">
      <defs>
       <path d="M 872 216 
L 572 -1331 
L -6 -1331 
L 928 3478 
Q 1206 4903 2538 4903 
Q 3888 4903 3659 3700 
Q 3503 2844 2894 2531 
Q 3713 2250 3553 1416 
Q 3272 -69 1759 -66 
Q 1097 -63 872 216 
z
M 1019 966 
Q 1259 422 1875 425 
Q 2775 425 2966 1406 
Q 3138 2288 1675 2219 
L 1778 2750 
Q 2909 2731 3106 3750 
Q 3241 4438 2509 4434 
Q 1691 4434 1503 3459 
L 1019 966 
z
" id="DejaVuSans-Oblique-3b2" transform="scale(0.015625)"/>
      </defs>
      <use transform="translate(0 0.390625)" xlink:href="#DejaVuSans-Oblique-3b2"/>
     </g>
    </g>
   </g>
   <g id="matplotlib.axis_2">
    <g id="ytick_1">
     <g id="line2d_10">
      <defs>
       <path d="M 0 0 
L -3.5 0 
" id="mf1a6488720" style="stroke:#000000;stroke-width:0.8;"/>
      </defs>
      <g>
       <use style="stroke:#000000;stroke-width:0.8;" x="57.6" xlink:href="#mf1a6488720" y="295.488"/>
      </g>
     </g>
     <g id="text_11">
      <!-- 0.0 -->
      <g transform="translate(34.696875 299.287219)scale(0.1 -0.1)">
       <use xlink:href="#DejaVuSans-30"/>
       <use x="63.623047" xlink:href="#DejaVuSans-2e"/>
       <use x="95.410156" xlink:href="#DejaVuSans-30"/>
      </g>
     </g>
    </g>
    <g id="ytick_2">
     <g id="line2d_11">
      <g>
       <use style="stroke:#000000;stroke-width:0.8;" x="57.6" xlink:href="#mf1a6488720" y="242.038668"/>
      </g>
     </g>
     <g id="text_12">
      <!-- 0.2 -->
      <g transform="translate(34.696875 245.837887)scale(0.1 -0.1)">
       <use xlink:href="#DejaVuSans-30"/>
       <use x="63.623047" xlink:href="#DejaVuSans-2e"/>
       <use x="95.410156" xlink:href="#DejaVuSans-32"/>
      </g>
     </g>
    </g>
    <g id="ytick_3">
     <g id="line2d_12">
      <g>
       <use style="stroke:#000000;stroke-width:0.8;" x="57.6" xlink:href="#mf1a6488720" y="188.589336"/>
      </g>
     </g>
     <g id="text_13">
      <!-- 0.4 -->
      <g transform="translate(34.696875 192.388555)scale(0.1 -0.1)">
       <use xlink:href="#DejaVuSans-30"/>
       <use x="63.623047" xlink:href="#DejaVuSans-2e"/>
       <use x="95.410156" xlink:href="#DejaVuSans-34"/>
      </g>
     </g>
    </g>
    <g id="ytick_4">
     <g id="line2d_13">
      <g>
       <use style="stroke:#000000;stroke-width:0.8;" x="57.6" xlink:href="#mf1a6488720" y="135.140004"/>
      </g>
     </g>
     <g id="text_14">
      <!-- 0.6 -->
      <g transform="translate(34.696875 138.939223)scale(0.1 -0.1)">
       <defs>
        <path d="M 2113 2584 
Q 1688 2584 1439 2293 
Q 1191 2003 1191 1497 
Q 1191 994 1439 701 
Q 1688 409 2113 409 
Q 2538 409 2786 701 
Q 3034 994 3034 1497 
Q 3034 2003 2786 2293 
Q 2538 2584 2113 2584 
z
M 3366 4563 
L 3366 3988 
Q 3128 4100 2886 4159 
Q 2644 4219 2406 4219 
Q 1781 4219 1451 3797 
Q 1122 3375 1075 2522 
Q 1259 2794 1537 2939 
Q 1816 3084 2150 3084 
Q 2853 3084 3261 2657 
Q 3669 2231 3669 1497 
Q 3669 778 3244 343 
Q 2819 -91 2113 -91 
Q 1303 -91 875 529 
Q 447 1150 447 2328 
Q 447 3434 972 4092 
Q 1497 4750 2381 4750 
Q 2619 4750 2861 4703 
Q 3103 4656 3366 4563 
z
" id="DejaVuSans-36" transform="scale(0.015625)"/>
       </defs>
       <use xlink:href="#DejaVuSans-30"/>
       <use x="63.623047" xlink:href="#DejaVuSans-2e"/>
       <use x="95.410156" xlink:href="#DejaVuSans-36"/>
      </g>
     </g>
    </g>
    <g id="ytick_5">
     <g id="line2d_14">
      <g>
       <use style="stroke:#000000;stroke-width:0.8;" x="57.6" xlink:href="#mf1a6488720" y="81.690672"/>
      </g>
     </g>
     <g id="text_15">
      <!-- 0.8 -->
      <g transform="translate(34.696875 85.489891)scale(0.1 -0.1)">
       <defs>
        <path d="M 2034 2216 
Q 1584 2216 1326 1975 
Q 1069 1734 1069 1313 
Q 1069 891 1326 650 
Q 1584 409 2034 409 
Q 2484 409 2743 651 
Q 3003 894 3003 1313 
Q 3003 1734 2745 1975 
Q 2488 2216 2034 2216 
z
M 1403 2484 
Q 997 2584 770 2862 
Q 544 3141 544 3541 
Q 544 4100 942 4425 
Q 1341 4750 2034 4750 
Q 2731 4750 3128 4425 
Q 3525 4100 3525 3541 
Q 3525 3141 3298 2862 
Q 3072 2584 2669 2484 
Q 3125 2378 3379 2068 
Q 3634 1759 3634 1313 
Q 3634 634 3220 271 
Q 2806 -91 2034 -91 
Q 1263 -91 848 271 
Q 434 634 434 1313 
Q 434 1759 690 2068 
Q 947 2378 1403 2484 
z
M 1172 3481 
Q 1172 3119 1398 2916 
Q 1625 2713 2034 2713 
Q 2441 2713 2670 2916 
Q 2900 3119 2900 3481 
Q 2900 3844 2670 4047 
Q 2441 4250 2034 4250 
Q 1625 4250 1398 4047 
Q 1172 3844 1172 3481 
z
" id="DejaVuSans-38" transform="scale(0.015625)"/>
       </defs>
       <use xlink:href="#DejaVuSans-30"/>
       <use x="63.623047" xlink:href="#DejaVuSans-2e"/>
       <use x="95.410156" xlink:href="#DejaVuSans-38"/>
      </g>
     </g>
    </g>
    <g id="text_16">
     <!-- $e$ -->
     <g transform="translate(28.617188 177.628)rotate(-90)scale(0.1 -0.1)">
      <defs>
       <path d="M 3078 2063 
Q 3088 2113 3092 2166 
Q 3097 2219 3097 2272 
Q 3097 2653 2873 2875 
Q 2650 3097 2266 3097 
Q 1838 3097 1509 2826 
Q 1181 2556 1013 2059 
L 3078 2063 
z
M 3578 1613 
L 903 1613 
Q 884 1494 878 1425 
Q 872 1356 872 1306 
Q 872 872 1139 634 
Q 1406 397 1894 397 
Q 2269 397 2603 481 
Q 2938 566 3225 728 
L 3116 159 
Q 2806 34 2476 -28 
Q 2147 -91 1806 -91 
Q 1078 -91 686 257 
Q 294 606 294 1247 
Q 294 1794 489 2264 
Q 684 2734 1063 3103 
Q 1306 3334 1642 3459 
Q 1978 3584 2356 3584 
Q 2950 3584 3301 3228 
Q 3653 2872 3653 2272 
Q 3653 2128 3634 1964 
Q 3616 1800 3578 1613 
z
" id="DejaVuSans-Oblique-65" transform="scale(0.015625)"/>
      </defs>
      <use xlink:href="#DejaVuSans-Oblique-65"/>
     </g>
    </g>
   </g>
   <g id="LineCollection_1">
    <path clip-path="url(#p9843baf28e)" d="M 66.310244 282.259318 
L 66.310244 282.119367 
" style="fill:none;stroke:#000000;stroke-width:1.5;"/>
    <path clip-path="url(#p9843baf28e)" d="M 75.020488 268.543529 
L 75.020488 268.384945 
" style="fill:none;stroke:#000000;stroke-width:1.5;"/>
    <path clip-path="url(#p9843baf28e)" d="M 83.730732 254.280152 
L 83.730732 254.130629 
" style="fill:none;stroke:#000000;stroke-width:1.5;"/>
    <path clip-path="url(#p9843baf28e)" d="M 92.440976 239.506607 
L 92.440976 239.332822 
" style="fill:none;stroke:#000000;stroke-width:1.5;"/>
    <path clip-path="url(#p9843baf28e)" d="M 101.15122 223.568637 
L 101.15122 223.361371 
" style="fill:none;stroke:#000000;stroke-width:1.5;"/>
    <path clip-path="url(#p9843baf28e)" d="M 109.861463 206.873146 
L 109.861463 206.623279 
" style="fill:none;stroke:#000000;stroke-width:1.5;"/>
    <path clip-path="url(#p9843baf28e)" d="M 118.571707 189.595342 
L 118.571707 189.321189 
" style="fill:none;stroke:#000000;stroke-width:1.5;"/>
    <path clip-path="url(#p9843baf28e)" d="M 127.281951 172.425394 
L 127.281951 172.08768 
" style="fill:none;stroke:#000000;stroke-width:1.5;"/>
    <path clip-path="url(#p9843baf28e)" d="M 135.992195 155.239525 
L 135.992195 154.844753 
" style="fill:none;stroke:#000000;stroke-width:1.5;"/>
    <path clip-path="url(#p9843baf28e)" d="M 144.702439 140.306499 
L 144.702439 139.969456 
" style="fill:none;stroke:#000000;stroke-width:1.5;"/>
    <path clip-path="url(#p9843baf28e)" d="M 153.412683 127.739934 
L 153.412683 127.435978 
" style="fill:none;stroke:#000000;stroke-width:1.5;"/>
    <path clip-path="url(#p9843baf28e)" d="M 162.122927 118.257624 
L 162.122927 117.984477 
" style="fill:none;stroke:#000000;stroke-width:1.5;"/>
    <path clip-path="url(#p9843baf28e)" d="M 170.833171 110.500048 
L 170.833171 110.240474 
" style="fill:none;stroke:#000000;stroke-width:1.5;"/>
    <path clip-path="url(#p9843baf28e)" d="M 179.543415 104.322944 
L 179.543415 104.065598 
" style="fill:none;stroke:#000000;stroke-width:1.5;"/>
    <path clip-path="url(#p9843baf28e)" d="M 188.253659 98.764932 
L 188.253659 98.51395 
" style="fill:none;stroke:#000000;stroke-width:1.5;"/>
    <path clip-path="url(#p9843baf28e)" d="M 196.963902 93.990697 
L 196.963902 93.745174 
" style="fill:none;stroke:#000000;stroke-width:1.5;"/>
    <path clip-path="url(#p9843baf28e)" d="M 205.674146 89.745087 
L 205.674146 89.527558 
" style="fill:none;stroke:#000000;stroke-width:1.5;"/>
    <path clip-path="url(#p9843baf28e)" d="M 214.38439 86.235814 
L 214.38439 86.050037 
" style="fill:none;stroke:#000000;stroke-width:1.5;"/>
    <path clip-path="url(#p9843baf28e)" d="M 223.094634 83.060254 
L 223.094634 82.878134 
" style="fill:none;stroke:#000000;stroke-width:1.5;"/>
    <path clip-path="url(#p9843baf28e)" d="M 231.804878 80.12477 
L 231.804878 79.966957 
" style="fill:none;stroke:#000000;stroke-width:1.5;"/>
    <path clip-path="url(#p9843baf28e)" d="M 240.515122 77.567236 
L 240.515122 77.413983 
" style="fill:none;stroke:#000000;stroke-width:1.5;"/>
    <path clip-path="url(#p9843baf28e)" d="M 249.225366 75.293014 
L 249.225366 75.154866 
" style="fill:none;stroke:#000000;stroke-width:1.5;"/>
    <path clip-path="url(#p9843baf28e)" d="M 257.93561 73.100548 
L 257.93561 72.955273 
" style="fill:none;stroke:#000000;stroke-width:1.5;"/>
    <path clip-path="url(#p9843baf28e)" d="M 266.645854 71.005954 
L 266.645854 70.84796 
" style="fill:none;stroke:#000000;stroke-width:1.5;"/>
    <path clip-path="url(#p9843baf28e)" d="M 275.356098 69.395176 
L 275.356098 69.252616 
" style="fill:none;stroke:#000000;stroke-width:1.5;"/>
    <path clip-path="url(#p9843baf28e)" d="M 284.066341 67.754598 
L 284.066341 67.626814 
" style="fill:none;stroke:#000000;stroke-width:1.5;"/>
    <path clip-path="url(#p9843baf28e)" d="M 292.776585 66.258392 
L 292.776585 66.133374 
" style="fill:none;stroke:#000000;stroke-width:1.5;"/>
    <path clip-path="url(#p9843baf28e)" d="M 301.486829 64.828962 
L 301.486829 64.694973 
" style="fill:none;stroke:#000000;stroke-width:1.5;"/>
    <path clip-path="url(#p9843baf28e)" d="M 310.197073 63.518471 
L 310.197073 63.411467 
" style="fill:none;stroke:#000000;stroke-width:1.5;"/>
    <path clip-path="url(#p9843baf28e)" d="M 318.907317 62.273447 
L 318.907317 62.155735 
" style="fill:none;stroke:#000000;stroke-width:1.5;"/>
    <path clip-path="url(#p9843baf28e)" d="M 327.617561 61.152234 
L 327.617561 61.03506 
" style="fill:none;stroke:#000000;stroke-width:1.5;"/>
    <path clip-path="url(#p9843baf28e)" d="M 336.327805 60.233407 
L 336.327805 60.117964 
" style="fill:none;stroke:#000000;stroke-width:1.5;"/>
    <path clip-path="url(#p9843baf28e)" d="M 345.038049 59.149921 
L 345.038049 59.033925 
" style="fill:none;stroke:#000000;stroke-width:1.5;"/>
    <path clip-path="url(#p9843baf28e)" d="M 353.748293 58.194225 
L 353.748293 58.089989 
" style="fill:none;stroke:#000000;stroke-width:1.5;"/>
    <path clip-path="url(#p9843baf28e)" d="M 362.458537 57.413145 
L 362.458537 57.294693 
" style="fill:none;stroke:#000000;stroke-width:1.5;"/>
    <path clip-path="url(#p9843baf28e)" d="M 371.16878 56.538217 
L 371.16878 56.425661 
" style="fill:none;stroke:#000000;stroke-width:1.5;"/>
    <path clip-path="url(#p9843baf28e)" d="M 379.879024 55.8174 
L 379.879024 55.72371 
" style="fill:none;stroke:#000000;stroke-width:1.5;"/>
    <path clip-path="url(#p9843baf28e)" d="M 388.589268 54.997224 
L 388.589268 54.878457 
" style="fill:none;stroke:#000000;stroke-width:1.5;"/>
    <path clip-path="url(#p9843baf28e)" d="M 397.299512 54.262171 
L 397.299512 54.155726 
" style="fill:none;stroke:#000000;stroke-width:1.5;"/>
    <path clip-path="url(#p9843baf28e)" d="M 406.009756 53.66605 
L 406.009756 53.568 
" style="fill:none;stroke:#000000;stroke-width:1.5;"/>
   </g>
   <g id="LineCollection_2">
    <path clip-path="url(#p9843baf28e)" d="M 66.310244 282.213447 
L 66.310244 282.073004 
" style="fill:none;stroke:#008000;stroke-width:1.5;"/>
    <path clip-path="url(#p9843baf28e)" d="M 75.020488 268.471641 
L 75.020488 268.312511 
" style="fill:none;stroke:#008000;stroke-width:1.5;"/>
    <path clip-path="url(#p9843baf28e)" d="M 83.730732 254.259418 
L 83.730732 254.104324 
" style="fill:none;stroke:#008000;stroke-width:1.5;"/>
    <path clip-path="url(#p9843baf28e)" d="M 92.440976 239.481458 
L 92.440976 239.30724 
" style="fill:none;stroke:#008000;stroke-width:1.5;"/>
    <path clip-path="url(#p9843baf28e)" d="M 101.15122 223.616444 
L 101.15122 223.419039 
" style="fill:none;stroke:#008000;stroke-width:1.5;"/>
    <path clip-path="url(#p9843baf28e)" d="M 109.861463 207.16132 
L 109.861463 206.920772 
" style="fill:none;stroke:#008000;stroke-width:1.5;"/>
    <path clip-path="url(#p9843baf28e)" d="M 118.571707 189.85341 
L 118.571707 189.590735 
" style="fill:none;stroke:#008000;stroke-width:1.5;"/>
    <path clip-path="url(#p9843baf28e)" d="M 127.281951 172.581503 
L 127.281951 172.288138 
" style="fill:none;stroke:#008000;stroke-width:1.5;"/>
    <path clip-path="url(#p9843baf28e)" d="M 135.992195 155.429233 
L 135.992195 155.040453 
" style="fill:none;stroke:#008000;stroke-width:1.5;"/>
    <path clip-path="url(#p9843baf28e)" d="M 144.702439 139.970155 
L 144.702439 139.654117 
" style="fill:none;stroke:#008000;stroke-width:1.5;"/>
    <path clip-path="url(#p9843baf28e)" d="M 153.412683 128.036146 
L 153.412683 127.708493 
" style="fill:none;stroke:#008000;stroke-width:1.5;"/>
    <path clip-path="url(#p9843baf28e)" d="M 162.122927 118.555591 
L 162.122927 118.280315 
" style="fill:none;stroke:#008000;stroke-width:1.5;"/>
    <path clip-path="url(#p9843baf28e)" d="M 170.833171 110.681069 
L 170.833171 110.394177 
" style="fill:none;stroke:#008000;stroke-width:1.5;"/>
    <path clip-path="url(#p9843baf28e)" d="M 179.543415 104.191157 
L 179.543415 103.899083 
" style="fill:none;stroke:#008000;stroke-width:1.5;"/>
    <path clip-path="url(#p9843baf28e)" d="M 188.253659 98.588477 
L 188.253659 98.34928 
" style="fill:none;stroke:#008000;stroke-width:1.5;"/>
    <path clip-path="url(#p9843baf28e)" d="M 196.963902 94.100245 
L 196.963902 93.87551 
" style="fill:none;stroke:#008000;stroke-width:1.5;"/>
    <path clip-path="url(#p9843baf28e)" d="M 205.674146 89.813581 
L 205.674146 89.607377 
" style="fill:none;stroke:#008000;stroke-width:1.5;"/>
    <path clip-path="url(#p9843baf28e)" d="M 214.38439 86.241887 
L 214.38439 86.064296 
" style="fill:none;stroke:#008000;stroke-width:1.5;"/>
    <path clip-path="url(#p9843baf28e)" d="M 223.094634 83.153473 
L 223.094634 82.9544 
" style="fill:none;stroke:#008000;stroke-width:1.5;"/>
    <path clip-path="url(#p9843baf28e)" d="M 231.804878 80.315782 
L 231.804878 80.13919 
" style="fill:none;stroke:#008000;stroke-width:1.5;"/>
    <path clip-path="url(#p9843baf28e)" d="M 240.515122 77.559055 
L 240.515122 77.416161 
" style="fill:none;stroke:#008000;stroke-width:1.5;"/>
    <path clip-path="url(#p9843baf28e)" d="M 249.225366 75.182038 
L 249.225366 75.035337 
" style="fill:none;stroke:#008000;stroke-width:1.5;"/>
    <path clip-path="url(#p9843baf28e)" d="M 257.93561 73.007441 
L 257.93561 72.849898 
" style="fill:none;stroke:#008000;stroke-width:1.5;"/>
    <path clip-path="url(#p9843baf28e)" d="M 266.645854 71.024266 
L 266.645854 70.88265 
" style="fill:none;stroke:#008000;stroke-width:1.5;"/>
    <path clip-path="url(#p9843baf28e)" d="M 275.356098 69.400043 
L 275.356098 69.25294 
" style="fill:none;stroke:#008000;stroke-width:1.5;"/>
    <path clip-path="url(#p9843baf28e)" d="M 284.066341 67.722924 
L 284.066341 67.578163 
" style="fill:none;stroke:#008000;stroke-width:1.5;"/>
    <path clip-path="url(#p9843baf28e)" d="M 292.776585 66.207141 
L 292.776585 66.064147 
" style="fill:none;stroke:#008000;stroke-width:1.5;"/>
    <path clip-path="url(#p9843baf28e)" d="M 301.486829 64.805511 
L 301.486829 64.677809 
" style="fill:none;stroke:#008000;stroke-width:1.5;"/>
    <path clip-path="url(#p9843baf28e)" d="M 310.197073 63.542647 
L 310.197073 63.41681 
" style="fill:none;stroke:#008000;stroke-width:1.5;"/>
    <path clip-path="url(#p9843baf28e)" d="M 318.907317 62.392016 
L 318.907317 62.281933 
" style="fill:none;stroke:#008000;stroke-width:1.5;"/>
    <path clip-path="url(#p9843baf28e)" d="M 327.617561 61.126016 
L 327.617561 61.012232 
" style="fill:none;stroke:#008000;stroke-width:1.5;"/>
    <path clip-path="url(#p9843baf28e)" d="M 336.327805 60.276134 
L 336.327805 60.160601 
" style="fill:none;stroke:#008000;stroke-width:1.5;"/>
    <path clip-path="url(#p9843baf28e)" d="M 345.038049 59.194619 
L 345.038049 59.083919 
" style="fill:none;stroke:#008000;stroke-width:1.5;"/>
    <path clip-path="url(#p9843baf28e)" d="M 353.748293 58.241617 
L 353.748293 58.130035 
" style="fill:none;stroke:#008000;stroke-width:1.5;"/>
    <path clip-path="url(#p9843baf28e)" d="M 362.458537 57.431717 
L 362.458537 57.320055 
" style="fill:none;stroke:#008000;stroke-width:1.5;"/>
    <path clip-path="url(#p9843baf28e)" d="M 371.16878 56.488348 
L 371.16878 56.38141 
" style="fill:none;stroke:#008000;stroke-width:1.5;"/>
    <path clip-path="url(#p9843baf28e)" d="M 379.879024 55.783247 
L 379.879024 55.685722 
" style="fill:none;stroke:#008000;stroke-width:1.5;"/>
    <path clip-path="url(#p9843baf28e)" d="M 388.589268 55.079504 
L 388.589268 54.979003 
" style="fill:none;stroke:#008000;stroke-width:1.5;"/>
    <path clip-path="url(#p9843baf28e)" d="M 397.299512 54.372354 
L 397.299512 54.250699 
" style="fill:none;stroke:#008000;stroke-width:1.5;"/>
    <path clip-path="url(#p9843baf28e)" d="M 406.009756 53.748906 
L 406.009756 53.652531 
" style="fill:none;stroke:#008000;stroke-width:1.5;"/>
   </g>
   <g id="line2d_15">
    <path clip-path="url(#p9843baf28e)" d="M 57.6 295.488 
L 58.479823 294.138223 
L 59.359645 292.788171 
L 60.239468 291.437568 
L 61.11929 290.086135 
L 61.999113 288.733594 
L 62.878936 287.379665 
L 63.758758 286.024062 
L 64.638581 284.666499 
L 65.518404 283.306684 
L 66.398226 281.944321 
L 67.278049 280.57911 
L 68.157871 279.210744 
L 69.037694 277.838911 
L 69.917517 276.463291 
L 70.797339 275.083557 
L 71.677162 273.699374 
L 72.556984 272.310401 
L 73.436807 270.916284 
L 74.31663 269.516662 
L 75.196452 268.111164 
L 76.076275 266.699407 
L 76.956098 265.280998 
L 77.83592 263.85553 
L 78.715743 262.422587 
L 79.595565 260.981738 
L 80.475388 259.532538 
L 81.355211 258.07453 
L 82.235033 256.60724 
L 83.114856 255.13018 
L 83.994678 253.642847 
L 84.874501 252.144721 
L 85.754324 250.635264 
L 86.634146 249.113923 
L 87.513969 247.580124 
L 88.393792 246.033278 
L 89.273614 244.472774 
L 90.153437 242.897983 
L 91.033259 241.308254 
L 91.913082 239.702917 
L 92.792905 238.08128 
L 93.672727 236.442629 
L 94.55255 234.786228 
L 95.432373 233.111316 
L 96.312195 231.417112 
L 97.192018 229.702807 
L 98.07184 227.96757 
L 98.951663 226.210543 
L 99.831486 224.430844 
L 100.711308 222.627562 
L 101.591131 220.799762 
L 102.470953 218.946479 
L 103.350776 217.066721 
L 104.230599 215.159467 
L 105.110421 213.223667 
L 105.990244 211.258241 
L 106.870067 209.262079 
L 107.749889 207.234041 
L 108.629712 205.172952 
L 109.509534 203.07761 
L 110.389357 200.946776 
L 111.26918 198.77918 
L 112.149002 196.573518 
L 113.028825 194.328452 
L 113.908647 192.042609 
L 114.78847 189.714579 
L 115.668293 187.342918 
L 116.548115 184.926146 
L 117.427938 182.462743 
L 118.307761 179.951154 
L 119.187583 177.389785 
L 120.067406 174.777003 
L 120.947228 172.111136 
L 121.827051 169.390471 
L 122.706874 166.613257 
L 123.586696 163.777698 
L 124.466519 160.881961 
L 125.346341 157.924167 
L 126.226164 154.902397 
L 127.105987 151.814688 
L 127.985809 148.659031 
L 128.865632 145.433376 
L 129.745455 142.135625 
L 130.625277 138.763638 
L 131.5051 135.315225 
L 132.384922 131.788151 
L 133.264745 128.180136 
L 134.144568 124.488848 
L 135.02439 120.71191 
L 135.904213 116.846895 
L 136.784035 112.891326 
L 137.663858 108.842676 
L 138.543681 104.698369 
L 139.423503 100.455776 
L 140.303326 96.112218 
L 141.183149 91.664962 
L 142.062971 87.111222 
L 142.942794 82.448161 
L 143.822616 77.672886 
L 144.702439 72.78245 
" style="fill:none;stroke:#0000ff;stroke-linecap:square;stroke-width:1.5;"/>
   </g>
   <g id="line2d_16">
    <path clip-path="url(#p9843baf28e)" d="M 57.6 295.488 
L 58.479823 294.138223 
L 59.359645 292.788172 
L 60.239468 291.43757 
L 61.11929 290.086144 
L 61.999113 288.733624 
L 62.878936 287.379737 
L 63.758758 286.024219 
L 64.638581 284.666806 
L 65.518404 283.307237 
L 66.398226 281.945258 
L 67.278049 280.580619 
L 68.157871 279.213075 
L 69.037694 277.842389 
L 69.917517 276.468329 
L 70.797339 275.09067 
L 71.677162 273.709197 
L 72.556984 272.323701 
L 73.436807 270.933984 
L 74.31663 269.539857 
L 75.196452 268.141139 
L 76.076275 266.737664 
L 76.956098 265.329273 
L 77.83592 263.915821 
L 78.715743 262.497176 
L 79.595565 261.073216 
L 80.475388 259.643835 
L 81.355211 258.20894 
L 82.235033 256.768455 
L 83.114856 255.322314 
L 83.994678 253.870473 
L 84.874501 252.412899 
L 85.754324 250.949579 
L 86.634146 249.480516 
L 87.513969 248.005732 
L 88.393792 246.525267 
L 89.273614 245.03918 
L 90.153437 243.547549 
L 91.033259 242.050475 
L 91.913082 240.548075 
L 92.792905 239.040493 
L 93.672727 237.527891 
L 94.55255 236.010453 
L 95.432373 234.48839 
L 96.312195 232.961934 
L 97.192018 231.43134 
L 98.07184 229.89689 
L 98.951663 228.35889 
L 99.831486 226.817673 
L 100.711308 225.273597 
L 101.591131 223.727048 
L 102.470953 222.178439 
L 103.350776 220.628211 
L 104.230599 219.076835 
L 105.110421 217.524809 
L 105.990244 215.972664 
L 106.870067 214.420957 
L 107.749889 212.870279 
L 108.629712 211.321252 
L 109.509534 209.77453 
L 110.389357 208.230799 
L 111.26918 206.690779 
L 112.149002 205.155222 
L 113.028825 203.624917 
L 113.908647 202.100685 
L 114.78847 200.583385 
L 115.668293 199.07391 
L 116.548115 197.573191 
L 117.427938 196.082195 
L 118.307761 194.601926 
L 119.187583 193.133429 
L 120.067406 191.677786 
L 120.947228 190.236116 
L 121.827051 188.809583 
L 122.706874 187.399388 
L 123.586696 186.006772 
L 124.466519 184.633022 
L 125.346341 183.279463 
L 126.226164 181.947465 
L 127.105987 180.63844 
L 127.985809 179.353844 
L 128.865632 178.095178 
L 129.745455 176.863989 
L 130.625277 175.661867 
L 131.5051 174.490449 
L 132.384922 173.351419 
L 133.264745 172.24651 
L 134.144568 171.177499 
L 135.02439 170.146214 
L 135.904213 169.154531 
L 136.784035 168.204375 
L 137.663858 167.297724 
L 138.543681 166.436602 
L 139.423503 165.623087 
L 140.303326 164.859309 
L 141.183149 164.147448 
L 142.062971 163.489739 
L 142.942794 162.88847 
L 143.822616 162.345981 
L 144.702439 161.86467 
" style="fill:none;stroke:#0000ff;stroke-linecap:square;stroke-width:1.5;"/>
   </g>
   <g id="line2d_17">
    <path clip-path="url(#p9843baf28e)" d="M 101.15122 273.957747 
L 103.287365 259.591562 
L 105.423511 246.82442 
L 107.559657 235.404216 
L 109.695803 225.128827 
L 111.831949 215.834411 
L 114.273259 206.242433 
L 116.714568 197.593734 
L 119.155878 189.755383 
L 121.597187 182.61826 
L 124.343661 175.315228 
L 127.090134 168.679225 
L 129.836607 162.622463 
L 132.583081 157.071923 
L 135.634718 151.424233 
L 138.686355 146.255773 
L 141.737992 141.507713 
L 145.094792 136.711494 
L 148.451593 132.308591 
L 151.808394 128.252274 
L 155.470358 124.176121 
L 159.132323 120.421871 
L 163.099451 116.675388 
L 167.066579 113.22377 
L 171.338871 109.797903 
L 175.916326 106.423169 
L 180.493782 103.318377 
L 185.376401 100.268973 
L 190.564184 97.290697 
L 196.05713 94.395843 
L 201.855241 91.593646 
L 207.958515 88.890678 
L 214.366952 86.291239 
L 221.385717 83.689481 
L 228.709646 81.213088 
L 236.643902 78.769306 
L 245.188486 76.378594 
L 254.343397 74.056808 
L 264.108635 71.815709 
L 274.484201 69.663518 
L 285.775258 67.551234 
L 297.981806 65.497875 
L 311.103845 63.517508 
L 325.446539 61.58094 
L 341.009888 59.706953 
L 358.099055 57.878144 
L 376.714041 56.113855 
L 397.160009 54.403514 
L 406.009756 53.726695 
L 406.009756 53.726695 
" style="fill:none;stroke:#ff0000;stroke-linecap:square;stroke-width:1.5;"/>
   </g>
   <g id="line2d_18">
    <defs>
     <path d="M -3 3 
L 3 -3 
M -3 -3 
L 3 3 
" id="me17609e645" style="stroke:#000000;"/>
    </defs>
    <g clip-path="url(#p9843baf28e)">
     <use style="stroke:#000000;" x="66.310244" xlink:href="#me17609e645" y="282.189343"/>
     <use style="stroke:#000000;" x="75.020488" xlink:href="#me17609e645" y="268.464237"/>
     <use style="stroke:#000000;" x="83.730732" xlink:href="#me17609e645" y="254.205391"/>
     <use style="stroke:#000000;" x="92.440976" xlink:href="#me17609e645" y="239.419715"/>
     <use style="stroke:#000000;" x="101.15122" xlink:href="#me17609e645" y="223.465004"/>
     <use style="stroke:#000000;" x="109.861463" xlink:href="#me17609e645" y="206.748213"/>
     <use style="stroke:#000000;" x="118.571707" xlink:href="#me17609e645" y="189.458265"/>
     <use style="stroke:#000000;" x="127.281951" xlink:href="#me17609e645" y="172.256537"/>
     <use style="stroke:#000000;" x="135.992195" xlink:href="#me17609e645" y="155.042139"/>
     <use style="stroke:#000000;" x="144.702439" xlink:href="#me17609e645" y="140.137977"/>
     <use style="stroke:#000000;" x="153.412683" xlink:href="#me17609e645" y="127.587956"/>
     <use style="stroke:#000000;" x="162.122927" xlink:href="#me17609e645" y="118.12105"/>
     <use style="stroke:#000000;" x="170.833171" xlink:href="#me17609e645" y="110.370261"/>
     <use style="stroke:#000000;" x="179.543415" xlink:href="#me17609e645" y="104.194271"/>
     <use style="stroke:#000000;" x="188.253659" xlink:href="#me17609e645" y="98.639441"/>
     <use style="stroke:#000000;" x="196.963902" xlink:href="#me17609e645" y="93.867935"/>
     <use style="stroke:#000000;" x="205.674146" xlink:href="#me17609e645" y="89.636322"/>
     <use style="stroke:#000000;" x="214.38439" xlink:href="#me17609e645" y="86.142926"/>
     <use style="stroke:#000000;" x="223.094634" xlink:href="#me17609e645" y="82.969194"/>
     <use style="stroke:#000000;" x="231.804878" xlink:href="#me17609e645" y="80.045863"/>
     <use style="stroke:#000000;" x="240.515122" xlink:href="#me17609e645" y="77.490609"/>
     <use style="stroke:#000000;" x="249.225366" xlink:href="#me17609e645" y="75.22394"/>
     <use style="stroke:#000000;" x="257.93561" xlink:href="#me17609e645" y="73.02791"/>
     <use style="stroke:#000000;" x="266.645854" xlink:href="#me17609e645" y="70.926957"/>
     <use style="stroke:#000000;" x="275.356098" xlink:href="#me17609e645" y="69.323896"/>
     <use style="stroke:#000000;" x="284.066341" xlink:href="#me17609e645" y="67.690706"/>
     <use style="stroke:#000000;" x="292.776585" xlink:href="#me17609e645" y="66.195883"/>
     <use style="stroke:#000000;" x="301.486829" xlink:href="#me17609e645" y="64.761968"/>
     <use style="stroke:#000000;" x="310.197073" xlink:href="#me17609e645" y="63.464969"/>
     <use style="stroke:#000000;" x="318.907317" xlink:href="#me17609e645" y="62.214591"/>
     <use style="stroke:#000000;" x="327.617561" xlink:href="#me17609e645" y="61.093647"/>
     <use style="stroke:#000000;" x="336.327805" xlink:href="#me17609e645" y="60.175685"/>
     <use style="stroke:#000000;" x="345.038049" xlink:href="#me17609e645" y="59.091923"/>
     <use style="stroke:#000000;" x="353.748293" xlink:href="#me17609e645" y="58.142107"/>
     <use style="stroke:#000000;" x="362.458537" xlink:href="#me17609e645" y="57.353919"/>
     <use style="stroke:#000000;" x="371.16878" xlink:href="#me17609e645" y="56.481939"/>
     <use style="stroke:#000000;" x="379.879024" xlink:href="#me17609e645" y="55.770555"/>
     <use style="stroke:#000000;" x="388.589268" xlink:href="#me17609e645" y="54.937841"/>
     <use style="stroke:#000000;" x="397.299512" xlink:href="#me17609e645" y="54.208949"/>
     <use style="stroke:#000000;" x="406.009756" xlink:href="#me17609e645" y="53.617025"/>
    </g>
   </g>
   <g id="line2d_19">
    <defs>
     <path d="M -3 3 
L 3 -3 
M -3 -3 
L 3 3 
" id="mca878873a2" style="stroke:#008000;"/>
    </defs>
    <g clip-path="url(#p9843baf28e)">
     <use style="fill:#008000;stroke:#008000;" x="66.310244" xlink:href="#mca878873a2" y="282.143226"/>
     <use style="fill:#008000;stroke:#008000;" x="75.020488" xlink:href="#mca878873a2" y="268.392076"/>
     <use style="fill:#008000;stroke:#008000;" x="83.730732" xlink:href="#mca878873a2" y="254.181871"/>
     <use style="fill:#008000;stroke:#008000;" x="92.440976" xlink:href="#mca878873a2" y="239.394349"/>
     <use style="fill:#008000;stroke:#008000;" x="101.15122" xlink:href="#mca878873a2" y="223.517741"/>
     <use style="fill:#008000;stroke:#008000;" x="109.861463" xlink:href="#mca878873a2" y="207.041046"/>
     <use style="fill:#008000;stroke:#008000;" x="118.571707" xlink:href="#mca878873a2" y="189.722073"/>
     <use style="fill:#008000;stroke:#008000;" x="127.281951" xlink:href="#mca878873a2" y="172.434821"/>
     <use style="fill:#008000;stroke:#008000;" x="135.992195" xlink:href="#mca878873a2" y="155.234843"/>
     <use style="fill:#008000;stroke:#008000;" x="144.702439" xlink:href="#mca878873a2" y="139.812136"/>
     <use style="fill:#008000;stroke:#008000;" x="153.412683" xlink:href="#mca878873a2" y="127.872319"/>
     <use style="fill:#008000;stroke:#008000;" x="162.122927" xlink:href="#mca878873a2" y="118.417953"/>
     <use style="fill:#008000;stroke:#008000;" x="170.833171" xlink:href="#mca878873a2" y="110.537623"/>
     <use style="fill:#008000;stroke:#008000;" x="179.543415" xlink:href="#mca878873a2" y="104.04512"/>
     <use style="fill:#008000;stroke:#008000;" x="188.253659" xlink:href="#mca878873a2" y="98.468878"/>
     <use style="fill:#008000;stroke:#008000;" x="196.963902" xlink:href="#mca878873a2" y="93.987877"/>
     <use style="fill:#008000;stroke:#008000;" x="205.674146" xlink:href="#mca878873a2" y="89.710479"/>
     <use style="fill:#008000;stroke:#008000;" x="214.38439" xlink:href="#mca878873a2" y="86.153092"/>
     <use style="fill:#008000;stroke:#008000;" x="223.094634" xlink:href="#mca878873a2" y="83.053936"/>
     <use style="fill:#008000;stroke:#008000;" x="231.804878" xlink:href="#mca878873a2" y="80.227486"/>
     <use style="fill:#008000;stroke:#008000;" x="240.515122" xlink:href="#mca878873a2" y="77.487608"/>
     <use style="fill:#008000;stroke:#008000;" x="249.225366" xlink:href="#mca878873a2" y="75.108688"/>
     <use style="fill:#008000;stroke:#008000;" x="257.93561" xlink:href="#mca878873a2" y="72.92867"/>
     <use style="fill:#008000;stroke:#008000;" x="266.645854" xlink:href="#mca878873a2" y="70.953458"/>
     <use style="fill:#008000;stroke:#008000;" x="275.356098" xlink:href="#mca878873a2" y="69.326492"/>
     <use style="fill:#008000;stroke:#008000;" x="284.066341" xlink:href="#mca878873a2" y="67.650543"/>
     <use style="fill:#008000;stroke:#008000;" x="292.776585" xlink:href="#mca878873a2" y="66.135644"/>
     <use style="fill:#008000;stroke:#008000;" x="301.486829" xlink:href="#mca878873a2" y="64.74166"/>
     <use style="fill:#008000;stroke:#008000;" x="310.197073" xlink:href="#mca878873a2" y="63.479729"/>
     <use style="fill:#008000;stroke:#008000;" x="318.907317" xlink:href="#mca878873a2" y="62.336975"/>
     <use style="fill:#008000;stroke:#008000;" x="327.617561" xlink:href="#mca878873a2" y="61.069124"/>
     <use style="fill:#008000;stroke:#008000;" x="336.327805" xlink:href="#mca878873a2" y="60.218368"/>
     <use style="fill:#008000;stroke:#008000;" x="345.038049" xlink:href="#mca878873a2" y="59.139269"/>
     <use style="fill:#008000;stroke:#008000;" x="353.748293" xlink:href="#mca878873a2" y="58.185826"/>
     <use style="fill:#008000;stroke:#008000;" x="362.458537" xlink:href="#mca878873a2" y="57.375886"/>
     <use style="fill:#008000;stroke:#008000;" x="371.16878" xlink:href="#mca878873a2" y="56.434879"/>
     <use style="fill:#008000;stroke:#008000;" x="379.879024" xlink:href="#mca878873a2" y="55.734484"/>
     <use style="fill:#008000;stroke:#008000;" x="388.589268" xlink:href="#mca878873a2" y="55.029254"/>
     <use style="fill:#008000;stroke:#008000;" x="397.299512" xlink:href="#mca878873a2" y="54.311526"/>
     <use style="fill:#008000;stroke:#008000;" x="406.009756" xlink:href="#mca878873a2" y="53.700719"/>
    </g>
   </g>
   <g id="patch_3">
    <path d="M 57.6 307.584 
L 57.6 41.472 
" style="fill:none;stroke:#000000;stroke-linecap:square;stroke-linejoin:miter;stroke-width:0.8;"/>
   </g>
   <g id="patch_4">
    <path d="M 57.6 307.584 
L 414.72 307.584 
" style="fill:none;stroke:#000000;stroke-linecap:square;stroke-linejoin:miter;stroke-width:0.8;"/>
   </g>
   <g id="legend_1">
    <g id="patch_5">
     <path d="M 131.104375 302.584 
L 407.72 302.584 
Q 409.72 302.584 409.72 300.584 
L 409.72 227.91525 
Q 409.72 225.91525 407.72 225.91525 
L 131.104375 225.91525 
Q 129.104375 225.91525 129.104375 227.91525 
L 129.104375 300.584 
Q 129.104375 302.584 131.104375 302.584 
z
" style="fill:#ffffff;opacity:0.8;stroke:#cccccc;stroke-linejoin:miter;"/>
    </g>
    <g id="line2d_20">
     <path d="M 133.104375 234.013687 
L 153.104375 234.013687 
" style="fill:none;stroke:#0000ff;stroke-linecap:square;stroke-width:1.5;"/>
    </g>
    <g id="line2d_21"/>
    <g id="text_17">
     <!-- Strong Coupling Alt -->
     <g transform="translate(161.104375 237.513687)scale(0.1 -0.1)">
      <defs>
       <path d="M 3425 4513 
L 3425 3897 
Q 3066 4069 2747 4153 
Q 2428 4238 2131 4238 
Q 1616 4238 1336 4038 
Q 1056 3838 1056 3469 
Q 1056 3159 1242 3001 
Q 1428 2844 1947 2747 
L 2328 2669 
Q 3034 2534 3370 2195 
Q 3706 1856 3706 1288 
Q 3706 609 3251 259 
Q 2797 -91 1919 -91 
Q 1588 -91 1214 -16 
Q 841 59 441 206 
L 441 856 
Q 825 641 1194 531 
Q 1563 422 1919 422 
Q 2459 422 2753 634 
Q 3047 847 3047 1241 
Q 3047 1584 2836 1778 
Q 2625 1972 2144 2069 
L 1759 2144 
Q 1053 2284 737 2584 
Q 422 2884 422 3419 
Q 422 4038 858 4394 
Q 1294 4750 2059 4750 
Q 2388 4750 2728 4690 
Q 3069 4631 3425 4513 
z
" id="DejaVuSans-53" transform="scale(0.015625)"/>
       <path d="M 1172 4494 
L 1172 3500 
L 2356 3500 
L 2356 3053 
L 1172 3053 
L 1172 1153 
Q 1172 725 1289 603 
Q 1406 481 1766 481 
L 2356 481 
L 2356 0 
L 1766 0 
Q 1100 0 847 248 
Q 594 497 594 1153 
L 594 3053 
L 172 3053 
L 172 3500 
L 594 3500 
L 594 4494 
L 1172 4494 
z
" id="DejaVuSans-74" transform="scale(0.015625)"/>
       <path d="M 2631 2963 
Q 2534 3019 2420 3045 
Q 2306 3072 2169 3072 
Q 1681 3072 1420 2755 
Q 1159 2438 1159 1844 
L 1159 0 
L 581 0 
L 581 3500 
L 1159 3500 
L 1159 2956 
Q 1341 3275 1631 3429 
Q 1922 3584 2338 3584 
Q 2397 3584 2469 3576 
Q 2541 3569 2628 3553 
L 2631 2963 
z
" id="DejaVuSans-72" transform="scale(0.015625)"/>
       <path d="M 1959 3097 
Q 1497 3097 1228 2736 
Q 959 2375 959 1747 
Q 959 1119 1226 758 
Q 1494 397 1959 397 
Q 2419 397 2687 759 
Q 2956 1122 2956 1747 
Q 2956 2369 2687 2733 
Q 2419 3097 1959 3097 
z
M 1959 3584 
Q 2709 3584 3137 3096 
Q 3566 2609 3566 1747 
Q 3566 888 3137 398 
Q 2709 -91 1959 -91 
Q 1206 -91 779 398 
Q 353 888 353 1747 
Q 353 2609 779 3096 
Q 1206 3584 1959 3584 
z
" id="DejaVuSans-6f" transform="scale(0.015625)"/>
       <path d="M 3513 2113 
L 3513 0 
L 2938 0 
L 2938 2094 
Q 2938 2591 2744 2837 
Q 2550 3084 2163 3084 
Q 1697 3084 1428 2787 
Q 1159 2491 1159 1978 
L 1159 0 
L 581 0 
L 581 3500 
L 1159 3500 
L 1159 2956 
Q 1366 3272 1645 3428 
Q 1925 3584 2291 3584 
Q 2894 3584 3203 3211 
Q 3513 2838 3513 2113 
z
" id="DejaVuSans-6e" transform="scale(0.015625)"/>
       <path d="M 2906 1791 
Q 2906 2416 2648 2759 
Q 2391 3103 1925 3103 
Q 1463 3103 1205 2759 
Q 947 2416 947 1791 
Q 947 1169 1205 825 
Q 1463 481 1925 481 
Q 2391 481 2648 825 
Q 2906 1169 2906 1791 
z
M 3481 434 
Q 3481 -459 3084 -895 
Q 2688 -1331 1869 -1331 
Q 1566 -1331 1297 -1286 
Q 1028 -1241 775 -1147 
L 775 -588 
Q 1028 -725 1275 -790 
Q 1522 -856 1778 -856 
Q 2344 -856 2625 -561 
Q 2906 -266 2906 331 
L 2906 616 
Q 2728 306 2450 153 
Q 2172 0 1784 0 
Q 1141 0 747 490 
Q 353 981 353 1791 
Q 353 2603 747 3093 
Q 1141 3584 1784 3584 
Q 2172 3584 2450 3431 
Q 2728 3278 2906 2969 
L 2906 3500 
L 3481 3500 
L 3481 434 
z
" id="DejaVuSans-67" transform="scale(0.015625)"/>
       <path id="DejaVuSans-20" transform="scale(0.015625)"/>
       <path d="M 4122 4306 
L 4122 3641 
Q 3803 3938 3442 4084 
Q 3081 4231 2675 4231 
Q 1875 4231 1450 3742 
Q 1025 3253 1025 2328 
Q 1025 1406 1450 917 
Q 1875 428 2675 428 
Q 3081 428 3442 575 
Q 3803 722 4122 1019 
L 4122 359 
Q 3791 134 3420 21 
Q 3050 -91 2638 -91 
Q 1578 -91 968 557 
Q 359 1206 359 2328 
Q 359 3453 968 4101 
Q 1578 4750 2638 4750 
Q 3056 4750 3426 4639 
Q 3797 4528 4122 4306 
z
" id="DejaVuSans-43" transform="scale(0.015625)"/>
       <path d="M 544 1381 
L 544 3500 
L 1119 3500 
L 1119 1403 
Q 1119 906 1312 657 
Q 1506 409 1894 409 
Q 2359 409 2629 706 
Q 2900 1003 2900 1516 
L 2900 3500 
L 3475 3500 
L 3475 0 
L 2900 0 
L 2900 538 
Q 2691 219 2414 64 
Q 2138 -91 1772 -91 
Q 1169 -91 856 284 
Q 544 659 544 1381 
z
M 1991 3584 
L 1991 3584 
z
" id="DejaVuSans-75" transform="scale(0.015625)"/>
       <path d="M 1159 525 
L 1159 -1331 
L 581 -1331 
L 581 3500 
L 1159 3500 
L 1159 2969 
Q 1341 3281 1617 3432 
Q 1894 3584 2278 3584 
Q 2916 3584 3314 3078 
Q 3713 2572 3713 1747 
Q 3713 922 3314 415 
Q 2916 -91 2278 -91 
Q 1894 -91 1617 61 
Q 1341 213 1159 525 
z
M 3116 1747 
Q 3116 2381 2855 2742 
Q 2594 3103 2138 3103 
Q 1681 3103 1420 2742 
Q 1159 2381 1159 1747 
Q 1159 1113 1420 752 
Q 1681 391 2138 391 
Q 2594 391 2855 752 
Q 3116 1113 3116 1747 
z
" id="DejaVuSans-70" transform="scale(0.015625)"/>
       <path d="M 603 4863 
L 1178 4863 
L 1178 0 
L 603 0 
L 603 4863 
z
" id="DejaVuSans-6c" transform="scale(0.015625)"/>
       <path d="M 603 3500 
L 1178 3500 
L 1178 0 
L 603 0 
L 603 3500 
z
M 603 4863 
L 1178 4863 
L 1178 4134 
L 603 4134 
L 603 4863 
z
" id="DejaVuSans-69" transform="scale(0.015625)"/>
       <path d="M 2188 4044 
L 1331 1722 
L 3047 1722 
L 2188 4044 
z
M 1831 4666 
L 2547 4666 
L 4325 0 
L 3669 0 
L 3244 1197 
L 1141 1197 
L 716 0 
L 50 0 
L 1831 4666 
z
" id="DejaVuSans-41" transform="scale(0.015625)"/>
      </defs>
      <use xlink:href="#DejaVuSans-53"/>
      <use x="63.476562" xlink:href="#DejaVuSans-74"/>
      <use x="102.685547" xlink:href="#DejaVuSans-72"/>
      <use x="141.548828" xlink:href="#DejaVuSans-6f"/>
      <use x="202.730469" xlink:href="#DejaVuSans-6e"/>
      <use x="266.109375" xlink:href="#DejaVuSans-67"/>
      <use x="329.585938" xlink:href="#DejaVuSans-20"/>
      <use x="361.373047" xlink:href="#DejaVuSans-43"/>
      <use x="431.197266" xlink:href="#DejaVuSans-6f"/>
      <use x="492.378906" xlink:href="#DejaVuSans-75"/>
      <use x="555.757812" xlink:href="#DejaVuSans-70"/>
      <use x="619.234375" xlink:href="#DejaVuSans-6c"/>
      <use x="647.017578" xlink:href="#DejaVuSans-69"/>
      <use x="674.800781" xlink:href="#DejaVuSans-6e"/>
      <use x="738.179688" xlink:href="#DejaVuSans-67"/>
      <use x="801.65625" xlink:href="#DejaVuSans-20"/>
      <use x="833.443359" xlink:href="#DejaVuSans-41"/>
      <use x="901.851562" xlink:href="#DejaVuSans-6c"/>
      <use x="929.634766" xlink:href="#DejaVuSans-74"/>
     </g>
    </g>
    <g id="line2d_22">
     <path d="M 133.104375 248.691812 
L 153.104375 248.691812 
" style="fill:none;stroke:#0000ff;stroke-linecap:square;stroke-width:1.5;"/>
    </g>
    <g id="line2d_23"/>
    <g id="text_18">
     <!-- Strong Coupling -->
     <g transform="translate(161.104375 252.191812)scale(0.1 -0.1)">
      <use xlink:href="#DejaVuSans-53"/>
      <use x="63.476562" xlink:href="#DejaVuSans-74"/>
      <use x="102.685547" xlink:href="#DejaVuSans-72"/>
      <use x="141.548828" xlink:href="#DejaVuSans-6f"/>
      <use x="202.730469" xlink:href="#DejaVuSans-6e"/>
      <use x="266.109375" xlink:href="#DejaVuSans-67"/>
      <use x="329.585938" xlink:href="#DejaVuSans-20"/>
      <use x="361.373047" xlink:href="#DejaVuSans-43"/>
      <use x="431.197266" xlink:href="#DejaVuSans-6f"/>
      <use x="492.378906" xlink:href="#DejaVuSans-75"/>
      <use x="555.757812" xlink:href="#DejaVuSans-70"/>
      <use x="619.234375" xlink:href="#DejaVuSans-6c"/>
      <use x="647.017578" xlink:href="#DejaVuSans-69"/>
      <use x="674.800781" xlink:href="#DejaVuSans-6e"/>
      <use x="738.179688" xlink:href="#DejaVuSans-67"/>
     </g>
    </g>
    <g id="line2d_24">
     <path d="M 133.104375 263.369937 
L 153.104375 263.369937 
" style="fill:none;stroke:#ff0000;stroke-linecap:square;stroke-width:1.5;"/>
    </g>
    <g id="line2d_25"/>
    <g id="text_19">
     <!-- Weak Coupling -->
     <g transform="translate(161.104375 266.869937)scale(0.1 -0.1)">
      <defs>
       <path d="M 213 4666 
L 850 4666 
L 1831 722 
L 2809 4666 
L 3519 4666 
L 4500 722 
L 5478 4666 
L 6119 4666 
L 4947 0 
L 4153 0 
L 3169 4050 
L 2175 0 
L 1381 0 
L 213 4666 
z
" id="DejaVuSans-57" transform="scale(0.015625)"/>
       <path d="M 3597 1894 
L 3597 1613 
L 953 1613 
Q 991 1019 1311 708 
Q 1631 397 2203 397 
Q 2534 397 2845 478 
Q 3156 559 3463 722 
L 3463 178 
Q 3153 47 2828 -22 
Q 2503 -91 2169 -91 
Q 1331 -91 842 396 
Q 353 884 353 1716 
Q 353 2575 817 3079 
Q 1281 3584 2069 3584 
Q 2775 3584 3186 3129 
Q 3597 2675 3597 1894 
z
M 3022 2063 
Q 3016 2534 2758 2815 
Q 2500 3097 2075 3097 
Q 1594 3097 1305 2825 
Q 1016 2553 972 2059 
L 3022 2063 
z
" id="DejaVuSans-65" transform="scale(0.015625)"/>
       <path d="M 2194 1759 
Q 1497 1759 1228 1600 
Q 959 1441 959 1056 
Q 959 750 1161 570 
Q 1363 391 1709 391 
Q 2188 391 2477 730 
Q 2766 1069 2766 1631 
L 2766 1759 
L 2194 1759 
z
M 3341 1997 
L 3341 0 
L 2766 0 
L 2766 531 
Q 2569 213 2275 61 
Q 1981 -91 1556 -91 
Q 1019 -91 701 211 
Q 384 513 384 1019 
Q 384 1609 779 1909 
Q 1175 2209 1959 2209 
L 2766 2209 
L 2766 2266 
Q 2766 2663 2505 2880 
Q 2244 3097 1772 3097 
Q 1472 3097 1187 3025 
Q 903 2953 641 2809 
L 641 3341 
Q 956 3463 1253 3523 
Q 1550 3584 1831 3584 
Q 2591 3584 2966 3190 
Q 3341 2797 3341 1997 
z
" id="DejaVuSans-61" transform="scale(0.015625)"/>
       <path d="M 581 4863 
L 1159 4863 
L 1159 1991 
L 2875 3500 
L 3609 3500 
L 1753 1863 
L 3688 0 
L 2938 0 
L 1159 1709 
L 1159 0 
L 581 0 
L 581 4863 
z
" id="DejaVuSans-6b" transform="scale(0.015625)"/>
      </defs>
      <use xlink:href="#DejaVuSans-57"/>
      <use x="93.001953" xlink:href="#DejaVuSans-65"/>
      <use x="154.525391" xlink:href="#DejaVuSans-61"/>
      <use x="215.804688" xlink:href="#DejaVuSans-6b"/>
      <use x="273.714844" xlink:href="#DejaVuSans-20"/>
      <use x="305.501953" xlink:href="#DejaVuSans-43"/>
      <use x="375.326172" xlink:href="#DejaVuSans-6f"/>
      <use x="436.507812" xlink:href="#DejaVuSans-75"/>
      <use x="499.886719" xlink:href="#DejaVuSans-70"/>
      <use x="563.363281" xlink:href="#DejaVuSans-6c"/>
      <use x="591.146484" xlink:href="#DejaVuSans-69"/>
      <use x="618.929688" xlink:href="#DejaVuSans-6e"/>
      <use x="682.308594" xlink:href="#DejaVuSans-67"/>
     </g>
    </g>
    <g id="LineCollection_3">
     <path d="M 143.104375 283.048063 
L 143.104375 273.048063 
" style="fill:none;stroke:#000000;stroke-width:1.5;"/>
    </g>
    <g id="line2d_26"/>
    <g id="line2d_27">
     <g>
      <use style="stroke:#000000;" x="143.104375" xlink:href="#me17609e645" y="278.048063"/>
     </g>
    </g>
    <g id="text_20">
     <!-- Data With Exact Exponetnial -->
     <g transform="translate(161.104375 281.548063)scale(0.1 -0.1)">
      <defs>
       <path d="M 1259 4147 
L 1259 519 
L 2022 519 
Q 2988 519 3436 956 
Q 3884 1394 3884 2338 
Q 3884 3275 3436 3711 
Q 2988 4147 2022 4147 
L 1259 4147 
z
M 628 4666 
L 1925 4666 
Q 3281 4666 3915 4102 
Q 4550 3538 4550 2338 
Q 4550 1131 3912 565 
Q 3275 0 1925 0 
L 628 0 
L 628 4666 
z
" id="DejaVuSans-44" transform="scale(0.015625)"/>
       <path d="M 3513 2113 
L 3513 0 
L 2938 0 
L 2938 2094 
Q 2938 2591 2744 2837 
Q 2550 3084 2163 3084 
Q 1697 3084 1428 2787 
Q 1159 2491 1159 1978 
L 1159 0 
L 581 0 
L 581 4863 
L 1159 4863 
L 1159 2956 
Q 1366 3272 1645 3428 
Q 1925 3584 2291 3584 
Q 2894 3584 3203 3211 
Q 3513 2838 3513 2113 
z
" id="DejaVuSans-68" transform="scale(0.015625)"/>
       <path d="M 628 4666 
L 3578 4666 
L 3578 4134 
L 1259 4134 
L 1259 2753 
L 3481 2753 
L 3481 2222 
L 1259 2222 
L 1259 531 
L 3634 531 
L 3634 0 
L 628 0 
L 628 4666 
z
" id="DejaVuSans-45" transform="scale(0.015625)"/>
       <path d="M 3513 3500 
L 2247 1797 
L 3578 0 
L 2900 0 
L 1881 1375 
L 863 0 
L 184 0 
L 1544 1831 
L 300 3500 
L 978 3500 
L 1906 2253 
L 2834 3500 
L 3513 3500 
z
" id="DejaVuSans-78" transform="scale(0.015625)"/>
       <path d="M 3122 3366 
L 3122 2828 
Q 2878 2963 2633 3030 
Q 2388 3097 2138 3097 
Q 1578 3097 1268 2742 
Q 959 2388 959 1747 
Q 959 1106 1268 751 
Q 1578 397 2138 397 
Q 2388 397 2633 464 
Q 2878 531 3122 666 
L 3122 134 
Q 2881 22 2623 -34 
Q 2366 -91 2075 -91 
Q 1284 -91 818 406 
Q 353 903 353 1747 
Q 353 2603 823 3093 
Q 1294 3584 2113 3584 
Q 2378 3584 2631 3529 
Q 2884 3475 3122 3366 
z
" id="DejaVuSans-63" transform="scale(0.015625)"/>
      </defs>
      <use xlink:href="#DejaVuSans-44"/>
      <use x="77.001953" xlink:href="#DejaVuSans-61"/>
      <use x="138.28125" xlink:href="#DejaVuSans-74"/>
      <use x="177.490234" xlink:href="#DejaVuSans-61"/>
      <use x="238.769531" xlink:href="#DejaVuSans-20"/>
      <use x="270.556641" xlink:href="#DejaVuSans-57"/>
      <use x="367.183594" xlink:href="#DejaVuSans-69"/>
      <use x="394.966797" xlink:href="#DejaVuSans-74"/>
      <use x="434.175781" xlink:href="#DejaVuSans-68"/>
      <use x="497.554688" xlink:href="#DejaVuSans-20"/>
      <use x="529.341797" xlink:href="#DejaVuSans-45"/>
      <use x="592.525391" xlink:href="#DejaVuSans-78"/>
      <use x="651.705078" xlink:href="#DejaVuSans-61"/>
      <use x="712.984375" xlink:href="#DejaVuSans-63"/>
      <use x="767.964844" xlink:href="#DejaVuSans-74"/>
      <use x="807.173828" xlink:href="#DejaVuSans-20"/>
      <use x="838.960938" xlink:href="#DejaVuSans-45"/>
      <use x="902.144531" xlink:href="#DejaVuSans-78"/>
      <use x="961.324219" xlink:href="#DejaVuSans-70"/>
      <use x="1024.800781" xlink:href="#DejaVuSans-6f"/>
      <use x="1085.982422" xlink:href="#DejaVuSans-6e"/>
      <use x="1149.361328" xlink:href="#DejaVuSans-65"/>
      <use x="1210.884766" xlink:href="#DejaVuSans-74"/>
      <use x="1250.09375" xlink:href="#DejaVuSans-6e"/>
      <use x="1313.472656" xlink:href="#DejaVuSans-69"/>
      <use x="1341.255859" xlink:href="#DejaVuSans-61"/>
      <use x="1402.535156" xlink:href="#DejaVuSans-6c"/>
     </g>
    </g>
    <g id="LineCollection_4">
     <path d="M 143.104375 297.726187 
L 143.104375 287.726187 
" style="fill:none;stroke:#008000;stroke-width:1.5;"/>
    </g>
    <g id="line2d_28"/>
    <g id="line2d_29">
     <g>
      <use style="fill:#008000;stroke:#008000;" x="143.104375" xlink:href="#mca878873a2" y="292.726187"/>
     </g>
    </g>
    <g id="text_21">
     <!-- Data with Taylor of Order = 10 and N_order = 10 -->
     <g transform="translate(161.104375 296.226187)scale(0.1 -0.1)">
      <defs>
       <path d="M 269 3500 
L 844 3500 
L 1563 769 
L 2278 3500 
L 2956 3500 
L 3675 769 
L 4391 3500 
L 4966 3500 
L 4050 0 
L 3372 0 
L 2619 2869 
L 1863 0 
L 1184 0 
L 269 3500 
z
" id="DejaVuSans-77" transform="scale(0.015625)"/>
       <path d="M -19 4666 
L 3928 4666 
L 3928 4134 
L 2272 4134 
L 2272 0 
L 1638 0 
L 1638 4134 
L -19 4134 
L -19 4666 
z
" id="DejaVuSans-54" transform="scale(0.015625)"/>
       <path d="M 2059 -325 
Q 1816 -950 1584 -1140 
Q 1353 -1331 966 -1331 
L 506 -1331 
L 506 -850 
L 844 -850 
Q 1081 -850 1212 -737 
Q 1344 -625 1503 -206 
L 1606 56 
L 191 3500 
L 800 3500 
L 1894 763 
L 2988 3500 
L 3597 3500 
L 2059 -325 
z
" id="DejaVuSans-79" transform="scale(0.015625)"/>
       <path d="M 2375 4863 
L 2375 4384 
L 1825 4384 
Q 1516 4384 1395 4259 
Q 1275 4134 1275 3809 
L 1275 3500 
L 2222 3500 
L 2222 3053 
L 1275 3053 
L 1275 0 
L 697 0 
L 697 3053 
L 147 3053 
L 147 3500 
L 697 3500 
L 697 3744 
Q 697 4328 969 4595 
Q 1241 4863 1831 4863 
L 2375 4863 
z
" id="DejaVuSans-66" transform="scale(0.015625)"/>
       <path d="M 2522 4238 
Q 1834 4238 1429 3725 
Q 1025 3213 1025 2328 
Q 1025 1447 1429 934 
Q 1834 422 2522 422 
Q 3209 422 3611 934 
Q 4013 1447 4013 2328 
Q 4013 3213 3611 3725 
Q 3209 4238 2522 4238 
z
M 2522 4750 
Q 3503 4750 4090 4092 
Q 4678 3434 4678 2328 
Q 4678 1225 4090 567 
Q 3503 -91 2522 -91 
Q 1538 -91 948 565 
Q 359 1222 359 2328 
Q 359 3434 948 4092 
Q 1538 4750 2522 4750 
z
" id="DejaVuSans-4f" transform="scale(0.015625)"/>
       <path d="M 2906 2969 
L 2906 4863 
L 3481 4863 
L 3481 0 
L 2906 0 
L 2906 525 
Q 2725 213 2448 61 
Q 2172 -91 1784 -91 
Q 1150 -91 751 415 
Q 353 922 353 1747 
Q 353 2572 751 3078 
Q 1150 3584 1784 3584 
Q 2172 3584 2448 3432 
Q 2725 3281 2906 2969 
z
M 947 1747 
Q 947 1113 1208 752 
Q 1469 391 1925 391 
Q 2381 391 2643 752 
Q 2906 1113 2906 1747 
Q 2906 2381 2643 2742 
Q 2381 3103 1925 3103 
Q 1469 3103 1208 2742 
Q 947 2381 947 1747 
z
" id="DejaVuSans-64" transform="scale(0.015625)"/>
       <path d="M 678 2906 
L 4684 2906 
L 4684 2381 
L 678 2381 
L 678 2906 
z
M 678 1631 
L 4684 1631 
L 4684 1100 
L 678 1100 
L 678 1631 
z
" id="DejaVuSans-3d" transform="scale(0.015625)"/>
       <path d="M 628 4666 
L 1478 4666 
L 3547 763 
L 3547 4666 
L 4159 4666 
L 4159 0 
L 3309 0 
L 1241 3903 
L 1241 0 
L 628 0 
L 628 4666 
z
" id="DejaVuSans-4e" transform="scale(0.015625)"/>
       <path d="M 3263 -1063 
L 3263 -1509 
L -63 -1509 
L -63 -1063 
L 3263 -1063 
z
" id="DejaVuSans-5f" transform="scale(0.015625)"/>
      </defs>
      <use xlink:href="#DejaVuSans-44"/>
      <use x="77.001953" xlink:href="#DejaVuSans-61"/>
      <use x="138.28125" xlink:href="#DejaVuSans-74"/>
      <use x="177.490234" xlink:href="#DejaVuSans-61"/>
      <use x="238.769531" xlink:href="#DejaVuSans-20"/>
      <use x="270.556641" xlink:href="#DejaVuSans-77"/>
      <use x="352.34375" xlink:href="#DejaVuSans-69"/>
      <use x="380.126953" xlink:href="#DejaVuSans-74"/>
      <use x="419.335938" xlink:href="#DejaVuSans-68"/>
      <use x="482.714844" xlink:href="#DejaVuSans-20"/>
      <use x="514.501953" xlink:href="#DejaVuSans-54"/>
      <use x="559.085938" xlink:href="#DejaVuSans-61"/>
      <use x="620.365234" xlink:href="#DejaVuSans-79"/>
      <use x="679.544922" xlink:href="#DejaVuSans-6c"/>
      <use x="707.328125" xlink:href="#DejaVuSans-6f"/>
      <use x="768.509766" xlink:href="#DejaVuSans-72"/>
      <use x="809.623047" xlink:href="#DejaVuSans-20"/>
      <use x="841.410156" xlink:href="#DejaVuSans-6f"/>
      <use x="902.591797" xlink:href="#DejaVuSans-66"/>
      <use x="937.796875" xlink:href="#DejaVuSans-20"/>
      <use x="969.583984" xlink:href="#DejaVuSans-4f"/>
      <use x="1048.294922" xlink:href="#DejaVuSans-72"/>
      <use x="1087.658203" xlink:href="#DejaVuSans-64"/>
      <use x="1151.134766" xlink:href="#DejaVuSans-65"/>
      <use x="1212.658203" xlink:href="#DejaVuSans-72"/>
      <use x="1253.771484" xlink:href="#DejaVuSans-20"/>
      <use x="1285.558594" xlink:href="#DejaVuSans-3d"/>
      <use x="1369.347656" xlink:href="#DejaVuSans-20"/>
      <use x="1401.134766" xlink:href="#DejaVuSans-31"/>
      <use x="1464.757812" xlink:href="#DejaVuSans-30"/>
      <use x="1528.380859" xlink:href="#DejaVuSans-20"/>
      <use x="1560.167969" xlink:href="#DejaVuSans-61"/>
      <use x="1621.447266" xlink:href="#DejaVuSans-6e"/>
      <use x="1684.826172" xlink:href="#DejaVuSans-64"/>
      <use x="1748.302734" xlink:href="#DejaVuSans-20"/>
      <use x="1780.089844" xlink:href="#DejaVuSans-4e"/>
      <use x="1854.894531" xlink:href="#DejaVuSans-5f"/>
      <use x="1904.894531" xlink:href="#DejaVuSans-6f"/>
      <use x="1966.076172" xlink:href="#DejaVuSans-72"/>
      <use x="2005.439453" xlink:href="#DejaVuSans-64"/>
      <use x="2068.916016" xlink:href="#DejaVuSans-65"/>
      <use x="2130.439453" xlink:href="#DejaVuSans-72"/>
      <use x="2171.552734" xlink:href="#DejaVuSans-20"/>
      <use x="2203.339844" xlink:href="#DejaVuSans-3d"/>
      <use x="2287.128906" xlink:href="#DejaVuSans-20"/>
      <use x="2318.916016" xlink:href="#DejaVuSans-31"/>
      <use x="2382.539062" xlink:href="#DejaVuSans-30"/>
     </g>
    </g>
   </g>
  </g>
 </g>
 <defs>
  <clipPath id="p9843baf28e">
   <rect height="266.112" width="357.12" x="57.6" y="41.472"/>
  </clipPath>
 </defs>
</svg>
