<?xml version="1.0" encoding="utf-8" standalone="no"?>
<!DOCTYPE svg PUBLIC "-//W3C//DTD SVG 1.1//EN"
  "http://www.w3.org/Graphics/SVG/1.1/DTD/svg11.dtd">
<svg xmlns:xlink="http://www.w3.org/1999/xlink" width="460.8pt" height="345.6pt" viewBox="0 0 460.8 345.6" xmlns="http://www.w3.org/2000/svg" version="1.1">
 <metadata>
  <rdf:RDF xmlns:dc="http://purl.org/dc/elements/1.1/" xmlns:cc="http://creativecommons.org/ns#" xmlns:rdf="http://www.w3.org/1999/02/22-rdf-syntax-ns#">
   <cc:Work>
    <dc:type rdf:resource="http://purl.org/dc/dcmitype/StillImage"/>
    <dc:date>2023-10-23T00:35:25.684124</dc:date>
    <dc:format>image/svg+xml</dc:format>
    <dc:creator>
     <cc:Agent>
      <dc:title>Matplotlib v3.6.2, https://matplotlib.org/</dc:title>
     </cc:Agent>
    </dc:creator>
   </cc:Work>
  </rdf:RDF>
 </metadata>
 <defs>
  <style type="text/css">*{stroke-linejoin: round; stroke-linecap: butt}</style>
 </defs>
 <g id="figure_1">
  <g id="patch_1">
   <path d="M 0 345.6 
L 460.8 345.6 
L 460.8 0 
L 0 0 
z
" style="fill: #ffffff"/>
  </g>
  <g id="axes_1">
   <g id="patch_2">
    <path d="M 57.6 307.584 
L 414.72 307.584 
L 414.72 41.472 
L 57.6 41.472 
z
" style="fill: #ffffff"/>
   </g>
   <g id="matplotlib.axis_1">
    <g id="xtick_1">
     <g id="line2d_1">
      <defs>
       <path id="mc35bdc4478" d="M 0 0 
L 0 3.5 
" style="stroke: #000000; stroke-width: 0.8"/>
      </defs>
      <g>
       <use xlink:href="#mc35bdc4478" x="57.6" y="307.584" style="stroke: #000000; stroke-width: 0.8"/>
      </g>
     </g>
     <g id="text_1">
      <!-- 0.0 -->
      <g transform="translate(49.648438 322.182437) scale(0.1 -0.1)">
       <defs>
        <path id="DejaVuSans-30" d="M 2034 4250 
Q 1547 4250 1301 3770 
Q 1056 3291 1056 2328 
Q 1056 1369 1301 889 
Q 1547 409 2034 409 
Q 2525 409 2770 889 
Q 3016 1369 3016 2328 
Q 3016 3291 2770 3770 
Q 2525 4250 2034 4250 
z
M 2034 4750 
Q 2819 4750 3233 4129 
Q 3647 3509 3647 2328 
Q 3647 1150 3233 529 
Q 2819 -91 2034 -91 
Q 1250 -91 836 529 
Q 422 1150 422 2328 
Q 422 3509 836 4129 
Q 1250 4750 2034 4750 
z
" transform="scale(0.015625)"/>
        <path id="DejaVuSans-2e" d="M 684 794 
L 1344 794 
L 1344 0 
L 684 0 
L 684 794 
z
" transform="scale(0.015625)"/>
       </defs>
       <use xlink:href="#DejaVuSans-30"/>
       <use xlink:href="#DejaVuSans-2e" x="63.623047"/>
       <use xlink:href="#DejaVuSans-30" x="95.410156"/>
      </g>
     </g>
    </g>
    <g id="xtick_2">
     <g id="line2d_2">
      <g>
       <use xlink:href="#mc35bdc4478" x="115.2" y="307.584" style="stroke: #000000; stroke-width: 0.8"/>
      </g>
     </g>
     <g id="text_2">
      <!-- 0.5 -->
      <g transform="translate(107.248438 322.182437) scale(0.1 -0.1)">
       <defs>
        <path id="DejaVuSans-35" d="M 691 4666 
L 3169 4666 
L 3169 4134 
L 1269 4134 
L 1269 2991 
Q 1406 3038 1543 3061 
Q 1681 3084 1819 3084 
Q 2600 3084 3056 2656 
Q 3513 2228 3513 1497 
Q 3513 744 3044 326 
Q 2575 -91 1722 -91 
Q 1428 -91 1123 -41 
Q 819 9 494 109 
L 494 744 
Q 775 591 1075 516 
Q 1375 441 1709 441 
Q 2250 441 2565 725 
Q 2881 1009 2881 1497 
Q 2881 1984 2565 2268 
Q 2250 2553 1709 2553 
Q 1456 2553 1204 2497 
Q 953 2441 691 2322 
L 691 4666 
z
" transform="scale(0.015625)"/>
       </defs>
       <use xlink:href="#DejaVuSans-30"/>
       <use xlink:href="#DejaVuSans-2e" x="63.623047"/>
       <use xlink:href="#DejaVuSans-35" x="95.410156"/>
      </g>
     </g>
    </g>
    <g id="xtick_3">
     <g id="line2d_3">
      <g>
       <use xlink:href="#mc35bdc4478" x="172.8" y="307.584" style="stroke: #000000; stroke-width: 0.8"/>
      </g>
     </g>
     <g id="text_3">
      <!-- 1.0 -->
      <g transform="translate(164.848438 322.182437) scale(0.1 -0.1)">
       <defs>
        <path id="DejaVuSans-31" d="M 794 531 
L 1825 531 
L 1825 4091 
L 703 3866 
L 703 4441 
L 1819 4666 
L 2450 4666 
L 2450 531 
L 3481 531 
L 3481 0 
L 794 0 
L 794 531 
z
" transform="scale(0.015625)"/>
       </defs>
       <use xlink:href="#DejaVuSans-31"/>
       <use xlink:href="#DejaVuSans-2e" x="63.623047"/>
       <use xlink:href="#DejaVuSans-30" x="95.410156"/>
      </g>
     </g>
    </g>
    <g id="xtick_4">
     <g id="line2d_4">
      <g>
       <use xlink:href="#mc35bdc4478" x="230.4" y="307.584" style="stroke: #000000; stroke-width: 0.8"/>
      </g>
     </g>
     <g id="text_4">
      <!-- 1.5 -->
      <g transform="translate(222.448438 322.182437) scale(0.1 -0.1)">
       <use xlink:href="#DejaVuSans-31"/>
       <use xlink:href="#DejaVuSans-2e" x="63.623047"/>
       <use xlink:href="#DejaVuSans-35" x="95.410156"/>
      </g>
     </g>
    </g>
    <g id="xtick_5">
     <g id="line2d_5">
      <g>
       <use xlink:href="#mc35bdc4478" x="288" y="307.584" style="stroke: #000000; stroke-width: 0.8"/>
      </g>
     </g>
     <g id="text_5">
      <!-- 2.0 -->
      <g transform="translate(280.048437 322.182437) scale(0.1 -0.1)">
       <defs>
        <path id="DejaVuSans-32" d="M 1228 531 
L 3431 531 
L 3431 0 
L 469 0 
L 469 531 
Q 828 903 1448 1529 
Q 2069 2156 2228 2338 
Q 2531 2678 2651 2914 
Q 2772 3150 2772 3378 
Q 2772 3750 2511 3984 
Q 2250 4219 1831 4219 
Q 1534 4219 1204 4116 
Q 875 4013 500 3803 
L 500 4441 
Q 881 4594 1212 4672 
Q 1544 4750 1819 4750 
Q 2544 4750 2975 4387 
Q 3406 4025 3406 3419 
Q 3406 3131 3298 2873 
Q 3191 2616 2906 2266 
Q 2828 2175 2409 1742 
Q 1991 1309 1228 531 
z
" transform="scale(0.015625)"/>
       </defs>
       <use xlink:href="#DejaVuSans-32"/>
       <use xlink:href="#DejaVuSans-2e" x="63.623047"/>
       <use xlink:href="#DejaVuSans-30" x="95.410156"/>
      </g>
     </g>
    </g>
    <g id="xtick_6">
     <g id="line2d_6">
      <g>
       <use xlink:href="#mc35bdc4478" x="345.6" y="307.584" style="stroke: #000000; stroke-width: 0.8"/>
      </g>
     </g>
     <g id="text_6">
      <!-- 2.5 -->
      <g transform="translate(337.648438 322.182437) scale(0.1 -0.1)">
       <use xlink:href="#DejaVuSans-32"/>
       <use xlink:href="#DejaVuSans-2e" x="63.623047"/>
       <use xlink:href="#DejaVuSans-35" x="95.410156"/>
      </g>
     </g>
    </g>
    <g id="xtick_7">
     <g id="line2d_7">
      <g>
       <use xlink:href="#mc35bdc4478" x="403.2" y="307.584" style="stroke: #000000; stroke-width: 0.8"/>
      </g>
     </g>
     <g id="text_7">
      <!-- 3.0 -->
      <g transform="translate(395.248438 322.182437) scale(0.1 -0.1)">
       <defs>
        <path id="DejaVuSans-33" d="M 2597 2516 
Q 3050 2419 3304 2112 
Q 3559 1806 3559 1356 
Q 3559 666 3084 287 
Q 2609 -91 1734 -91 
Q 1441 -91 1130 -33 
Q 819 25 488 141 
L 488 750 
Q 750 597 1062 519 
Q 1375 441 1716 441 
Q 2309 441 2620 675 
Q 2931 909 2931 1356 
Q 2931 1769 2642 2001 
Q 2353 2234 1838 2234 
L 1294 2234 
L 1294 2753 
L 1863 2753 
Q 2328 2753 2575 2939 
Q 2822 3125 2822 3475 
Q 2822 3834 2567 4026 
Q 2313 4219 1838 4219 
Q 1578 4219 1281 4162 
Q 984 4106 628 3988 
L 628 4550 
Q 988 4650 1302 4700 
Q 1616 4750 1894 4750 
Q 2613 4750 3031 4423 
Q 3450 4097 3450 3541 
Q 3450 3153 3228 2886 
Q 3006 2619 2597 2516 
z
" transform="scale(0.015625)"/>
       </defs>
       <use xlink:href="#DejaVuSans-33"/>
       <use xlink:href="#DejaVuSans-2e" x="63.623047"/>
       <use xlink:href="#DejaVuSans-30" x="95.410156"/>
      </g>
     </g>
    </g>
    <g id="text_8">
     <!-- $\beta$ -->
     <g transform="translate(232.96 335.962125) scale(0.1 -0.1)">
      <defs>
       <path id="DejaVuSans-Oblique-3b2" d="M 872 216 
L 572 -1331 
L -6 -1331 
L 928 3478 
Q 1206 4903 2538 4903 
Q 3888 4903 3659 3700 
Q 3503 2844 2894 2531 
Q 3713 2250 3553 1416 
Q 3272 -69 1759 -66 
Q 1097 -63 872 216 
z
M 1019 966 
Q 1259 422 1875 425 
Q 2775 425 2966 1406 
Q 3138 2288 1675 2219 
L 1778 2750 
Q 2909 2731 3106 3750 
Q 3241 4438 2509 4434 
Q 1691 4434 1503 3459 
L 1019 966 
z
" transform="scale(0.015625)"/>
      </defs>
      <use xlink:href="#DejaVuSans-Oblique-3b2" transform="translate(0 0.390625)"/>
     </g>
    </g>
   </g>
   <g id="matplotlib.axis_2">
    <g id="ytick_1">
     <g id="line2d_8">
      <defs>
       <path id="mb5c45da5b0" d="M 0 0 
L -3.5 0 
" style="stroke: #000000; stroke-width: 0.8"/>
      </defs>
      <g>
       <use xlink:href="#mb5c45da5b0" x="57.6" y="295.488" style="stroke: #000000; stroke-width: 0.8"/>
      </g>
     </g>
     <g id="text_9">
      <!-- 0.0 -->
      <g transform="translate(34.696875 299.287219) scale(0.1 -0.1)">
       <use xlink:href="#DejaVuSans-30"/>
       <use xlink:href="#DejaVuSans-2e" x="63.623047"/>
       <use xlink:href="#DejaVuSans-30" x="95.410156"/>
      </g>
     </g>
    </g>
    <g id="ytick_2">
     <g id="line2d_9">
      <g>
       <use xlink:href="#mb5c45da5b0" x="57.6" y="240.094809" style="stroke: #000000; stroke-width: 0.8"/>
      </g>
     </g>
     <g id="text_10">
      <!-- 0.2 -->
      <g transform="translate(34.696875 243.894027) scale(0.1 -0.1)">
       <use xlink:href="#DejaVuSans-30"/>
       <use xlink:href="#DejaVuSans-2e" x="63.623047"/>
       <use xlink:href="#DejaVuSans-32" x="95.410156"/>
      </g>
     </g>
    </g>
    <g id="ytick_3">
     <g id="line2d_10">
      <g>
       <use xlink:href="#mb5c45da5b0" x="57.6" y="184.701617" style="stroke: #000000; stroke-width: 0.8"/>
      </g>
     </g>
     <g id="text_11">
      <!-- 0.4 -->
      <g transform="translate(34.696875 188.500836) scale(0.1 -0.1)">
       <defs>
        <path id="DejaVuSans-34" d="M 2419 4116 
L 825 1625 
L 2419 1625 
L 2419 4116 
z
M 2253 4666 
L 3047 4666 
L 3047 1625 
L 3713 1625 
L 3713 1100 
L 3047 1100 
L 3047 0 
L 2419 0 
L 2419 1100 
L 313 1100 
L 313 1709 
L 2253 4666 
z
" transform="scale(0.015625)"/>
       </defs>
       <use xlink:href="#DejaVuSans-30"/>
       <use xlink:href="#DejaVuSans-2e" x="63.623047"/>
       <use xlink:href="#DejaVuSans-34" x="95.410156"/>
      </g>
     </g>
    </g>
    <g id="ytick_4">
     <g id="line2d_11">
      <g>
       <use xlink:href="#mb5c45da5b0" x="57.6" y="129.308426" style="stroke: #000000; stroke-width: 0.8"/>
      </g>
     </g>
     <g id="text_12">
      <!-- 0.6 -->
      <g transform="translate(34.696875 133.107644) scale(0.1 -0.1)">
       <defs>
        <path id="DejaVuSans-36" d="M 2113 2584 
Q 1688 2584 1439 2293 
Q 1191 2003 1191 1497 
Q 1191 994 1439 701 
Q 1688 409 2113 409 
Q 2538 409 2786 701 
Q 3034 994 3034 1497 
Q 3034 2003 2786 2293 
Q 2538 2584 2113 2584 
z
M 3366 4563 
L 3366 3988 
Q 3128 4100 2886 4159 
Q 2644 4219 2406 4219 
Q 1781 4219 1451 3797 
Q 1122 3375 1075 2522 
Q 1259 2794 1537 2939 
Q 1816 3084 2150 3084 
Q 2853 3084 3261 2657 
Q 3669 2231 3669 1497 
Q 3669 778 3244 343 
Q 2819 -91 2113 -91 
Q 1303 -91 875 529 
Q 447 1150 447 2328 
Q 447 3434 972 4092 
Q 1497 4750 2381 4750 
Q 2619 4750 2861 4703 
Q 3103 4656 3366 4563 
z
" transform="scale(0.015625)"/>
       </defs>
       <use xlink:href="#DejaVuSans-30"/>
       <use xlink:href="#DejaVuSans-2e" x="63.623047"/>
       <use xlink:href="#DejaVuSans-36" x="95.410156"/>
      </g>
     </g>
    </g>
    <g id="ytick_5">
     <g id="line2d_12">
      <g>
       <use xlink:href="#mb5c45da5b0" x="57.6" y="73.915234" style="stroke: #000000; stroke-width: 0.8"/>
      </g>
     </g>
     <g id="text_13">
      <!-- 0.8 -->
      <g transform="translate(34.696875 77.714453) scale(0.1 -0.1)">
       <defs>
        <path id="DejaVuSans-38" d="M 2034 2216 
Q 1584 2216 1326 1975 
Q 1069 1734 1069 1313 
Q 1069 891 1326 650 
Q 1584 409 2034 409 
Q 2484 409 2743 651 
Q 3003 894 3003 1313 
Q 3003 1734 2745 1975 
Q 2488 2216 2034 2216 
z
M 1403 2484 
Q 997 2584 770 2862 
Q 544 3141 544 3541 
Q 544 4100 942 4425 
Q 1341 4750 2034 4750 
Q 2731 4750 3128 4425 
Q 3525 4100 3525 3541 
Q 3525 3141 3298 2862 
Q 3072 2584 2669 2484 
Q 3125 2378 3379 2068 
Q 3634 1759 3634 1313 
Q 3634 634 3220 271 
Q 2806 -91 2034 -91 
Q 1263 -91 848 271 
Q 434 634 434 1313 
Q 434 1759 690 2068 
Q 947 2378 1403 2484 
z
M 1172 3481 
Q 1172 3119 1398 2916 
Q 1625 2713 2034 2713 
Q 2441 2713 2670 2916 
Q 2900 3119 2900 3481 
Q 2900 3844 2670 4047 
Q 2441 4250 2034 4250 
Q 1625 4250 1398 4047 
Q 1172 3844 1172 3481 
z
" transform="scale(0.015625)"/>
       </defs>
       <use xlink:href="#DejaVuSans-30"/>
       <use xlink:href="#DejaVuSans-2e" x="63.623047"/>
       <use xlink:href="#DejaVuSans-38" x="95.410156"/>
      </g>
     </g>
    </g>
    <g id="text_14">
     <!-- $e$ -->
     <g transform="translate(28.617188 177.628) rotate(-90) scale(0.1 -0.1)">
      <defs>
       <path id="DejaVuSans-Oblique-65" d="M 3078 2063 
Q 3088 2113 3092 2166 
Q 3097 2219 3097 2272 
Q 3097 2653 2873 2875 
Q 2650 3097 2266 3097 
Q 1838 3097 1509 2826 
Q 1181 2556 1013 2059 
L 3078 2063 
z
M 3578 1613 
L 903 1613 
Q 884 1494 878 1425 
Q 872 1356 872 1306 
Q 872 872 1139 634 
Q 1406 397 1894 397 
Q 2269 397 2603 481 
Q 2938 566 3225 728 
L 3116 159 
Q 2806 34 2476 -28 
Q 2147 -91 1806 -91 
Q 1078 -91 686 257 
Q 294 606 294 1247 
Q 294 1794 489 2264 
Q 684 2734 1063 3103 
Q 1306 3334 1642 3459 
Q 1978 3584 2356 3584 
Q 2950 3584 3301 3228 
Q 3653 2872 3653 2272 
Q 3653 2128 3634 1964 
Q 3616 1800 3578 1613 
z
" transform="scale(0.015625)"/>
      </defs>
      <use xlink:href="#DejaVuSans-Oblique-65"/>
     </g>
    </g>
   </g>
   <g id="LineCollection_1">
    <path d="M 69.12 281.77986 
L 69.12 281.262379 
" clip-path="url(#p9808ed0e3b)" style="fill: none; stroke: #000000; stroke-width: 1.5"/>
    <path d="M 80.64 267.704681 
L 80.64 267.168086 
" clip-path="url(#p9808ed0e3b)" style="fill: none; stroke: #000000; stroke-width: 1.5"/>
    <path d="M 92.16 253.198291 
L 92.16 252.659587 
" clip-path="url(#p9808ed0e3b)" style="fill: none; stroke: #000000; stroke-width: 1.5"/>
    <path d="M 103.68 237.660387 
L 103.68 237.156713 
" clip-path="url(#p9808ed0e3b)" style="fill: none; stroke: #000000; stroke-width: 1.5"/>
    <path d="M 115.2 221.753179 
L 115.2 221.039877 
" clip-path="url(#p9808ed0e3b)" style="fill: none; stroke: #000000; stroke-width: 1.5"/>
    <path d="M 126.72 203.399822 
L 126.72 202.59295 
" clip-path="url(#p9808ed0e3b)" style="fill: none; stroke: #000000; stroke-width: 1.5"/>
    <path d="M 138.24 186.275187 
L 138.24 185.493423 
" clip-path="url(#p9808ed0e3b)" style="fill: none; stroke: #000000; stroke-width: 1.5"/>
    <path d="M 149.76 168.430479 
L 149.76 167.458382 
" clip-path="url(#p9808ed0e3b)" style="fill: none; stroke: #000000; stroke-width: 1.5"/>
    <path d="M 161.28 150.390652 
L 161.28 149.247768 
" clip-path="url(#p9808ed0e3b)" style="fill: none; stroke: #000000; stroke-width: 1.5"/>
    <path d="M 172.8 136.089497 
L 172.8 135.032767 
" clip-path="url(#p9808ed0e3b)" style="fill: none; stroke: #000000; stroke-width: 1.5"/>
    <path d="M 184.32 121.580935 
L 184.32 120.546897 
" clip-path="url(#p9808ed0e3b)" style="fill: none; stroke: #000000; stroke-width: 1.5"/>
    <path d="M 195.84 111.555506 
L 195.84 110.622028 
" clip-path="url(#p9808ed0e3b)" style="fill: none; stroke: #000000; stroke-width: 1.5"/>
    <path d="M 207.36 104.398764 
L 207.36 103.438339 
" clip-path="url(#p9808ed0e3b)" style="fill: none; stroke: #000000; stroke-width: 1.5"/>
    <path d="M 218.88 97.397829 
L 218.88 96.718341 
" clip-path="url(#p9808ed0e3b)" style="fill: none; stroke: #000000; stroke-width: 1.5"/>
    <path d="M 230.4 91.586679 
L 230.4 90.746911 
" clip-path="url(#p9808ed0e3b)" style="fill: none; stroke: #000000; stroke-width: 1.5"/>
    <path d="M 241.92 87.052856 
L 241.92 86.06623 
" clip-path="url(#p9808ed0e3b)" style="fill: none; stroke: #000000; stroke-width: 1.5"/>
    <path d="M 253.44 82.391054 
L 253.44 81.880371 
" clip-path="url(#p9808ed0e3b)" style="fill: none; stroke: #000000; stroke-width: 1.5"/>
    <path d="M 264.96 78.397807 
L 264.96 77.413041 
" clip-path="url(#p9808ed0e3b)" style="fill: none; stroke: #000000; stroke-width: 1.5"/>
    <path d="M 276.48 75.611521 
L 276.48 75.097429 
" clip-path="url(#p9808ed0e3b)" style="fill: none; stroke: #000000; stroke-width: 1.5"/>
    <path d="M 288 72.921932 
L 288 72.231601 
" clip-path="url(#p9808ed0e3b)" style="fill: none; stroke: #000000; stroke-width: 1.5"/>
    <path d="M 299.52 70.072924 
L 299.52 69.568025 
" clip-path="url(#p9808ed0e3b)" style="fill: none; stroke: #000000; stroke-width: 1.5"/>
    <path d="M 311.04 67.350238 
L 311.04 66.897825 
" clip-path="url(#p9808ed0e3b)" style="fill: none; stroke: #000000; stroke-width: 1.5"/>
    <path d="M 322.56 65.595275 
L 322.56 65.21506 
" clip-path="url(#p9808ed0e3b)" style="fill: none; stroke: #000000; stroke-width: 1.5"/>
    <path d="M 334.08 62.992875 
L 334.08 62.650928 
" clip-path="url(#p9808ed0e3b)" style="fill: none; stroke: #000000; stroke-width: 1.5"/>
    <path d="M 345.6 61.06266 
L 345.6 60.626419 
" clip-path="url(#p9808ed0e3b)" style="fill: none; stroke: #000000; stroke-width: 1.5"/>
    <path d="M 357.12 59.904131 
L 357.12 59.574767 
" clip-path="url(#p9808ed0e3b)" style="fill: none; stroke: #000000; stroke-width: 1.5"/>
    <path d="M 368.64 57.957658 
L 368.64 57.360017 
" clip-path="url(#p9808ed0e3b)" style="fill: none; stroke: #000000; stroke-width: 1.5"/>
    <path d="M 380.16 56.086601 
L 380.16 55.477958 
" clip-path="url(#p9808ed0e3b)" style="fill: none; stroke: #000000; stroke-width: 1.5"/>
    <path d="M 391.68 55.387931 
L 391.68 55.00415 
" clip-path="url(#p9808ed0e3b)" style="fill: none; stroke: #000000; stroke-width: 1.5"/>
    <path d="M 403.2 53.941408 
L 403.2 53.568 
" clip-path="url(#p9808ed0e3b)" style="fill: none; stroke: #000000; stroke-width: 1.5"/>
   </g>
   <g id="LineCollection_2">
    <path d="M 69.12 282.303574 
L 69.12 281.810637 
" clip-path="url(#p9808ed0e3b)" style="fill: none; stroke: #008000; stroke-width: 1.5"/>
    <path d="M 80.64 267.691938 
L 80.64 267.178026 
" clip-path="url(#p9808ed0e3b)" style="fill: none; stroke: #008000; stroke-width: 1.5"/>
    <path d="M 92.16 253.029092 
L 92.16 252.505911 
" clip-path="url(#p9808ed0e3b)" style="fill: none; stroke: #008000; stroke-width: 1.5"/>
    <path d="M 103.68 237.511579 
L 103.68 236.864193 
" clip-path="url(#p9808ed0e3b)" style="fill: none; stroke: #008000; stroke-width: 1.5"/>
    <path d="M 115.2 221.860002 
L 115.2 221.156569 
" clip-path="url(#p9808ed0e3b)" style="fill: none; stroke: #008000; stroke-width: 1.5"/>
    <path d="M 126.72 204.060904 
L 126.72 203.218649 
" clip-path="url(#p9808ed0e3b)" style="fill: none; stroke: #008000; stroke-width: 1.5"/>
    <path d="M 138.24 185.190899 
L 138.24 184.343447 
" clip-path="url(#p9808ed0e3b)" style="fill: none; stroke: #008000; stroke-width: 1.5"/>
    <path d="M 149.76 167.593034 
L 149.76 166.551326 
" clip-path="url(#p9808ed0e3b)" style="fill: none; stroke: #008000; stroke-width: 1.5"/>
    <path d="M 161.28 150.896396 
L 161.28 149.692132 
" clip-path="url(#p9808ed0e3b)" style="fill: none; stroke: #008000; stroke-width: 1.5"/>
    <path d="M 172.8 135.334485 
L 172.8 134.209632 
" clip-path="url(#p9808ed0e3b)" style="fill: none; stroke: #008000; stroke-width: 1.5"/>
    <path d="M 184.32 121.25265 
L 184.32 120.382106 
" clip-path="url(#p9808ed0e3b)" style="fill: none; stroke: #008000; stroke-width: 1.5"/>
    <path d="M 195.84 112.235215 
L 195.84 111.12446 
" clip-path="url(#p9808ed0e3b)" style="fill: none; stroke: #008000; stroke-width: 1.5"/>
    <path d="M 207.36 104.80524 
L 207.36 103.966893 
" clip-path="url(#p9808ed0e3b)" style="fill: none; stroke: #008000; stroke-width: 1.5"/>
    <path d="M 218.88 97.804723 
L 218.88 97.028557 
" clip-path="url(#p9808ed0e3b)" style="fill: none; stroke: #008000; stroke-width: 1.5"/>
    <path d="M 230.4 92.106568 
L 230.4 91.431514 
" clip-path="url(#p9808ed0e3b)" style="fill: none; stroke: #008000; stroke-width: 1.5"/>
    <path d="M 241.92 86.157982 
L 241.92 85.499796 
" clip-path="url(#p9808ed0e3b)" style="fill: none; stroke: #008000; stroke-width: 1.5"/>
    <path d="M 253.44 82.649557 
L 253.44 81.869524 
" clip-path="url(#p9808ed0e3b)" style="fill: none; stroke: #008000; stroke-width: 1.5"/>
    <path d="M 264.96 79.303922 
L 264.96 78.651503 
" clip-path="url(#p9808ed0e3b)" style="fill: none; stroke: #008000; stroke-width: 1.5"/>
    <path d="M 276.48 75.907183 
L 276.48 75.0718 
" clip-path="url(#p9808ed0e3b)" style="fill: none; stroke: #008000; stroke-width: 1.5"/>
    <path d="M 288 72.869696 
L 288 72.083616 
" clip-path="url(#p9808ed0e3b)" style="fill: none; stroke: #008000; stroke-width: 1.5"/>
    <path d="M 299.52 70.07395 
L 299.52 69.576425 
" clip-path="url(#p9808ed0e3b)" style="fill: none; stroke: #008000; stroke-width: 1.5"/>
    <path d="M 311.04 67.327197 
L 311.04 66.932452 
" clip-path="url(#p9808ed0e3b)" style="fill: none; stroke: #008000; stroke-width: 1.5"/>
    <path d="M 322.56 65.163431 
L 322.56 64.809626 
" clip-path="url(#p9808ed0e3b)" style="fill: none; stroke: #008000; stroke-width: 1.5"/>
    <path d="M 334.08 63.193671 
L 334.08 62.58962 
" clip-path="url(#p9808ed0e3b)" style="fill: none; stroke: #008000; stroke-width: 1.5"/>
    <path d="M 345.6 60.974097 
L 345.6 60.650602 
" clip-path="url(#p9808ed0e3b)" style="fill: none; stroke: #008000; stroke-width: 1.5"/>
    <path d="M 357.12 59.607647 
L 357.12 59.022384 
" clip-path="url(#p9808ed0e3b)" style="fill: none; stroke: #008000; stroke-width: 1.5"/>
    <path d="M 368.64 58.371017 
L 368.64 57.771999 
" clip-path="url(#p9808ed0e3b)" style="fill: none; stroke: #008000; stroke-width: 1.5"/>
    <path d="M 380.16 56.457992 
L 380.16 56.03244 
" clip-path="url(#p9808ed0e3b)" style="fill: none; stroke: #008000; stroke-width: 1.5"/>
    <path d="M 391.68 55.322086 
L 391.68 54.929913 
" clip-path="url(#p9808ed0e3b)" style="fill: none; stroke: #008000; stroke-width: 1.5"/>
    <path d="M 403.2 54.072383 
L 403.2 53.766543 
" clip-path="url(#p9808ed0e3b)" style="fill: none; stroke: #008000; stroke-width: 1.5"/>
   </g>
   <g id="line2d_13">
    <path d="M 57.6 295.488 
L 58.763636 294.089134 
L 59.927273 292.689983 
L 61.090909 291.290262 
L 62.254545 289.889683 
L 63.418182 288.487963 
L 64.581818 287.084814 
L 65.745455 285.679951 
L 66.909091 284.273086 
L 68.072727 282.863931 
L 69.236364 281.452197 
L 70.4 280.037595 
L 71.563636 278.61983 
L 72.727273 277.19861 
L 73.890909 275.773636 
L 75.054545 274.34461 
L 76.218182 272.911227 
L 77.381818 271.47318 
L 78.545455 270.030157 
L 79.709091 268.581842 
L 80.872727 267.127911 
L 82.036364 265.668035 
L 83.2 264.201878 
L 84.363636 262.729096 
L 85.527273 261.249336 
L 86.690909 259.762237 
L 87.854545 258.267426 
L 89.018182 256.764521 
L 90.181818 255.253126 
L 91.345455 253.732833 
L 92.509091 252.20322 
L 93.672727 250.663852 
L 94.836364 249.114275 
L 96 247.55402 
L 97.163636 245.982599 
L 98.327273 244.399506 
L 99.490909 242.804213 
L 100.654545 241.196172 
L 101.818182 239.57481 
L 102.981818 237.939533 
L 104.145455 236.289718 
L 105.309091 234.624718 
L 106.472727 232.943855 
L 107.636364 231.246424 
L 108.8 229.531688 
L 109.963636 227.798876 
L 111.127273 226.047185 
L 112.290909 224.275774 
L 113.454545 222.483766 
L 114.618182 220.670246 
L 115.781818 218.834256 
L 116.945455 216.974796 
L 118.109091 215.090825 
L 119.272727 213.181251 
L 120.436364 211.244939 
L 121.6 209.280701 
L 122.763636 207.2873 
L 123.927273 205.263443 
L 125.090909 203.207785 
L 126.254545 201.11892 
L 127.418182 198.995386 
L 128.581818 196.835657 
L 129.745455 194.638144 
L 130.909091 192.401193 
L 132.072727 190.123083 
L 133.236364 187.80202 
L 134.4 185.43614 
L 135.563636 183.023505 
L 136.727273 180.562098 
L 137.890909 178.049824 
L 139.054545 175.484506 
L 140.218182 172.863884 
L 141.381818 170.185609 
L 142.545455 167.447246 
L 143.709091 164.646266 
L 144.872727 161.780048 
L 146.036364 158.845873 
L 147.2 155.840923 
L 148.363636 152.762278 
L 149.527273 149.606914 
L 150.690909 146.371699 
L 151.854545 143.05339 
L 153.018182 139.648634 
L 154.181818 136.153958 
L 155.345455 132.565773 
L 156.509091 128.880368 
L 157.672727 125.093908 
L 158.836364 121.202429 
L 160 117.201837 
L 161.163636 113.087905 
L 162.327273 108.856269 
L 163.490909 104.502425 
L 164.654545 100.021725 
L 165.818182 95.409378 
L 166.981818 90.660441 
L 168.145455 85.769817 
L 169.309091 80.732257 
L 170.472727 75.54235 
L 171.636364 70.194522 
L 172.8 64.683035 
" clip-path="url(#p9808ed0e3b)" style="fill: none; stroke: #0000ff; stroke-width: 1.5; stroke-linecap: square"/>
   </g>
   <g id="line2d_14">
    <path d="M 115.2 273.174729 
L 118.109091 257.870873 
L 121.018182 244.315252 
L 123.927273 232.225356 
L 126.836364 221.37602 
L 129.745455 211.585691 
L 132.654545 202.706431 
L 135.563636 194.616531 
L 138.472727 187.214974 
L 141.381818 180.417239 
L 144.290909 174.15208 
L 147.2 168.359027 
L 150.109091 162.986428 
L 153.018182 157.989903 
L 155.927273 153.331112 
L 158.836364 148.976758 
L 161.745455 144.897789 
L 164.654545 141.068743 
L 167.563636 137.467208 
L 170.472727 134.073381 
L 173.381818 130.869697 
L 176.290909 127.840524 
L 179.2 124.9719 
L 182.109091 122.25132 
L 185.018182 119.667548 
L 187.927273 117.21046 
L 190.836364 114.870911 
L 193.745455 112.640619 
L 196.654545 110.512062 
L 199.563636 108.478397 
L 202.472727 106.533385 
L 205.381818 104.671321 
L 208.290909 102.886982 
L 211.2 101.175578 
L 214.109091 99.532702 
L 217.018182 97.954299 
L 219.927273 96.43663 
L 222.836364 94.976237 
L 225.745455 93.569923 
L 228.654545 92.214724 
L 231.563636 90.907892 
L 234.472727 89.64687 
L 237.381818 88.429281 
L 240.290909 87.252909 
L 243.2 86.115686 
L 246.109091 85.015683 
L 249.018182 83.951094 
L 251.927273 82.920229 
L 254.836364 81.921504 
L 257.745455 80.953433 
L 260.654545 80.01462 
L 263.563636 79.103755 
L 266.472727 78.219603 
L 269.381818 77.361001 
L 272.290909 76.526854 
L 275.2 75.716127 
L 278.109091 74.927845 
L 281.018182 74.161085 
L 283.927273 73.414975 
L 286.836364 72.688689 
L 289.745455 71.981444 
L 292.654545 71.2925 
L 295.563636 70.621152 
L 298.472727 69.966732 
L 301.381818 69.328608 
L 304.290909 68.706175 
L 307.2 68.09886 
L 310.109091 67.506117 
L 313.018182 66.927428 
L 315.927273 66.362295 
L 318.836364 65.810248 
L 321.745455 65.270836 
L 324.654545 64.743628 
L 327.563636 64.228214 
L 330.472727 63.724202 
L 333.381818 63.231216 
L 336.290909 62.748898 
L 339.2 62.276905 
L 342.109091 61.814906 
L 345.018182 61.362588 
L 347.927273 60.919649 
L 350.836364 60.4858 
L 353.745455 60.060762 
L 356.654545 59.644269 
L 359.563636 59.236066 
L 362.472727 58.835908 
L 365.381818 58.443557 
L 368.290909 58.058788 
L 371.2 57.681382 
L 374.109091 57.311129 
L 377.018182 56.947828 
L 379.927273 56.591285 
L 382.836364 56.241311 
L 385.745455 55.897727 
L 388.654545 55.560359 
L 391.563636 55.22904 
L 394.472727 54.903608 
L 397.381818 54.583907 
L 400.290909 54.269787 
L 403.2 53.961102 
" clip-path="url(#p9808ed0e3b)" style="fill: none; stroke: #ff0000; stroke-width: 1.5; stroke-linecap: square"/>
   </g>
   <g id="line2d_15">
    <defs>
     <path id="m43c5a439f2" d="M -3 3 
L 3 -3 
M -3 -3 
L 3 3 
" style="stroke: #000000"/>
    </defs>
    <g clip-path="url(#p9808ed0e3b)">
     <use xlink:href="#m43c5a439f2" x="69.12" y="281.521119" style="stroke: #000000"/>
     <use xlink:href="#m43c5a439f2" x="80.64" y="267.436384" style="stroke: #000000"/>
     <use xlink:href="#m43c5a439f2" x="92.16" y="252.928939" style="stroke: #000000"/>
     <use xlink:href="#m43c5a439f2" x="103.68" y="237.40855" style="stroke: #000000"/>
     <use xlink:href="#m43c5a439f2" x="115.2" y="221.396528" style="stroke: #000000"/>
     <use xlink:href="#m43c5a439f2" x="126.72" y="202.996386" style="stroke: #000000"/>
     <use xlink:href="#m43c5a439f2" x="138.24" y="185.884305" style="stroke: #000000"/>
     <use xlink:href="#m43c5a439f2" x="149.76" y="167.94443" style="stroke: #000000"/>
     <use xlink:href="#m43c5a439f2" x="161.28" y="149.81921" style="stroke: #000000"/>
     <use xlink:href="#m43c5a439f2" x="172.8" y="135.561132" style="stroke: #000000"/>
     <use xlink:href="#m43c5a439f2" x="184.32" y="121.063916" style="stroke: #000000"/>
     <use xlink:href="#m43c5a439f2" x="195.84" y="111.088767" style="stroke: #000000"/>
     <use xlink:href="#m43c5a439f2" x="207.36" y="103.918552" style="stroke: #000000"/>
     <use xlink:href="#m43c5a439f2" x="218.88" y="97.058085" style="stroke: #000000"/>
     <use xlink:href="#m43c5a439f2" x="230.4" y="91.166795" style="stroke: #000000"/>
     <use xlink:href="#m43c5a439f2" x="241.92" y="86.559543" style="stroke: #000000"/>
     <use xlink:href="#m43c5a439f2" x="253.44" y="82.135712" style="stroke: #000000"/>
     <use xlink:href="#m43c5a439f2" x="264.96" y="77.905424" style="stroke: #000000"/>
     <use xlink:href="#m43c5a439f2" x="276.48" y="75.354475" style="stroke: #000000"/>
     <use xlink:href="#m43c5a439f2" x="288" y="72.576767" style="stroke: #000000"/>
     <use xlink:href="#m43c5a439f2" x="299.52" y="69.820475" style="stroke: #000000"/>
     <use xlink:href="#m43c5a439f2" x="311.04" y="67.124032" style="stroke: #000000"/>
     <use xlink:href="#m43c5a439f2" x="322.56" y="65.405168" style="stroke: #000000"/>
     <use xlink:href="#m43c5a439f2" x="334.08" y="62.821901" style="stroke: #000000"/>
     <use xlink:href="#m43c5a439f2" x="345.6" y="60.84454" style="stroke: #000000"/>
     <use xlink:href="#m43c5a439f2" x="357.12" y="59.739449" style="stroke: #000000"/>
     <use xlink:href="#m43c5a439f2" x="368.64" y="57.658838" style="stroke: #000000"/>
     <use xlink:href="#m43c5a439f2" x="380.16" y="55.782279" style="stroke: #000000"/>
     <use xlink:href="#m43c5a439f2" x="391.68" y="55.19604" style="stroke: #000000"/>
     <use xlink:href="#m43c5a439f2" x="403.2" y="53.754704" style="stroke: #000000"/>
    </g>
   </g>
   <g id="line2d_16">
    <defs>
     <path id="md959834abc" d="M -3 3 
L 3 -3 
M -3 -3 
L 3 3 
" style="stroke: #008000"/>
    </defs>
    <g clip-path="url(#p9808ed0e3b)">
     <use xlink:href="#md959834abc" x="69.12" y="282.057106" style="fill: #008000; stroke: #008000"/>
     <use xlink:href="#md959834abc" x="80.64" y="267.434982" style="fill: #008000; stroke: #008000"/>
     <use xlink:href="#md959834abc" x="92.16" y="252.767502" style="fill: #008000; stroke: #008000"/>
     <use xlink:href="#md959834abc" x="103.68" y="237.187886" style="fill: #008000; stroke: #008000"/>
     <use xlink:href="#md959834abc" x="115.2" y="221.508286" style="fill: #008000; stroke: #008000"/>
     <use xlink:href="#md959834abc" x="126.72" y="203.639776" style="fill: #008000; stroke: #008000"/>
     <use xlink:href="#md959834abc" x="138.24" y="184.767173" style="fill: #008000; stroke: #008000"/>
     <use xlink:href="#md959834abc" x="149.76" y="167.07218" style="fill: #008000; stroke: #008000"/>
     <use xlink:href="#md959834abc" x="161.28" y="150.294264" style="fill: #008000; stroke: #008000"/>
     <use xlink:href="#md959834abc" x="172.8" y="134.772058" style="fill: #008000; stroke: #008000"/>
     <use xlink:href="#md959834abc" x="184.32" y="120.817378" style="fill: #008000; stroke: #008000"/>
     <use xlink:href="#md959834abc" x="195.84" y="111.679837" style="fill: #008000; stroke: #008000"/>
     <use xlink:href="#md959834abc" x="207.36" y="104.386066" style="fill: #008000; stroke: #008000"/>
     <use xlink:href="#md959834abc" x="218.88" y="97.41664" style="fill: #008000; stroke: #008000"/>
     <use xlink:href="#md959834abc" x="230.4" y="91.769041" style="fill: #008000; stroke: #008000"/>
     <use xlink:href="#md959834abc" x="241.92" y="85.828889" style="fill: #008000; stroke: #008000"/>
     <use xlink:href="#md959834abc" x="253.44" y="82.25954" style="fill: #008000; stroke: #008000"/>
     <use xlink:href="#md959834abc" x="264.96" y="78.977712" style="fill: #008000; stroke: #008000"/>
     <use xlink:href="#md959834abc" x="276.48" y="75.489491" style="fill: #008000; stroke: #008000"/>
     <use xlink:href="#md959834abc" x="288" y="72.476656" style="fill: #008000; stroke: #008000"/>
     <use xlink:href="#md959834abc" x="299.52" y="69.825187" style="fill: #008000; stroke: #008000"/>
     <use xlink:href="#md959834abc" x="311.04" y="67.129824" style="fill: #008000; stroke: #008000"/>
     <use xlink:href="#md959834abc" x="322.56" y="64.986528" style="fill: #008000; stroke: #008000"/>
     <use xlink:href="#md959834abc" x="334.08" y="62.891646" style="fill: #008000; stroke: #008000"/>
     <use xlink:href="#md959834abc" x="345.6" y="60.81235" style="fill: #008000; stroke: #008000"/>
     <use xlink:href="#md959834abc" x="357.12" y="59.315015" style="fill: #008000; stroke: #008000"/>
     <use xlink:href="#md959834abc" x="368.64" y="58.071508" style="fill: #008000; stroke: #008000"/>
     <use xlink:href="#md959834abc" x="380.16" y="56.245216" style="fill: #008000; stroke: #008000"/>
     <use xlink:href="#md959834abc" x="391.68" y="55.126" style="fill: #008000; stroke: #008000"/>
     <use xlink:href="#md959834abc" x="403.2" y="53.919463" style="fill: #008000; stroke: #008000"/>
    </g>
   </g>
   <g id="patch_3">
    <path d="M 57.6 307.584 
L 57.6 41.472 
" style="fill: none; stroke: #000000; stroke-width: 0.8; stroke-linejoin: miter; stroke-linecap: square"/>
   </g>
   <g id="patch_4">
    <path d="M 57.6 307.584 
L 414.72 307.584 
" style="fill: none; stroke: #000000; stroke-width: 0.8; stroke-linejoin: miter; stroke-linecap: square"/>
   </g>
   <g id="legend_1">
    <g id="patch_5">
     <path d="M 294.760625 302.584 
L 407.72 302.584 
Q 409.72 302.584 409.72 300.584 
L 409.72 242.8715 
Q 409.72 240.8715 407.72 240.8715 
L 294.760625 240.8715 
Q 292.760625 240.8715 292.760625 242.8715 
L 292.760625 300.584 
Q 292.760625 302.584 294.760625 302.584 
z
" style="fill: #ffffff; opacity: 0.8; stroke: #cccccc; stroke-linejoin: miter"/>
    </g>
    <g id="line2d_17">
     <path d="M 296.760625 248.969937 
L 306.760625 248.969937 
L 316.760625 248.969937 
" style="fill: none; stroke: #0000ff; stroke-width: 1.5; stroke-linecap: square"/>
    </g>
    <g id="text_15">
     <!-- Strong Coupling -->
     <g transform="translate(324.760625 252.469937) scale(0.1 -0.1)">
      <defs>
       <path id="DejaVuSans-53" d="M 3425 4513 
L 3425 3897 
Q 3066 4069 2747 4153 
Q 2428 4238 2131 4238 
Q 1616 4238 1336 4038 
Q 1056 3838 1056 3469 
Q 1056 3159 1242 3001 
Q 1428 2844 1947 2747 
L 2328 2669 
Q 3034 2534 3370 2195 
Q 3706 1856 3706 1288 
Q 3706 609 3251 259 
Q 2797 -91 1919 -91 
Q 1588 -91 1214 -16 
Q 841 59 441 206 
L 441 856 
Q 825 641 1194 531 
Q 1563 422 1919 422 
Q 2459 422 2753 634 
Q 3047 847 3047 1241 
Q 3047 1584 2836 1778 
Q 2625 1972 2144 2069 
L 1759 2144 
Q 1053 2284 737 2584 
Q 422 2884 422 3419 
Q 422 4038 858 4394 
Q 1294 4750 2059 4750 
Q 2388 4750 2728 4690 
Q 3069 4631 3425 4513 
z
" transform="scale(0.015625)"/>
       <path id="DejaVuSans-74" d="M 1172 4494 
L 1172 3500 
L 2356 3500 
L 2356 3053 
L 1172 3053 
L 1172 1153 
Q 1172 725 1289 603 
Q 1406 481 1766 481 
L 2356 481 
L 2356 0 
L 1766 0 
Q 1100 0 847 248 
Q 594 497 594 1153 
L 594 3053 
L 172 3053 
L 172 3500 
L 594 3500 
L 594 4494 
L 1172 4494 
z
" transform="scale(0.015625)"/>
       <path id="DejaVuSans-72" d="M 2631 2963 
Q 2534 3019 2420 3045 
Q 2306 3072 2169 3072 
Q 1681 3072 1420 2755 
Q 1159 2438 1159 1844 
L 1159 0 
L 581 0 
L 581 3500 
L 1159 3500 
L 1159 2956 
Q 1341 3275 1631 3429 
Q 1922 3584 2338 3584 
Q 2397 3584 2469 3576 
Q 2541 3569 2628 3553 
L 2631 2963 
z
" transform="scale(0.015625)"/>
       <path id="DejaVuSans-6f" d="M 1959 3097 
Q 1497 3097 1228 2736 
Q 959 2375 959 1747 
Q 959 1119 1226 758 
Q 1494 397 1959 397 
Q 2419 397 2687 759 
Q 2956 1122 2956 1747 
Q 2956 2369 2687 2733 
Q 2419 3097 1959 3097 
z
M 1959 3584 
Q 2709 3584 3137 3096 
Q 3566 2609 3566 1747 
Q 3566 888 3137 398 
Q 2709 -91 1959 -91 
Q 1206 -91 779 398 
Q 353 888 353 1747 
Q 353 2609 779 3096 
Q 1206 3584 1959 3584 
z
" transform="scale(0.015625)"/>
       <path id="DejaVuSans-6e" d="M 3513 2113 
L 3513 0 
L 2938 0 
L 2938 2094 
Q 2938 2591 2744 2837 
Q 2550 3084 2163 3084 
Q 1697 3084 1428 2787 
Q 1159 2491 1159 1978 
L 1159 0 
L 581 0 
L 581 3500 
L 1159 3500 
L 1159 2956 
Q 1366 3272 1645 3428 
Q 1925 3584 2291 3584 
Q 2894 3584 3203 3211 
Q 3513 2838 3513 2113 
z
" transform="scale(0.015625)"/>
       <path id="DejaVuSans-67" d="M 2906 1791 
Q 2906 2416 2648 2759 
Q 2391 3103 1925 3103 
Q 1463 3103 1205 2759 
Q 947 2416 947 1791 
Q 947 1169 1205 825 
Q 1463 481 1925 481 
Q 2391 481 2648 825 
Q 2906 1169 2906 1791 
z
M 3481 434 
Q 3481 -459 3084 -895 
Q 2688 -1331 1869 -1331 
Q 1566 -1331 1297 -1286 
Q 1028 -1241 775 -1147 
L 775 -588 
Q 1028 -725 1275 -790 
Q 1522 -856 1778 -856 
Q 2344 -856 2625 -561 
Q 2906 -266 2906 331 
L 2906 616 
Q 2728 306 2450 153 
Q 2172 0 1784 0 
Q 1141 0 747 490 
Q 353 981 353 1791 
Q 353 2603 747 3093 
Q 1141 3584 1784 3584 
Q 2172 3584 2450 3431 
Q 2728 3278 2906 2969 
L 2906 3500 
L 3481 3500 
L 3481 434 
z
" transform="scale(0.015625)"/>
       <path id="DejaVuSans-20" transform="scale(0.015625)"/>
       <path id="DejaVuSans-43" d="M 4122 4306 
L 4122 3641 
Q 3803 3938 3442 4084 
Q 3081 4231 2675 4231 
Q 1875 4231 1450 3742 
Q 1025 3253 1025 2328 
Q 1025 1406 1450 917 
Q 1875 428 2675 428 
Q 3081 428 3442 575 
Q 3803 722 4122 1019 
L 4122 359 
Q 3791 134 3420 21 
Q 3050 -91 2638 -91 
Q 1578 -91 968 557 
Q 359 1206 359 2328 
Q 359 3453 968 4101 
Q 1578 4750 2638 4750 
Q 3056 4750 3426 4639 
Q 3797 4528 4122 4306 
z
" transform="scale(0.015625)"/>
       <path id="DejaVuSans-75" d="M 544 1381 
L 544 3500 
L 1119 3500 
L 1119 1403 
Q 1119 906 1312 657 
Q 1506 409 1894 409 
Q 2359 409 2629 706 
Q 2900 1003 2900 1516 
L 2900 3500 
L 3475 3500 
L 3475 0 
L 2900 0 
L 2900 538 
Q 2691 219 2414 64 
Q 2138 -91 1772 -91 
Q 1169 -91 856 284 
Q 544 659 544 1381 
z
M 1991 3584 
L 1991 3584 
z
" transform="scale(0.015625)"/>
       <path id="DejaVuSans-70" d="M 1159 525 
L 1159 -1331 
L 581 -1331 
L 581 3500 
L 1159 3500 
L 1159 2969 
Q 1341 3281 1617 3432 
Q 1894 3584 2278 3584 
Q 2916 3584 3314 3078 
Q 3713 2572 3713 1747 
Q 3713 922 3314 415 
Q 2916 -91 2278 -91 
Q 1894 -91 1617 61 
Q 1341 213 1159 525 
z
M 3116 1747 
Q 3116 2381 2855 2742 
Q 2594 3103 2138 3103 
Q 1681 3103 1420 2742 
Q 1159 2381 1159 1747 
Q 1159 1113 1420 752 
Q 1681 391 2138 391 
Q 2594 391 2855 752 
Q 3116 1113 3116 1747 
z
" transform="scale(0.015625)"/>
       <path id="DejaVuSans-6c" d="M 603 4863 
L 1178 4863 
L 1178 0 
L 603 0 
L 603 4863 
z
" transform="scale(0.015625)"/>
       <path id="DejaVuSans-69" d="M 603 3500 
L 1178 3500 
L 1178 0 
L 603 0 
L 603 3500 
z
M 603 4863 
L 1178 4863 
L 1178 4134 
L 603 4134 
L 603 4863 
z
" transform="scale(0.015625)"/>
      </defs>
      <use xlink:href="#DejaVuSans-53"/>
      <use xlink:href="#DejaVuSans-74" x="63.476562"/>
      <use xlink:href="#DejaVuSans-72" x="102.685547"/>
      <use xlink:href="#DejaVuSans-6f" x="141.548828"/>
      <use xlink:href="#DejaVuSans-6e" x="202.730469"/>
      <use xlink:href="#DejaVuSans-67" x="266.109375"/>
      <use xlink:href="#DejaVuSans-20" x="329.585938"/>
      <use xlink:href="#DejaVuSans-43" x="361.373047"/>
      <use xlink:href="#DejaVuSans-6f" x="431.197266"/>
      <use xlink:href="#DejaVuSans-75" x="492.378906"/>
      <use xlink:href="#DejaVuSans-70" x="555.757812"/>
      <use xlink:href="#DejaVuSans-6c" x="619.234375"/>
      <use xlink:href="#DejaVuSans-69" x="647.017578"/>
      <use xlink:href="#DejaVuSans-6e" x="674.800781"/>
      <use xlink:href="#DejaVuSans-67" x="738.179688"/>
     </g>
    </g>
    <g id="line2d_18">
     <path d="M 296.760625 263.648062 
L 306.760625 263.648062 
L 316.760625 263.648062 
" style="fill: none; stroke: #ff0000; stroke-width: 1.5; stroke-linecap: square"/>
    </g>
    <g id="text_16">
     <!-- Weak Coupling -->
     <g transform="translate(324.760625 267.148062) scale(0.1 -0.1)">
      <defs>
       <path id="DejaVuSans-57" d="M 213 4666 
L 850 4666 
L 1831 722 
L 2809 4666 
L 3519 4666 
L 4500 722 
L 5478 4666 
L 6119 4666 
L 4947 0 
L 4153 0 
L 3169 4050 
L 2175 0 
L 1381 0 
L 213 4666 
z
" transform="scale(0.015625)"/>
       <path id="DejaVuSans-65" d="M 3597 1894 
L 3597 1613 
L 953 1613 
Q 991 1019 1311 708 
Q 1631 397 2203 397 
Q 2534 397 2845 478 
Q 3156 559 3463 722 
L 3463 178 
Q 3153 47 2828 -22 
Q 2503 -91 2169 -91 
Q 1331 -91 842 396 
Q 353 884 353 1716 
Q 353 2575 817 3079 
Q 1281 3584 2069 3584 
Q 2775 3584 3186 3129 
Q 3597 2675 3597 1894 
z
M 3022 2063 
Q 3016 2534 2758 2815 
Q 2500 3097 2075 3097 
Q 1594 3097 1305 2825 
Q 1016 2553 972 2059 
L 3022 2063 
z
" transform="scale(0.015625)"/>
       <path id="DejaVuSans-61" d="M 2194 1759 
Q 1497 1759 1228 1600 
Q 959 1441 959 1056 
Q 959 750 1161 570 
Q 1363 391 1709 391 
Q 2188 391 2477 730 
Q 2766 1069 2766 1631 
L 2766 1759 
L 2194 1759 
z
M 3341 1997 
L 3341 0 
L 2766 0 
L 2766 531 
Q 2569 213 2275 61 
Q 1981 -91 1556 -91 
Q 1019 -91 701 211 
Q 384 513 384 1019 
Q 384 1609 779 1909 
Q 1175 2209 1959 2209 
L 2766 2209 
L 2766 2266 
Q 2766 2663 2505 2880 
Q 2244 3097 1772 3097 
Q 1472 3097 1187 3025 
Q 903 2953 641 2809 
L 641 3341 
Q 956 3463 1253 3523 
Q 1550 3584 1831 3584 
Q 2591 3584 2966 3190 
Q 3341 2797 3341 1997 
z
" transform="scale(0.015625)"/>
       <path id="DejaVuSans-6b" d="M 581 4863 
L 1159 4863 
L 1159 1991 
L 2875 3500 
L 3609 3500 
L 1753 1863 
L 3688 0 
L 2938 0 
L 1159 1709 
L 1159 0 
L 581 0 
L 581 4863 
z
" transform="scale(0.015625)"/>
      </defs>
      <use xlink:href="#DejaVuSans-57"/>
      <use xlink:href="#DejaVuSans-65" x="93.001953"/>
      <use xlink:href="#DejaVuSans-61" x="154.525391"/>
      <use xlink:href="#DejaVuSans-6b" x="215.804688"/>
      <use xlink:href="#DejaVuSans-20" x="273.714844"/>
      <use xlink:href="#DejaVuSans-43" x="305.501953"/>
      <use xlink:href="#DejaVuSans-6f" x="375.326172"/>
      <use xlink:href="#DejaVuSans-75" x="436.507812"/>
      <use xlink:href="#DejaVuSans-70" x="499.886719"/>
      <use xlink:href="#DejaVuSans-6c" x="563.363281"/>
      <use xlink:href="#DejaVuSans-69" x="591.146484"/>
      <use xlink:href="#DejaVuSans-6e" x="618.929688"/>
      <use xlink:href="#DejaVuSans-67" x="682.308594"/>
     </g>
    </g>
    <g id="LineCollection_3">
     <path d="M 306.760625 283.326187 
L 306.760625 273.326187 
" style="fill: none; stroke: #000000; stroke-width: 1.5"/>
    </g>
    <g id="line2d_19"/>
    <g id="line2d_20">
     <g>
      <use xlink:href="#m43c5a439f2" x="306.760625" y="278.326187" style="stroke: #000000"/>
     </g>
    </g>
    <g id="text_17">
     <!-- Data -->
     <g transform="translate(324.760625 281.826187) scale(0.1 -0.1)">
      <defs>
       <path id="DejaVuSans-44" d="M 1259 4147 
L 1259 519 
L 2022 519 
Q 2988 519 3436 956 
Q 3884 1394 3884 2338 
Q 3884 3275 3436 3711 
Q 2988 4147 2022 4147 
L 1259 4147 
z
M 628 4666 
L 1925 4666 
Q 3281 4666 3915 4102 
Q 4550 3538 4550 2338 
Q 4550 1131 3912 565 
Q 3275 0 1925 0 
L 628 0 
L 628 4666 
z
" transform="scale(0.015625)"/>
      </defs>
      <use xlink:href="#DejaVuSans-44"/>
      <use xlink:href="#DejaVuSans-61" x="77.001953"/>
      <use xlink:href="#DejaVuSans-74" x="138.28125"/>
      <use xlink:href="#DejaVuSans-61" x="177.490234"/>
     </g>
    </g>
    <g id="LineCollection_4">
     <path d="M 306.760625 298.004312 
L 306.760625 288.004312 
" style="fill: none; stroke: #008000; stroke-width: 1.5"/>
    </g>
    <g id="line2d_21"/>
    <g id="line2d_22">
     <g>
      <use xlink:href="#md959834abc" x="306.760625" y="293.004312" style="fill: #008000; stroke: #008000"/>
     </g>
    </g>
    <g id="text_18">
     <!-- Data with Taylor -->
     <g transform="translate(324.760625 296.504312) scale(0.1 -0.1)">
      <defs>
       <path id="DejaVuSans-77" d="M 269 3500 
L 844 3500 
L 1563 769 
L 2278 3500 
L 2956 3500 
L 3675 769 
L 4391 3500 
L 4966 3500 
L 4050 0 
L 3372 0 
L 2619 2869 
L 1863 0 
L 1184 0 
L 269 3500 
z
" transform="scale(0.015625)"/>
       <path id="DejaVuSans-68" d="M 3513 2113 
L 3513 0 
L 2938 0 
L 2938 2094 
Q 2938 2591 2744 2837 
Q 2550 3084 2163 3084 
Q 1697 3084 1428 2787 
Q 1159 2491 1159 1978 
L 1159 0 
L 581 0 
L 581 4863 
L 1159 4863 
L 1159 2956 
Q 1366 3272 1645 3428 
Q 1925 3584 2291 3584 
Q 2894 3584 3203 3211 
Q 3513 2838 3513 2113 
z
" transform="scale(0.015625)"/>
       <path id="DejaVuSans-54" d="M -19 4666 
L 3928 4666 
L 3928 4134 
L 2272 4134 
L 2272 0 
L 1638 0 
L 1638 4134 
L -19 4134 
L -19 4666 
z
" transform="scale(0.015625)"/>
       <path id="DejaVuSans-79" d="M 2059 -325 
Q 1816 -950 1584 -1140 
Q 1353 -1331 966 -1331 
L 506 -1331 
L 506 -850 
L 844 -850 
Q 1081 -850 1212 -737 
Q 1344 -625 1503 -206 
L 1606 56 
L 191 3500 
L 800 3500 
L 1894 763 
L 2988 3500 
L 3597 3500 
L 2059 -325 
z
" transform="scale(0.015625)"/>
      </defs>
      <use xlink:href="#DejaVuSans-44"/>
      <use xlink:href="#DejaVuSans-61" x="77.001953"/>
      <use xlink:href="#DejaVuSans-74" x="138.28125"/>
      <use xlink:href="#DejaVuSans-61" x="177.490234"/>
      <use xlink:href="#DejaVuSans-20" x="238.769531"/>
      <use xlink:href="#DejaVuSans-77" x="270.556641"/>
      <use xlink:href="#DejaVuSans-69" x="352.34375"/>
      <use xlink:href="#DejaVuSans-74" x="380.126953"/>
      <use xlink:href="#DejaVuSans-68" x="419.335938"/>
      <use xlink:href="#DejaVuSans-20" x="482.714844"/>
      <use xlink:href="#DejaVuSans-54" x="514.501953"/>
      <use xlink:href="#DejaVuSans-61" x="559.085938"/>
      <use xlink:href="#DejaVuSans-79" x="620.365234"/>
      <use xlink:href="#DejaVuSans-6c" x="679.544922"/>
      <use xlink:href="#DejaVuSans-6f" x="707.328125"/>
      <use xlink:href="#DejaVuSans-72" x="768.509766"/>
     </g>
    </g>
   </g>
  </g>
 </g>
 <defs>
  <clipPath id="p9808ed0e3b">
   <rect x="57.6" y="41.472" width="357.12" height="266.112"/>
  </clipPath>
 </defs>
</svg>
