<?xml version="1.0" encoding="utf-8" standalone="no"?>
<!DOCTYPE svg PUBLIC "-//W3C//DTD SVG 1.1//EN"
  "http://www.w3.org/Graphics/SVG/1.1/DTD/svg11.dtd">
<svg xmlns:xlink="http://www.w3.org/1999/xlink" width="460.8pt" height="345.6pt" viewBox="0 0 460.8 345.6" xmlns="http://www.w3.org/2000/svg" version="1.1">
 <metadata>
  <rdf:RDF xmlns:dc="http://purl.org/dc/elements/1.1/" xmlns:cc="http://creativecommons.org/ns#" xmlns:rdf="http://www.w3.org/1999/02/22-rdf-syntax-ns#">
   <cc:Work>
    <dc:type rdf:resource="http://purl.org/dc/dcmitype/StillImage"/>
    <dc:date>2023-10-06T00:04:44.552876</dc:date>
    <dc:format>image/svg+xml</dc:format>
    <dc:creator>
     <cc:Agent>
      <dc:title>Matplotlib v3.6.2, https://matplotlib.org/</dc:title>
     </cc:Agent>
    </dc:creator>
   </cc:Work>
  </rdf:RDF>
 </metadata>
 <defs>
  <style type="text/css">*{stroke-linejoin: round; stroke-linecap: butt}</style>
 </defs>
 <g id="figure_1">
  <g id="patch_1">
   <path d="M 0 345.6 
L 460.8 345.6 
L 460.8 0 
L 0 0 
z
" style="fill: #ffffff"/>
  </g>
  <g id="axes_1">
   <g id="patch_2">
    <path d="M 57.6 307.584 
L 414.72 307.584 
L 414.72 41.472 
L 57.6 41.472 
z
" style="fill: #ffffff"/>
   </g>
   <g id="matplotlib.axis_1">
    <g id="xtick_1">
     <g id="line2d_1">
      <defs>
       <path id="m14ee1bb0d5" d="M 0 0 
L 0 3.5 
" style="stroke: #000000; stroke-width: 0.8"/>
      </defs>
      <g>
       <use xlink:href="#m14ee1bb0d5" x="73.832727" y="307.584" style="stroke: #000000; stroke-width: 0.8"/>
      </g>
     </g>
     <g id="text_1">
      <!-- $\mathdefault{10^{-2}}$ -->
      <g transform="translate(62.082727 322.182437) scale(0.1 -0.1)">
       <defs>
        <path id="DejaVuSans-31" d="M 794 531 
L 1825 531 
L 1825 4091 
L 703 3866 
L 703 4441 
L 1819 4666 
L 2450 4666 
L 2450 531 
L 3481 531 
L 3481 0 
L 794 0 
L 794 531 
z
" transform="scale(0.015625)"/>
        <path id="DejaVuSans-30" d="M 2034 4250 
Q 1547 4250 1301 3770 
Q 1056 3291 1056 2328 
Q 1056 1369 1301 889 
Q 1547 409 2034 409 
Q 2525 409 2770 889 
Q 3016 1369 3016 2328 
Q 3016 3291 2770 3770 
Q 2525 4250 2034 4250 
z
M 2034 4750 
Q 2819 4750 3233 4129 
Q 3647 3509 3647 2328 
Q 3647 1150 3233 529 
Q 2819 -91 2034 -91 
Q 1250 -91 836 529 
Q 422 1150 422 2328 
Q 422 3509 836 4129 
Q 1250 4750 2034 4750 
z
" transform="scale(0.015625)"/>
        <path id="DejaVuSans-2212" d="M 678 2272 
L 4684 2272 
L 4684 1741 
L 678 1741 
L 678 2272 
z
" transform="scale(0.015625)"/>
        <path id="DejaVuSans-32" d="M 1228 531 
L 3431 531 
L 3431 0 
L 469 0 
L 469 531 
Q 828 903 1448 1529 
Q 2069 2156 2228 2338 
Q 2531 2678 2651 2914 
Q 2772 3150 2772 3378 
Q 2772 3750 2511 3984 
Q 2250 4219 1831 4219 
Q 1534 4219 1204 4116 
Q 875 4013 500 3803 
L 500 4441 
Q 881 4594 1212 4672 
Q 1544 4750 1819 4750 
Q 2544 4750 2975 4387 
Q 3406 4025 3406 3419 
Q 3406 3131 3298 2873 
Q 3191 2616 2906 2266 
Q 2828 2175 2409 1742 
Q 1991 1309 1228 531 
z
" transform="scale(0.015625)"/>
       </defs>
       <use xlink:href="#DejaVuSans-31" transform="translate(0 0.765625)"/>
       <use xlink:href="#DejaVuSans-30" transform="translate(63.623047 0.765625)"/>
       <use xlink:href="#DejaVuSans-2212" transform="translate(128.203125 39.046875) scale(0.7)"/>
       <use xlink:href="#DejaVuSans-32" transform="translate(186.855469 39.046875) scale(0.7)"/>
      </g>
     </g>
    </g>
    <g id="xtick_2">
     <g id="line2d_2">
      <g>
       <use xlink:href="#m14ee1bb0d5" x="236.16" y="307.584" style="stroke: #000000; stroke-width: 0.8"/>
      </g>
     </g>
     <g id="text_2">
      <!-- $\mathdefault{10^{-1}}$ -->
      <g transform="translate(224.41 322.182437) scale(0.1 -0.1)">
       <use xlink:href="#DejaVuSans-31" transform="translate(0 0.684375)"/>
       <use xlink:href="#DejaVuSans-30" transform="translate(63.623047 0.684375)"/>
       <use xlink:href="#DejaVuSans-2212" transform="translate(128.203125 38.965625) scale(0.7)"/>
       <use xlink:href="#DejaVuSans-31" transform="translate(186.855469 38.965625) scale(0.7)"/>
      </g>
     </g>
    </g>
    <g id="xtick_3">
     <g id="line2d_3">
      <g>
       <use xlink:href="#m14ee1bb0d5" x="398.487273" y="307.584" style="stroke: #000000; stroke-width: 0.8"/>
      </g>
     </g>
     <g id="text_3">
      <!-- $\mathdefault{10^{0}}$ -->
      <g transform="translate(389.687273 322.182437) scale(0.1 -0.1)">
       <use xlink:href="#DejaVuSans-31" transform="translate(0 0.765625)"/>
       <use xlink:href="#DejaVuSans-30" transform="translate(63.623047 0.765625)"/>
       <use xlink:href="#DejaVuSans-30" transform="translate(128.203125 39.046875) scale(0.7)"/>
      </g>
     </g>
    </g>
    <g id="xtick_4">
     <g id="line2d_4">
      <defs>
       <path id="m1787d7cebf" d="M 0 0 
L 0 2 
" style="stroke: #000000; stroke-width: 0.6"/>
      </defs>
      <g>
       <use xlink:href="#m1787d7cebf" x="58.101589" y="307.584" style="stroke: #000000; stroke-width: 0.6"/>
      </g>
     </g>
    </g>
    <g id="xtick_5">
     <g id="line2d_5">
      <g>
       <use xlink:href="#m1787d7cebf" x="66.405039" y="307.584" style="stroke: #000000; stroke-width: 0.6"/>
      </g>
     </g>
    </g>
    <g id="xtick_6">
     <g id="line2d_6">
      <g>
       <use xlink:href="#m1787d7cebf" x="122.698105" y="307.584" style="stroke: #000000; stroke-width: 0.6"/>
      </g>
     </g>
    </g>
    <g id="xtick_7">
     <g id="line2d_7">
      <g>
       <use xlink:href="#m1787d7cebf" x="151.282519" y="307.584" style="stroke: #000000; stroke-width: 0.6"/>
      </g>
     </g>
    </g>
    <g id="xtick_8">
     <g id="line2d_8">
      <g>
       <use xlink:href="#m1787d7cebf" x="171.563484" y="307.584" style="stroke: #000000; stroke-width: 0.6"/>
      </g>
     </g>
    </g>
    <g id="xtick_9">
     <g id="line2d_9">
      <g>
       <use xlink:href="#m1787d7cebf" x="187.294622" y="307.584" style="stroke: #000000; stroke-width: 0.6"/>
      </g>
     </g>
    </g>
    <g id="xtick_10">
     <g id="line2d_10">
      <g>
       <use xlink:href="#m1787d7cebf" x="200.147898" y="307.584" style="stroke: #000000; stroke-width: 0.6"/>
      </g>
     </g>
    </g>
    <g id="xtick_11">
     <g id="line2d_11">
      <g>
       <use xlink:href="#m1787d7cebf" x="211.015187" y="307.584" style="stroke: #000000; stroke-width: 0.6"/>
      </g>
     </g>
    </g>
    <g id="xtick_12">
     <g id="line2d_12">
      <g>
       <use xlink:href="#m1787d7cebf" x="220.428862" y="307.584" style="stroke: #000000; stroke-width: 0.6"/>
      </g>
     </g>
    </g>
    <g id="xtick_13">
     <g id="line2d_13">
      <g>
       <use xlink:href="#m1787d7cebf" x="228.732311" y="307.584" style="stroke: #000000; stroke-width: 0.6"/>
      </g>
     </g>
    </g>
    <g id="xtick_14">
     <g id="line2d_14">
      <g>
       <use xlink:href="#m1787d7cebf" x="285.025378" y="307.584" style="stroke: #000000; stroke-width: 0.6"/>
      </g>
     </g>
    </g>
    <g id="xtick_15">
     <g id="line2d_15">
      <g>
       <use xlink:href="#m1787d7cebf" x="313.609792" y="307.584" style="stroke: #000000; stroke-width: 0.6"/>
      </g>
     </g>
    </g>
    <g id="xtick_16">
     <g id="line2d_16">
      <g>
       <use xlink:href="#m1787d7cebf" x="333.890756" y="307.584" style="stroke: #000000; stroke-width: 0.6"/>
      </g>
     </g>
    </g>
    <g id="xtick_17">
     <g id="line2d_17">
      <g>
       <use xlink:href="#m1787d7cebf" x="349.621895" y="307.584" style="stroke: #000000; stroke-width: 0.6"/>
      </g>
     </g>
    </g>
    <g id="xtick_18">
     <g id="line2d_18">
      <g>
       <use xlink:href="#m1787d7cebf" x="362.47517" y="307.584" style="stroke: #000000; stroke-width: 0.6"/>
      </g>
     </g>
    </g>
    <g id="xtick_19">
     <g id="line2d_19">
      <g>
       <use xlink:href="#m1787d7cebf" x="373.34246" y="307.584" style="stroke: #000000; stroke-width: 0.6"/>
      </g>
     </g>
    </g>
    <g id="xtick_20">
     <g id="line2d_20">
      <g>
       <use xlink:href="#m1787d7cebf" x="382.756135" y="307.584" style="stroke: #000000; stroke-width: 0.6"/>
      </g>
     </g>
    </g>
    <g id="xtick_21">
     <g id="line2d_21">
      <g>
       <use xlink:href="#m1787d7cebf" x="391.059584" y="307.584" style="stroke: #000000; stroke-width: 0.6"/>
      </g>
     </g>
    </g>
   </g>
   <g id="matplotlib.axis_2">
    <g id="ytick_1">
     <g id="line2d_22">
      <defs>
       <path id="m75974b9373" d="M 0 0 
L -3.5 0 
" style="stroke: #000000; stroke-width: 0.8"/>
      </defs>
      <g>
       <use xlink:href="#m75974b9373" x="57.6" y="226.151808" style="stroke: #000000; stroke-width: 0.8"/>
      </g>
     </g>
     <g id="text_4">
      <!-- $\mathdefault{10^{1}}$ -->
      <g transform="translate(33 229.951027) scale(0.1 -0.1)">
       <use xlink:href="#DejaVuSans-31" transform="translate(0 0.684375)"/>
       <use xlink:href="#DejaVuSans-30" transform="translate(63.623047 0.684375)"/>
       <use xlink:href="#DejaVuSans-31" transform="translate(128.203125 38.965625) scale(0.7)"/>
      </g>
     </g>
    </g>
    <g id="ytick_2">
     <g id="line2d_23">
      <g>
       <use xlink:href="#m75974b9373" x="57.6" y="114.682737" style="stroke: #000000; stroke-width: 0.8"/>
      </g>
     </g>
     <g id="text_5">
      <!-- $\mathdefault{10^{2}}$ -->
      <g transform="translate(33 118.481956) scale(0.1 -0.1)">
       <use xlink:href="#DejaVuSans-31" transform="translate(0 0.765625)"/>
       <use xlink:href="#DejaVuSans-30" transform="translate(63.623047 0.765625)"/>
       <use xlink:href="#DejaVuSans-32" transform="translate(128.203125 39.046875) scale(0.7)"/>
      </g>
     </g>
    </g>
    <g id="ytick_3">
     <g id="line2d_24">
      <defs>
       <path id="mf708d6c237" d="M 0 0 
L -2 0 
" style="stroke: #000000; stroke-width: 0.6"/>
      </defs>
      <g>
       <use xlink:href="#mf708d6c237" x="57.6" y="304.065345" style="stroke: #000000; stroke-width: 0.6"/>
      </g>
     </g>
    </g>
    <g id="ytick_4">
     <g id="line2d_25">
      <g>
       <use xlink:href="#mf708d6c237" x="57.6" y="284.436616" style="stroke: #000000; stroke-width: 0.6"/>
      </g>
     </g>
    </g>
    <g id="ytick_5">
     <g id="line2d_26">
      <g>
       <use xlink:href="#mf708d6c237" x="57.6" y="270.509811" style="stroke: #000000; stroke-width: 0.6"/>
      </g>
     </g>
    </g>
    <g id="ytick_6">
     <g id="line2d_27">
      <g>
       <use xlink:href="#mf708d6c237" x="57.6" y="259.707342" style="stroke: #000000; stroke-width: 0.6"/>
      </g>
     </g>
    </g>
    <g id="ytick_7">
     <g id="line2d_28">
      <g>
       <use xlink:href="#mf708d6c237" x="57.6" y="250.881082" style="stroke: #000000; stroke-width: 0.6"/>
      </g>
     </g>
    </g>
    <g id="ytick_8">
     <g id="line2d_29">
      <g>
       <use xlink:href="#mf708d6c237" x="57.6" y="243.418585" style="stroke: #000000; stroke-width: 0.6"/>
      </g>
     </g>
    </g>
    <g id="ytick_9">
     <g id="line2d_30">
      <g>
       <use xlink:href="#mf708d6c237" x="57.6" y="236.954277" style="stroke: #000000; stroke-width: 0.6"/>
      </g>
     </g>
    </g>
    <g id="ytick_10">
     <g id="line2d_31">
      <g>
       <use xlink:href="#mf708d6c237" x="57.6" y="231.252353" style="stroke: #000000; stroke-width: 0.6"/>
      </g>
     </g>
    </g>
    <g id="ytick_11">
     <g id="line2d_32">
      <g>
       <use xlink:href="#mf708d6c237" x="57.6" y="192.596274" style="stroke: #000000; stroke-width: 0.6"/>
      </g>
     </g>
    </g>
    <g id="ytick_12">
     <g id="line2d_33">
      <g>
       <use xlink:href="#mf708d6c237" x="57.6" y="172.967545" style="stroke: #000000; stroke-width: 0.6"/>
      </g>
     </g>
    </g>
    <g id="ytick_13">
     <g id="line2d_34">
      <g>
       <use xlink:href="#mf708d6c237" x="57.6" y="159.04074" style="stroke: #000000; stroke-width: 0.6"/>
      </g>
     </g>
    </g>
    <g id="ytick_14">
     <g id="line2d_35">
      <g>
       <use xlink:href="#mf708d6c237" x="57.6" y="148.238271" style="stroke: #000000; stroke-width: 0.6"/>
      </g>
     </g>
    </g>
    <g id="ytick_15">
     <g id="line2d_36">
      <g>
       <use xlink:href="#mf708d6c237" x="57.6" y="139.412011" style="stroke: #000000; stroke-width: 0.6"/>
      </g>
     </g>
    </g>
    <g id="ytick_16">
     <g id="line2d_37">
      <g>
       <use xlink:href="#mf708d6c237" x="57.6" y="131.949515" style="stroke: #000000; stroke-width: 0.6"/>
      </g>
     </g>
    </g>
    <g id="ytick_17">
     <g id="line2d_38">
      <g>
       <use xlink:href="#mf708d6c237" x="57.6" y="125.485206" style="stroke: #000000; stroke-width: 0.6"/>
      </g>
     </g>
    </g>
    <g id="ytick_18">
     <g id="line2d_39">
      <g>
       <use xlink:href="#mf708d6c237" x="57.6" y="119.783282" style="stroke: #000000; stroke-width: 0.6"/>
      </g>
     </g>
    </g>
    <g id="ytick_19">
     <g id="line2d_40">
      <g>
       <use xlink:href="#mf708d6c237" x="57.6" y="81.127203" style="stroke: #000000; stroke-width: 0.6"/>
      </g>
     </g>
    </g>
    <g id="ytick_20">
     <g id="line2d_41">
      <g>
       <use xlink:href="#mf708d6c237" x="57.6" y="61.498474" style="stroke: #000000; stroke-width: 0.6"/>
      </g>
     </g>
    </g>
    <g id="ytick_21">
     <g id="line2d_42">
      <g>
       <use xlink:href="#mf708d6c237" x="57.6" y="47.571669" style="stroke: #000000; stroke-width: 0.6"/>
      </g>
     </g>
    </g>
   </g>
   <g id="LineCollection_1">
    <path d="M 398.487273 292.203139 
L 398.487273 290.126246 
" clip-path="url(#pf728e6fd6e)" style="fill: none; stroke: #ff0000; stroke-width: 1.5"/>
    <path d="M 375.297662 292.253591 
L 375.297662 290.176698 
" clip-path="url(#pf728e6fd6e)" style="fill: none; stroke: #ff0000; stroke-width: 1.5"/>
    <path d="M 352.108052 292.255836 
L 352.108052 290.178943 
" clip-path="url(#pf728e6fd6e)" style="fill: none; stroke: #ff0000; stroke-width: 1.5"/>
    <path d="M 328.918442 291.945429 
L 328.918442 289.868535 
" clip-path="url(#pf728e6fd6e)" style="fill: none; stroke: #ff0000; stroke-width: 1.5"/>
    <path d="M 305.728831 292.020156 
L 305.728831 289.943263 
" clip-path="url(#pf728e6fd6e)" style="fill: none; stroke: #ff0000; stroke-width: 1.5"/>
    <path d="M 282.539221 293.342399 
L 282.539221 291.265505 
" clip-path="url(#pf728e6fd6e)" style="fill: none; stroke: #ff0000; stroke-width: 1.5"/>
    <path d="M 259.34961 292.059817 
L 259.34961 289.982924 
" clip-path="url(#pf728e6fd6e)" style="fill: none; stroke: #ff0000; stroke-width: 1.5"/>
    <path d="M 236.16 293.15068 
L 236.16 291.073787 
" clip-path="url(#pf728e6fd6e)" style="fill: none; stroke: #ff0000; stroke-width: 1.5"/>
    <path d="M 212.97039 293.453208 
L 212.97039 291.376314 
" clip-path="url(#pf728e6fd6e)" style="fill: none; stroke: #ff0000; stroke-width: 1.5"/>
    <path d="M 189.780779 293.345204 
L 189.780779 291.268311 
" clip-path="url(#pf728e6fd6e)" style="fill: none; stroke: #ff0000; stroke-width: 1.5"/>
    <path d="M 166.591169 291.855291 
L 166.591169 289.778398 
" clip-path="url(#pf728e6fd6e)" style="fill: none; stroke: #ff0000; stroke-width: 1.5"/>
    <path d="M 143.401558 293.263217 
L 143.401558 291.186323 
" clip-path="url(#pf728e6fd6e)" style="fill: none; stroke: #ff0000; stroke-width: 1.5"/>
    <path d="M 120.211948 291.856013 
L 120.211948 289.77912 
" clip-path="url(#pf728e6fd6e)" style="fill: none; stroke: #ff0000; stroke-width: 1.5"/>
    <path d="M 97.022338 292.247745 
L 97.022338 290.170851 
" clip-path="url(#pf728e6fd6e)" style="fill: none; stroke: #ff0000; stroke-width: 1.5"/>
    <path d="M 73.832727 291.877797 
L 73.832727 289.800903 
" clip-path="url(#pf728e6fd6e)" style="fill: none; stroke: #ff0000; stroke-width: 1.5"/>
   </g>
   <g id="LineCollection_2">
    <path d="M 398.487273 295.488 
L 398.487273 293.503486 
" clip-path="url(#pf728e6fd6e)" style="fill: none; stroke: #000000; stroke-width: 1.5"/>
    <path d="M 375.297662 274.962146 
L 375.297662 272.550829 
" clip-path="url(#pf728e6fd6e)" style="fill: none; stroke: #000000; stroke-width: 1.5"/>
    <path d="M 352.108052 262.274418 
L 352.108052 259.501133 
" clip-path="url(#pf728e6fd6e)" style="fill: none; stroke: #000000; stroke-width: 1.5"/>
    <path d="M 328.918442 241.941653 
L 328.918442 238.558471 
" clip-path="url(#pf728e6fd6e)" style="fill: none; stroke: #000000; stroke-width: 1.5"/>
    <path d="M 305.728831 229.074447 
L 305.728831 225.175379 
" clip-path="url(#pf728e6fd6e)" style="fill: none; stroke: #000000; stroke-width: 1.5"/>
    <path d="M 282.539221 217.19162 
L 282.539221 212.794171 
" clip-path="url(#pf728e6fd6e)" style="fill: none; stroke: #000000; stroke-width: 1.5"/>
    <path d="M 259.34961 196.202402 
L 259.34961 190.736734 
" clip-path="url(#pf728e6fd6e)" style="fill: none; stroke: #000000; stroke-width: 1.5"/>
    <path d="M 236.16 178.633912 
L 236.16 172.042783 
" clip-path="url(#pf728e6fd6e)" style="fill: none; stroke: #000000; stroke-width: 1.5"/>
    <path d="M 212.97039 165.362393 
L 212.97039 157.760109 
" clip-path="url(#pf728e6fd6e)" style="fill: none; stroke: #000000; stroke-width: 1.5"/>
    <path d="M 189.780779 146.798791 
L 189.780779 137.514041 
" clip-path="url(#pf728e6fd6e)" style="fill: none; stroke: #000000; stroke-width: 1.5"/>
    <path d="M 166.591169 135.539741 
L 166.591169 125.025837 
" clip-path="url(#pf728e6fd6e)" style="fill: none; stroke: #000000; stroke-width: 1.5"/>
    <path d="M 143.401558 116.024982 
L 143.401558 102.948969 
" clip-path="url(#pf728e6fd6e)" style="fill: none; stroke: #000000; stroke-width: 1.5"/>
    <path d="M 120.211948 108.074486 
L 120.211948 93.761203 
" clip-path="url(#pf728e6fd6e)" style="fill: none; stroke: #000000; stroke-width: 1.5"/>
    <path d="M 97.022338 92.664075 
L 97.022338 75.545646 
" clip-path="url(#pf728e6fd6e)" style="fill: none; stroke: #000000; stroke-width: 1.5"/>
    <path d="M 73.832727 74.788671 
L 73.832727 53.568 
" clip-path="url(#pf728e6fd6e)" style="fill: none; stroke: #000000; stroke-width: 1.5"/>
   </g>
   <g id="line2d_43">
    <defs>
     <path id="mf3f49a96a4" d="M 0 1.5 
C 0.397805 1.5 0.77937 1.341951 1.06066 1.06066 
C 1.341951 0.77937 1.5 0.397805 1.5 0 
C 1.5 -0.397805 1.341951 -0.77937 1.06066 -1.06066 
C 0.77937 -1.341951 0.397805 -1.5 0 -1.5 
C -0.397805 -1.5 -0.77937 -1.341951 -1.06066 -1.06066 
C -1.341951 -0.77937 -1.5 -0.397805 -1.5 0 
C -1.5 0.397805 -1.341951 0.77937 -1.06066 1.06066 
C -0.77937 1.341951 -0.397805 1.5 0 1.5 
z
" style="stroke: #ff0000"/>
    </defs>
    <g clip-path="url(#pf728e6fd6e)">
     <use xlink:href="#mf3f49a96a4" x="398.487273" y="291.153556" style="fill: #ff0000; stroke: #ff0000"/>
     <use xlink:href="#mf3f49a96a4" x="375.297662" y="291.204008" style="fill: #ff0000; stroke: #ff0000"/>
     <use xlink:href="#mf3f49a96a4" x="352.108052" y="291.206252" style="fill: #ff0000; stroke: #ff0000"/>
     <use xlink:href="#mf3f49a96a4" x="328.918442" y="290.895845" style="fill: #ff0000; stroke: #ff0000"/>
     <use xlink:href="#mf3f49a96a4" x="305.728831" y="290.970573" style="fill: #ff0000; stroke: #ff0000"/>
     <use xlink:href="#mf3f49a96a4" x="282.539221" y="292.292815" style="fill: #ff0000; stroke: #ff0000"/>
     <use xlink:href="#mf3f49a96a4" x="259.34961" y="291.010233" style="fill: #ff0000; stroke: #ff0000"/>
     <use xlink:href="#mf3f49a96a4" x="236.16" y="292.101097" style="fill: #ff0000; stroke: #ff0000"/>
     <use xlink:href="#mf3f49a96a4" x="212.97039" y="292.403624" style="fill: #ff0000; stroke: #ff0000"/>
     <use xlink:href="#mf3f49a96a4" x="189.780779" y="292.29562" style="fill: #ff0000; stroke: #ff0000"/>
     <use xlink:href="#mf3f49a96a4" x="166.591169" y="290.805707" style="fill: #ff0000; stroke: #ff0000"/>
     <use xlink:href="#mf3f49a96a4" x="143.401558" y="292.213633" style="fill: #ff0000; stroke: #ff0000"/>
     <use xlink:href="#mf3f49a96a4" x="120.211948" y="290.80643" style="fill: #ff0000; stroke: #ff0000"/>
     <use xlink:href="#mf3f49a96a4" x="97.022338" y="291.198161" style="fill: #ff0000; stroke: #ff0000"/>
     <use xlink:href="#mf3f49a96a4" x="73.832727" y="290.828213" style="fill: #ff0000; stroke: #ff0000"/>
    </g>
   </g>
   <g id="line2d_44">
    <defs>
     <path id="mcb1f4e5e21" d="M 0 1.5 
C 0.397805 1.5 0.77937 1.341951 1.06066 1.06066 
C 1.341951 0.77937 1.5 0.397805 1.5 0 
C 1.5 -0.397805 1.341951 -0.77937 1.06066 -1.06066 
C 0.77937 -1.341951 0.397805 -1.5 0 -1.5 
C -0.397805 -1.5 -0.77937 -1.341951 -1.06066 -1.06066 
C -1.341951 -0.77937 -1.5 -0.397805 -1.5 0 
C -1.5 0.397805 -1.341951 0.77937 -1.06066 1.06066 
C -0.77937 1.341951 -0.397805 1.5 0 1.5 
z
" style="stroke: #000000"/>
    </defs>
    <g clip-path="url(#pf728e6fd6e)">
     <use xlink:href="#mcb1f4e5e21" x="398.487273" y="294.485575" style="stroke: #000000"/>
     <use xlink:href="#mcb1f4e5e21" x="375.297662" y="273.741476" style="stroke: #000000"/>
     <use xlink:href="#mcb1f4e5e21" x="352.108052" y="260.867919" style="stroke: #000000"/>
     <use xlink:href="#mcb1f4e5e21" x="328.918442" y="240.220514" style="stroke: #000000"/>
     <use xlink:href="#mcb1f4e5e21" x="305.728831" y="227.085669" style="stroke: #000000"/>
     <use xlink:href="#mcb1f4e5e21" x="282.539221" y="214.942981" style="stroke: #000000"/>
     <use xlink:href="#mcb1f4e5e21" x="259.34961" y="193.392473" style="stroke: #000000"/>
     <use xlink:href="#mcb1f4e5e21" x="236.16" y="175.22626" style="stroke: #000000"/>
     <use xlink:href="#mcb1f4e5e21" x="212.97039" y="161.412173" style="stroke: #000000"/>
     <use xlink:href="#mcb1f4e5e21" x="189.780779" y="141.934163" style="stroke: #000000"/>
     <use xlink:href="#mcb1f4e5e21" x="166.591169" y="129.997918" style="stroke: #000000"/>
     <use xlink:href="#mcb1f4e5e21" x="143.401558" y="109.04682" style="stroke: #000000"/>
     <use xlink:href="#mcb1f4e5e21" x="120.211948" y="100.390767" style="stroke: #000000"/>
     <use xlink:href="#mcb1f4e5e21" x="97.022338" y="83.352113" style="stroke: #000000"/>
     <use xlink:href="#mcb1f4e5e21" x="73.832727" y="63.024769" style="stroke: #000000"/>
    </g>
   </g>
   <g id="patch_3">
    <path d="M 57.6 307.584 
L 57.6 41.472 
" style="fill: none; stroke: #000000; stroke-width: 0.8; stroke-linejoin: miter; stroke-linecap: square"/>
   </g>
   <g id="patch_4">
    <path d="M 414.72 307.584 
L 414.72 41.472 
" style="fill: none; stroke: #000000; stroke-width: 0.8; stroke-linejoin: miter; stroke-linecap: square"/>
   </g>
   <g id="patch_5">
    <path d="M 57.6 307.584 
L 414.72 307.584 
" style="fill: none; stroke: #000000; stroke-width: 0.8; stroke-linejoin: miter; stroke-linecap: square"/>
   </g>
   <g id="patch_6">
    <path d="M 57.6 41.472 
L 414.72 41.472 
" style="fill: none; stroke: #000000; stroke-width: 0.8; stroke-linejoin: miter; stroke-linecap: square"/>
   </g>
  </g>
 </g>
 <defs>
  <clipPath id="pf728e6fd6e">
   <rect x="57.6" y="41.472" width="357.12" height="266.112"/>
  </clipPath>
 </defs>
</svg>
