<?xml version="1.0" encoding="utf-8" standalone="no"?>
<!DOCTYPE svg PUBLIC "-//W3C//DTD SVG 1.1//EN"
  "http://www.w3.org/Graphics/SVG/1.1/DTD/svg11.dtd">
<svg height="345.6pt" version="1.1" viewBox="0 0 460.8 345.6" width="460.8pt" xmlns="http://www.w3.org/2000/svg" xmlns:xlink="http://www.w3.org/1999/xlink">
 <metadata>
  <rdf:RDF xmlns:cc="http://creativecommons.org/ns#" xmlns:dc="http://purl.org/dc/elements/1.1/" xmlns:rdf="http://www.w3.org/1999/02/22-rdf-syntax-ns#">
   <cc:Work>
    <dc:type rdf:resource="http://purl.org/dc/dcmitype/StillImage"/>
    <dc:date>2023-12-06T13:55:33.763892</dc:date>
    <dc:format>image/svg+xml</dc:format>
    <dc:creator>
     <cc:Agent>
      <dc:title>Matplotlib v3.4.1, https://matplotlib.org/</dc:title>
     </cc:Agent>
    </dc:creator>
   </cc:Work>
  </rdf:RDF>
 </metadata>
 <defs>
  <style type="text/css">*{stroke-linecap:butt;stroke-linejoin:round;}</style>
 </defs>
 <g id="figure_1">
  <g id="patch_1">
   <path d="M 0 345.6 
L 460.8 345.6 
L 460.8 0 
L 0 0 
z
" style="fill:#ffffff;"/>
  </g>
  <g id="axes_1">
   <g id="patch_2">
    <path d="M 57.6 307.584 
L 414.72 307.584 
L 414.72 41.472 
L 57.6 41.472 
z
" style="fill:#ffffff;"/>
   </g>
   <g id="matplotlib.axis_1">
    <g id="xtick_1">
     <g id="line2d_1">
      <defs>
       <path d="M 0 0 
L 0 3.5 
" id="m13794ea038" style="stroke:#000000;stroke-width:0.8;"/>
      </defs>
      <g>
       <use style="stroke:#000000;stroke-width:0.8;" x="57.6" xlink:href="#m13794ea038" y="307.584"/>
      </g>
     </g>
     <g id="text_1">
      <!-- 0.0 -->
      <g transform="translate(49.648438 322.182437)scale(0.1 -0.1)">
       <defs>
        <path d="M 2034 4250 
Q 1547 4250 1301 3770 
Q 1056 3291 1056 2328 
Q 1056 1369 1301 889 
Q 1547 409 2034 409 
Q 2525 409 2770 889 
Q 3016 1369 3016 2328 
Q 3016 3291 2770 3770 
Q 2525 4250 2034 4250 
z
M 2034 4750 
Q 2819 4750 3233 4129 
Q 3647 3509 3647 2328 
Q 3647 1150 3233 529 
Q 2819 -91 2034 -91 
Q 1250 -91 836 529 
Q 422 1150 422 2328 
Q 422 3509 836 4129 
Q 1250 4750 2034 4750 
z
" id="DejaVuSans-30" transform="scale(0.015625)"/>
        <path d="M 684 794 
L 1344 794 
L 1344 0 
L 684 0 
L 684 794 
z
" id="DejaVuSans-2e" transform="scale(0.015625)"/>
       </defs>
       <use xlink:href="#DejaVuSans-30"/>
       <use x="63.623047" xlink:href="#DejaVuSans-2e"/>
       <use x="95.410156" xlink:href="#DejaVuSans-30"/>
      </g>
     </g>
    </g>
    <g id="xtick_2">
     <g id="line2d_2">
      <g>
       <use style="stroke:#000000;stroke-width:0.8;" x="105.859459" xlink:href="#m13794ea038" y="307.584"/>
      </g>
     </g>
     <g id="text_2">
      <!-- 0.5 -->
      <g transform="translate(97.907897 322.182437)scale(0.1 -0.1)">
       <defs>
        <path d="M 691 4666 
L 3169 4666 
L 3169 4134 
L 1269 4134 
L 1269 2991 
Q 1406 3038 1543 3061 
Q 1681 3084 1819 3084 
Q 2600 3084 3056 2656 
Q 3513 2228 3513 1497 
Q 3513 744 3044 326 
Q 2575 -91 1722 -91 
Q 1428 -91 1123 -41 
Q 819 9 494 109 
L 494 744 
Q 775 591 1075 516 
Q 1375 441 1709 441 
Q 2250 441 2565 725 
Q 2881 1009 2881 1497 
Q 2881 1984 2565 2268 
Q 2250 2553 1709 2553 
Q 1456 2553 1204 2497 
Q 953 2441 691 2322 
L 691 4666 
z
" id="DejaVuSans-35" transform="scale(0.015625)"/>
       </defs>
       <use xlink:href="#DejaVuSans-30"/>
       <use x="63.623047" xlink:href="#DejaVuSans-2e"/>
       <use x="95.410156" xlink:href="#DejaVuSans-35"/>
      </g>
     </g>
    </g>
    <g id="xtick_3">
     <g id="line2d_3">
      <g>
       <use style="stroke:#000000;stroke-width:0.8;" x="154.118919" xlink:href="#m13794ea038" y="307.584"/>
      </g>
     </g>
     <g id="text_3">
      <!-- 1.0 -->
      <g transform="translate(146.167356 322.182437)scale(0.1 -0.1)">
       <defs>
        <path d="M 794 531 
L 1825 531 
L 1825 4091 
L 703 3866 
L 703 4441 
L 1819 4666 
L 2450 4666 
L 2450 531 
L 3481 531 
L 3481 0 
L 794 0 
L 794 531 
z
" id="DejaVuSans-31" transform="scale(0.015625)"/>
       </defs>
       <use xlink:href="#DejaVuSans-31"/>
       <use x="63.623047" xlink:href="#DejaVuSans-2e"/>
       <use x="95.410156" xlink:href="#DejaVuSans-30"/>
      </g>
     </g>
    </g>
    <g id="xtick_4">
     <g id="line2d_4">
      <g>
       <use style="stroke:#000000;stroke-width:0.8;" x="202.378378" xlink:href="#m13794ea038" y="307.584"/>
      </g>
     </g>
     <g id="text_4">
      <!-- 1.5 -->
      <g transform="translate(194.426816 322.182437)scale(0.1 -0.1)">
       <use xlink:href="#DejaVuSans-31"/>
       <use x="63.623047" xlink:href="#DejaVuSans-2e"/>
       <use x="95.410156" xlink:href="#DejaVuSans-35"/>
      </g>
     </g>
    </g>
    <g id="xtick_5">
     <g id="line2d_5">
      <g>
       <use style="stroke:#000000;stroke-width:0.8;" x="250.637838" xlink:href="#m13794ea038" y="307.584"/>
      </g>
     </g>
     <g id="text_5">
      <!-- 2.0 -->
      <g transform="translate(242.686275 322.182437)scale(0.1 -0.1)">
       <defs>
        <path d="M 1228 531 
L 3431 531 
L 3431 0 
L 469 0 
L 469 531 
Q 828 903 1448 1529 
Q 2069 2156 2228 2338 
Q 2531 2678 2651 2914 
Q 2772 3150 2772 3378 
Q 2772 3750 2511 3984 
Q 2250 4219 1831 4219 
Q 1534 4219 1204 4116 
Q 875 4013 500 3803 
L 500 4441 
Q 881 4594 1212 4672 
Q 1544 4750 1819 4750 
Q 2544 4750 2975 4387 
Q 3406 4025 3406 3419 
Q 3406 3131 3298 2873 
Q 3191 2616 2906 2266 
Q 2828 2175 2409 1742 
Q 1991 1309 1228 531 
z
" id="DejaVuSans-32" transform="scale(0.015625)"/>
       </defs>
       <use xlink:href="#DejaVuSans-32"/>
       <use x="63.623047" xlink:href="#DejaVuSans-2e"/>
       <use x="95.410156" xlink:href="#DejaVuSans-30"/>
      </g>
     </g>
    </g>
    <g id="xtick_6">
     <g id="line2d_6">
      <g>
       <use style="stroke:#000000;stroke-width:0.8;" x="298.897297" xlink:href="#m13794ea038" y="307.584"/>
      </g>
     </g>
     <g id="text_6">
      <!-- 2.5 -->
      <g transform="translate(290.945735 322.182437)scale(0.1 -0.1)">
       <use xlink:href="#DejaVuSans-32"/>
       <use x="63.623047" xlink:href="#DejaVuSans-2e"/>
       <use x="95.410156" xlink:href="#DejaVuSans-35"/>
      </g>
     </g>
    </g>
    <g id="xtick_7">
     <g id="line2d_7">
      <g>
       <use style="stroke:#000000;stroke-width:0.8;" x="347.156757" xlink:href="#m13794ea038" y="307.584"/>
      </g>
     </g>
     <g id="text_7">
      <!-- 3.0 -->
      <g transform="translate(339.205194 322.182437)scale(0.1 -0.1)">
       <defs>
        <path d="M 2597 2516 
Q 3050 2419 3304 2112 
Q 3559 1806 3559 1356 
Q 3559 666 3084 287 
Q 2609 -91 1734 -91 
Q 1441 -91 1130 -33 
Q 819 25 488 141 
L 488 750 
Q 750 597 1062 519 
Q 1375 441 1716 441 
Q 2309 441 2620 675 
Q 2931 909 2931 1356 
Q 2931 1769 2642 2001 
Q 2353 2234 1838 2234 
L 1294 2234 
L 1294 2753 
L 1863 2753 
Q 2328 2753 2575 2939 
Q 2822 3125 2822 3475 
Q 2822 3834 2567 4026 
Q 2313 4219 1838 4219 
Q 1578 4219 1281 4162 
Q 984 4106 628 3988 
L 628 4550 
Q 988 4650 1302 4700 
Q 1616 4750 1894 4750 
Q 2613 4750 3031 4423 
Q 3450 4097 3450 3541 
Q 3450 3153 3228 2886 
Q 3006 2619 2597 2516 
z
" id="DejaVuSans-33" transform="scale(0.015625)"/>
       </defs>
       <use xlink:href="#DejaVuSans-33"/>
       <use x="63.623047" xlink:href="#DejaVuSans-2e"/>
       <use x="95.410156" xlink:href="#DejaVuSans-30"/>
      </g>
     </g>
    </g>
    <g id="xtick_8">
     <g id="line2d_8">
      <g>
       <use style="stroke:#000000;stroke-width:0.8;" x="395.416216" xlink:href="#m13794ea038" y="307.584"/>
      </g>
     </g>
     <g id="text_8">
      <!-- 3.5 -->
      <g transform="translate(387.464654 322.182437)scale(0.1 -0.1)">
       <use xlink:href="#DejaVuSans-33"/>
       <use x="63.623047" xlink:href="#DejaVuSans-2e"/>
       <use x="95.410156" xlink:href="#DejaVuSans-35"/>
      </g>
     </g>
    </g>
    <g id="text_9">
     <!-- $\beta$ -->
     <g transform="translate(232.96 335.962125)scale(0.1 -0.1)">
      <defs>
       <path d="M 872 216 
L 572 -1331 
L -6 -1331 
L 928 3478 
Q 1206 4903 2538 4903 
Q 3888 4903 3659 3700 
Q 3503 2844 2894 2531 
Q 3713 2250 3553 1416 
Q 3272 -69 1759 -66 
Q 1097 -63 872 216 
z
M 1019 966 
Q 1259 422 1875 425 
Q 2775 425 2966 1406 
Q 3138 2288 1675 2219 
L 1778 2750 
Q 2909 2731 3106 3750 
Q 3241 4438 2509 4434 
Q 1691 4434 1503 3459 
L 1019 966 
z
" id="DejaVuSans-Oblique-3b2" transform="scale(0.015625)"/>
      </defs>
      <use transform="translate(0 0.390625)" xlink:href="#DejaVuSans-Oblique-3b2"/>
     </g>
    </g>
   </g>
   <g id="matplotlib.axis_2">
    <g id="ytick_1">
     <g id="line2d_9">
      <defs>
       <path d="M 0 0 
L -3.5 0 
" id="m663c3b77f7" style="stroke:#000000;stroke-width:0.8;"/>
      </defs>
      <g>
       <use style="stroke:#000000;stroke-width:0.8;" x="57.6" xlink:href="#m663c3b77f7" y="295.488"/>
      </g>
     </g>
     <g id="text_10">
      <!-- 0.0 -->
      <g transform="translate(34.696875 299.287219)scale(0.1 -0.1)">
       <use xlink:href="#DejaVuSans-30"/>
       <use x="63.623047" xlink:href="#DejaVuSans-2e"/>
       <use x="95.410156" xlink:href="#DejaVuSans-30"/>
      </g>
     </g>
    </g>
    <g id="ytick_2">
     <g id="line2d_10">
      <g>
       <use style="stroke:#000000;stroke-width:0.8;" x="57.6" xlink:href="#m663c3b77f7" y="242.014161"/>
      </g>
     </g>
     <g id="text_11">
      <!-- 0.2 -->
      <g transform="translate(34.696875 245.81338)scale(0.1 -0.1)">
       <use xlink:href="#DejaVuSans-30"/>
       <use x="63.623047" xlink:href="#DejaVuSans-2e"/>
       <use x="95.410156" xlink:href="#DejaVuSans-32"/>
      </g>
     </g>
    </g>
    <g id="ytick_3">
     <g id="line2d_11">
      <g>
       <use style="stroke:#000000;stroke-width:0.8;" x="57.6" xlink:href="#m663c3b77f7" y="188.540323"/>
      </g>
     </g>
     <g id="text_12">
      <!-- 0.4 -->
      <g transform="translate(34.696875 192.339541)scale(0.1 -0.1)">
       <defs>
        <path d="M 2419 4116 
L 825 1625 
L 2419 1625 
L 2419 4116 
z
M 2253 4666 
L 3047 4666 
L 3047 1625 
L 3713 1625 
L 3713 1100 
L 3047 1100 
L 3047 0 
L 2419 0 
L 2419 1100 
L 313 1100 
L 313 1709 
L 2253 4666 
z
" id="DejaVuSans-34" transform="scale(0.015625)"/>
       </defs>
       <use xlink:href="#DejaVuSans-30"/>
       <use x="63.623047" xlink:href="#DejaVuSans-2e"/>
       <use x="95.410156" xlink:href="#DejaVuSans-34"/>
      </g>
     </g>
    </g>
    <g id="ytick_4">
     <g id="line2d_12">
      <g>
       <use style="stroke:#000000;stroke-width:0.8;" x="57.6" xlink:href="#m663c3b77f7" y="135.066484"/>
      </g>
     </g>
     <g id="text_13">
      <!-- 0.6 -->
      <g transform="translate(34.696875 138.865703)scale(0.1 -0.1)">
       <defs>
        <path d="M 2113 2584 
Q 1688 2584 1439 2293 
Q 1191 2003 1191 1497 
Q 1191 994 1439 701 
Q 1688 409 2113 409 
Q 2538 409 2786 701 
Q 3034 994 3034 1497 
Q 3034 2003 2786 2293 
Q 2538 2584 2113 2584 
z
M 3366 4563 
L 3366 3988 
Q 3128 4100 2886 4159 
Q 2644 4219 2406 4219 
Q 1781 4219 1451 3797 
Q 1122 3375 1075 2522 
Q 1259 2794 1537 2939 
Q 1816 3084 2150 3084 
Q 2853 3084 3261 2657 
Q 3669 2231 3669 1497 
Q 3669 778 3244 343 
Q 2819 -91 2113 -91 
Q 1303 -91 875 529 
Q 447 1150 447 2328 
Q 447 3434 972 4092 
Q 1497 4750 2381 4750 
Q 2619 4750 2861 4703 
Q 3103 4656 3366 4563 
z
" id="DejaVuSans-36" transform="scale(0.015625)"/>
       </defs>
       <use xlink:href="#DejaVuSans-30"/>
       <use x="63.623047" xlink:href="#DejaVuSans-2e"/>
       <use x="95.410156" xlink:href="#DejaVuSans-36"/>
      </g>
     </g>
    </g>
    <g id="ytick_5">
     <g id="line2d_13">
      <g>
       <use style="stroke:#000000;stroke-width:0.8;" x="57.6" xlink:href="#m663c3b77f7" y="81.592645"/>
      </g>
     </g>
     <g id="text_14">
      <!-- 0.8 -->
      <g transform="translate(34.696875 85.391864)scale(0.1 -0.1)">
       <defs>
        <path d="M 2034 2216 
Q 1584 2216 1326 1975 
Q 1069 1734 1069 1313 
Q 1069 891 1326 650 
Q 1584 409 2034 409 
Q 2484 409 2743 651 
Q 3003 894 3003 1313 
Q 3003 1734 2745 1975 
Q 2488 2216 2034 2216 
z
M 1403 2484 
Q 997 2584 770 2862 
Q 544 3141 544 3541 
Q 544 4100 942 4425 
Q 1341 4750 2034 4750 
Q 2731 4750 3128 4425 
Q 3525 4100 3525 3541 
Q 3525 3141 3298 2862 
Q 3072 2584 2669 2484 
Q 3125 2378 3379 2068 
Q 3634 1759 3634 1313 
Q 3634 634 3220 271 
Q 2806 -91 2034 -91 
Q 1263 -91 848 271 
Q 434 634 434 1313 
Q 434 1759 690 2068 
Q 947 2378 1403 2484 
z
M 1172 3481 
Q 1172 3119 1398 2916 
Q 1625 2713 2034 2713 
Q 2441 2713 2670 2916 
Q 2900 3119 2900 3481 
Q 2900 3844 2670 4047 
Q 2441 4250 2034 4250 
Q 1625 4250 1398 4047 
Q 1172 3844 1172 3481 
z
" id="DejaVuSans-38" transform="scale(0.015625)"/>
       </defs>
       <use xlink:href="#DejaVuSans-30"/>
       <use x="63.623047" xlink:href="#DejaVuSans-2e"/>
       <use x="95.410156" xlink:href="#DejaVuSans-38"/>
      </g>
     </g>
    </g>
    <g id="text_15">
     <!-- $e$ -->
     <g transform="translate(28.617188 177.628)rotate(-90)scale(0.1 -0.1)">
      <defs>
       <path d="M 3078 2063 
Q 3088 2113 3092 2166 
Q 3097 2219 3097 2272 
Q 3097 2653 2873 2875 
Q 2650 3097 2266 3097 
Q 1838 3097 1509 2826 
Q 1181 2556 1013 2059 
L 3078 2063 
z
M 3578 1613 
L 903 1613 
Q 884 1494 878 1425 
Q 872 1356 872 1306 
Q 872 872 1139 634 
Q 1406 397 1894 397 
Q 2269 397 2603 481 
Q 2938 566 3225 728 
L 3116 159 
Q 2806 34 2476 -28 
Q 2147 -91 1806 -91 
Q 1078 -91 686 257 
Q 294 606 294 1247 
Q 294 1794 489 2264 
Q 684 2734 1063 3103 
Q 1306 3334 1642 3459 
Q 1978 3584 2356 3584 
Q 2950 3584 3301 3228 
Q 3653 2872 3653 2272 
Q 3653 2128 3634 1964 
Q 3616 1800 3578 1613 
z
" id="DejaVuSans-Oblique-65" transform="scale(0.015625)"/>
      </defs>
      <use xlink:href="#DejaVuSans-Oblique-65"/>
     </g>
    </g>
   </g>
   <g id="LineCollection_1">
    <path clip-path="url(#pfd1fb7e6c2)" d="M 67.251892 282.160851 
L 67.251892 281.939513 
" style="fill:none;stroke:#000000;stroke-width:1.5;"/>
    <path clip-path="url(#pfd1fb7e6c2)" d="M 76.903784 268.39899 
L 76.903784 268.179845 
" style="fill:none;stroke:#000000;stroke-width:1.5;"/>
    <path clip-path="url(#pfd1fb7e6c2)" d="M 86.555676 254.248109 
L 86.555676 254.002375 
" style="fill:none;stroke:#000000;stroke-width:1.5;"/>
    <path clip-path="url(#pfd1fb7e6c2)" d="M 96.207568 239.405445 
L 96.207568 239.117655 
" style="fill:none;stroke:#000000;stroke-width:1.5;"/>
    <path clip-path="url(#pfd1fb7e6c2)" d="M 105.859459 223.869318 
L 105.859459 223.560253 
" style="fill:none;stroke:#000000;stroke-width:1.5;"/>
    <path clip-path="url(#pfd1fb7e6c2)" d="M 115.511351 207.146995 
L 115.511351 206.808133 
" style="fill:none;stroke:#000000;stroke-width:1.5;"/>
    <path clip-path="url(#pfd1fb7e6c2)" d="M 125.163243 189.787564 
L 125.163243 189.441021 
" style="fill:none;stroke:#000000;stroke-width:1.5;"/>
    <path clip-path="url(#pfd1fb7e6c2)" d="M 134.815135 172.29085 
L 134.815135 171.905944 
" style="fill:none;stroke:#000000;stroke-width:1.5;"/>
    <path clip-path="url(#pfd1fb7e6c2)" d="M 144.467027 155.24674 
L 144.467027 154.870757 
" style="fill:none;stroke:#000000;stroke-width:1.5;"/>
    <path clip-path="url(#pfd1fb7e6c2)" d="M 154.118919 140.082944 
L 154.118919 139.762439 
" style="fill:none;stroke:#000000;stroke-width:1.5;"/>
    <path clip-path="url(#pfd1fb7e6c2)" d="M 163.770811 127.83517 
L 163.770811 127.575264 
" style="fill:none;stroke:#000000;stroke-width:1.5;"/>
    <path clip-path="url(#pfd1fb7e6c2)" d="M 173.422703 118.22525 
L 173.422703 118.013457 
" style="fill:none;stroke:#000000;stroke-width:1.5;"/>
    <path clip-path="url(#pfd1fb7e6c2)" d="M 183.074595 110.546779 
L 183.074595 110.351595 
" style="fill:none;stroke:#000000;stroke-width:1.5;"/>
    <path clip-path="url(#pfd1fb7e6c2)" d="M 192.726486 104.132881 
L 192.726486 103.969093 
" style="fill:none;stroke:#000000;stroke-width:1.5;"/>
    <path clip-path="url(#pfd1fb7e6c2)" d="M 202.378378 98.674733 
L 202.378378 98.423637 
" style="fill:none;stroke:#000000;stroke-width:1.5;"/>
    <path clip-path="url(#pfd1fb7e6c2)" d="M 212.03027 93.898309 
L 212.03027 93.652674 
" style="fill:none;stroke:#000000;stroke-width:1.5;"/>
    <path clip-path="url(#pfd1fb7e6c2)" d="M 221.682162 89.650753 
L 221.682162 89.433124 
" style="fill:none;stroke:#000000;stroke-width:1.5;"/>
    <path clip-path="url(#pfd1fb7e6c2)" d="M 231.334054 86.139871 
L 231.334054 85.954009 
" style="fill:none;stroke:#000000;stroke-width:1.5;"/>
    <path clip-path="url(#pfd1fb7e6c2)" d="M 240.985946 82.962855 
L 240.985946 82.780651 
" style="fill:none;stroke:#000000;stroke-width:1.5;"/>
    <path clip-path="url(#pfd1fb7e6c2)" d="M 250.637838 80.026025 
L 250.637838 79.868139 
" style="fill:none;stroke:#000000;stroke-width:1.5;"/>
    <path clip-path="url(#pfd1fb7e6c2)" d="M 260.28973 77.467318 
L 260.28973 77.313995 
" style="fill:none;stroke:#000000;stroke-width:1.5;"/>
    <path clip-path="url(#pfd1fb7e6c2)" d="M 269.941622 75.192053 
L 269.941622 75.053842 
" style="fill:none;stroke:#000000;stroke-width:1.5;"/>
    <path clip-path="url(#pfd1fb7e6c2)" d="M 289.245405 70.903028 
L 289.245405 70.744962 
" style="fill:none;stroke:#000000;stroke-width:1.5;"/>
    <path clip-path="url(#pfd1fb7e6c2)" d="M 308.549189 67.650181 
L 308.549189 67.522339 
" style="fill:none;stroke:#000000;stroke-width:1.5;"/>
    <path clip-path="url(#pfd1fb7e6c2)" d="M 327.852973 64.723204 
L 327.852973 64.589154 
" style="fill:none;stroke:#000000;stroke-width:1.5;"/>
    <path clip-path="url(#pfd1fb7e6c2)" d="M 347.156757 62.166517 
L 347.156757 62.048751 
" style="fill:none;stroke:#000000;stroke-width:1.5;"/>
    <path clip-path="url(#pfd1fb7e6c2)" d="M 366.460541 60.125541 
L 366.460541 60.010045 
" style="fill:none;stroke:#000000;stroke-width:1.5;"/>
    <path clip-path="url(#pfd1fb7e6c2)" d="M 385.764324 58.085424 
L 385.764324 57.981141 
" style="fill:none;stroke:#000000;stroke-width:1.5;"/>
    <path clip-path="url(#pfd1fb7e6c2)" d="M 405.068108 56.428657 
L 405.068108 56.31605 
" style="fill:none;stroke:#000000;stroke-width:1.5;"/>
   </g>
   <g id="LineCollection_2">
    <path clip-path="url(#pfd1fb7e6c2)" d="M 67.251892 282.160851 
L 67.251892 281.939513 
" style="fill:none;stroke:#008000;stroke-width:1.5;"/>
    <path clip-path="url(#pfd1fb7e6c2)" d="M 76.903784 268.39899 
L 76.903784 268.179845 
" style="fill:none;stroke:#008000;stroke-width:1.5;"/>
    <path clip-path="url(#pfd1fb7e6c2)" d="M 86.555676 254.248109 
L 86.555676 254.002375 
" style="fill:none;stroke:#008000;stroke-width:1.5;"/>
    <path clip-path="url(#pfd1fb7e6c2)" d="M 96.207568 239.405445 
L 96.207568 239.117655 
" style="fill:none;stroke:#008000;stroke-width:1.5;"/>
    <path clip-path="url(#pfd1fb7e6c2)" d="M 105.859459 223.869318 
L 105.859459 223.560253 
" style="fill:none;stroke:#008000;stroke-width:1.5;"/>
    <path clip-path="url(#pfd1fb7e6c2)" d="M 115.511351 207.146995 
L 115.511351 206.808133 
" style="fill:none;stroke:#008000;stroke-width:1.5;"/>
    <path clip-path="url(#pfd1fb7e6c2)" d="M 125.163243 189.787564 
L 125.163243 189.441021 
" style="fill:none;stroke:#008000;stroke-width:1.5;"/>
    <path clip-path="url(#pfd1fb7e6c2)" d="M 134.815135 172.29085 
L 134.815135 171.905944 
" style="fill:none;stroke:#008000;stroke-width:1.5;"/>
    <path clip-path="url(#pfd1fb7e6c2)" d="M 144.467027 155.24674 
L 144.467027 154.870757 
" style="fill:none;stroke:#008000;stroke-width:1.5;"/>
    <path clip-path="url(#pfd1fb7e6c2)" d="M 154.118919 140.082944 
L 154.118919 139.762439 
" style="fill:none;stroke:#008000;stroke-width:1.5;"/>
    <path clip-path="url(#pfd1fb7e6c2)" d="M 163.770811 127.83517 
L 163.770811 127.575264 
" style="fill:none;stroke:#008000;stroke-width:1.5;"/>
    <path clip-path="url(#pfd1fb7e6c2)" d="M 173.422703 118.22525 
L 173.422703 118.013457 
" style="fill:none;stroke:#008000;stroke-width:1.5;"/>
    <path clip-path="url(#pfd1fb7e6c2)" d="M 183.074595 110.546779 
L 183.074595 110.351595 
" style="fill:none;stroke:#008000;stroke-width:1.5;"/>
    <path clip-path="url(#pfd1fb7e6c2)" d="M 192.726486 104.132881 
L 192.726486 103.969093 
" style="fill:none;stroke:#008000;stroke-width:1.5;"/>
    <path clip-path="url(#pfd1fb7e6c2)" d="M 202.378378 98.674733 
L 202.378378 98.423637 
" style="fill:none;stroke:#008000;stroke-width:1.5;"/>
    <path clip-path="url(#pfd1fb7e6c2)" d="M 212.03027 93.898309 
L 212.03027 93.652674 
" style="fill:none;stroke:#008000;stroke-width:1.5;"/>
    <path clip-path="url(#pfd1fb7e6c2)" d="M 221.682162 89.650753 
L 221.682162 89.433124 
" style="fill:none;stroke:#008000;stroke-width:1.5;"/>
    <path clip-path="url(#pfd1fb7e6c2)" d="M 231.334054 86.139871 
L 231.334054 85.954009 
" style="fill:none;stroke:#008000;stroke-width:1.5;"/>
    <path clip-path="url(#pfd1fb7e6c2)" d="M 240.985946 82.962855 
L 240.985946 82.780651 
" style="fill:none;stroke:#008000;stroke-width:1.5;"/>
    <path clip-path="url(#pfd1fb7e6c2)" d="M 250.637838 80.026025 
L 250.637838 79.868139 
" style="fill:none;stroke:#008000;stroke-width:1.5;"/>
    <path clip-path="url(#pfd1fb7e6c2)" d="M 260.28973 77.467318 
L 260.28973 77.313995 
" style="fill:none;stroke:#008000;stroke-width:1.5;"/>
    <path clip-path="url(#pfd1fb7e6c2)" d="M 269.941622 75.192053 
L 269.941622 75.053842 
" style="fill:none;stroke:#008000;stroke-width:1.5;"/>
    <path clip-path="url(#pfd1fb7e6c2)" d="M 289.245405 70.903028 
L 289.245405 70.744962 
" style="fill:none;stroke:#008000;stroke-width:1.5;"/>
    <path clip-path="url(#pfd1fb7e6c2)" d="M 308.549189 67.650181 
L 308.549189 67.522339 
" style="fill:none;stroke:#008000;stroke-width:1.5;"/>
    <path clip-path="url(#pfd1fb7e6c2)" d="M 327.852973 64.723204 
L 327.852973 64.589154 
" style="fill:none;stroke:#008000;stroke-width:1.5;"/>
    <path clip-path="url(#pfd1fb7e6c2)" d="M 347.156757 62.166517 
L 347.156757 62.048751 
" style="fill:none;stroke:#008000;stroke-width:1.5;"/>
    <path clip-path="url(#pfd1fb7e6c2)" d="M 366.460541 60.125541 
L 366.460541 60.010045 
" style="fill:none;stroke:#008000;stroke-width:1.5;"/>
    <path clip-path="url(#pfd1fb7e6c2)" d="M 385.764324 58.085424 
L 385.764324 57.981141 
" style="fill:none;stroke:#008000;stroke-width:1.5;"/>
    <path clip-path="url(#pfd1fb7e6c2)" d="M 405.068108 56.428657 
L 405.068108 56.31605 
" style="fill:none;stroke:#008000;stroke-width:1.5;"/>
   </g>
   <g id="line2d_14">
    <path clip-path="url(#pfd1fb7e6c2)" d="M 57.6 295.488 
L 58.574939 294.137605 
L 59.549877 292.786934 
L 60.524816 291.43571 
L 61.499754 290.083658 
L 62.474693 288.730497 
L 63.449631 287.375947 
L 64.42457 286.019723 
L 65.399509 284.661537 
L 66.374447 283.301098 
L 67.349386 281.938111 
L 68.324324 280.572274 
L 69.299263 279.203281 
L 70.274201 277.830819 
L 71.24914 276.454568 
L 72.224079 275.074201 
L 73.199017 273.689384 
L 74.173956 272.299774 
L 75.148894 270.905018 
L 76.123833 269.504754 
L 77.098771 268.098612 
L 78.07371 266.686207 
L 79.048649 265.267148 
L 80.023587 263.841027 
L 80.998526 262.407427 
L 81.973464 260.965917 
L 82.948403 259.516052 
L 83.923342 258.057375 
L 84.89828 256.589413 
L 85.873219 255.111676 
L 86.848157 253.623661 
L 87.823096 252.124848 
L 88.798034 250.614699 
L 89.772973 249.09266 
L 90.747912 247.558158 
L 91.72285 246.010603 
L 92.697789 244.449383 
L 93.672727 242.87387 
L 94.647666 241.283412 
L 95.622604 239.677339 
L 96.597543 238.054959 
L 97.572482 236.415557 
L 98.54742 234.758396 
L 99.522359 233.082716 
L 100.497297 231.387735 
L 101.472236 229.672644 
L 102.447174 227.936612 
L 103.422113 226.178779 
L 104.397052 224.398264 
L 105.37199 222.594156 
L 106.346929 220.765517 
L 107.321867 218.911384 
L 108.296806 217.030764 
L 109.271744 215.122636 
L 110.246683 213.185948 
L 111.221622 211.219621 
L 112.19656 209.222544 
L 113.171499 207.193576 
L 114.146437 205.131543 
L 115.121376 203.035239 
L 116.096314 200.903428 
L 117.071253 198.734839 
L 118.046192 196.528166 
L 119.02113 194.28207 
L 119.996069 191.995179 
L 120.971007 189.666081 
L 121.945946 187.293333 
L 122.920885 184.875453 
L 123.895823 182.410921 
L 124.870762 179.89818 
L 125.8457 177.335637 
L 126.820639 174.721657 
L 127.795577 172.054567 
L 128.770516 169.332655 
L 129.745455 166.554167 
L 130.720393 163.717308 
L 131.695332 160.820243 
L 132.67027 157.861094 
L 133.645209 154.837938 
L 134.620147 151.748813 
L 135.595086 148.591709 
L 136.570025 145.364575 
L 137.544963 142.065313 
L 138.519902 138.691779 
L 139.49484 135.241785 
L 140.469779 131.713094 
L 141.444717 128.103424 
L 142.419656 124.410444 
L 143.394595 120.631774 
L 144.369533 116.764987 
L 145.344472 112.807604 
L 146.31941 108.757098 
L 147.294349 104.610891 
L 148.269287 100.366353 
L 149.244226 96.020803 
L 150.219165 91.571508 
L 151.194103 87.01568 
L 152.169042 82.350481 
L 153.14398 77.573017 
L 154.118919 72.680339 
" style="fill:none;stroke:#0000ff;stroke-linecap:square;stroke-width:1.5;"/>
   </g>
   <g id="line2d_15">
    <path clip-path="url(#pfd1fb7e6c2)" d="M 57.6 295.488 
L 58.574939 294.137605 
L 59.549877 292.786934 
L 60.524816 291.435713 
L 61.499754 290.083668 
L 62.474693 288.730527 
L 63.449631 287.37602 
L 64.42457 286.01988 
L 65.399509 284.661844 
L 66.374447 283.301652 
L 67.349386 281.939048 
L 68.324324 280.573784 
L 69.299263 279.205613 
L 70.274201 277.834298 
L 71.24914 276.459608 
L 72.224079 275.081318 
L 73.199017 273.699211 
L 74.173956 272.31308 
L 75.148894 270.922726 
L 76.123833 269.527959 
L 77.098771 268.128601 
L 78.07371 266.724482 
L 79.048649 265.315445 
L 80.023587 263.901345 
L 80.998526 262.482049 
L 81.973464 261.057436 
L 82.948403 259.6274 
L 83.923342 258.191848 
L 84.89828 256.750701 
L 85.873219 255.303898 
L 86.848157 253.851391 
L 87.823096 252.393149 
L 88.798034 250.929158 
L 89.772973 249.459421 
L 90.747912 247.983961 
L 91.72285 246.502817 
L 92.697789 245.016049 
L 93.672727 243.523734 
L 94.647666 242.025973 
L 95.622604 240.522885 
L 96.597543 239.014612 
L 97.572482 237.501316 
L 98.54742 235.983183 
L 99.522359 234.460422 
L 100.497297 232.933265 
L 101.472236 231.40197 
L 102.447174 229.866816 
L 103.422113 228.328111 
L 104.397052 226.786187 
L 105.37199 225.241403 
L 106.346929 223.694145 
L 107.321867 222.144826 
L 108.296806 220.593887 
L 109.271744 219.0418 
L 110.246683 217.489063 
L 111.221622 215.936205 
L 112.19656 214.383787 
L 113.171499 212.832398 
L 114.146437 211.282661 
L 115.121376 209.73523 
L 116.096314 208.190791 
L 117.071253 206.650065 
L 118.046192 205.113804 
L 119.02113 203.582797 
L 119.996069 202.057867 
L 120.971007 200.539871 
L 121.945946 199.029704 
L 122.920885 197.528297 
L 123.895823 196.036617 
L 124.870762 194.55567 
L 125.8457 193.086499 
L 126.820639 191.630188 
L 127.795577 190.187858 
L 128.770516 188.760671 
L 129.745455 187.349828 
L 130.720393 185.956575 
L 131.695332 184.582195 
L 132.67027 183.228015 
L 133.645209 181.895406 
L 134.620147 180.585781 
L 135.595086 179.300596 
L 136.570025 178.041353 
L 137.544963 176.809599 
L 138.519902 175.606926 
L 139.49484 174.434971 
L 140.469779 173.295419 
L 141.444717 172.190003 
L 142.419656 171.120502 
L 143.394595 170.088744 
L 144.369533 169.096606 
L 145.344472 168.146015 
L 146.31941 167.238948 
L 147.294349 166.377431 
L 148.269287 165.563544 
L 149.244226 164.799415 
L 150.219165 164.087228 
L 151.194103 163.429217 
L 152.169042 162.827672 
L 153.14398 162.284935 
L 154.118919 161.803403 
" style="fill:none;stroke:#0000ff;stroke-linecap:square;stroke-width:1.5;"/>
   </g>
   <g id="line2d_16">
    <path clip-path="url(#pfd1fb7e6c2)" d="M 105.859459 249.450367 
L 108.22654 238.355633 
L 110.593621 228.300967 
L 112.960701 219.148685 
L 115.327782 210.784094 
L 118.033017 202.066311 
L 120.738252 194.131959 
L 123.443487 186.881079 
L 126.148722 180.229875 
L 129.192111 173.376405 
L 132.2355 167.107801 
L 135.27889 161.352862 
L 138.322279 156.051414 
L 141.703823 150.630789 
L 145.085366 145.647373 
L 148.46691 141.050653 
L 152.186608 136.389688 
L 155.906306 132.095827 
L 159.626004 128.127568 
L 163.683857 124.128325 
L 167.741709 120.435006 
L 172.137716 116.740216 
L 176.533723 113.328482 
L 181.267884 109.93517 
L 186.3402 106.585959 
L 191.412515 103.49918 
L 196.822985 100.462621 
L 202.571609 97.492496 
L 208.658388 94.601636 
L 215.083321 91.799837 
L 221.846409 89.094228 
L 228.94765 86.489638 
L 236.725201 83.88035 
L 244.840906 81.39476 
L 253.632919 78.94013 
L 263.101242 76.537267 
L 273.245873 74.202377 
L 284.066813 71.947558 
L 295.564061 69.781331 
L 308.075773 67.654579 
L 321.601948 65.586614 
L 336.142586 63.591765 
L 352.035841 61.640761 
L 369.281714 59.752644 
L 387.880205 57.941004 
L 408.507621 56.159783 
L 431.163964 54.433336 
L 443.675676 53.568 
L 443.675676 53.568 
" style="fill:none;stroke:#ff0000;stroke-linecap:square;stroke-width:1.5;"/>
   </g>
   <g id="line2d_17">
    <defs>
     <path d="M -3 3 
L 3 -3 
M -3 -3 
L 3 3 
" id="m1e33aace18" style="stroke:#000000;"/>
    </defs>
    <g clip-path="url(#pfd1fb7e6c2)">
     <use style="stroke:#000000;" x="67.251892" xlink:href="#m1e33aace18" y="282.050182"/>
     <use style="stroke:#000000;" x="76.903784" xlink:href="#m1e33aace18" y="268.289418"/>
     <use style="stroke:#000000;" x="86.555676" xlink:href="#m1e33aace18" y="254.125242"/>
     <use style="stroke:#000000;" x="96.207568" xlink:href="#m1e33aace18" y="239.26155"/>
     <use style="stroke:#000000;" x="105.859459" xlink:href="#m1e33aace18" y="223.714785"/>
     <use style="stroke:#000000;" x="115.511351" xlink:href="#m1e33aace18" y="206.977564"/>
     <use style="stroke:#000000;" x="125.163243" xlink:href="#m1e33aace18" y="189.614293"/>
     <use style="stroke:#000000;" x="134.815135" xlink:href="#m1e33aace18" y="172.098397"/>
     <use style="stroke:#000000;" x="144.467027" xlink:href="#m1e33aace18" y="155.058748"/>
     <use style="stroke:#000000;" x="154.118919" xlink:href="#m1e33aace18" y="139.922691"/>
     <use style="stroke:#000000;" x="163.770811" xlink:href="#m1e33aace18" y="127.705217"/>
     <use style="stroke:#000000;" x="173.422703" xlink:href="#m1e33aace18" y="118.119353"/>
     <use style="stroke:#000000;" x="183.074595" xlink:href="#m1e33aace18" y="110.449187"/>
     <use style="stroke:#000000;" x="192.726486" xlink:href="#m1e33aace18" y="104.050987"/>
     <use style="stroke:#000000;" x="202.378378" xlink:href="#m1e33aace18" y="98.549185"/>
     <use style="stroke:#000000;" x="212.03027" xlink:href="#m1e33aace18" y="93.775491"/>
     <use style="stroke:#000000;" x="221.682162" xlink:href="#m1e33aace18" y="89.541938"/>
     <use style="stroke:#000000;" x="231.334054" xlink:href="#m1e33aace18" y="86.04694"/>
     <use style="stroke:#000000;" x="240.985946" xlink:href="#m1e33aace18" y="82.871753"/>
     <use style="stroke:#000000;" x="250.637838" xlink:href="#m1e33aace18" y="79.947082"/>
     <use style="stroke:#000000;" x="260.28973" xlink:href="#m1e33aace18" y="77.390657"/>
     <use style="stroke:#000000;" x="269.941622" xlink:href="#m1e33aace18" y="75.122948"/>
     <use style="stroke:#000000;" x="289.245405" xlink:href="#m1e33aace18" y="70.823995"/>
     <use style="stroke:#000000;" x="308.549189" xlink:href="#m1e33aace18" y="67.58626"/>
     <use style="stroke:#000000;" x="327.852973" xlink:href="#m1e33aace18" y="64.656179"/>
     <use style="stroke:#000000;" x="347.156757" xlink:href="#m1e33aace18" y="62.107634"/>
     <use style="stroke:#000000;" x="366.460541" xlink:href="#m1e33aace18" y="60.067793"/>
     <use style="stroke:#000000;" x="385.764324" xlink:href="#m1e33aace18" y="58.033283"/>
     <use style="stroke:#000000;" x="405.068108" xlink:href="#m1e33aace18" y="56.372353"/>
    </g>
   </g>
   <g id="line2d_18">
    <defs>
     <path d="M -3 3 
L 3 -3 
M -3 -3 
L 3 3 
" id="m1388968806" style="stroke:#008000;"/>
    </defs>
    <g clip-path="url(#pfd1fb7e6c2)">
     <use style="fill:#008000;stroke:#008000;" x="67.251892" xlink:href="#m1388968806" y="282.050182"/>
     <use style="fill:#008000;stroke:#008000;" x="76.903784" xlink:href="#m1388968806" y="268.289418"/>
     <use style="fill:#008000;stroke:#008000;" x="86.555676" xlink:href="#m1388968806" y="254.125242"/>
     <use style="fill:#008000;stroke:#008000;" x="96.207568" xlink:href="#m1388968806" y="239.26155"/>
     <use style="fill:#008000;stroke:#008000;" x="105.859459" xlink:href="#m1388968806" y="223.714785"/>
     <use style="fill:#008000;stroke:#008000;" x="115.511351" xlink:href="#m1388968806" y="206.977564"/>
     <use style="fill:#008000;stroke:#008000;" x="125.163243" xlink:href="#m1388968806" y="189.614293"/>
     <use style="fill:#008000;stroke:#008000;" x="134.815135" xlink:href="#m1388968806" y="172.098397"/>
     <use style="fill:#008000;stroke:#008000;" x="144.467027" xlink:href="#m1388968806" y="155.058748"/>
     <use style="fill:#008000;stroke:#008000;" x="154.118919" xlink:href="#m1388968806" y="139.922691"/>
     <use style="fill:#008000;stroke:#008000;" x="163.770811" xlink:href="#m1388968806" y="127.705217"/>
     <use style="fill:#008000;stroke:#008000;" x="173.422703" xlink:href="#m1388968806" y="118.119353"/>
     <use style="fill:#008000;stroke:#008000;" x="183.074595" xlink:href="#m1388968806" y="110.449187"/>
     <use style="fill:#008000;stroke:#008000;" x="192.726486" xlink:href="#m1388968806" y="104.050987"/>
     <use style="fill:#008000;stroke:#008000;" x="202.378378" xlink:href="#m1388968806" y="98.549185"/>
     <use style="fill:#008000;stroke:#008000;" x="212.03027" xlink:href="#m1388968806" y="93.775491"/>
     <use style="fill:#008000;stroke:#008000;" x="221.682162" xlink:href="#m1388968806" y="89.541938"/>
     <use style="fill:#008000;stroke:#008000;" x="231.334054" xlink:href="#m1388968806" y="86.04694"/>
     <use style="fill:#008000;stroke:#008000;" x="240.985946" xlink:href="#m1388968806" y="82.871753"/>
     <use style="fill:#008000;stroke:#008000;" x="250.637838" xlink:href="#m1388968806" y="79.947082"/>
     <use style="fill:#008000;stroke:#008000;" x="260.28973" xlink:href="#m1388968806" y="77.390657"/>
     <use style="fill:#008000;stroke:#008000;" x="269.941622" xlink:href="#m1388968806" y="75.122948"/>
     <use style="fill:#008000;stroke:#008000;" x="289.245405" xlink:href="#m1388968806" y="70.823995"/>
     <use style="fill:#008000;stroke:#008000;" x="308.549189" xlink:href="#m1388968806" y="67.58626"/>
     <use style="fill:#008000;stroke:#008000;" x="327.852973" xlink:href="#m1388968806" y="64.656179"/>
     <use style="fill:#008000;stroke:#008000;" x="347.156757" xlink:href="#m1388968806" y="62.107634"/>
     <use style="fill:#008000;stroke:#008000;" x="366.460541" xlink:href="#m1388968806" y="60.067793"/>
     <use style="fill:#008000;stroke:#008000;" x="385.764324" xlink:href="#m1388968806" y="58.033283"/>
     <use style="fill:#008000;stroke:#008000;" x="405.068108" xlink:href="#m1388968806" y="56.372353"/>
    </g>
   </g>
   <g id="patch_3">
    <path d="M 57.6 307.584 
L 57.6 41.472 
" style="fill:none;stroke:#000000;stroke-linecap:square;stroke-linejoin:miter;stroke-width:0.8;"/>
   </g>
   <g id="patch_4">
    <path d="M 57.6 307.584 
L 414.72 307.584 
" style="fill:none;stroke:#000000;stroke-linecap:square;stroke-linejoin:miter;stroke-width:0.8;"/>
   </g>
   <g id="legend_1">
    <g id="patch_5">
     <path d="M 137.466875 302.584 
L 407.72 302.584 
Q 409.72 302.584 409.72 300.584 
L 409.72 227.91525 
Q 409.72 225.91525 407.72 225.91525 
L 137.466875 225.91525 
Q 135.466875 225.91525 135.466875 227.91525 
L 135.466875 300.584 
Q 135.466875 302.584 137.466875 302.584 
z
" style="fill:#ffffff;opacity:0.8;stroke:#cccccc;stroke-linejoin:miter;"/>
    </g>
    <g id="line2d_19">
     <path d="M 139.466875 234.013687 
L 159.466875 234.013687 
" style="fill:none;stroke:#0000ff;stroke-linecap:square;stroke-width:1.5;"/>
    </g>
    <g id="line2d_20"/>
    <g id="text_16">
     <!-- Strong Coupling Alt -->
     <g transform="translate(167.466875 237.513687)scale(0.1 -0.1)">
      <defs>
       <path d="M 3425 4513 
L 3425 3897 
Q 3066 4069 2747 4153 
Q 2428 4238 2131 4238 
Q 1616 4238 1336 4038 
Q 1056 3838 1056 3469 
Q 1056 3159 1242 3001 
Q 1428 2844 1947 2747 
L 2328 2669 
Q 3034 2534 3370 2195 
Q 3706 1856 3706 1288 
Q 3706 609 3251 259 
Q 2797 -91 1919 -91 
Q 1588 -91 1214 -16 
Q 841 59 441 206 
L 441 856 
Q 825 641 1194 531 
Q 1563 422 1919 422 
Q 2459 422 2753 634 
Q 3047 847 3047 1241 
Q 3047 1584 2836 1778 
Q 2625 1972 2144 2069 
L 1759 2144 
Q 1053 2284 737 2584 
Q 422 2884 422 3419 
Q 422 4038 858 4394 
Q 1294 4750 2059 4750 
Q 2388 4750 2728 4690 
Q 3069 4631 3425 4513 
z
" id="DejaVuSans-53" transform="scale(0.015625)"/>
       <path d="M 1172 4494 
L 1172 3500 
L 2356 3500 
L 2356 3053 
L 1172 3053 
L 1172 1153 
Q 1172 725 1289 603 
Q 1406 481 1766 481 
L 2356 481 
L 2356 0 
L 1766 0 
Q 1100 0 847 248 
Q 594 497 594 1153 
L 594 3053 
L 172 3053 
L 172 3500 
L 594 3500 
L 594 4494 
L 1172 4494 
z
" id="DejaVuSans-74" transform="scale(0.015625)"/>
       <path d="M 2631 2963 
Q 2534 3019 2420 3045 
Q 2306 3072 2169 3072 
Q 1681 3072 1420 2755 
Q 1159 2438 1159 1844 
L 1159 0 
L 581 0 
L 581 3500 
L 1159 3500 
L 1159 2956 
Q 1341 3275 1631 3429 
Q 1922 3584 2338 3584 
Q 2397 3584 2469 3576 
Q 2541 3569 2628 3553 
L 2631 2963 
z
" id="DejaVuSans-72" transform="scale(0.015625)"/>
       <path d="M 1959 3097 
Q 1497 3097 1228 2736 
Q 959 2375 959 1747 
Q 959 1119 1226 758 
Q 1494 397 1959 397 
Q 2419 397 2687 759 
Q 2956 1122 2956 1747 
Q 2956 2369 2687 2733 
Q 2419 3097 1959 3097 
z
M 1959 3584 
Q 2709 3584 3137 3096 
Q 3566 2609 3566 1747 
Q 3566 888 3137 398 
Q 2709 -91 1959 -91 
Q 1206 -91 779 398 
Q 353 888 353 1747 
Q 353 2609 779 3096 
Q 1206 3584 1959 3584 
z
" id="DejaVuSans-6f" transform="scale(0.015625)"/>
       <path d="M 3513 2113 
L 3513 0 
L 2938 0 
L 2938 2094 
Q 2938 2591 2744 2837 
Q 2550 3084 2163 3084 
Q 1697 3084 1428 2787 
Q 1159 2491 1159 1978 
L 1159 0 
L 581 0 
L 581 3500 
L 1159 3500 
L 1159 2956 
Q 1366 3272 1645 3428 
Q 1925 3584 2291 3584 
Q 2894 3584 3203 3211 
Q 3513 2838 3513 2113 
z
" id="DejaVuSans-6e" transform="scale(0.015625)"/>
       <path d="M 2906 1791 
Q 2906 2416 2648 2759 
Q 2391 3103 1925 3103 
Q 1463 3103 1205 2759 
Q 947 2416 947 1791 
Q 947 1169 1205 825 
Q 1463 481 1925 481 
Q 2391 481 2648 825 
Q 2906 1169 2906 1791 
z
M 3481 434 
Q 3481 -459 3084 -895 
Q 2688 -1331 1869 -1331 
Q 1566 -1331 1297 -1286 
Q 1028 -1241 775 -1147 
L 775 -588 
Q 1028 -725 1275 -790 
Q 1522 -856 1778 -856 
Q 2344 -856 2625 -561 
Q 2906 -266 2906 331 
L 2906 616 
Q 2728 306 2450 153 
Q 2172 0 1784 0 
Q 1141 0 747 490 
Q 353 981 353 1791 
Q 353 2603 747 3093 
Q 1141 3584 1784 3584 
Q 2172 3584 2450 3431 
Q 2728 3278 2906 2969 
L 2906 3500 
L 3481 3500 
L 3481 434 
z
" id="DejaVuSans-67" transform="scale(0.015625)"/>
       <path id="DejaVuSans-20" transform="scale(0.015625)"/>
       <path d="M 4122 4306 
L 4122 3641 
Q 3803 3938 3442 4084 
Q 3081 4231 2675 4231 
Q 1875 4231 1450 3742 
Q 1025 3253 1025 2328 
Q 1025 1406 1450 917 
Q 1875 428 2675 428 
Q 3081 428 3442 575 
Q 3803 722 4122 1019 
L 4122 359 
Q 3791 134 3420 21 
Q 3050 -91 2638 -91 
Q 1578 -91 968 557 
Q 359 1206 359 2328 
Q 359 3453 968 4101 
Q 1578 4750 2638 4750 
Q 3056 4750 3426 4639 
Q 3797 4528 4122 4306 
z
" id="DejaVuSans-43" transform="scale(0.015625)"/>
       <path d="M 544 1381 
L 544 3500 
L 1119 3500 
L 1119 1403 
Q 1119 906 1312 657 
Q 1506 409 1894 409 
Q 2359 409 2629 706 
Q 2900 1003 2900 1516 
L 2900 3500 
L 3475 3500 
L 3475 0 
L 2900 0 
L 2900 538 
Q 2691 219 2414 64 
Q 2138 -91 1772 -91 
Q 1169 -91 856 284 
Q 544 659 544 1381 
z
M 1991 3584 
L 1991 3584 
z
" id="DejaVuSans-75" transform="scale(0.015625)"/>
       <path d="M 1159 525 
L 1159 -1331 
L 581 -1331 
L 581 3500 
L 1159 3500 
L 1159 2969 
Q 1341 3281 1617 3432 
Q 1894 3584 2278 3584 
Q 2916 3584 3314 3078 
Q 3713 2572 3713 1747 
Q 3713 922 3314 415 
Q 2916 -91 2278 -91 
Q 1894 -91 1617 61 
Q 1341 213 1159 525 
z
M 3116 1747 
Q 3116 2381 2855 2742 
Q 2594 3103 2138 3103 
Q 1681 3103 1420 2742 
Q 1159 2381 1159 1747 
Q 1159 1113 1420 752 
Q 1681 391 2138 391 
Q 2594 391 2855 752 
Q 3116 1113 3116 1747 
z
" id="DejaVuSans-70" transform="scale(0.015625)"/>
       <path d="M 603 4863 
L 1178 4863 
L 1178 0 
L 603 0 
L 603 4863 
z
" id="DejaVuSans-6c" transform="scale(0.015625)"/>
       <path d="M 603 3500 
L 1178 3500 
L 1178 0 
L 603 0 
L 603 3500 
z
M 603 4863 
L 1178 4863 
L 1178 4134 
L 603 4134 
L 603 4863 
z
" id="DejaVuSans-69" transform="scale(0.015625)"/>
       <path d="M 2188 4044 
L 1331 1722 
L 3047 1722 
L 2188 4044 
z
M 1831 4666 
L 2547 4666 
L 4325 0 
L 3669 0 
L 3244 1197 
L 1141 1197 
L 716 0 
L 50 0 
L 1831 4666 
z
" id="DejaVuSans-41" transform="scale(0.015625)"/>
      </defs>
      <use xlink:href="#DejaVuSans-53"/>
      <use x="63.476562" xlink:href="#DejaVuSans-74"/>
      <use x="102.685547" xlink:href="#DejaVuSans-72"/>
      <use x="141.548828" xlink:href="#DejaVuSans-6f"/>
      <use x="202.730469" xlink:href="#DejaVuSans-6e"/>
      <use x="266.109375" xlink:href="#DejaVuSans-67"/>
      <use x="329.585938" xlink:href="#DejaVuSans-20"/>
      <use x="361.373047" xlink:href="#DejaVuSans-43"/>
      <use x="431.197266" xlink:href="#DejaVuSans-6f"/>
      <use x="492.378906" xlink:href="#DejaVuSans-75"/>
      <use x="555.757812" xlink:href="#DejaVuSans-70"/>
      <use x="619.234375" xlink:href="#DejaVuSans-6c"/>
      <use x="647.017578" xlink:href="#DejaVuSans-69"/>
      <use x="674.800781" xlink:href="#DejaVuSans-6e"/>
      <use x="738.179688" xlink:href="#DejaVuSans-67"/>
      <use x="801.65625" xlink:href="#DejaVuSans-20"/>
      <use x="833.443359" xlink:href="#DejaVuSans-41"/>
      <use x="901.851562" xlink:href="#DejaVuSans-6c"/>
      <use x="929.634766" xlink:href="#DejaVuSans-74"/>
     </g>
    </g>
    <g id="line2d_21">
     <path d="M 139.466875 248.691812 
L 159.466875 248.691812 
" style="fill:none;stroke:#0000ff;stroke-linecap:square;stroke-width:1.5;"/>
    </g>
    <g id="line2d_22"/>
    <g id="text_17">
     <!-- Strong Coupling -->
     <g transform="translate(167.466875 252.191812)scale(0.1 -0.1)">
      <use xlink:href="#DejaVuSans-53"/>
      <use x="63.476562" xlink:href="#DejaVuSans-74"/>
      <use x="102.685547" xlink:href="#DejaVuSans-72"/>
      <use x="141.548828" xlink:href="#DejaVuSans-6f"/>
      <use x="202.730469" xlink:href="#DejaVuSans-6e"/>
      <use x="266.109375" xlink:href="#DejaVuSans-67"/>
      <use x="329.585938" xlink:href="#DejaVuSans-20"/>
      <use x="361.373047" xlink:href="#DejaVuSans-43"/>
      <use x="431.197266" xlink:href="#DejaVuSans-6f"/>
      <use x="492.378906" xlink:href="#DejaVuSans-75"/>
      <use x="555.757812" xlink:href="#DejaVuSans-70"/>
      <use x="619.234375" xlink:href="#DejaVuSans-6c"/>
      <use x="647.017578" xlink:href="#DejaVuSans-69"/>
      <use x="674.800781" xlink:href="#DejaVuSans-6e"/>
      <use x="738.179688" xlink:href="#DejaVuSans-67"/>
     </g>
    </g>
    <g id="line2d_23">
     <path d="M 139.466875 263.369937 
L 159.466875 263.369937 
" style="fill:none;stroke:#ff0000;stroke-linecap:square;stroke-width:1.5;"/>
    </g>
    <g id="line2d_24"/>
    <g id="text_18">
     <!-- Weak Coupling -->
     <g transform="translate(167.466875 266.869937)scale(0.1 -0.1)">
      <defs>
       <path d="M 213 4666 
L 850 4666 
L 1831 722 
L 2809 4666 
L 3519 4666 
L 4500 722 
L 5478 4666 
L 6119 4666 
L 4947 0 
L 4153 0 
L 3169 4050 
L 2175 0 
L 1381 0 
L 213 4666 
z
" id="DejaVuSans-57" transform="scale(0.015625)"/>
       <path d="M 3597 1894 
L 3597 1613 
L 953 1613 
Q 991 1019 1311 708 
Q 1631 397 2203 397 
Q 2534 397 2845 478 
Q 3156 559 3463 722 
L 3463 178 
Q 3153 47 2828 -22 
Q 2503 -91 2169 -91 
Q 1331 -91 842 396 
Q 353 884 353 1716 
Q 353 2575 817 3079 
Q 1281 3584 2069 3584 
Q 2775 3584 3186 3129 
Q 3597 2675 3597 1894 
z
M 3022 2063 
Q 3016 2534 2758 2815 
Q 2500 3097 2075 3097 
Q 1594 3097 1305 2825 
Q 1016 2553 972 2059 
L 3022 2063 
z
" id="DejaVuSans-65" transform="scale(0.015625)"/>
       <path d="M 2194 1759 
Q 1497 1759 1228 1600 
Q 959 1441 959 1056 
Q 959 750 1161 570 
Q 1363 391 1709 391 
Q 2188 391 2477 730 
Q 2766 1069 2766 1631 
L 2766 1759 
L 2194 1759 
z
M 3341 1997 
L 3341 0 
L 2766 0 
L 2766 531 
Q 2569 213 2275 61 
Q 1981 -91 1556 -91 
Q 1019 -91 701 211 
Q 384 513 384 1019 
Q 384 1609 779 1909 
Q 1175 2209 1959 2209 
L 2766 2209 
L 2766 2266 
Q 2766 2663 2505 2880 
Q 2244 3097 1772 3097 
Q 1472 3097 1187 3025 
Q 903 2953 641 2809 
L 641 3341 
Q 956 3463 1253 3523 
Q 1550 3584 1831 3584 
Q 2591 3584 2966 3190 
Q 3341 2797 3341 1997 
z
" id="DejaVuSans-61" transform="scale(0.015625)"/>
       <path d="M 581 4863 
L 1159 4863 
L 1159 1991 
L 2875 3500 
L 3609 3500 
L 1753 1863 
L 3688 0 
L 2938 0 
L 1159 1709 
L 1159 0 
L 581 0 
L 581 4863 
z
" id="DejaVuSans-6b" transform="scale(0.015625)"/>
      </defs>
      <use xlink:href="#DejaVuSans-57"/>
      <use x="93.001953" xlink:href="#DejaVuSans-65"/>
      <use x="154.525391" xlink:href="#DejaVuSans-61"/>
      <use x="215.804688" xlink:href="#DejaVuSans-6b"/>
      <use x="273.714844" xlink:href="#DejaVuSans-20"/>
      <use x="305.501953" xlink:href="#DejaVuSans-43"/>
      <use x="375.326172" xlink:href="#DejaVuSans-6f"/>
      <use x="436.507812" xlink:href="#DejaVuSans-75"/>
      <use x="499.886719" xlink:href="#DejaVuSans-70"/>
      <use x="563.363281" xlink:href="#DejaVuSans-6c"/>
      <use x="591.146484" xlink:href="#DejaVuSans-69"/>
      <use x="618.929688" xlink:href="#DejaVuSans-6e"/>
      <use x="682.308594" xlink:href="#DejaVuSans-67"/>
     </g>
    </g>
    <g id="LineCollection_3">
     <path d="M 149.466875 283.048063 
L 149.466875 273.048063 
" style="fill:none;stroke:#000000;stroke-width:1.5;"/>
    </g>
    <g id="line2d_25"/>
    <g id="line2d_26">
     <g>
      <use style="stroke:#000000;" x="149.466875" xlink:href="#m1e33aace18" y="278.048063"/>
     </g>
    </g>
    <g id="text_19">
     <!-- Data With Exact Exponetnial -->
     <g transform="translate(167.466875 281.548063)scale(0.1 -0.1)">
      <defs>
       <path d="M 1259 4147 
L 1259 519 
L 2022 519 
Q 2988 519 3436 956 
Q 3884 1394 3884 2338 
Q 3884 3275 3436 3711 
Q 2988 4147 2022 4147 
L 1259 4147 
z
M 628 4666 
L 1925 4666 
Q 3281 4666 3915 4102 
Q 4550 3538 4550 2338 
Q 4550 1131 3912 565 
Q 3275 0 1925 0 
L 628 0 
L 628 4666 
z
" id="DejaVuSans-44" transform="scale(0.015625)"/>
       <path d="M 3513 2113 
L 3513 0 
L 2938 0 
L 2938 2094 
Q 2938 2591 2744 2837 
Q 2550 3084 2163 3084 
Q 1697 3084 1428 2787 
Q 1159 2491 1159 1978 
L 1159 0 
L 581 0 
L 581 4863 
L 1159 4863 
L 1159 2956 
Q 1366 3272 1645 3428 
Q 1925 3584 2291 3584 
Q 2894 3584 3203 3211 
Q 3513 2838 3513 2113 
z
" id="DejaVuSans-68" transform="scale(0.015625)"/>
       <path d="M 628 4666 
L 3578 4666 
L 3578 4134 
L 1259 4134 
L 1259 2753 
L 3481 2753 
L 3481 2222 
L 1259 2222 
L 1259 531 
L 3634 531 
L 3634 0 
L 628 0 
L 628 4666 
z
" id="DejaVuSans-45" transform="scale(0.015625)"/>
       <path d="M 3513 3500 
L 2247 1797 
L 3578 0 
L 2900 0 
L 1881 1375 
L 863 0 
L 184 0 
L 1544 1831 
L 300 3500 
L 978 3500 
L 1906 2253 
L 2834 3500 
L 3513 3500 
z
" id="DejaVuSans-78" transform="scale(0.015625)"/>
       <path d="M 3122 3366 
L 3122 2828 
Q 2878 2963 2633 3030 
Q 2388 3097 2138 3097 
Q 1578 3097 1268 2742 
Q 959 2388 959 1747 
Q 959 1106 1268 751 
Q 1578 397 2138 397 
Q 2388 397 2633 464 
Q 2878 531 3122 666 
L 3122 134 
Q 2881 22 2623 -34 
Q 2366 -91 2075 -91 
Q 1284 -91 818 406 
Q 353 903 353 1747 
Q 353 2603 823 3093 
Q 1294 3584 2113 3584 
Q 2378 3584 2631 3529 
Q 2884 3475 3122 3366 
z
" id="DejaVuSans-63" transform="scale(0.015625)"/>
      </defs>
      <use xlink:href="#DejaVuSans-44"/>
      <use x="77.001953" xlink:href="#DejaVuSans-61"/>
      <use x="138.28125" xlink:href="#DejaVuSans-74"/>
      <use x="177.490234" xlink:href="#DejaVuSans-61"/>
      <use x="238.769531" xlink:href="#DejaVuSans-20"/>
      <use x="270.556641" xlink:href="#DejaVuSans-57"/>
      <use x="367.183594" xlink:href="#DejaVuSans-69"/>
      <use x="394.966797" xlink:href="#DejaVuSans-74"/>
      <use x="434.175781" xlink:href="#DejaVuSans-68"/>
      <use x="497.554688" xlink:href="#DejaVuSans-20"/>
      <use x="529.341797" xlink:href="#DejaVuSans-45"/>
      <use x="592.525391" xlink:href="#DejaVuSans-78"/>
      <use x="651.705078" xlink:href="#DejaVuSans-61"/>
      <use x="712.984375" xlink:href="#DejaVuSans-63"/>
      <use x="767.964844" xlink:href="#DejaVuSans-74"/>
      <use x="807.173828" xlink:href="#DejaVuSans-20"/>
      <use x="838.960938" xlink:href="#DejaVuSans-45"/>
      <use x="902.144531" xlink:href="#DejaVuSans-78"/>
      <use x="961.324219" xlink:href="#DejaVuSans-70"/>
      <use x="1024.800781" xlink:href="#DejaVuSans-6f"/>
      <use x="1085.982422" xlink:href="#DejaVuSans-6e"/>
      <use x="1149.361328" xlink:href="#DejaVuSans-65"/>
      <use x="1210.884766" xlink:href="#DejaVuSans-74"/>
      <use x="1250.09375" xlink:href="#DejaVuSans-6e"/>
      <use x="1313.472656" xlink:href="#DejaVuSans-69"/>
      <use x="1341.255859" xlink:href="#DejaVuSans-61"/>
      <use x="1402.535156" xlink:href="#DejaVuSans-6c"/>
     </g>
    </g>
    <g id="LineCollection_4">
     <path d="M 149.466875 297.726187 
L 149.466875 287.726187 
" style="fill:none;stroke:#008000;stroke-width:1.5;"/>
    </g>
    <g id="line2d_27"/>
    <g id="line2d_28">
     <g>
      <use style="fill:#008000;stroke:#008000;" x="149.466875" xlink:href="#m1388968806" y="292.726187"/>
     </g>
    </g>
    <g id="text_20">
     <!-- Data with Taylor of Order = 0 and N_order = 10 -->
     <g transform="translate(167.466875 296.226187)scale(0.1 -0.1)">
      <defs>
       <path d="M 269 3500 
L 844 3500 
L 1563 769 
L 2278 3500 
L 2956 3500 
L 3675 769 
L 4391 3500 
L 4966 3500 
L 4050 0 
L 3372 0 
L 2619 2869 
L 1863 0 
L 1184 0 
L 269 3500 
z
" id="DejaVuSans-77" transform="scale(0.015625)"/>
       <path d="M -19 4666 
L 3928 4666 
L 3928 4134 
L 2272 4134 
L 2272 0 
L 1638 0 
L 1638 4134 
L -19 4134 
L -19 4666 
z
" id="DejaVuSans-54" transform="scale(0.015625)"/>
       <path d="M 2059 -325 
Q 1816 -950 1584 -1140 
Q 1353 -1331 966 -1331 
L 506 -1331 
L 506 -850 
L 844 -850 
Q 1081 -850 1212 -737 
Q 1344 -625 1503 -206 
L 1606 56 
L 191 3500 
L 800 3500 
L 1894 763 
L 2988 3500 
L 3597 3500 
L 2059 -325 
z
" id="DejaVuSans-79" transform="scale(0.015625)"/>
       <path d="M 2375 4863 
L 2375 4384 
L 1825 4384 
Q 1516 4384 1395 4259 
Q 1275 4134 1275 3809 
L 1275 3500 
L 2222 3500 
L 2222 3053 
L 1275 3053 
L 1275 0 
L 697 0 
L 697 3053 
L 147 3053 
L 147 3500 
L 697 3500 
L 697 3744 
Q 697 4328 969 4595 
Q 1241 4863 1831 4863 
L 2375 4863 
z
" id="DejaVuSans-66" transform="scale(0.015625)"/>
       <path d="M 2522 4238 
Q 1834 4238 1429 3725 
Q 1025 3213 1025 2328 
Q 1025 1447 1429 934 
Q 1834 422 2522 422 
Q 3209 422 3611 934 
Q 4013 1447 4013 2328 
Q 4013 3213 3611 3725 
Q 3209 4238 2522 4238 
z
M 2522 4750 
Q 3503 4750 4090 4092 
Q 4678 3434 4678 2328 
Q 4678 1225 4090 567 
Q 3503 -91 2522 -91 
Q 1538 -91 948 565 
Q 359 1222 359 2328 
Q 359 3434 948 4092 
Q 1538 4750 2522 4750 
z
" id="DejaVuSans-4f" transform="scale(0.015625)"/>
       <path d="M 2906 2969 
L 2906 4863 
L 3481 4863 
L 3481 0 
L 2906 0 
L 2906 525 
Q 2725 213 2448 61 
Q 2172 -91 1784 -91 
Q 1150 -91 751 415 
Q 353 922 353 1747 
Q 353 2572 751 3078 
Q 1150 3584 1784 3584 
Q 2172 3584 2448 3432 
Q 2725 3281 2906 2969 
z
M 947 1747 
Q 947 1113 1208 752 
Q 1469 391 1925 391 
Q 2381 391 2643 752 
Q 2906 1113 2906 1747 
Q 2906 2381 2643 2742 
Q 2381 3103 1925 3103 
Q 1469 3103 1208 2742 
Q 947 2381 947 1747 
z
" id="DejaVuSans-64" transform="scale(0.015625)"/>
       <path d="M 678 2906 
L 4684 2906 
L 4684 2381 
L 678 2381 
L 678 2906 
z
M 678 1631 
L 4684 1631 
L 4684 1100 
L 678 1100 
L 678 1631 
z
" id="DejaVuSans-3d" transform="scale(0.015625)"/>
       <path d="M 628 4666 
L 1478 4666 
L 3547 763 
L 3547 4666 
L 4159 4666 
L 4159 0 
L 3309 0 
L 1241 3903 
L 1241 0 
L 628 0 
L 628 4666 
z
" id="DejaVuSans-4e" transform="scale(0.015625)"/>
       <path d="M 3263 -1063 
L 3263 -1509 
L -63 -1509 
L -63 -1063 
L 3263 -1063 
z
" id="DejaVuSans-5f" transform="scale(0.015625)"/>
      </defs>
      <use xlink:href="#DejaVuSans-44"/>
      <use x="77.001953" xlink:href="#DejaVuSans-61"/>
      <use x="138.28125" xlink:href="#DejaVuSans-74"/>
      <use x="177.490234" xlink:href="#DejaVuSans-61"/>
      <use x="238.769531" xlink:href="#DejaVuSans-20"/>
      <use x="270.556641" xlink:href="#DejaVuSans-77"/>
      <use x="352.34375" xlink:href="#DejaVuSans-69"/>
      <use x="380.126953" xlink:href="#DejaVuSans-74"/>
      <use x="419.335938" xlink:href="#DejaVuSans-68"/>
      <use x="482.714844" xlink:href="#DejaVuSans-20"/>
      <use x="514.501953" xlink:href="#DejaVuSans-54"/>
      <use x="559.085938" xlink:href="#DejaVuSans-61"/>
      <use x="620.365234" xlink:href="#DejaVuSans-79"/>
      <use x="679.544922" xlink:href="#DejaVuSans-6c"/>
      <use x="707.328125" xlink:href="#DejaVuSans-6f"/>
      <use x="768.509766" xlink:href="#DejaVuSans-72"/>
      <use x="809.623047" xlink:href="#DejaVuSans-20"/>
      <use x="841.410156" xlink:href="#DejaVuSans-6f"/>
      <use x="902.591797" xlink:href="#DejaVuSans-66"/>
      <use x="937.796875" xlink:href="#DejaVuSans-20"/>
      <use x="969.583984" xlink:href="#DejaVuSans-4f"/>
      <use x="1048.294922" xlink:href="#DejaVuSans-72"/>
      <use x="1087.658203" xlink:href="#DejaVuSans-64"/>
      <use x="1151.134766" xlink:href="#DejaVuSans-65"/>
      <use x="1212.658203" xlink:href="#DejaVuSans-72"/>
      <use x="1253.771484" xlink:href="#DejaVuSans-20"/>
      <use x="1285.558594" xlink:href="#DejaVuSans-3d"/>
      <use x="1369.347656" xlink:href="#DejaVuSans-20"/>
      <use x="1401.134766" xlink:href="#DejaVuSans-30"/>
      <use x="1464.757812" xlink:href="#DejaVuSans-20"/>
      <use x="1496.544922" xlink:href="#DejaVuSans-61"/>
      <use x="1557.824219" xlink:href="#DejaVuSans-6e"/>
      <use x="1621.203125" xlink:href="#DejaVuSans-64"/>
      <use x="1684.679688" xlink:href="#DejaVuSans-20"/>
      <use x="1716.466797" xlink:href="#DejaVuSans-4e"/>
      <use x="1791.271484" xlink:href="#DejaVuSans-5f"/>
      <use x="1841.271484" xlink:href="#DejaVuSans-6f"/>
      <use x="1902.453125" xlink:href="#DejaVuSans-72"/>
      <use x="1941.816406" xlink:href="#DejaVuSans-64"/>
      <use x="2005.292969" xlink:href="#DejaVuSans-65"/>
      <use x="2066.816406" xlink:href="#DejaVuSans-72"/>
      <use x="2107.929688" xlink:href="#DejaVuSans-20"/>
      <use x="2139.716797" xlink:href="#DejaVuSans-3d"/>
      <use x="2223.505859" xlink:href="#DejaVuSans-20"/>
      <use x="2255.292969" xlink:href="#DejaVuSans-31"/>
      <use x="2318.916016" xlink:href="#DejaVuSans-30"/>
     </g>
    </g>
   </g>
  </g>
 </g>
 <defs>
  <clipPath id="pfd1fb7e6c2">
   <rect height="266.112" width="357.12" x="57.6" y="41.472"/>
  </clipPath>
 </defs>
</svg>
