<?xml version="1.0" encoding="utf-8" standalone="no"?>
<!DOCTYPE svg PUBLIC "-//W3C//DTD SVG 1.1//EN"
  "http://www.w3.org/Graphics/SVG/1.1/DTD/svg11.dtd">
<svg height="432pt" version="1.1" viewBox="0 0 576 432" width="576pt" xmlns="http://www.w3.org/2000/svg" xmlns:xlink="http://www.w3.org/1999/xlink">
 <metadata>
  <rdf:RDF xmlns:cc="http://creativecommons.org/ns#" xmlns:dc="http://purl.org/dc/elements/1.1/" xmlns:rdf="http://www.w3.org/1999/02/22-rdf-syntax-ns#">
   <cc:Work>
    <dc:type rdf:resource="http://purl.org/dc/dcmitype/StillImage"/>
    <dc:date>2023-11-21T13:53:43.825204</dc:date>
    <dc:format>image/svg+xml</dc:format>
    <dc:creator>
     <cc:Agent>
      <dc:title>Matplotlib v3.4.1, https://matplotlib.org/</dc:title>
     </cc:Agent>
    </dc:creator>
   </cc:Work>
  </rdf:RDF>
 </metadata>
 <defs>
  <style type="text/css">*{stroke-linecap:butt;stroke-linejoin:round;}</style>
 </defs>
 <g id="figure_1">
  <g id="patch_1">
   <path d="M 0 432 
L 576 432 
L 576 0 
L 0 0 
z
" style="fill:#ffffff;"/>
  </g>
  <g id="axes_1">
   <g id="patch_2">
    <path d="M 72 384.48 
L 518.4 384.48 
L 518.4 51.84 
L 72 51.84 
z
" style="fill:#ffffff;"/>
   </g>
   <g id="matplotlib.axis_1">
    <g id="xtick_1">
     <g id="line2d_1">
      <defs>
       <path d="M 0 0 
L 0 3.5 
" id="m98b6ee2e53" style="stroke:#000000;stroke-width:0.8;"/>
      </defs>
      <g>
       <use style="stroke:#000000;stroke-width:0.8;" x="92.290909" xlink:href="#m98b6ee2e53" y="384.48"/>
      </g>
     </g>
     <g id="text_1">
      <!-- 0 -->
      <g transform="translate(89.109659 399.078438)scale(0.1 -0.1)">
       <defs>
        <path d="M 2034 4250 
Q 1547 4250 1301 3770 
Q 1056 3291 1056 2328 
Q 1056 1369 1301 889 
Q 1547 409 2034 409 
Q 2525 409 2770 889 
Q 3016 1369 3016 2328 
Q 3016 3291 2770 3770 
Q 2525 4250 2034 4250 
z
M 2034 4750 
Q 2819 4750 3233 4129 
Q 3647 3509 3647 2328 
Q 3647 1150 3233 529 
Q 2819 -91 2034 -91 
Q 1250 -91 836 529 
Q 422 1150 422 2328 
Q 422 3509 836 4129 
Q 1250 4750 2034 4750 
z
" id="DejaVuSans-30" transform="scale(0.015625)"/>
       </defs>
       <use xlink:href="#DejaVuSans-30"/>
      </g>
     </g>
    </g>
    <g id="xtick_2">
     <g id="line2d_2">
      <g>
       <use style="stroke:#000000;stroke-width:0.8;" x="142.391919" xlink:href="#m98b6ee2e53" y="384.48"/>
      </g>
     </g>
     <g id="text_2">
      <!-- 10 -->
      <g transform="translate(136.029419 399.078438)scale(0.1 -0.1)">
       <defs>
        <path d="M 794 531 
L 1825 531 
L 1825 4091 
L 703 3866 
L 703 4441 
L 1819 4666 
L 2450 4666 
L 2450 531 
L 3481 531 
L 3481 0 
L 794 0 
L 794 531 
z
" id="DejaVuSans-31" transform="scale(0.015625)"/>
       </defs>
       <use xlink:href="#DejaVuSans-31"/>
       <use x="63.623047" xlink:href="#DejaVuSans-30"/>
      </g>
     </g>
    </g>
    <g id="xtick_3">
     <g id="line2d_3">
      <g>
       <use style="stroke:#000000;stroke-width:0.8;" x="192.492929" xlink:href="#m98b6ee2e53" y="384.48"/>
      </g>
     </g>
     <g id="text_3">
      <!-- 20 -->
      <g transform="translate(186.130429 399.078438)scale(0.1 -0.1)">
       <defs>
        <path d="M 1228 531 
L 3431 531 
L 3431 0 
L 469 0 
L 469 531 
Q 828 903 1448 1529 
Q 2069 2156 2228 2338 
Q 2531 2678 2651 2914 
Q 2772 3150 2772 3378 
Q 2772 3750 2511 3984 
Q 2250 4219 1831 4219 
Q 1534 4219 1204 4116 
Q 875 4013 500 3803 
L 500 4441 
Q 881 4594 1212 4672 
Q 1544 4750 1819 4750 
Q 2544 4750 2975 4387 
Q 3406 4025 3406 3419 
Q 3406 3131 3298 2873 
Q 3191 2616 2906 2266 
Q 2828 2175 2409 1742 
Q 1991 1309 1228 531 
z
" id="DejaVuSans-32" transform="scale(0.015625)"/>
       </defs>
       <use xlink:href="#DejaVuSans-32"/>
       <use x="63.623047" xlink:href="#DejaVuSans-30"/>
      </g>
     </g>
    </g>
    <g id="xtick_4">
     <g id="line2d_4">
      <g>
       <use style="stroke:#000000;stroke-width:0.8;" x="242.593939" xlink:href="#m98b6ee2e53" y="384.48"/>
      </g>
     </g>
     <g id="text_4">
      <!-- 30 -->
      <g transform="translate(236.231439 399.078438)scale(0.1 -0.1)">
       <defs>
        <path d="M 2597 2516 
Q 3050 2419 3304 2112 
Q 3559 1806 3559 1356 
Q 3559 666 3084 287 
Q 2609 -91 1734 -91 
Q 1441 -91 1130 -33 
Q 819 25 488 141 
L 488 750 
Q 750 597 1062 519 
Q 1375 441 1716 441 
Q 2309 441 2620 675 
Q 2931 909 2931 1356 
Q 2931 1769 2642 2001 
Q 2353 2234 1838 2234 
L 1294 2234 
L 1294 2753 
L 1863 2753 
Q 2328 2753 2575 2939 
Q 2822 3125 2822 3475 
Q 2822 3834 2567 4026 
Q 2313 4219 1838 4219 
Q 1578 4219 1281 4162 
Q 984 4106 628 3988 
L 628 4550 
Q 988 4650 1302 4700 
Q 1616 4750 1894 4750 
Q 2613 4750 3031 4423 
Q 3450 4097 3450 3541 
Q 3450 3153 3228 2886 
Q 3006 2619 2597 2516 
z
" id="DejaVuSans-33" transform="scale(0.015625)"/>
       </defs>
       <use xlink:href="#DejaVuSans-33"/>
       <use x="63.623047" xlink:href="#DejaVuSans-30"/>
      </g>
     </g>
    </g>
    <g id="xtick_5">
     <g id="line2d_5">
      <g>
       <use style="stroke:#000000;stroke-width:0.8;" x="292.694949" xlink:href="#m98b6ee2e53" y="384.48"/>
      </g>
     </g>
     <g id="text_5">
      <!-- 40 -->
      <g transform="translate(286.332449 399.078438)scale(0.1 -0.1)">
       <defs>
        <path d="M 2419 4116 
L 825 1625 
L 2419 1625 
L 2419 4116 
z
M 2253 4666 
L 3047 4666 
L 3047 1625 
L 3713 1625 
L 3713 1100 
L 3047 1100 
L 3047 0 
L 2419 0 
L 2419 1100 
L 313 1100 
L 313 1709 
L 2253 4666 
z
" id="DejaVuSans-34" transform="scale(0.015625)"/>
       </defs>
       <use xlink:href="#DejaVuSans-34"/>
       <use x="63.623047" xlink:href="#DejaVuSans-30"/>
      </g>
     </g>
    </g>
    <g id="xtick_6">
     <g id="line2d_6">
      <g>
       <use style="stroke:#000000;stroke-width:0.8;" x="342.79596" xlink:href="#m98b6ee2e53" y="384.48"/>
      </g>
     </g>
     <g id="text_6">
      <!-- 50 -->
      <g transform="translate(336.43346 399.078438)scale(0.1 -0.1)">
       <defs>
        <path d="M 691 4666 
L 3169 4666 
L 3169 4134 
L 1269 4134 
L 1269 2991 
Q 1406 3038 1543 3061 
Q 1681 3084 1819 3084 
Q 2600 3084 3056 2656 
Q 3513 2228 3513 1497 
Q 3513 744 3044 326 
Q 2575 -91 1722 -91 
Q 1428 -91 1123 -41 
Q 819 9 494 109 
L 494 744 
Q 775 591 1075 516 
Q 1375 441 1709 441 
Q 2250 441 2565 725 
Q 2881 1009 2881 1497 
Q 2881 1984 2565 2268 
Q 2250 2553 1709 2553 
Q 1456 2553 1204 2497 
Q 953 2441 691 2322 
L 691 4666 
z
" id="DejaVuSans-35" transform="scale(0.015625)"/>
       </defs>
       <use xlink:href="#DejaVuSans-35"/>
       <use x="63.623047" xlink:href="#DejaVuSans-30"/>
      </g>
     </g>
    </g>
    <g id="xtick_7">
     <g id="line2d_7">
      <g>
       <use style="stroke:#000000;stroke-width:0.8;" x="392.89697" xlink:href="#m98b6ee2e53" y="384.48"/>
      </g>
     </g>
     <g id="text_7">
      <!-- 60 -->
      <g transform="translate(386.53447 399.078438)scale(0.1 -0.1)">
       <defs>
        <path d="M 2113 2584 
Q 1688 2584 1439 2293 
Q 1191 2003 1191 1497 
Q 1191 994 1439 701 
Q 1688 409 2113 409 
Q 2538 409 2786 701 
Q 3034 994 3034 1497 
Q 3034 2003 2786 2293 
Q 2538 2584 2113 2584 
z
M 3366 4563 
L 3366 3988 
Q 3128 4100 2886 4159 
Q 2644 4219 2406 4219 
Q 1781 4219 1451 3797 
Q 1122 3375 1075 2522 
Q 1259 2794 1537 2939 
Q 1816 3084 2150 3084 
Q 2853 3084 3261 2657 
Q 3669 2231 3669 1497 
Q 3669 778 3244 343 
Q 2819 -91 2113 -91 
Q 1303 -91 875 529 
Q 447 1150 447 2328 
Q 447 3434 972 4092 
Q 1497 4750 2381 4750 
Q 2619 4750 2861 4703 
Q 3103 4656 3366 4563 
z
" id="DejaVuSans-36" transform="scale(0.015625)"/>
       </defs>
       <use xlink:href="#DejaVuSans-36"/>
       <use x="63.623047" xlink:href="#DejaVuSans-30"/>
      </g>
     </g>
    </g>
    <g id="xtick_8">
     <g id="line2d_8">
      <g>
       <use style="stroke:#000000;stroke-width:0.8;" x="442.99798" xlink:href="#m98b6ee2e53" y="384.48"/>
      </g>
     </g>
     <g id="text_8">
      <!-- 70 -->
      <g transform="translate(436.63548 399.078438)scale(0.1 -0.1)">
       <defs>
        <path d="M 525 4666 
L 3525 4666 
L 3525 4397 
L 1831 0 
L 1172 0 
L 2766 4134 
L 525 4134 
L 525 4666 
z
" id="DejaVuSans-37" transform="scale(0.015625)"/>
       </defs>
       <use xlink:href="#DejaVuSans-37"/>
       <use x="63.623047" xlink:href="#DejaVuSans-30"/>
      </g>
     </g>
    </g>
    <g id="xtick_9">
     <g id="line2d_9">
      <g>
       <use style="stroke:#000000;stroke-width:0.8;" x="493.09899" xlink:href="#m98b6ee2e53" y="384.48"/>
      </g>
     </g>
     <g id="text_9">
      <!-- 80 -->
      <g transform="translate(486.73649 399.078438)scale(0.1 -0.1)">
       <defs>
        <path d="M 2034 2216 
Q 1584 2216 1326 1975 
Q 1069 1734 1069 1313 
Q 1069 891 1326 650 
Q 1584 409 2034 409 
Q 2484 409 2743 651 
Q 3003 894 3003 1313 
Q 3003 1734 2745 1975 
Q 2488 2216 2034 2216 
z
M 1403 2484 
Q 997 2584 770 2862 
Q 544 3141 544 3541 
Q 544 4100 942 4425 
Q 1341 4750 2034 4750 
Q 2731 4750 3128 4425 
Q 3525 4100 3525 3541 
Q 3525 3141 3298 2862 
Q 3072 2584 2669 2484 
Q 3125 2378 3379 2068 
Q 3634 1759 3634 1313 
Q 3634 634 3220 271 
Q 2806 -91 2034 -91 
Q 1263 -91 848 271 
Q 434 634 434 1313 
Q 434 1759 690 2068 
Q 947 2378 1403 2484 
z
M 1172 3481 
Q 1172 3119 1398 2916 
Q 1625 2713 2034 2713 
Q 2441 2713 2670 2916 
Q 2900 3119 2900 3481 
Q 2900 3844 2670 4047 
Q 2441 4250 2034 4250 
Q 1625 4250 1398 4047 
Q 1172 3844 1172 3481 
z
" id="DejaVuSans-38" transform="scale(0.015625)"/>
       </defs>
       <use xlink:href="#DejaVuSans-38"/>
       <use x="63.623047" xlink:href="#DejaVuSans-30"/>
      </g>
     </g>
    </g>
    <g id="text_10">
     <!-- wall separation $d$ [$a$] -->
     <g transform="translate(243.7 412.758125)scale(0.1 -0.1)">
      <defs>
       <path d="M 269 3500 
L 844 3500 
L 1563 769 
L 2278 3500 
L 2956 3500 
L 3675 769 
L 4391 3500 
L 4966 3500 
L 4050 0 
L 3372 0 
L 2619 2869 
L 1863 0 
L 1184 0 
L 269 3500 
z
" id="DejaVuSans-77" transform="scale(0.015625)"/>
       <path d="M 2194 1759 
Q 1497 1759 1228 1600 
Q 959 1441 959 1056 
Q 959 750 1161 570 
Q 1363 391 1709 391 
Q 2188 391 2477 730 
Q 2766 1069 2766 1631 
L 2766 1759 
L 2194 1759 
z
M 3341 1997 
L 3341 0 
L 2766 0 
L 2766 531 
Q 2569 213 2275 61 
Q 1981 -91 1556 -91 
Q 1019 -91 701 211 
Q 384 513 384 1019 
Q 384 1609 779 1909 
Q 1175 2209 1959 2209 
L 2766 2209 
L 2766 2266 
Q 2766 2663 2505 2880 
Q 2244 3097 1772 3097 
Q 1472 3097 1187 3025 
Q 903 2953 641 2809 
L 641 3341 
Q 956 3463 1253 3523 
Q 1550 3584 1831 3584 
Q 2591 3584 2966 3190 
Q 3341 2797 3341 1997 
z
" id="DejaVuSans-61" transform="scale(0.015625)"/>
       <path d="M 603 4863 
L 1178 4863 
L 1178 0 
L 603 0 
L 603 4863 
z
" id="DejaVuSans-6c" transform="scale(0.015625)"/>
       <path id="DejaVuSans-20" transform="scale(0.015625)"/>
       <path d="M 2834 3397 
L 2834 2853 
Q 2591 2978 2328 3040 
Q 2066 3103 1784 3103 
Q 1356 3103 1142 2972 
Q 928 2841 928 2578 
Q 928 2378 1081 2264 
Q 1234 2150 1697 2047 
L 1894 2003 
Q 2506 1872 2764 1633 
Q 3022 1394 3022 966 
Q 3022 478 2636 193 
Q 2250 -91 1575 -91 
Q 1294 -91 989 -36 
Q 684 19 347 128 
L 347 722 
Q 666 556 975 473 
Q 1284 391 1588 391 
Q 1994 391 2212 530 
Q 2431 669 2431 922 
Q 2431 1156 2273 1281 
Q 2116 1406 1581 1522 
L 1381 1569 
Q 847 1681 609 1914 
Q 372 2147 372 2553 
Q 372 3047 722 3315 
Q 1072 3584 1716 3584 
Q 2034 3584 2315 3537 
Q 2597 3491 2834 3397 
z
" id="DejaVuSans-73" transform="scale(0.015625)"/>
       <path d="M 3597 1894 
L 3597 1613 
L 953 1613 
Q 991 1019 1311 708 
Q 1631 397 2203 397 
Q 2534 397 2845 478 
Q 3156 559 3463 722 
L 3463 178 
Q 3153 47 2828 -22 
Q 2503 -91 2169 -91 
Q 1331 -91 842 396 
Q 353 884 353 1716 
Q 353 2575 817 3079 
Q 1281 3584 2069 3584 
Q 2775 3584 3186 3129 
Q 3597 2675 3597 1894 
z
M 3022 2063 
Q 3016 2534 2758 2815 
Q 2500 3097 2075 3097 
Q 1594 3097 1305 2825 
Q 1016 2553 972 2059 
L 3022 2063 
z
" id="DejaVuSans-65" transform="scale(0.015625)"/>
       <path d="M 1159 525 
L 1159 -1331 
L 581 -1331 
L 581 3500 
L 1159 3500 
L 1159 2969 
Q 1341 3281 1617 3432 
Q 1894 3584 2278 3584 
Q 2916 3584 3314 3078 
Q 3713 2572 3713 1747 
Q 3713 922 3314 415 
Q 2916 -91 2278 -91 
Q 1894 -91 1617 61 
Q 1341 213 1159 525 
z
M 3116 1747 
Q 3116 2381 2855 2742 
Q 2594 3103 2138 3103 
Q 1681 3103 1420 2742 
Q 1159 2381 1159 1747 
Q 1159 1113 1420 752 
Q 1681 391 2138 391 
Q 2594 391 2855 752 
Q 3116 1113 3116 1747 
z
" id="DejaVuSans-70" transform="scale(0.015625)"/>
       <path d="M 2631 2963 
Q 2534 3019 2420 3045 
Q 2306 3072 2169 3072 
Q 1681 3072 1420 2755 
Q 1159 2438 1159 1844 
L 1159 0 
L 581 0 
L 581 3500 
L 1159 3500 
L 1159 2956 
Q 1341 3275 1631 3429 
Q 1922 3584 2338 3584 
Q 2397 3584 2469 3576 
Q 2541 3569 2628 3553 
L 2631 2963 
z
" id="DejaVuSans-72" transform="scale(0.015625)"/>
       <path d="M 1172 4494 
L 1172 3500 
L 2356 3500 
L 2356 3053 
L 1172 3053 
L 1172 1153 
Q 1172 725 1289 603 
Q 1406 481 1766 481 
L 2356 481 
L 2356 0 
L 1766 0 
Q 1100 0 847 248 
Q 594 497 594 1153 
L 594 3053 
L 172 3053 
L 172 3500 
L 594 3500 
L 594 4494 
L 1172 4494 
z
" id="DejaVuSans-74" transform="scale(0.015625)"/>
       <path d="M 603 3500 
L 1178 3500 
L 1178 0 
L 603 0 
L 603 3500 
z
M 603 4863 
L 1178 4863 
L 1178 4134 
L 603 4134 
L 603 4863 
z
" id="DejaVuSans-69" transform="scale(0.015625)"/>
       <path d="M 1959 3097 
Q 1497 3097 1228 2736 
Q 959 2375 959 1747 
Q 959 1119 1226 758 
Q 1494 397 1959 397 
Q 2419 397 2687 759 
Q 2956 1122 2956 1747 
Q 2956 2369 2687 2733 
Q 2419 3097 1959 3097 
z
M 1959 3584 
Q 2709 3584 3137 3096 
Q 3566 2609 3566 1747 
Q 3566 888 3137 398 
Q 2709 -91 1959 -91 
Q 1206 -91 779 398 
Q 353 888 353 1747 
Q 353 2609 779 3096 
Q 1206 3584 1959 3584 
z
" id="DejaVuSans-6f" transform="scale(0.015625)"/>
       <path d="M 3513 2113 
L 3513 0 
L 2938 0 
L 2938 2094 
Q 2938 2591 2744 2837 
Q 2550 3084 2163 3084 
Q 1697 3084 1428 2787 
Q 1159 2491 1159 1978 
L 1159 0 
L 581 0 
L 581 3500 
L 1159 3500 
L 1159 2956 
Q 1366 3272 1645 3428 
Q 1925 3584 2291 3584 
Q 2894 3584 3203 3211 
Q 3513 2838 3513 2113 
z
" id="DejaVuSans-6e" transform="scale(0.015625)"/>
       <path d="M 2675 525 
Q 2444 222 2128 65 
Q 1813 -91 1428 -91 
Q 903 -91 598 267 
Q 294 625 294 1247 
Q 294 1766 478 2236 
Q 663 2706 1013 3078 
Q 1244 3325 1534 3454 
Q 1825 3584 2144 3584 
Q 2481 3584 2739 3421 
Q 2997 3259 3138 2956 
L 3513 4863 
L 4091 4863 
L 3144 0 
L 2566 0 
L 2675 525 
z
M 891 1350 
Q 891 897 1095 644 
Q 1300 391 1663 391 
Q 1931 391 2161 520 
Q 2391 650 2566 903 
Q 2750 1166 2856 1509 
Q 2963 1853 2963 2188 
Q 2963 2622 2758 2865 
Q 2553 3109 2194 3109 
Q 1922 3109 1687 2981 
Q 1453 2853 1288 2613 
Q 1106 2353 998 2009 
Q 891 1666 891 1350 
z
" id="DejaVuSans-Oblique-64" transform="scale(0.015625)"/>
       <path d="M 550 4863 
L 1875 4863 
L 1875 4416 
L 1125 4416 
L 1125 -397 
L 1875 -397 
L 1875 -844 
L 550 -844 
L 550 4863 
z
" id="DejaVuSans-5b" transform="scale(0.015625)"/>
       <path d="M 3438 1997 
L 3047 0 
L 2472 0 
L 2578 531 
Q 2325 219 2001 64 
Q 1678 -91 1281 -91 
Q 834 -91 548 182 
Q 263 456 263 884 
Q 263 1497 752 1853 
Q 1241 2209 2100 2209 
L 2900 2209 
L 2931 2363 
Q 2938 2388 2941 2417 
Q 2944 2447 2944 2509 
Q 2944 2788 2717 2942 
Q 2491 3097 2081 3097 
Q 1800 3097 1504 3025 
Q 1209 2953 897 2809 
L 997 3341 
Q 1322 3463 1633 3523 
Q 1944 3584 2234 3584 
Q 2853 3584 3176 3315 
Q 3500 3047 3500 2534 
Q 3500 2431 3484 2292 
Q 3469 2153 3438 1997 
z
M 2816 1759 
L 2241 1759 
Q 1534 1759 1195 1570 
Q 856 1381 856 984 
Q 856 709 1029 553 
Q 1203 397 1509 397 
Q 1978 397 2328 733 
Q 2678 1069 2791 1631 
L 2816 1759 
z
" id="DejaVuSans-Oblique-61" transform="scale(0.015625)"/>
       <path d="M 1947 4863 
L 1947 -844 
L 622 -844 
L 622 -397 
L 1369 -397 
L 1369 4416 
L 622 4416 
L 622 4863 
L 1947 4863 
z
" id="DejaVuSans-5d" transform="scale(0.015625)"/>
      </defs>
      <use transform="translate(0 0.015625)" xlink:href="#DejaVuSans-77"/>
      <use transform="translate(81.787109 0.015625)" xlink:href="#DejaVuSans-61"/>
      <use transform="translate(143.066406 0.015625)" xlink:href="#DejaVuSans-6c"/>
      <use transform="translate(170.849609 0.015625)" xlink:href="#DejaVuSans-6c"/>
      <use transform="translate(198.632812 0.015625)" xlink:href="#DejaVuSans-20"/>
      <use transform="translate(230.419922 0.015625)" xlink:href="#DejaVuSans-73"/>
      <use transform="translate(282.519531 0.015625)" xlink:href="#DejaVuSans-65"/>
      <use transform="translate(344.042969 0.015625)" xlink:href="#DejaVuSans-70"/>
      <use transform="translate(407.519531 0.015625)" xlink:href="#DejaVuSans-61"/>
      <use transform="translate(468.798828 0.015625)" xlink:href="#DejaVuSans-72"/>
      <use transform="translate(509.912109 0.015625)" xlink:href="#DejaVuSans-61"/>
      <use transform="translate(571.191406 0.015625)" xlink:href="#DejaVuSans-74"/>
      <use transform="translate(610.400391 0.015625)" xlink:href="#DejaVuSans-69"/>
      <use transform="translate(638.183594 0.015625)" xlink:href="#DejaVuSans-6f"/>
      <use transform="translate(699.365234 0.015625)" xlink:href="#DejaVuSans-6e"/>
      <use transform="translate(762.744141 0.015625)" xlink:href="#DejaVuSans-20"/>
      <use transform="translate(794.53125 0.015625)" xlink:href="#DejaVuSans-Oblique-64"/>
      <use transform="translate(858.007812 0.015625)" xlink:href="#DejaVuSans-20"/>
      <use transform="translate(889.794922 0.015625)" xlink:href="#DejaVuSans-5b"/>
      <use transform="translate(928.808594 0.015625)" xlink:href="#DejaVuSans-Oblique-61"/>
      <use transform="translate(990.087891 0.015625)" xlink:href="#DejaVuSans-5d"/>
     </g>
    </g>
   </g>
   <g id="matplotlib.axis_2">
    <g id="ytick_1">
     <g id="line2d_10">
      <defs>
       <path d="M 0 0 
L -3.5 0 
" id="mb41f94ac16" style="stroke:#000000;stroke-width:0.8;"/>
      </defs>
      <g>
       <use style="stroke:#000000;stroke-width:0.8;" x="72" xlink:href="#mb41f94ac16" y="367.915879"/>
      </g>
     </g>
     <g id="text_11">
      <!-- 0.0 -->
      <g transform="translate(49.096875 371.715098)scale(0.1 -0.1)">
       <defs>
        <path d="M 684 794 
L 1344 794 
L 1344 0 
L 684 0 
L 684 794 
z
" id="DejaVuSans-2e" transform="scale(0.015625)"/>
       </defs>
       <use xlink:href="#DejaVuSans-30"/>
       <use x="63.623047" xlink:href="#DejaVuSans-2e"/>
       <use x="95.410156" xlink:href="#DejaVuSans-30"/>
      </g>
     </g>
    </g>
    <g id="ytick_2">
     <g id="line2d_11">
      <g>
       <use style="stroke:#000000;stroke-width:0.8;" x="72" xlink:href="#mb41f94ac16" y="308.15606"/>
      </g>
     </g>
     <g id="text_12">
      <!-- 0.2 -->
      <g transform="translate(49.096875 311.955279)scale(0.1 -0.1)">
       <use xlink:href="#DejaVuSans-30"/>
       <use x="63.623047" xlink:href="#DejaVuSans-2e"/>
       <use x="95.410156" xlink:href="#DejaVuSans-32"/>
      </g>
     </g>
    </g>
    <g id="ytick_3">
     <g id="line2d_12">
      <g>
       <use style="stroke:#000000;stroke-width:0.8;" x="72" xlink:href="#mb41f94ac16" y="248.396242"/>
      </g>
     </g>
     <g id="text_13">
      <!-- 0.4 -->
      <g transform="translate(49.096875 252.19546)scale(0.1 -0.1)">
       <use xlink:href="#DejaVuSans-30"/>
       <use x="63.623047" xlink:href="#DejaVuSans-2e"/>
       <use x="95.410156" xlink:href="#DejaVuSans-34"/>
      </g>
     </g>
    </g>
    <g id="ytick_4">
     <g id="line2d_13">
      <g>
       <use style="stroke:#000000;stroke-width:0.8;" x="72" xlink:href="#mb41f94ac16" y="188.636423"/>
      </g>
     </g>
     <g id="text_14">
      <!-- 0.6 -->
      <g transform="translate(49.096875 192.435642)scale(0.1 -0.1)">
       <use xlink:href="#DejaVuSans-30"/>
       <use x="63.623047" xlink:href="#DejaVuSans-2e"/>
       <use x="95.410156" xlink:href="#DejaVuSans-36"/>
      </g>
     </g>
    </g>
    <g id="ytick_5">
     <g id="line2d_14">
      <g>
       <use style="stroke:#000000;stroke-width:0.8;" x="72" xlink:href="#mb41f94ac16" y="128.876604"/>
      </g>
     </g>
     <g id="text_15">
      <!-- 0.8 -->
      <g transform="translate(49.096875 132.675823)scale(0.1 -0.1)">
       <use xlink:href="#DejaVuSans-30"/>
       <use x="63.623047" xlink:href="#DejaVuSans-2e"/>
       <use x="95.410156" xlink:href="#DejaVuSans-38"/>
      </g>
     </g>
    </g>
    <g id="ytick_6">
     <g id="line2d_15">
      <g>
       <use style="stroke:#000000;stroke-width:0.8;" x="72" xlink:href="#mb41f94ac16" y="69.116785"/>
      </g>
     </g>
     <g id="text_16">
      <!-- 1.0 -->
      <g transform="translate(49.096875 72.916004)scale(0.1 -0.1)">
       <use xlink:href="#DejaVuSans-31"/>
       <use x="63.623047" xlink:href="#DejaVuSans-2e"/>
       <use x="95.410156" xlink:href="#DejaVuSans-30"/>
      </g>
     </g>
    </g>
    <g id="text_17">
     <!-- wall wall correlsssation $C_{ww}(d)$ -->
     <g transform="translate(43.017187 294.11)rotate(-90)scale(0.1 -0.1)">
      <defs>
       <path d="M 3122 3366 
L 3122 2828 
Q 2878 2963 2633 3030 
Q 2388 3097 2138 3097 
Q 1578 3097 1268 2742 
Q 959 2388 959 1747 
Q 959 1106 1268 751 
Q 1578 397 2138 397 
Q 2388 397 2633 464 
Q 2878 531 3122 666 
L 3122 134 
Q 2881 22 2623 -34 
Q 2366 -91 2075 -91 
Q 1284 -91 818 406 
Q 353 903 353 1747 
Q 353 2603 823 3093 
Q 1294 3584 2113 3584 
Q 2378 3584 2631 3529 
Q 2884 3475 3122 3366 
z
" id="DejaVuSans-63" transform="scale(0.015625)"/>
       <path d="M 4447 4306 
L 4319 3641 
Q 4019 3944 3683 4091 
Q 3347 4238 2956 4238 
Q 2422 4238 2017 3981 
Q 1613 3725 1319 3200 
Q 1131 2863 1032 2486 
Q 934 2109 934 1728 
Q 934 1091 1264 756 
Q 1594 422 2222 422 
Q 2656 422 3056 561 
Q 3456 700 3834 978 
L 3688 231 
Q 3316 72 2936 -9 
Q 2556 -91 2175 -91 
Q 1278 -91 773 396 
Q 269 884 269 1753 
Q 269 2309 461 2846 
Q 653 3384 1013 3828 
Q 1394 4300 1883 4525 
Q 2372 4750 3022 4750 
Q 3422 4750 3780 4639 
Q 4138 4528 4447 4306 
z
" id="DejaVuSans-Oblique-43" transform="scale(0.015625)"/>
       <path d="M 544 3500 
L 1113 3500 
L 1259 684 
L 2566 3500 
L 3231 3500 
L 3425 684 
L 4666 3500 
L 5241 3500 
L 3641 0 
L 2969 0 
L 2797 2900 
L 1459 0 
L 781 0 
L 544 3500 
z
" id="DejaVuSans-Oblique-77" transform="scale(0.015625)"/>
       <path d="M 1984 4856 
Q 1566 4138 1362 3434 
Q 1159 2731 1159 2009 
Q 1159 1288 1364 580 
Q 1569 -128 1984 -844 
L 1484 -844 
Q 1016 -109 783 600 
Q 550 1309 550 2009 
Q 550 2706 781 3412 
Q 1013 4119 1484 4856 
L 1984 4856 
z
" id="DejaVuSans-28" transform="scale(0.015625)"/>
       <path d="M 513 4856 
L 1013 4856 
Q 1481 4119 1714 3412 
Q 1947 2706 1947 2009 
Q 1947 1309 1714 600 
Q 1481 -109 1013 -844 
L 513 -844 
Q 928 -128 1133 580 
Q 1338 1288 1338 2009 
Q 1338 2731 1133 3434 
Q 928 4138 513 4856 
z
" id="DejaVuSans-29" transform="scale(0.015625)"/>
      </defs>
      <use transform="translate(0 0.015625)" xlink:href="#DejaVuSans-77"/>
      <use transform="translate(81.787109 0.015625)" xlink:href="#DejaVuSans-61"/>
      <use transform="translate(143.066406 0.015625)" xlink:href="#DejaVuSans-6c"/>
      <use transform="translate(170.849609 0.015625)" xlink:href="#DejaVuSans-6c"/>
      <use transform="translate(198.632812 0.015625)" xlink:href="#DejaVuSans-20"/>
      <use transform="translate(230.419922 0.015625)" xlink:href="#DejaVuSans-77"/>
      <use transform="translate(312.207031 0.015625)" xlink:href="#DejaVuSans-61"/>
      <use transform="translate(373.486328 0.015625)" xlink:href="#DejaVuSans-6c"/>
      <use transform="translate(401.269531 0.015625)" xlink:href="#DejaVuSans-6c"/>
      <use transform="translate(429.052734 0.015625)" xlink:href="#DejaVuSans-20"/>
      <use transform="translate(460.839844 0.015625)" xlink:href="#DejaVuSans-63"/>
      <use transform="translate(515.820312 0.015625)" xlink:href="#DejaVuSans-6f"/>
      <use transform="translate(577.001953 0.015625)" xlink:href="#DejaVuSans-72"/>
      <use transform="translate(618.115234 0.015625)" xlink:href="#DejaVuSans-72"/>
      <use transform="translate(659.228516 0.015625)" xlink:href="#DejaVuSans-65"/>
      <use transform="translate(720.751953 0.015625)" xlink:href="#DejaVuSans-6c"/>
      <use transform="translate(748.535156 0.015625)" xlink:href="#DejaVuSans-73"/>
      <use transform="translate(800.634766 0.015625)" xlink:href="#DejaVuSans-73"/>
      <use transform="translate(852.734375 0.015625)" xlink:href="#DejaVuSans-73"/>
      <use transform="translate(904.833984 0.015625)" xlink:href="#DejaVuSans-61"/>
      <use transform="translate(966.113281 0.015625)" xlink:href="#DejaVuSans-74"/>
      <use transform="translate(1005.322266 0.015625)" xlink:href="#DejaVuSans-69"/>
      <use transform="translate(1033.105469 0.015625)" xlink:href="#DejaVuSans-6f"/>
      <use transform="translate(1094.287109 0.015625)" xlink:href="#DejaVuSans-6e"/>
      <use transform="translate(1157.666016 0.015625)" xlink:href="#DejaVuSans-20"/>
      <use transform="translate(1189.453125 0.015625)" xlink:href="#DejaVuSans-Oblique-43"/>
      <use transform="translate(1259.277344 -16.390625)scale(0.7)" xlink:href="#DejaVuSans-Oblique-77"/>
      <use transform="translate(1316.52832 -16.390625)scale(0.7)" xlink:href="#DejaVuSans-Oblique-77"/>
      <use transform="translate(1376.513672 0.015625)" xlink:href="#DejaVuSans-28"/>
      <use transform="translate(1415.527344 0.015625)" xlink:href="#DejaVuSans-Oblique-64"/>
      <use transform="translate(1479.003906 0.015625)" xlink:href="#DejaVuSans-29"/>
     </g>
    </g>
   </g>
   <g id="LineCollection_1">
    <path clip-path="url(#p38bcbed23c)" d="M 92.290909 71.27357 
L 92.290909 66.96 
" style="fill:none;stroke:#1f77b4;stroke-width:1.5;"/>
    <path clip-path="url(#p38bcbed23c)" d="M 97.30101 111.648269 
L 97.30101 107.335141 
" style="fill:none;stroke:#1f77b4;stroke-width:1.5;"/>
    <path clip-path="url(#p38bcbed23c)" d="M 102.311111 144.061473 
L 102.311111 139.752026 
" style="fill:none;stroke:#1f77b4;stroke-width:1.5;"/>
    <path clip-path="url(#p38bcbed23c)" d="M 107.321212 171.630958 
L 107.321212 167.350205 
" style="fill:none;stroke:#1f77b4;stroke-width:1.5;"/>
    <path clip-path="url(#p38bcbed23c)" d="M 112.331313 195.521808 
L 112.331313 191.270965 
" style="fill:none;stroke:#1f77b4;stroke-width:1.5;"/>
    <path clip-path="url(#p38bcbed23c)" d="M 117.341414 216.386933 
L 117.341414 212.17863 
" style="fill:none;stroke:#1f77b4;stroke-width:1.5;"/>
    <path clip-path="url(#p38bcbed23c)" d="M 122.351515 234.683466 
L 122.351515 230.502437 
" style="fill:none;stroke:#1f77b4;stroke-width:1.5;"/>
    <path clip-path="url(#p38bcbed23c)" d="M 127.361616 250.739772 
L 127.361616 246.609496 
" style="fill:none;stroke:#1f77b4;stroke-width:1.5;"/>
    <path clip-path="url(#p38bcbed23c)" d="M 132.371717 264.845427 
L 132.371717 260.765585 
" style="fill:none;stroke:#1f77b4;stroke-width:1.5;"/>
    <path clip-path="url(#p38bcbed23c)" d="M 137.381818 277.227452 
L 137.381818 273.19588 
" style="fill:none;stroke:#1f77b4;stroke-width:1.5;"/>
    <path clip-path="url(#p38bcbed23c)" d="M 142.391919 288.144064 
L 142.391919 284.166723 
" style="fill:none;stroke:#1f77b4;stroke-width:1.5;"/>
    <path clip-path="url(#p38bcbed23c)" d="M 147.40202 297.704237 
L 147.40202 293.7803 
" style="fill:none;stroke:#1f77b4;stroke-width:1.5;"/>
    <path clip-path="url(#p38bcbed23c)" d="M 152.412121 306.097885 
L 152.412121 302.223571 
" style="fill:none;stroke:#1f77b4;stroke-width:1.5;"/>
    <path clip-path="url(#p38bcbed23c)" d="M 157.422222 313.563363 
L 157.422222 309.736509 
" style="fill:none;stroke:#1f77b4;stroke-width:1.5;"/>
    <path clip-path="url(#p38bcbed23c)" d="M 162.432323 320.050303 
L 162.432323 316.254254 
" style="fill:none;stroke:#1f77b4;stroke-width:1.5;"/>
    <path clip-path="url(#p38bcbed23c)" d="M 167.442424 325.778552 
L 167.442424 321.996852 
" style="fill:none;stroke:#1f77b4;stroke-width:1.5;"/>
    <path clip-path="url(#p38bcbed23c)" d="M 172.452525 330.849437 
L 172.452525 327.075063 
" style="fill:none;stroke:#1f77b4;stroke-width:1.5;"/>
    <path clip-path="url(#p38bcbed23c)" d="M 177.462626 335.26512 
L 177.462626 331.488778 
" style="fill:none;stroke:#1f77b4;stroke-width:1.5;"/>
    <path clip-path="url(#p38bcbed23c)" d="M 182.472727 339.216122 
L 182.472727 335.40869 
" style="fill:none;stroke:#1f77b4;stroke-width:1.5;"/>
    <path clip-path="url(#p38bcbed23c)" d="M 187.482828 342.723813 
L 187.482828 338.913244 
" style="fill:none;stroke:#1f77b4;stroke-width:1.5;"/>
    <path clip-path="url(#p38bcbed23c)" d="M 192.492929 345.825502 
L 192.492929 341.98111 
" style="fill:none;stroke:#1f77b4;stroke-width:1.5;"/>
    <path clip-path="url(#p38bcbed23c)" d="M 197.50303 348.559801 
L 197.50303 344.694713 
" style="fill:none;stroke:#1f77b4;stroke-width:1.5;"/>
    <path clip-path="url(#p38bcbed23c)" d="M 202.513131 351.000606 
L 202.513131 347.113732 
" style="fill:none;stroke:#1f77b4;stroke-width:1.5;"/>
    <path clip-path="url(#p38bcbed23c)" d="M 207.523232 353.207389 
L 207.523232 349.290389 
" style="fill:none;stroke:#1f77b4;stroke-width:1.5;"/>
    <path clip-path="url(#p38bcbed23c)" d="M 212.533333 355.169392 
L 212.533333 351.230323 
" style="fill:none;stroke:#1f77b4;stroke-width:1.5;"/>
    <path clip-path="url(#p38bcbed23c)" d="M 217.543434 356.947946 
L 217.543434 352.982233 
" style="fill:none;stroke:#1f77b4;stroke-width:1.5;"/>
    <path clip-path="url(#p38bcbed23c)" d="M 222.553535 358.521055 
L 222.553535 354.526275 
" style="fill:none;stroke:#1f77b4;stroke-width:1.5;"/>
    <path clip-path="url(#p38bcbed23c)" d="M 227.563636 359.927197 
L 227.563636 355.8942 
" style="fill:none;stroke:#1f77b4;stroke-width:1.5;"/>
    <path clip-path="url(#p38bcbed23c)" d="M 232.573737 361.193599 
L 232.573737 357.108924 
" style="fill:none;stroke:#1f77b4;stroke-width:1.5;"/>
    <path clip-path="url(#p38bcbed23c)" d="M 237.583838 362.332309 
L 237.583838 358.16717 
" style="fill:none;stroke:#1f77b4;stroke-width:1.5;"/>
    <path clip-path="url(#p38bcbed23c)" d="M 242.593939 363.341377 
L 242.593939 359.081862 
" style="fill:none;stroke:#1f77b4;stroke-width:1.5;"/>
    <path clip-path="url(#p38bcbed23c)" d="M 247.60404 364.229207 
L 247.60404 359.859337 
" style="fill:none;stroke:#1f77b4;stroke-width:1.5;"/>
    <path clip-path="url(#p38bcbed23c)" d="M 252.614141 365.038535 
L 252.614141 360.56387 
" style="fill:none;stroke:#1f77b4;stroke-width:1.5;"/>
    <path clip-path="url(#p38bcbed23c)" d="M 257.624242 365.794798 
L 257.624242 361.187908 
" style="fill:none;stroke:#1f77b4;stroke-width:1.5;"/>
    <path clip-path="url(#p38bcbed23c)" d="M 262.634343 366.500522 
L 262.634343 361.766859 
" style="fill:none;stroke:#1f77b4;stroke-width:1.5;"/>
    <path clip-path="url(#p38bcbed23c)" d="M 267.644444 367.170726 
L 267.644444 362.325764 
" style="fill:none;stroke:#1f77b4;stroke-width:1.5;"/>
    <path clip-path="url(#p38bcbed23c)" d="M 272.654545 367.828222 
L 272.654545 362.894023 
" style="fill:none;stroke:#1f77b4;stroke-width:1.5;"/>
    <path clip-path="url(#p38bcbed23c)" d="M 277.664646 368.387981 
L 277.664646 363.346964 
" style="fill:none;stroke:#1f77b4;stroke-width:1.5;"/>
    <path clip-path="url(#p38bcbed23c)" d="M 282.674747 368.855744 
L 282.674747 363.689572 
" style="fill:none;stroke:#1f77b4;stroke-width:1.5;"/>
    <path clip-path="url(#p38bcbed23c)" d="M 287.684848 369.21172 
L 287.684848 363.966551 
" style="fill:none;stroke:#1f77b4;stroke-width:1.5;"/>
    <path clip-path="url(#p38bcbed23c)" d="M 292.694949 369.36 
L 292.694949 364.074351 
" style="fill:none;stroke:#1f77b4;stroke-width:1.5;"/>
    <path clip-path="url(#p38bcbed23c)" d="M 297.705051 369.36 
L 297.705051 364.074351 
" style="fill:none;stroke:#1f77b4;stroke-width:1.5;"/>
    <path clip-path="url(#p38bcbed23c)" d="M 302.715152 369.21172 
L 302.715152 363.966551 
" style="fill:none;stroke:#1f77b4;stroke-width:1.5;"/>
    <path clip-path="url(#p38bcbed23c)" d="M 307.725253 368.855744 
L 307.725253 363.689572 
" style="fill:none;stroke:#1f77b4;stroke-width:1.5;"/>
    <path clip-path="url(#p38bcbed23c)" d="M 312.735354 368.387981 
L 312.735354 363.346964 
" style="fill:none;stroke:#1f77b4;stroke-width:1.5;"/>
    <path clip-path="url(#p38bcbed23c)" d="M 317.745455 367.828222 
L 317.745455 362.894023 
" style="fill:none;stroke:#1f77b4;stroke-width:1.5;"/>
    <path clip-path="url(#p38bcbed23c)" d="M 322.755556 367.170726 
L 322.755556 362.325764 
" style="fill:none;stroke:#1f77b4;stroke-width:1.5;"/>
    <path clip-path="url(#p38bcbed23c)" d="M 327.765657 366.500522 
L 327.765657 361.766859 
" style="fill:none;stroke:#1f77b4;stroke-width:1.5;"/>
    <path clip-path="url(#p38bcbed23c)" d="M 332.775758 365.794798 
L 332.775758 361.187908 
" style="fill:none;stroke:#1f77b4;stroke-width:1.5;"/>
    <path clip-path="url(#p38bcbed23c)" d="M 337.785859 365.038535 
L 337.785859 360.56387 
" style="fill:none;stroke:#1f77b4;stroke-width:1.5;"/>
    <path clip-path="url(#p38bcbed23c)" d="M 342.79596 364.229207 
L 342.79596 359.859337 
" style="fill:none;stroke:#1f77b4;stroke-width:1.5;"/>
    <path clip-path="url(#p38bcbed23c)" d="M 347.806061 363.341377 
L 347.806061 359.081862 
" style="fill:none;stroke:#1f77b4;stroke-width:1.5;"/>
    <path clip-path="url(#p38bcbed23c)" d="M 352.816162 362.332309 
L 352.816162 358.16717 
" style="fill:none;stroke:#1f77b4;stroke-width:1.5;"/>
    <path clip-path="url(#p38bcbed23c)" d="M 357.826263 361.193599 
L 357.826263 357.108924 
" style="fill:none;stroke:#1f77b4;stroke-width:1.5;"/>
    <path clip-path="url(#p38bcbed23c)" d="M 362.836364 359.927197 
L 362.836364 355.8942 
" style="fill:none;stroke:#1f77b4;stroke-width:1.5;"/>
    <path clip-path="url(#p38bcbed23c)" d="M 367.846465 358.521055 
L 367.846465 354.526275 
" style="fill:none;stroke:#1f77b4;stroke-width:1.5;"/>
    <path clip-path="url(#p38bcbed23c)" d="M 372.856566 356.947946 
L 372.856566 352.982233 
" style="fill:none;stroke:#1f77b4;stroke-width:1.5;"/>
    <path clip-path="url(#p38bcbed23c)" d="M 377.866667 355.169392 
L 377.866667 351.230323 
" style="fill:none;stroke:#1f77b4;stroke-width:1.5;"/>
    <path clip-path="url(#p38bcbed23c)" d="M 382.876768 353.207389 
L 382.876768 349.290389 
" style="fill:none;stroke:#1f77b4;stroke-width:1.5;"/>
    <path clip-path="url(#p38bcbed23c)" d="M 387.886869 351.000606 
L 387.886869 347.113732 
" style="fill:none;stroke:#1f77b4;stroke-width:1.5;"/>
    <path clip-path="url(#p38bcbed23c)" d="M 392.89697 348.559801 
L 392.89697 344.694713 
" style="fill:none;stroke:#1f77b4;stroke-width:1.5;"/>
    <path clip-path="url(#p38bcbed23c)" d="M 397.907071 345.825502 
L 397.907071 341.98111 
" style="fill:none;stroke:#1f77b4;stroke-width:1.5;"/>
    <path clip-path="url(#p38bcbed23c)" d="M 402.917172 342.723813 
L 402.917172 338.913244 
" style="fill:none;stroke:#1f77b4;stroke-width:1.5;"/>
    <path clip-path="url(#p38bcbed23c)" d="M 407.927273 339.216122 
L 407.927273 335.40869 
" style="fill:none;stroke:#1f77b4;stroke-width:1.5;"/>
    <path clip-path="url(#p38bcbed23c)" d="M 412.937374 335.26512 
L 412.937374 331.488778 
" style="fill:none;stroke:#1f77b4;stroke-width:1.5;"/>
    <path clip-path="url(#p38bcbed23c)" d="M 417.947475 330.849437 
L 417.947475 327.075063 
" style="fill:none;stroke:#1f77b4;stroke-width:1.5;"/>
    <path clip-path="url(#p38bcbed23c)" d="M 422.957576 325.778552 
L 422.957576 321.996852 
" style="fill:none;stroke:#1f77b4;stroke-width:1.5;"/>
    <path clip-path="url(#p38bcbed23c)" d="M 427.967677 320.050303 
L 427.967677 316.254254 
" style="fill:none;stroke:#1f77b4;stroke-width:1.5;"/>
    <path clip-path="url(#p38bcbed23c)" d="M 432.977778 313.563363 
L 432.977778 309.736509 
" style="fill:none;stroke:#1f77b4;stroke-width:1.5;"/>
    <path clip-path="url(#p38bcbed23c)" d="M 437.987879 306.097885 
L 437.987879 302.223571 
" style="fill:none;stroke:#1f77b4;stroke-width:1.5;"/>
    <path clip-path="url(#p38bcbed23c)" d="M 442.99798 297.704237 
L 442.99798 293.7803 
" style="fill:none;stroke:#1f77b4;stroke-width:1.5;"/>
    <path clip-path="url(#p38bcbed23c)" d="M 448.008081 288.144064 
L 448.008081 284.166723 
" style="fill:none;stroke:#1f77b4;stroke-width:1.5;"/>
    <path clip-path="url(#p38bcbed23c)" d="M 453.018182 277.227452 
L 453.018182 273.19588 
" style="fill:none;stroke:#1f77b4;stroke-width:1.5;"/>
    <path clip-path="url(#p38bcbed23c)" d="M 458.028283 264.845427 
L 458.028283 260.765585 
" style="fill:none;stroke:#1f77b4;stroke-width:1.5;"/>
    <path clip-path="url(#p38bcbed23c)" d="M 463.038384 250.739772 
L 463.038384 246.609496 
" style="fill:none;stroke:#1f77b4;stroke-width:1.5;"/>
    <path clip-path="url(#p38bcbed23c)" d="M 468.048485 234.683466 
L 468.048485 230.502437 
" style="fill:none;stroke:#1f77b4;stroke-width:1.5;"/>
    <path clip-path="url(#p38bcbed23c)" d="M 473.058586 216.386933 
L 473.058586 212.17863 
" style="fill:none;stroke:#1f77b4;stroke-width:1.5;"/>
    <path clip-path="url(#p38bcbed23c)" d="M 478.068687 195.521808 
L 478.068687 191.270965 
" style="fill:none;stroke:#1f77b4;stroke-width:1.5;"/>
    <path clip-path="url(#p38bcbed23c)" d="M 483.078788 171.630958 
L 483.078788 167.350205 
" style="fill:none;stroke:#1f77b4;stroke-width:1.5;"/>
    <path clip-path="url(#p38bcbed23c)" d="M 488.088889 144.061473 
L 488.088889 139.752026 
" style="fill:none;stroke:#1f77b4;stroke-width:1.5;"/>
    <path clip-path="url(#p38bcbed23c)" d="M 493.09899 111.648269 
L 493.09899 107.335141 
" style="fill:none;stroke:#1f77b4;stroke-width:1.5;"/>
    <path clip-path="url(#p38bcbed23c)" d="M 498.109091 71.27357 
L 498.109091 66.96 
" style="fill:none;stroke:#1f77b4;stroke-width:1.5;"/>
   </g>
   <g id="line2d_16">
    <defs>
     <path d="M 2 0 
L -2 -0 
" id="mfe5910fec0" style="stroke:#1f77b4;"/>
    </defs>
    <g clip-path="url(#p38bcbed23c)">
     <use style="fill:#1f77b4;stroke:#1f77b4;" x="92.290909" xlink:href="#mfe5910fec0" y="71.27357"/>
     <use style="fill:#1f77b4;stroke:#1f77b4;" x="97.30101" xlink:href="#mfe5910fec0" y="111.648269"/>
     <use style="fill:#1f77b4;stroke:#1f77b4;" x="102.311111" xlink:href="#mfe5910fec0" y="144.061473"/>
     <use style="fill:#1f77b4;stroke:#1f77b4;" x="107.321212" xlink:href="#mfe5910fec0" y="171.630958"/>
     <use style="fill:#1f77b4;stroke:#1f77b4;" x="112.331313" xlink:href="#mfe5910fec0" y="195.521808"/>
     <use style="fill:#1f77b4;stroke:#1f77b4;" x="117.341414" xlink:href="#mfe5910fec0" y="216.386933"/>
     <use style="fill:#1f77b4;stroke:#1f77b4;" x="122.351515" xlink:href="#mfe5910fec0" y="234.683466"/>
     <use style="fill:#1f77b4;stroke:#1f77b4;" x="127.361616" xlink:href="#mfe5910fec0" y="250.739772"/>
     <use style="fill:#1f77b4;stroke:#1f77b4;" x="132.371717" xlink:href="#mfe5910fec0" y="264.845427"/>
     <use style="fill:#1f77b4;stroke:#1f77b4;" x="137.381818" xlink:href="#mfe5910fec0" y="277.227452"/>
     <use style="fill:#1f77b4;stroke:#1f77b4;" x="142.391919" xlink:href="#mfe5910fec0" y="288.144064"/>
     <use style="fill:#1f77b4;stroke:#1f77b4;" x="147.40202" xlink:href="#mfe5910fec0" y="297.704237"/>
     <use style="fill:#1f77b4;stroke:#1f77b4;" x="152.412121" xlink:href="#mfe5910fec0" y="306.097885"/>
     <use style="fill:#1f77b4;stroke:#1f77b4;" x="157.422222" xlink:href="#mfe5910fec0" y="313.563363"/>
     <use style="fill:#1f77b4;stroke:#1f77b4;" x="162.432323" xlink:href="#mfe5910fec0" y="320.050303"/>
     <use style="fill:#1f77b4;stroke:#1f77b4;" x="167.442424" xlink:href="#mfe5910fec0" y="325.778552"/>
     <use style="fill:#1f77b4;stroke:#1f77b4;" x="172.452525" xlink:href="#mfe5910fec0" y="330.849437"/>
     <use style="fill:#1f77b4;stroke:#1f77b4;" x="177.462626" xlink:href="#mfe5910fec0" y="335.26512"/>
     <use style="fill:#1f77b4;stroke:#1f77b4;" x="182.472727" xlink:href="#mfe5910fec0" y="339.216122"/>
     <use style="fill:#1f77b4;stroke:#1f77b4;" x="187.482828" xlink:href="#mfe5910fec0" y="342.723813"/>
     <use style="fill:#1f77b4;stroke:#1f77b4;" x="192.492929" xlink:href="#mfe5910fec0" y="345.825502"/>
     <use style="fill:#1f77b4;stroke:#1f77b4;" x="197.50303" xlink:href="#mfe5910fec0" y="348.559801"/>
     <use style="fill:#1f77b4;stroke:#1f77b4;" x="202.513131" xlink:href="#mfe5910fec0" y="351.000606"/>
     <use style="fill:#1f77b4;stroke:#1f77b4;" x="207.523232" xlink:href="#mfe5910fec0" y="353.207389"/>
     <use style="fill:#1f77b4;stroke:#1f77b4;" x="212.533333" xlink:href="#mfe5910fec0" y="355.169392"/>
     <use style="fill:#1f77b4;stroke:#1f77b4;" x="217.543434" xlink:href="#mfe5910fec0" y="356.947946"/>
     <use style="fill:#1f77b4;stroke:#1f77b4;" x="222.553535" xlink:href="#mfe5910fec0" y="358.521055"/>
     <use style="fill:#1f77b4;stroke:#1f77b4;" x="227.563636" xlink:href="#mfe5910fec0" y="359.927197"/>
     <use style="fill:#1f77b4;stroke:#1f77b4;" x="232.573737" xlink:href="#mfe5910fec0" y="361.193599"/>
     <use style="fill:#1f77b4;stroke:#1f77b4;" x="237.583838" xlink:href="#mfe5910fec0" y="362.332309"/>
     <use style="fill:#1f77b4;stroke:#1f77b4;" x="242.593939" xlink:href="#mfe5910fec0" y="363.341377"/>
     <use style="fill:#1f77b4;stroke:#1f77b4;" x="247.60404" xlink:href="#mfe5910fec0" y="364.229207"/>
     <use style="fill:#1f77b4;stroke:#1f77b4;" x="252.614141" xlink:href="#mfe5910fec0" y="365.038535"/>
     <use style="fill:#1f77b4;stroke:#1f77b4;" x="257.624242" xlink:href="#mfe5910fec0" y="365.794798"/>
     <use style="fill:#1f77b4;stroke:#1f77b4;" x="262.634343" xlink:href="#mfe5910fec0" y="366.500522"/>
     <use style="fill:#1f77b4;stroke:#1f77b4;" x="267.644444" xlink:href="#mfe5910fec0" y="367.170726"/>
     <use style="fill:#1f77b4;stroke:#1f77b4;" x="272.654545" xlink:href="#mfe5910fec0" y="367.828222"/>
     <use style="fill:#1f77b4;stroke:#1f77b4;" x="277.664646" xlink:href="#mfe5910fec0" y="368.387981"/>
     <use style="fill:#1f77b4;stroke:#1f77b4;" x="282.674747" xlink:href="#mfe5910fec0" y="368.855744"/>
     <use style="fill:#1f77b4;stroke:#1f77b4;" x="287.684848" xlink:href="#mfe5910fec0" y="369.21172"/>
     <use style="fill:#1f77b4;stroke:#1f77b4;" x="292.694949" xlink:href="#mfe5910fec0" y="369.36"/>
     <use style="fill:#1f77b4;stroke:#1f77b4;" x="297.705051" xlink:href="#mfe5910fec0" y="369.36"/>
     <use style="fill:#1f77b4;stroke:#1f77b4;" x="302.715152" xlink:href="#mfe5910fec0" y="369.21172"/>
     <use style="fill:#1f77b4;stroke:#1f77b4;" x="307.725253" xlink:href="#mfe5910fec0" y="368.855744"/>
     <use style="fill:#1f77b4;stroke:#1f77b4;" x="312.735354" xlink:href="#mfe5910fec0" y="368.387981"/>
     <use style="fill:#1f77b4;stroke:#1f77b4;" x="317.745455" xlink:href="#mfe5910fec0" y="367.828222"/>
     <use style="fill:#1f77b4;stroke:#1f77b4;" x="322.755556" xlink:href="#mfe5910fec0" y="367.170726"/>
     <use style="fill:#1f77b4;stroke:#1f77b4;" x="327.765657" xlink:href="#mfe5910fec0" y="366.500522"/>
     <use style="fill:#1f77b4;stroke:#1f77b4;" x="332.775758" xlink:href="#mfe5910fec0" y="365.794798"/>
     <use style="fill:#1f77b4;stroke:#1f77b4;" x="337.785859" xlink:href="#mfe5910fec0" y="365.038535"/>
     <use style="fill:#1f77b4;stroke:#1f77b4;" x="342.79596" xlink:href="#mfe5910fec0" y="364.229207"/>
     <use style="fill:#1f77b4;stroke:#1f77b4;" x="347.806061" xlink:href="#mfe5910fec0" y="363.341377"/>
     <use style="fill:#1f77b4;stroke:#1f77b4;" x="352.816162" xlink:href="#mfe5910fec0" y="362.332309"/>
     <use style="fill:#1f77b4;stroke:#1f77b4;" x="357.826263" xlink:href="#mfe5910fec0" y="361.193599"/>
     <use style="fill:#1f77b4;stroke:#1f77b4;" x="362.836364" xlink:href="#mfe5910fec0" y="359.927197"/>
     <use style="fill:#1f77b4;stroke:#1f77b4;" x="367.846465" xlink:href="#mfe5910fec0" y="358.521055"/>
     <use style="fill:#1f77b4;stroke:#1f77b4;" x="372.856566" xlink:href="#mfe5910fec0" y="356.947946"/>
     <use style="fill:#1f77b4;stroke:#1f77b4;" x="377.866667" xlink:href="#mfe5910fec0" y="355.169392"/>
     <use style="fill:#1f77b4;stroke:#1f77b4;" x="382.876768" xlink:href="#mfe5910fec0" y="353.207389"/>
     <use style="fill:#1f77b4;stroke:#1f77b4;" x="387.886869" xlink:href="#mfe5910fec0" y="351.000606"/>
     <use style="fill:#1f77b4;stroke:#1f77b4;" x="392.89697" xlink:href="#mfe5910fec0" y="348.559801"/>
     <use style="fill:#1f77b4;stroke:#1f77b4;" x="397.907071" xlink:href="#mfe5910fec0" y="345.825502"/>
     <use style="fill:#1f77b4;stroke:#1f77b4;" x="402.917172" xlink:href="#mfe5910fec0" y="342.723813"/>
     <use style="fill:#1f77b4;stroke:#1f77b4;" x="407.927273" xlink:href="#mfe5910fec0" y="339.216122"/>
     <use style="fill:#1f77b4;stroke:#1f77b4;" x="412.937374" xlink:href="#mfe5910fec0" y="335.26512"/>
     <use style="fill:#1f77b4;stroke:#1f77b4;" x="417.947475" xlink:href="#mfe5910fec0" y="330.849437"/>
     <use style="fill:#1f77b4;stroke:#1f77b4;" x="422.957576" xlink:href="#mfe5910fec0" y="325.778552"/>
     <use style="fill:#1f77b4;stroke:#1f77b4;" x="427.967677" xlink:href="#mfe5910fec0" y="320.050303"/>
     <use style="fill:#1f77b4;stroke:#1f77b4;" x="432.977778" xlink:href="#mfe5910fec0" y="313.563363"/>
     <use style="fill:#1f77b4;stroke:#1f77b4;" x="437.987879" xlink:href="#mfe5910fec0" y="306.097885"/>
     <use style="fill:#1f77b4;stroke:#1f77b4;" x="442.99798" xlink:href="#mfe5910fec0" y="297.704237"/>
     <use style="fill:#1f77b4;stroke:#1f77b4;" x="448.008081" xlink:href="#mfe5910fec0" y="288.144064"/>
     <use style="fill:#1f77b4;stroke:#1f77b4;" x="453.018182" xlink:href="#mfe5910fec0" y="277.227452"/>
     <use style="fill:#1f77b4;stroke:#1f77b4;" x="458.028283" xlink:href="#mfe5910fec0" y="264.845427"/>
     <use style="fill:#1f77b4;stroke:#1f77b4;" x="463.038384" xlink:href="#mfe5910fec0" y="250.739772"/>
     <use style="fill:#1f77b4;stroke:#1f77b4;" x="468.048485" xlink:href="#mfe5910fec0" y="234.683466"/>
     <use style="fill:#1f77b4;stroke:#1f77b4;" x="473.058586" xlink:href="#mfe5910fec0" y="216.386933"/>
     <use style="fill:#1f77b4;stroke:#1f77b4;" x="478.068687" xlink:href="#mfe5910fec0" y="195.521808"/>
     <use style="fill:#1f77b4;stroke:#1f77b4;" x="483.078788" xlink:href="#mfe5910fec0" y="171.630958"/>
     <use style="fill:#1f77b4;stroke:#1f77b4;" x="488.088889" xlink:href="#mfe5910fec0" y="144.061473"/>
     <use style="fill:#1f77b4;stroke:#1f77b4;" x="493.09899" xlink:href="#mfe5910fec0" y="111.648269"/>
     <use style="fill:#1f77b4;stroke:#1f77b4;" x="498.109091" xlink:href="#mfe5910fec0" y="71.27357"/>
    </g>
   </g>
   <g id="line2d_17">
    <g clip-path="url(#p38bcbed23c)">
     <use style="fill:#1f77b4;stroke:#1f77b4;" x="92.290909" xlink:href="#mfe5910fec0" y="66.96"/>
     <use style="fill:#1f77b4;stroke:#1f77b4;" x="97.30101" xlink:href="#mfe5910fec0" y="107.335141"/>
     <use style="fill:#1f77b4;stroke:#1f77b4;" x="102.311111" xlink:href="#mfe5910fec0" y="139.752026"/>
     <use style="fill:#1f77b4;stroke:#1f77b4;" x="107.321212" xlink:href="#mfe5910fec0" y="167.350205"/>
     <use style="fill:#1f77b4;stroke:#1f77b4;" x="112.331313" xlink:href="#mfe5910fec0" y="191.270965"/>
     <use style="fill:#1f77b4;stroke:#1f77b4;" x="117.341414" xlink:href="#mfe5910fec0" y="212.17863"/>
     <use style="fill:#1f77b4;stroke:#1f77b4;" x="122.351515" xlink:href="#mfe5910fec0" y="230.502437"/>
     <use style="fill:#1f77b4;stroke:#1f77b4;" x="127.361616" xlink:href="#mfe5910fec0" y="246.609496"/>
     <use style="fill:#1f77b4;stroke:#1f77b4;" x="132.371717" xlink:href="#mfe5910fec0" y="260.765585"/>
     <use style="fill:#1f77b4;stroke:#1f77b4;" x="137.381818" xlink:href="#mfe5910fec0" y="273.19588"/>
     <use style="fill:#1f77b4;stroke:#1f77b4;" x="142.391919" xlink:href="#mfe5910fec0" y="284.166723"/>
     <use style="fill:#1f77b4;stroke:#1f77b4;" x="147.40202" xlink:href="#mfe5910fec0" y="293.7803"/>
     <use style="fill:#1f77b4;stroke:#1f77b4;" x="152.412121" xlink:href="#mfe5910fec0" y="302.223571"/>
     <use style="fill:#1f77b4;stroke:#1f77b4;" x="157.422222" xlink:href="#mfe5910fec0" y="309.736509"/>
     <use style="fill:#1f77b4;stroke:#1f77b4;" x="162.432323" xlink:href="#mfe5910fec0" y="316.254254"/>
     <use style="fill:#1f77b4;stroke:#1f77b4;" x="167.442424" xlink:href="#mfe5910fec0" y="321.996852"/>
     <use style="fill:#1f77b4;stroke:#1f77b4;" x="172.452525" xlink:href="#mfe5910fec0" y="327.075063"/>
     <use style="fill:#1f77b4;stroke:#1f77b4;" x="177.462626" xlink:href="#mfe5910fec0" y="331.488778"/>
     <use style="fill:#1f77b4;stroke:#1f77b4;" x="182.472727" xlink:href="#mfe5910fec0" y="335.40869"/>
     <use style="fill:#1f77b4;stroke:#1f77b4;" x="187.482828" xlink:href="#mfe5910fec0" y="338.913244"/>
     <use style="fill:#1f77b4;stroke:#1f77b4;" x="192.492929" xlink:href="#mfe5910fec0" y="341.98111"/>
     <use style="fill:#1f77b4;stroke:#1f77b4;" x="197.50303" xlink:href="#mfe5910fec0" y="344.694713"/>
     <use style="fill:#1f77b4;stroke:#1f77b4;" x="202.513131" xlink:href="#mfe5910fec0" y="347.113732"/>
     <use style="fill:#1f77b4;stroke:#1f77b4;" x="207.523232" xlink:href="#mfe5910fec0" y="349.290389"/>
     <use style="fill:#1f77b4;stroke:#1f77b4;" x="212.533333" xlink:href="#mfe5910fec0" y="351.230323"/>
     <use style="fill:#1f77b4;stroke:#1f77b4;" x="217.543434" xlink:href="#mfe5910fec0" y="352.982233"/>
     <use style="fill:#1f77b4;stroke:#1f77b4;" x="222.553535" xlink:href="#mfe5910fec0" y="354.526275"/>
     <use style="fill:#1f77b4;stroke:#1f77b4;" x="227.563636" xlink:href="#mfe5910fec0" y="355.8942"/>
     <use style="fill:#1f77b4;stroke:#1f77b4;" x="232.573737" xlink:href="#mfe5910fec0" y="357.108924"/>
     <use style="fill:#1f77b4;stroke:#1f77b4;" x="237.583838" xlink:href="#mfe5910fec0" y="358.16717"/>
     <use style="fill:#1f77b4;stroke:#1f77b4;" x="242.593939" xlink:href="#mfe5910fec0" y="359.081862"/>
     <use style="fill:#1f77b4;stroke:#1f77b4;" x="247.60404" xlink:href="#mfe5910fec0" y="359.859337"/>
     <use style="fill:#1f77b4;stroke:#1f77b4;" x="252.614141" xlink:href="#mfe5910fec0" y="360.56387"/>
     <use style="fill:#1f77b4;stroke:#1f77b4;" x="257.624242" xlink:href="#mfe5910fec0" y="361.187908"/>
     <use style="fill:#1f77b4;stroke:#1f77b4;" x="262.634343" xlink:href="#mfe5910fec0" y="361.766859"/>
     <use style="fill:#1f77b4;stroke:#1f77b4;" x="267.644444" xlink:href="#mfe5910fec0" y="362.325764"/>
     <use style="fill:#1f77b4;stroke:#1f77b4;" x="272.654545" xlink:href="#mfe5910fec0" y="362.894023"/>
     <use style="fill:#1f77b4;stroke:#1f77b4;" x="277.664646" xlink:href="#mfe5910fec0" y="363.346964"/>
     <use style="fill:#1f77b4;stroke:#1f77b4;" x="282.674747" xlink:href="#mfe5910fec0" y="363.689572"/>
     <use style="fill:#1f77b4;stroke:#1f77b4;" x="287.684848" xlink:href="#mfe5910fec0" y="363.966551"/>
     <use style="fill:#1f77b4;stroke:#1f77b4;" x="292.694949" xlink:href="#mfe5910fec0" y="364.074351"/>
     <use style="fill:#1f77b4;stroke:#1f77b4;" x="297.705051" xlink:href="#mfe5910fec0" y="364.074351"/>
     <use style="fill:#1f77b4;stroke:#1f77b4;" x="302.715152" xlink:href="#mfe5910fec0" y="363.966551"/>
     <use style="fill:#1f77b4;stroke:#1f77b4;" x="307.725253" xlink:href="#mfe5910fec0" y="363.689572"/>
     <use style="fill:#1f77b4;stroke:#1f77b4;" x="312.735354" xlink:href="#mfe5910fec0" y="363.346964"/>
     <use style="fill:#1f77b4;stroke:#1f77b4;" x="317.745455" xlink:href="#mfe5910fec0" y="362.894023"/>
     <use style="fill:#1f77b4;stroke:#1f77b4;" x="322.755556" xlink:href="#mfe5910fec0" y="362.325764"/>
     <use style="fill:#1f77b4;stroke:#1f77b4;" x="327.765657" xlink:href="#mfe5910fec0" y="361.766859"/>
     <use style="fill:#1f77b4;stroke:#1f77b4;" x="332.775758" xlink:href="#mfe5910fec0" y="361.187908"/>
     <use style="fill:#1f77b4;stroke:#1f77b4;" x="337.785859" xlink:href="#mfe5910fec0" y="360.56387"/>
     <use style="fill:#1f77b4;stroke:#1f77b4;" x="342.79596" xlink:href="#mfe5910fec0" y="359.859337"/>
     <use style="fill:#1f77b4;stroke:#1f77b4;" x="347.806061" xlink:href="#mfe5910fec0" y="359.081862"/>
     <use style="fill:#1f77b4;stroke:#1f77b4;" x="352.816162" xlink:href="#mfe5910fec0" y="358.16717"/>
     <use style="fill:#1f77b4;stroke:#1f77b4;" x="357.826263" xlink:href="#mfe5910fec0" y="357.108924"/>
     <use style="fill:#1f77b4;stroke:#1f77b4;" x="362.836364" xlink:href="#mfe5910fec0" y="355.8942"/>
     <use style="fill:#1f77b4;stroke:#1f77b4;" x="367.846465" xlink:href="#mfe5910fec0" y="354.526275"/>
     <use style="fill:#1f77b4;stroke:#1f77b4;" x="372.856566" xlink:href="#mfe5910fec0" y="352.982233"/>
     <use style="fill:#1f77b4;stroke:#1f77b4;" x="377.866667" xlink:href="#mfe5910fec0" y="351.230323"/>
     <use style="fill:#1f77b4;stroke:#1f77b4;" x="382.876768" xlink:href="#mfe5910fec0" y="349.290389"/>
     <use style="fill:#1f77b4;stroke:#1f77b4;" x="387.886869" xlink:href="#mfe5910fec0" y="347.113732"/>
     <use style="fill:#1f77b4;stroke:#1f77b4;" x="392.89697" xlink:href="#mfe5910fec0" y="344.694713"/>
     <use style="fill:#1f77b4;stroke:#1f77b4;" x="397.907071" xlink:href="#mfe5910fec0" y="341.98111"/>
     <use style="fill:#1f77b4;stroke:#1f77b4;" x="402.917172" xlink:href="#mfe5910fec0" y="338.913244"/>
     <use style="fill:#1f77b4;stroke:#1f77b4;" x="407.927273" xlink:href="#mfe5910fec0" y="335.40869"/>
     <use style="fill:#1f77b4;stroke:#1f77b4;" x="412.937374" xlink:href="#mfe5910fec0" y="331.488778"/>
     <use style="fill:#1f77b4;stroke:#1f77b4;" x="417.947475" xlink:href="#mfe5910fec0" y="327.075063"/>
     <use style="fill:#1f77b4;stroke:#1f77b4;" x="422.957576" xlink:href="#mfe5910fec0" y="321.996852"/>
     <use style="fill:#1f77b4;stroke:#1f77b4;" x="427.967677" xlink:href="#mfe5910fec0" y="316.254254"/>
     <use style="fill:#1f77b4;stroke:#1f77b4;" x="432.977778" xlink:href="#mfe5910fec0" y="309.736509"/>
     <use style="fill:#1f77b4;stroke:#1f77b4;" x="437.987879" xlink:href="#mfe5910fec0" y="302.223571"/>
     <use style="fill:#1f77b4;stroke:#1f77b4;" x="442.99798" xlink:href="#mfe5910fec0" y="293.7803"/>
     <use style="fill:#1f77b4;stroke:#1f77b4;" x="448.008081" xlink:href="#mfe5910fec0" y="284.166723"/>
     <use style="fill:#1f77b4;stroke:#1f77b4;" x="453.018182" xlink:href="#mfe5910fec0" y="273.19588"/>
     <use style="fill:#1f77b4;stroke:#1f77b4;" x="458.028283" xlink:href="#mfe5910fec0" y="260.765585"/>
     <use style="fill:#1f77b4;stroke:#1f77b4;" x="463.038384" xlink:href="#mfe5910fec0" y="246.609496"/>
     <use style="fill:#1f77b4;stroke:#1f77b4;" x="468.048485" xlink:href="#mfe5910fec0" y="230.502437"/>
     <use style="fill:#1f77b4;stroke:#1f77b4;" x="473.058586" xlink:href="#mfe5910fec0" y="212.17863"/>
     <use style="fill:#1f77b4;stroke:#1f77b4;" x="478.068687" xlink:href="#mfe5910fec0" y="191.270965"/>
     <use style="fill:#1f77b4;stroke:#1f77b4;" x="483.078788" xlink:href="#mfe5910fec0" y="167.350205"/>
     <use style="fill:#1f77b4;stroke:#1f77b4;" x="488.088889" xlink:href="#mfe5910fec0" y="139.752026"/>
     <use style="fill:#1f77b4;stroke:#1f77b4;" x="493.09899" xlink:href="#mfe5910fec0" y="107.335141"/>
     <use style="fill:#1f77b4;stroke:#1f77b4;" x="498.109091" xlink:href="#mfe5910fec0" y="66.96"/>
    </g>
   </g>
   <g id="line2d_18">
    <path clip-path="url(#p38bcbed23c)" d="M 92.290909 69.116785 
L 95.5038 93.976762 
L 98.71669 116.787539 
L 101.92958 137.718014 
L 105.142471 156.923162 
L 108.355361 174.545183 
L 111.568252 190.714555 
L 114.781142 205.551001 
L 117.994033 219.164373 
L 121.206923 231.65547 
L 124.419813 243.116778 
L 127.632704 253.63316 
L 130.845594 263.282483 
L 134.058485 272.136191 
L 137.271375 280.259842 
L 140.484266 287.713584 
L 143.697156 294.552608 
L 146.910046 300.82755 
L 150.122937 306.584873 
L 153.335827 311.867205 
L 156.548718 316.713658 
L 159.761608 321.160117 
L 162.974498 325.239504 
L 166.187389 328.982025 
L 169.400279 332.415389 
L 172.61317 335.565019 
L 175.82606 338.454235 
L 179.842173 341.731967 
L 183.858286 344.674034 
L 187.874399 347.314483 
L 191.890512 349.683873 
L 195.906625 351.809625 
L 199.922738 353.716342 
L 204.742074 355.746181 
L 209.56141 357.526108 
L 214.380745 359.085797 
L 220.003304 360.661587 
L 225.625862 362.008648 
L 232.051643 363.307094 
L 238.477424 364.385117 
L 245.706427 365.374023 
L 253.738653 366.23785 
L 262.574102 366.948116 
L 272.212773 367.481136 
L 281.851444 367.796202 
L 292.293338 367.915716 
L 302.735232 367.813378 
L 313.177126 367.481136 
L 322.815797 366.948116 
L 331.651246 366.23785 
L 339.683472 365.374023 
L 346.912475 364.385117 
L 353.338256 363.307094 
L 359.764037 362.008648 
L 365.386595 360.661587 
L 371.009154 359.085797 
L 375.828489 357.526108 
L 380.647825 355.746181 
L 385.467161 353.716342 
L 389.483274 351.809625 
L 393.499387 349.683873 
L 397.5155 347.314483 
L 401.531613 344.674034 
L 405.547726 341.731967 
L 409.563839 338.454235 
L 412.776729 335.565019 
L 415.98962 332.415389 
L 419.20251 328.982025 
L 422.4154 325.239504 
L 425.628291 321.160117 
L 428.841181 316.713658 
L 432.054072 311.867205 
L 435.266962 306.584873 
L 438.479853 300.82755 
L 441.692743 294.552608 
L 444.905633 287.713584 
L 448.118524 280.259842 
L 451.331414 272.136191 
L 454.544305 263.282483 
L 457.757195 253.63316 
L 460.970086 243.116778 
L 464.182976 231.65547 
L 467.395866 219.164373 
L 470.608757 205.551001 
L 473.821647 190.714555 
L 477.034538 174.545183 
L 480.247428 156.923162 
L 483.460319 137.718014 
L 486.673209 116.787539 
L 489.886099 93.976762 
L 493.09899 69.116785 
L 493.09899 69.116785 
" style="fill:none;stroke:#008000;stroke-linecap:square;stroke-width:1.5;"/>
   </g>
   <g id="line2d_19">
    <defs>
     <path d="M 0 1.5 
C 0.397805 1.5 0.77937 1.341951 1.06066 1.06066 
C 1.341951 0.77937 1.5 0.397805 1.5 0 
C 1.5 -0.397805 1.341951 -0.77937 1.06066 -1.06066 
C 0.77937 -1.341951 0.397805 -1.5 0 -1.5 
C -0.397805 -1.5 -0.77937 -1.341951 -1.06066 -1.06066 
C -1.341951 -0.77937 -1.5 -0.397805 -1.5 0 
C -1.5 0.397805 -1.341951 0.77937 -1.06066 1.06066 
C -0.77937 1.341951 -0.397805 1.5 0 1.5 
z
" id="mbc5fe7f8bb" style="stroke:#1f77b4;"/>
    </defs>
    <g clip-path="url(#p38bcbed23c)">
     <use style="fill:#1f77b4;stroke:#1f77b4;" x="92.290909" xlink:href="#mbc5fe7f8bb" y="69.116785"/>
     <use style="fill:#1f77b4;stroke:#1f77b4;" x="97.30101" xlink:href="#mbc5fe7f8bb" y="109.491705"/>
     <use style="fill:#1f77b4;stroke:#1f77b4;" x="102.311111" xlink:href="#mbc5fe7f8bb" y="141.90675"/>
     <use style="fill:#1f77b4;stroke:#1f77b4;" x="107.321212" xlink:href="#mbc5fe7f8bb" y="169.490582"/>
     <use style="fill:#1f77b4;stroke:#1f77b4;" x="112.331313" xlink:href="#mbc5fe7f8bb" y="193.396387"/>
     <use style="fill:#1f77b4;stroke:#1f77b4;" x="117.341414" xlink:href="#mbc5fe7f8bb" y="214.282781"/>
     <use style="fill:#1f77b4;stroke:#1f77b4;" x="122.351515" xlink:href="#mbc5fe7f8bb" y="232.592951"/>
     <use style="fill:#1f77b4;stroke:#1f77b4;" x="127.361616" xlink:href="#mbc5fe7f8bb" y="248.674634"/>
     <use style="fill:#1f77b4;stroke:#1f77b4;" x="132.371717" xlink:href="#mbc5fe7f8bb" y="262.805506"/>
     <use style="fill:#1f77b4;stroke:#1f77b4;" x="137.381818" xlink:href="#mbc5fe7f8bb" y="275.211666"/>
     <use style="fill:#1f77b4;stroke:#1f77b4;" x="142.391919" xlink:href="#mbc5fe7f8bb" y="286.155394"/>
     <use style="fill:#1f77b4;stroke:#1f77b4;" x="147.40202" xlink:href="#mbc5fe7f8bb" y="295.742269"/>
     <use style="fill:#1f77b4;stroke:#1f77b4;" x="152.412121" xlink:href="#mbc5fe7f8bb" y="304.160728"/>
     <use style="fill:#1f77b4;stroke:#1f77b4;" x="157.422222" xlink:href="#mbc5fe7f8bb" y="311.649936"/>
     <use style="fill:#1f77b4;stroke:#1f77b4;" x="162.432323" xlink:href="#mbc5fe7f8bb" y="318.152278"/>
     <use style="fill:#1f77b4;stroke:#1f77b4;" x="167.442424" xlink:href="#mbc5fe7f8bb" y="323.887702"/>
     <use style="fill:#1f77b4;stroke:#1f77b4;" x="172.452525" xlink:href="#mbc5fe7f8bb" y="328.96225"/>
     <use style="fill:#1f77b4;stroke:#1f77b4;" x="177.462626" xlink:href="#mbc5fe7f8bb" y="333.376949"/>
     <use style="fill:#1f77b4;stroke:#1f77b4;" x="182.472727" xlink:href="#mbc5fe7f8bb" y="337.312406"/>
     <use style="fill:#1f77b4;stroke:#1f77b4;" x="187.482828" xlink:href="#mbc5fe7f8bb" y="340.818528"/>
     <use style="fill:#1f77b4;stroke:#1f77b4;" x="192.492929" xlink:href="#mbc5fe7f8bb" y="343.903306"/>
     <use style="fill:#1f77b4;stroke:#1f77b4;" x="197.50303" xlink:href="#mbc5fe7f8bb" y="346.627257"/>
     <use style="fill:#1f77b4;stroke:#1f77b4;" x="202.513131" xlink:href="#mbc5fe7f8bb" y="349.057169"/>
     <use style="fill:#1f77b4;stroke:#1f77b4;" x="207.523232" xlink:href="#mbc5fe7f8bb" y="351.248889"/>
     <use style="fill:#1f77b4;stroke:#1f77b4;" x="212.533333" xlink:href="#mbc5fe7f8bb" y="353.199857"/>
     <use style="fill:#1f77b4;stroke:#1f77b4;" x="217.543434" xlink:href="#mbc5fe7f8bb" y="354.965089"/>
     <use style="fill:#1f77b4;stroke:#1f77b4;" x="222.553535" xlink:href="#mbc5fe7f8bb" y="356.523665"/>
     <use style="fill:#1f77b4;stroke:#1f77b4;" x="227.563636" xlink:href="#mbc5fe7f8bb" y="357.910698"/>
     <use style="fill:#1f77b4;stroke:#1f77b4;" x="232.573737" xlink:href="#mbc5fe7f8bb" y="359.151262"/>
     <use style="fill:#1f77b4;stroke:#1f77b4;" x="237.583838" xlink:href="#mbc5fe7f8bb" y="360.249739"/>
     <use style="fill:#1f77b4;stroke:#1f77b4;" x="242.593939" xlink:href="#mbc5fe7f8bb" y="361.211619"/>
     <use style="fill:#1f77b4;stroke:#1f77b4;" x="247.60404" xlink:href="#mbc5fe7f8bb" y="362.044272"/>
     <use style="fill:#1f77b4;stroke:#1f77b4;" x="252.614141" xlink:href="#mbc5fe7f8bb" y="362.801202"/>
     <use style="fill:#1f77b4;stroke:#1f77b4;" x="257.624242" xlink:href="#mbc5fe7f8bb" y="363.491353"/>
     <use style="fill:#1f77b4;stroke:#1f77b4;" x="262.634343" xlink:href="#mbc5fe7f8bb" y="364.13369"/>
     <use style="fill:#1f77b4;stroke:#1f77b4;" x="267.644444" xlink:href="#mbc5fe7f8bb" y="364.748245"/>
     <use style="fill:#1f77b4;stroke:#1f77b4;" x="272.654545" xlink:href="#mbc5fe7f8bb" y="365.361122"/>
     <use style="fill:#1f77b4;stroke:#1f77b4;" x="277.664646" xlink:href="#mbc5fe7f8bb" y="365.867473"/>
     <use style="fill:#1f77b4;stroke:#1f77b4;" x="282.674747" xlink:href="#mbc5fe7f8bb" y="366.272658"/>
     <use style="fill:#1f77b4;stroke:#1f77b4;" x="287.684848" xlink:href="#mbc5fe7f8bb" y="366.589135"/>
     <use style="fill:#1f77b4;stroke:#1f77b4;" x="292.694949" xlink:href="#mbc5fe7f8bb" y="366.717176"/>
     <use style="fill:#1f77b4;stroke:#1f77b4;" x="297.705051" xlink:href="#mbc5fe7f8bb" y="366.717176"/>
     <use style="fill:#1f77b4;stroke:#1f77b4;" x="302.715152" xlink:href="#mbc5fe7f8bb" y="366.589135"/>
     <use style="fill:#1f77b4;stroke:#1f77b4;" x="307.725253" xlink:href="#mbc5fe7f8bb" y="366.272658"/>
     <use style="fill:#1f77b4;stroke:#1f77b4;" x="312.735354" xlink:href="#mbc5fe7f8bb" y="365.867473"/>
     <use style="fill:#1f77b4;stroke:#1f77b4;" x="317.745455" xlink:href="#mbc5fe7f8bb" y="365.361122"/>
     <use style="fill:#1f77b4;stroke:#1f77b4;" x="322.755556" xlink:href="#mbc5fe7f8bb" y="364.748245"/>
     <use style="fill:#1f77b4;stroke:#1f77b4;" x="327.765657" xlink:href="#mbc5fe7f8bb" y="364.13369"/>
     <use style="fill:#1f77b4;stroke:#1f77b4;" x="332.775758" xlink:href="#mbc5fe7f8bb" y="363.491353"/>
     <use style="fill:#1f77b4;stroke:#1f77b4;" x="337.785859" xlink:href="#mbc5fe7f8bb" y="362.801202"/>
     <use style="fill:#1f77b4;stroke:#1f77b4;" x="342.79596" xlink:href="#mbc5fe7f8bb" y="362.044272"/>
     <use style="fill:#1f77b4;stroke:#1f77b4;" x="347.806061" xlink:href="#mbc5fe7f8bb" y="361.211619"/>
     <use style="fill:#1f77b4;stroke:#1f77b4;" x="352.816162" xlink:href="#mbc5fe7f8bb" y="360.249739"/>
     <use style="fill:#1f77b4;stroke:#1f77b4;" x="357.826263" xlink:href="#mbc5fe7f8bb" y="359.151262"/>
     <use style="fill:#1f77b4;stroke:#1f77b4;" x="362.836364" xlink:href="#mbc5fe7f8bb" y="357.910698"/>
     <use style="fill:#1f77b4;stroke:#1f77b4;" x="367.846465" xlink:href="#mbc5fe7f8bb" y="356.523665"/>
     <use style="fill:#1f77b4;stroke:#1f77b4;" x="372.856566" xlink:href="#mbc5fe7f8bb" y="354.965089"/>
     <use style="fill:#1f77b4;stroke:#1f77b4;" x="377.866667" xlink:href="#mbc5fe7f8bb" y="353.199857"/>
     <use style="fill:#1f77b4;stroke:#1f77b4;" x="382.876768" xlink:href="#mbc5fe7f8bb" y="351.248889"/>
     <use style="fill:#1f77b4;stroke:#1f77b4;" x="387.886869" xlink:href="#mbc5fe7f8bb" y="349.057169"/>
     <use style="fill:#1f77b4;stroke:#1f77b4;" x="392.89697" xlink:href="#mbc5fe7f8bb" y="346.627257"/>
     <use style="fill:#1f77b4;stroke:#1f77b4;" x="397.907071" xlink:href="#mbc5fe7f8bb" y="343.903306"/>
     <use style="fill:#1f77b4;stroke:#1f77b4;" x="402.917172" xlink:href="#mbc5fe7f8bb" y="340.818528"/>
     <use style="fill:#1f77b4;stroke:#1f77b4;" x="407.927273" xlink:href="#mbc5fe7f8bb" y="337.312406"/>
     <use style="fill:#1f77b4;stroke:#1f77b4;" x="412.937374" xlink:href="#mbc5fe7f8bb" y="333.376949"/>
     <use style="fill:#1f77b4;stroke:#1f77b4;" x="417.947475" xlink:href="#mbc5fe7f8bb" y="328.96225"/>
     <use style="fill:#1f77b4;stroke:#1f77b4;" x="422.957576" xlink:href="#mbc5fe7f8bb" y="323.887702"/>
     <use style="fill:#1f77b4;stroke:#1f77b4;" x="427.967677" xlink:href="#mbc5fe7f8bb" y="318.152278"/>
     <use style="fill:#1f77b4;stroke:#1f77b4;" x="432.977778" xlink:href="#mbc5fe7f8bb" y="311.649936"/>
     <use style="fill:#1f77b4;stroke:#1f77b4;" x="437.987879" xlink:href="#mbc5fe7f8bb" y="304.160728"/>
     <use style="fill:#1f77b4;stroke:#1f77b4;" x="442.99798" xlink:href="#mbc5fe7f8bb" y="295.742269"/>
     <use style="fill:#1f77b4;stroke:#1f77b4;" x="448.008081" xlink:href="#mbc5fe7f8bb" y="286.155394"/>
     <use style="fill:#1f77b4;stroke:#1f77b4;" x="453.018182" xlink:href="#mbc5fe7f8bb" y="275.211666"/>
     <use style="fill:#1f77b4;stroke:#1f77b4;" x="458.028283" xlink:href="#mbc5fe7f8bb" y="262.805506"/>
     <use style="fill:#1f77b4;stroke:#1f77b4;" x="463.038384" xlink:href="#mbc5fe7f8bb" y="248.674634"/>
     <use style="fill:#1f77b4;stroke:#1f77b4;" x="468.048485" xlink:href="#mbc5fe7f8bb" y="232.592951"/>
     <use style="fill:#1f77b4;stroke:#1f77b4;" x="473.058586" xlink:href="#mbc5fe7f8bb" y="214.282781"/>
     <use style="fill:#1f77b4;stroke:#1f77b4;" x="478.068687" xlink:href="#mbc5fe7f8bb" y="193.396387"/>
     <use style="fill:#1f77b4;stroke:#1f77b4;" x="483.078788" xlink:href="#mbc5fe7f8bb" y="169.490582"/>
     <use style="fill:#1f77b4;stroke:#1f77b4;" x="488.088889" xlink:href="#mbc5fe7f8bb" y="141.90675"/>
     <use style="fill:#1f77b4;stroke:#1f77b4;" x="493.09899" xlink:href="#mbc5fe7f8bb" y="109.491705"/>
     <use style="fill:#1f77b4;stroke:#1f77b4;" x="498.109091" xlink:href="#mbc5fe7f8bb" y="69.116785"/>
    </g>
   </g>
   <g id="patch_3">
    <path d="M 72 384.48 
L 72 51.84 
" style="fill:none;stroke:#000000;stroke-linecap:square;stroke-linejoin:miter;stroke-width:0.8;"/>
   </g>
   <g id="patch_4">
    <path d="M 518.4 384.48 
L 518.4 51.84 
" style="fill:none;stroke:#000000;stroke-linecap:square;stroke-linejoin:miter;stroke-width:0.8;"/>
   </g>
   <g id="patch_5">
    <path d="M 72 384.48 
L 518.4 384.48 
" style="fill:none;stroke:#000000;stroke-linecap:square;stroke-linejoin:miter;stroke-width:0.8;"/>
   </g>
   <g id="patch_6">
    <path d="M 72 51.84 
L 518.4 51.84 
" style="fill:none;stroke:#000000;stroke-linecap:square;stroke-linejoin:miter;stroke-width:0.8;"/>
   </g>
   <g id="legend_1">
    <g id="patch_7">
     <path d="M 366.84 94.704 
L 510 94.704 
Q 512.4 94.704 512.4 92.304 
L 512.4 60.24 
Q 512.4 57.84 510 57.84 
L 366.84 57.84 
Q 364.44 57.84 364.44 60.24 
L 364.44 92.304 
Q 364.44 94.704 366.84 94.704 
z
" style="fill:#ffffff;opacity:0.8;stroke:#cccccc;stroke-linejoin:miter;"/>
    </g>
    <g id="line2d_20">
     <path d="M 369.24 76.631062 
L 393.24 76.631062 
" style="fill:none;stroke:#008000;stroke-linecap:square;stroke-width:1.5;"/>
    </g>
    <g id="line2d_21"/>
    <g id="text_18">
     <!-- $\xi = 7.455 \pm 0.029$ -->
     <g transform="translate(402.84 71.76)scale(0.12 -0.12)">
      <defs>
       <path d="M 2016 397 
Q 2428 394 2628 159 
Q 2844 -88 2772 -463 
Q 2700 -822 2422 -1072 
Q 2119 -1344 1609 -1344 
Q 1656 -1109 1700 -872 
Q 1913 -888 2072 -750 
Q 2194 -641 2216 -525 
Q 2247 -359 2175 -222 
Q 2100 -91 1922 -91 
Q -25 -91 241 1275 
Q 422 2213 1516 2488 
Q 663 2600 822 3413 
Q 941 4028 1678 4284 
L 1028 4284 
L 1141 4863 
L 3606 4863 
L 3494 4284 
Q 1528 4284 1350 3375 
Q 1234 2778 2881 2750 
L 2778 2219 
Q 1009 2288 819 1275 
Q 659 428 2016 397 
z
" id="DejaVuSans-Oblique-3be" transform="scale(0.015625)"/>
       <path d="M 678 2906 
L 4684 2906 
L 4684 2381 
L 678 2381 
L 678 2906 
z
M 678 1631 
L 4684 1631 
L 4684 1100 
L 678 1100 
L 678 1631 
z
" id="DejaVuSans-3d" transform="scale(0.015625)"/>
       <path d="M 2944 4013 
L 2944 2803 
L 4684 2803 
L 4684 2272 
L 2944 2272 
L 2944 1063 
L 2419 1063 
L 2419 2272 
L 678 2272 
L 678 2803 
L 2419 2803 
L 2419 4013 
L 2944 4013 
z
M 678 531 
L 4684 531 
L 4684 0 
L 678 0 
L 678 531 
z
" id="DejaVuSans-b1" transform="scale(0.015625)"/>
       <path d="M 703 97 
L 703 672 
Q 941 559 1184 500 
Q 1428 441 1663 441 
Q 2288 441 2617 861 
Q 2947 1281 2994 2138 
Q 2813 1869 2534 1725 
Q 2256 1581 1919 1581 
Q 1219 1581 811 2004 
Q 403 2428 403 3163 
Q 403 3881 828 4315 
Q 1253 4750 1959 4750 
Q 2769 4750 3195 4129 
Q 3622 3509 3622 2328 
Q 3622 1225 3098 567 
Q 2575 -91 1691 -91 
Q 1453 -91 1209 -44 
Q 966 3 703 97 
z
M 1959 2075 
Q 2384 2075 2632 2365 
Q 2881 2656 2881 3163 
Q 2881 3666 2632 3958 
Q 2384 4250 1959 4250 
Q 1534 4250 1286 3958 
Q 1038 3666 1038 3163 
Q 1038 2656 1286 2365 
Q 1534 2075 1959 2075 
z
" id="DejaVuSans-39" transform="scale(0.015625)"/>
      </defs>
      <use transform="translate(0 0.015625)" xlink:href="#DejaVuSans-Oblique-3be"/>
      <use transform="translate(75.244141 0.015625)" xlink:href="#DejaVuSans-3d"/>
      <use transform="translate(178.515625 0.015625)" xlink:href="#DejaVuSans-37"/>
      <use transform="translate(242.138672 0.015625)" xlink:href="#DejaVuSans-2e"/>
      <use transform="translate(273.925781 0.015625)" xlink:href="#DejaVuSans-34"/>
      <use transform="translate(337.548828 0.015625)" xlink:href="#DejaVuSans-35"/>
      <use transform="translate(401.171875 0.015625)" xlink:href="#DejaVuSans-35"/>
      <use transform="translate(484.277344 0.015625)" xlink:href="#DejaVuSans-b1"/>
      <use transform="translate(587.548828 0.015625)" xlink:href="#DejaVuSans-30"/>
      <use transform="translate(651.171875 0.015625)" xlink:href="#DejaVuSans-2e"/>
      <use transform="translate(682.958984 0.015625)" xlink:href="#DejaVuSans-30"/>
      <use transform="translate(746.582031 0.015625)" xlink:href="#DejaVuSans-32"/>
      <use transform="translate(808.455078 0.015625)" xlink:href="#DejaVuSans-39"/>
     </g>
     <!--  $\chi^2/DoF = 22.657$ -->
     <g transform="translate(402.84 87.384)scale(0.12 -0.12)">
      <defs>
       <path d="M 1922 -781 
L 1691 416 
L 394 -1334 
L -284 -1334 
L 1553 1141 
L 1269 2613 
Q 1194 3006 713 3006 
L 559 3006 
L 653 3500 
L 872 3494 
Q 1675 3472 1775 2950 
L 2006 1753 
L 3303 3503 
L 3981 3503 
L 2144 1028 
L 2428 -444 
Q 2503 -838 2984 -838 
L 3138 -838 
L 3044 -1331 
L 2825 -1325 
Q 2022 -1303 1922 -781 
z
" id="DejaVuSans-Oblique-3c7" transform="scale(0.015625)"/>
       <path d="M 1625 4666 
L 2156 4666 
L 531 -594 
L 0 -594 
L 1625 4666 
z
" id="DejaVuSans-2f" transform="scale(0.015625)"/>
       <path d="M 1081 4666 
L 2438 4666 
Q 3519 4666 4070 4208 
Q 4622 3750 4622 2847 
Q 4622 2250 4412 1698 
Q 4203 1147 3834 769 
Q 3463 381 2891 190 
Q 2319 0 1538 0 
L 172 0 
L 1081 4666 
z
M 1613 4147 
L 909 519 
L 1734 519 
Q 2794 519 3375 1128 
Q 3956 1738 3956 2847 
Q 3956 3519 3581 3833 
Q 3206 4147 2406 4147 
L 1613 4147 
z
" id="DejaVuSans-Oblique-44" transform="scale(0.015625)"/>
       <path d="M 1625 -91 
Q 1009 -91 651 289 
Q 294 669 294 1325 
Q 294 1706 417 2101 
Q 541 2497 738 2766 
Q 1047 3184 1428 3384 
Q 1809 3584 2291 3584 
Q 2888 3584 3255 3212 
Q 3622 2841 3622 2241 
Q 3622 1825 3500 1412 
Q 3378 1000 3181 728 
Q 2875 309 2494 109 
Q 2113 -91 1625 -91 
z
M 891 1344 
Q 891 869 1089 633 
Q 1288 397 1691 397 
Q 2269 397 2648 901 
Q 3028 1406 3028 2181 
Q 3028 2634 2825 2865 
Q 2622 3097 2228 3097 
Q 1903 3097 1650 2945 
Q 1397 2794 1197 2484 
Q 1050 2253 970 1956 
Q 891 1659 891 1344 
z
" id="DejaVuSans-Oblique-6f" transform="scale(0.015625)"/>
       <path d="M 1081 4666 
L 3756 4666 
L 3653 4134 
L 1606 4134 
L 1338 2759 
L 3188 2759 
L 3084 2228 
L 1234 2228 
L 800 0 
L 172 0 
L 1081 4666 
z
" id="DejaVuSans-Oblique-46" transform="scale(0.015625)"/>
      </defs>
      <use transform="translate(0 0.765625)" xlink:href="#DejaVuSans-20"/>
      <use transform="translate(31.787109 0.765625)" xlink:href="#DejaVuSans-Oblique-3c7"/>
      <use transform="translate(95.439505 39.046875)scale(0.7)" xlink:href="#DejaVuSans-32"/>
      <use transform="translate(142.710013 0.765625)" xlink:href="#DejaVuSans-2f"/>
      <use transform="translate(176.401419 0.765625)" xlink:href="#DejaVuSans-Oblique-44"/>
      <use transform="translate(253.403372 0.765625)" xlink:href="#DejaVuSans-Oblique-6f"/>
      <use transform="translate(314.585013 0.765625)" xlink:href="#DejaVuSans-Oblique-46"/>
      <use transform="translate(391.586966 0.765625)" xlink:href="#DejaVuSans-3d"/>
      <use transform="translate(494.858451 0.765625)" xlink:href="#DejaVuSans-32"/>
      <use transform="translate(558.481497 0.765625)" xlink:href="#DejaVuSans-32"/>
      <use transform="translate(622.104544 0.765625)" xlink:href="#DejaVuSans-2e"/>
      <use transform="translate(653.891654 0.765625)" xlink:href="#DejaVuSans-36"/>
      <use transform="translate(717.514701 0.765625)" xlink:href="#DejaVuSans-35"/>
      <use transform="translate(773.887747 0.765625)" xlink:href="#DejaVuSans-37"/>
     </g>
    </g>
   </g>
  </g>
 </g>
 <defs>
  <clipPath id="p38bcbed23c">
   <rect height="332.64" width="446.4" x="72" y="51.84"/>
  </clipPath>
 </defs>
</svg>
